  0
SECTION
  2
HEADER
  9
$ACADVER
  1
AC1014
  9
$ACADMAINTVER
 70
     0
  9
$DWGCODEPAGE
  3
ANSI_1252
  9
$INSBASE
 10
0.0
 20
0.0
 30
0.0
  9
$EXTMIN
 10
0.0
 20
0.0
 30
0.0
  9
$EXTMAX
 10
76839.158333
 20
29739.158333
 30
0.0
  9
$LIMMIN
 10
0.0
 20
0.0
  9
$LIMMAX
 10
12.0
 20
9.0
  9
$ORTHOMODE
 70
     0
  9
$REGENMODE
 70
     1
  9
$FILLMODE
 70
     0
  9
$QTEXTMODE
 70
     0
  9
$MIRRTEXT
 70
     1
  9
$DRAGMODE
 70
     2
  9
$LTSCALE
 40
768.391583
  9
$OSMODE
 70
    37
  9
$ATTMODE
 70
     1
  9
$TEXTSIZE
 40
0.2
  9
$TRACEWID
 40
0.05
  9
$TEXTSTYLE
  7
STANDARD
  9
$CLAYER
  8
0
  9
$CELTYPE
  6
BYLAYER
  9
$CECOLOR
 62
   256
  9
$CELTSCALE
 40
1.0
  9
$DELOBJ
 70
     1
  9
$DISPSILH
 70
     0
  9
$DIMSCALE
 40
1.0
  9
$DIMASZ
 40
0.18
  9
$DIMEXO
 40
0.0625
  9
$DIMDLI
 40
0.38
  9
$DIMRND
 40
0.0
  9
$DIMDLE
 40
0.0
  9
$DIMEXE
 40
0.18
  9
$DIMTP
 40
0.0
  9
$DIMTM
 40
0.0
  9
$DIMTXT
 40
0.18
  9
$DIMCEN
 40
0.09
  9
$DIMTSZ
 40
0.0
  9
$DIMTOL
 70
     0
  9
$DIMLIM
 70
     0
  9
$DIMTIH
 70
     0
  9
$DIMTOH
 70
     0
  9
$DIMSE1
 70
     0
  9
$DIMSE2
 70
     0
  9
$DIMTAD
 70
     1
  9
$DIMZIN
 70
     0
  9
$DIMBLK
  1

  9
$DIMASO
 70
     1
  9
$DIMSHO
 70
     1
  9
$DIMPOST
  1

  9
$DIMAPOST
  1

  9
$DIMALT
 70
     0
  9
$DIMALTD
 70
     2
  9
$DIMALTF
 40
25.4
  9
$DIMLFAC
 40
1.0
  9
$DIMTOFL
 70
     0
  9
$DIMTVP
 40
0.0
  9
$DIMTIX
 70
     0
  9
$DIMSOXD
 70
     0
  9
$DIMSAH
 70
     0
  9
$DIMBLK1
  1

  9
$DIMBLK2
  1

  9
$DIMSTYLE
  2
STANDARD
  9
$DIMCLRD
 70
     0
  9
$DIMCLRE
 70
     0
  9
$DIMCLRT
 70
     0
  9
$DIMTFAC
 40
1.0
  9
$DIMGAP
 40
0.09
  9
$DIMJUST
 70
     0
  9
$DIMSD1
 70
     0
  9
$DIMSD2
 70
     0
  9
$DIMTOLJ
 70
     1
  9
$DIMTZIN
 70
     0
  9
$DIMALTZ
 70
     0
  9
$DIMALTTZ
 70
     0
  9
$DIMFIT
 70
     5
  9
$DIMUPT
 70
     0
  9
$DIMUNIT
 70
     2
  9
$DIMDEC
 70
     2
  9
$DIMTDEC
 70
     4
  9
$DIMALTU
 70
     2
  9
$DIMALTTD
 70
     2
  9
$DIMTXSTY
  7
STANDARD
  9
$DIMAUNIT
 70
     0
  9
$LUNITS
 70
     2
  9
$LUPREC
 70
     4
  9
$SKETCHINC
 40
0.1
  9
$FILLETRAD
 40
0.5
  9
$AUNITS
 70
     0
  9
$AUPREC
 70
     0
  9
$MENU
  1
.
  9
$ELEVATION
 40
0.0
  9
$PELEVATION
 40
0.0
  9
$THICKNESS
 40
0.0
  9
$LIMCHECK
 70
     0
  9
$BLIPMODE
 70
     0
  9
$CHAMFERA
 40
0.5
  9
$CHAMFERB
 40
0.5
  9
$CHAMFERC
 40
1.0
  9
$CHAMFERD
 40
0.0
  9
$SKPOLY
 70
     0
  9
$TDCREATE
 40
2450772.666465926
  9
$TDUPDATE
 40
2456420.605300926
  9
$TDINDWG
 40
0.0011565046
  9
$TDUSRTIMER
 40
0.0011565046
  9
$USRTIMER
 70
     1
  9
$ANGBASE
 50
0.0
  9
$ANGDIR
 70
     0
  9
$PDMODE
 70
     0
  9
$PDSIZE
 40
0.0
  9
$PLINEWID
 40
0.0
  9
$COORDS
 70
     1
  9
$SPLFRAME
 70
     0
  9
$SPLINETYPE
 70
     6
  9
$SPLINESEGS
 70
     8
  9
$ATTDIA
 70
     0
  9
$ATTREQ
 70
     1
  9
$HANDLING
 70
     1
  9
$HANDSEED
  5
243
  9
$SURFTAB1
 70
     6
  9
$SURFTAB2
 70
     6
  9
$SURFTYPE
 70
     6
  9
$SURFU
 70
     6
  9
$SURFV
 70
     6
  9
$UCSNAME
  2

  9
$UCSORG
 10
0.0
 20
0.0
 30
0.0
  9
$UCSXDIR
 10
1.0
 20
0.0
 30
0.0
  9
$UCSYDIR
 10
0.0
 20
1.0
 30
0.0
  9
$PUCSNAME
  2

  9
$PUCSORG
 10
0.0
 20
0.0
 30
0.0
  9
$PUCSXDIR
 10
1.0
 20
0.0
 30
0.0
  9
$PUCSYDIR
 10
0.0
 20
1.0
 30
0.0
  9
$USERI1
 70
     0
  9
$USERI2
 70
     0
  9
$USERI3
 70
     0
  9
$USERI4
 70
     0
  9
$USERI5
 70
     0
  9
$USERR1
 40
0.0
  9
$USERR2
 40
0.0
  9
$USERR3
 40
0.0
  9
$USERR4
 40
0.0
  9
$USERR5
 40
0.0
  9
$WORLDVIEW
 70
     1
  9
$SHADEDGE
 70
     3
  9
$SHADEDIF
 70
    70
  9
$TILEMODE
 70
     1
  9
$MAXACTVP
 70
    48
  9
$PINSBASE
 10
0.0
 20
0.0
 30
0.0
  9
$PLIMCHECK
 70
     0
  9
$PEXTMIN
 10
0.0
 20
0.0
 30
0.0
  9
$PEXTMAX
 10
0.0
 20
0.0
 30
0.0
  9
$PLIMMIN
 10
0.0
 20
0.0
  9
$PLIMMAX
 10
12.0
 20
9.0
  9
$UNITMODE
 70
     0
  9
$VISRETAIN
 70
     1
  9
$PLINEGEN
 70
     0
  9
$PSLTSCALE
 70
     1
  9
$TREEDEPTH
 70
  3020
  9
$PICKSTYLE
 70
     1
  9
$CMLSTYLE
  2
STANDARD
  9
$CMLJUST
 70
     0
  9
$CMLSCALE
 40
1.0
  9
$PROXYGRAPHICS
 70
     1
  9
$MEASUREMENT
 70
     0
  0
ENDSEC
  0
SECTION
  2
CLASSES
  0
CLASS
  1
LWPOLYLINE
  2
AcDbPolyline
  3
AutoCAD 2000
 90
       20
280
     0
281
     1
  0
CLASS
  1
IMAGE
  2
AcDbRasterImage
  3
ISM
 90
       21
280
     0
281
     1
  0
CLASS
  1
OLE2FRAME
  2
AcDbOle2Frame
  3
AutoCAD 2000
 90
       21
280
     0
281
     1
  0
CLASS
  1
HATCH
  2
AcDbHatch
  3
AutoCAD 2000
 90
       20
280
     0
281
     1
  0
CLASS
  1
DICTIONARYVAR
  2
AcDbDictionaryVar
  3
ObjectDBX Classes
 90
       20
280
     0
281
     0
  0
CLASS
  1
RASTERVARIABLES
  2
AcDbRasterVariables
  3
ISM
 90
       21
280
     0
281
     0
  0
CLASS
  1
IMAGEDEF
  2
AcDbRasterImageDef
  3
ISM
 90
       21
280
     0
281
     0
  0
CLASS
  1
IMAGEDEF_REACTOR
  2
AcDbRasterImageDefReactor
  3
ISM
 90
       21
280
     0
281
     0
  0
CLASS
  1
IDBUFFER
  2
AcDbIdBuffer
  3
ObjectDBX Classes
 90
       20
280
     0
281
     0
  0
CLASS
  1
SPATIAL_FILTER
  2
AcDbSpatialFilter
  3
ObjectDBX Classes
 90
       20
280
     0
281
     0
  0
CLASS
  1
XRECORD
  2
AcDbXrecord
  3
AutoCAD 2000
 90
       21
280
     0
281
     0
  0
CLASS
  1
SORTENTSTABLE
  2
AcDbSortentsTable
  3
"AutoCAD"
 90
        0
280
     0
281
     0
  0
CLASS
  1
LAYER_INDEX
  2
AcDbLayerIndex
  3
"Acad"
 90
        0
280
     0
281
     0
  0
CLASS
  1
SPATIAL_INDEX
  2
AcDbSpatialIndex
  3
"Acad"
 90
        0
280
     0
281
     0
  0
CLASS
  1
OBJECT_PTR
  2
CAseDLPNTableRecord
  3
"ASE-LPNTableRecord"
 90
        1
280
     0
281
     0
  0
CLASS
  1
LAYOUT
  2
AcDbLayout
  3
"AutoCAD 2000"
 90
        1
280
     0
281
     0
  0
CLASS
  1
PLOTSETTINGS
  2
AcDbPlotsettings
  3
"AutoCAD 2000"
 90
        1
280
     0
281
     0
  0
CLASS
  1
ACDBDICTIONARYWDFLT
  2
AcDbDictionaryWithDefault
  3
"AutoCAD 2000"
 90
        1
280
     0
281
     0
  0
CLASS
  1
ACDBPLACEHOLDER
  2
AcDbPlaceholder
  3
"AutoCAD 2000"
 90
        1
280
     0
281
     0
  0
CLASS
  1
VBA_PROJECT
  2
AcDbVbaProject
  3
"AutoCAD 2000"
 90
        1
280
     0
281
     0
  0
CLASS
  1
WIPEOUT
  2
AcDbWipeout
  3
"AutoCAD 2000"
 90
        1
280
     0
281
     1
  0
CLASS
  1
WIPEOUTVARIABLES
  2
AcDbWipeoutVariables
  3
"AutoCAD 2000"
 90
        1
280
     0
281
     0
  0
CLASS
  1
RTEXT
  2
RText
  3
RText|AutoCAD Express Tool|expresstools@autodesk.com
 90
        1
280
     0
281
     1
  0
CLASS
  1
ARCALIGNEDTEXT
  2
AcDbArcAlignedText
  3
RText|AutoCAD Express Tool|expresstools@autodesk.com
 90
        1
280
     0
281
     1
  0
ENDSEC
  0
SECTION
  2
TABLES
  0
TABLE
  2
VPORT
  5
8
100
AcDbSymbolTable
 70
     1
  0
VPORT
  5
25
100
AcDbSymbolTableRecord
100
AcDbViewportTableRecord
  2
*ACTIVE
 70
     0
 10
0.0
 20
0.0
 11
1.0
 21
1.0
 12
38419.579167
 22
14869.579167
 13
0.0
 23
0.0
 14
0.5
 24
0.5
 15
0.5
 25
0.5
 16
0.0
 26
0.0
 36
1.0
 17
0.0
 27
0.0
 37
0.0
 40
29739.158333
 41
2.58377
 42
50.0
 43
0.0
 44
0.0
 50
0.0
 51
0.0
 71
     0
 72
   100
 73
     1
 74
     1
 75
     0
 76
     0
 77
     0
 78
     0
  0
ENDTAB
  0
TABLE
  2
LTYPE
  5
5
100
AcDbSymbolTable
 70
     5
  0
LTYPE
  5
12
100
AcDbSymbolTableRecord
100
AcDbLinetypeTableRecord
  2
BYBLOCK
 70
     0
  3

 72
    65
 73
     0
 40
0.0
  0
LTYPE
  5
13
100
AcDbSymbolTableRecord
100
AcDbLinetypeTableRecord
  2
BYLAYER
 70
     0
  3

 72
    65
 73
     0
 40
0.0
  0
LTYPE
  5
14
100
AcDbSymbolTableRecord
100
AcDbLinetypeTableRecord
  2
CONTINUOUS
 70
     0
  3
Solid line
 72
    65
 73
     0
 40
0.0
  0
LTYPE
  5
55
100
AcDbSymbolTableRecord
100
AcDbLinetypeTableRecord
  2
DASHED2
 70
     0
  3
DASHED2
 72
    65
 73
     2
 40
0.375
 49
0.25
 74
     0
 49
-0.125
 74
     0
  0
LTYPE
  5
C4
100
AcDbSymbolTableRecord
100
AcDbLinetypeTableRecord
  2
DASHEDX2
 70
     0
  3
DASHEDX2
 72
    65
 73
     2
 40
1.25
 49
0.75
 74
     0
 49
-0.5
 74
     0
  0
ENDTAB
  0
TABLE
  2
LAYER
  5
2
100
AcDbSymbolTable
 70
     6
  0
LAYER
  5
E
100
AcDbSymbolTableRecord
100
AcDbLayerTableRecord
  2
0
 70
     0
 62
     7
  6
CONTINUOUS
  0
LAYER
  5
32
100
AcDbSymbolTableRecord
100
AcDbLayerTableRecord
  2
WALL
 70
     0
 62
     7
  6
CONTINUOUS
  0
LAYER
  5
4A
100
AcDbSymbolTableRecord
100
AcDbLayerTableRecord
  2
OCCUPIED
 70
     0
 62
     7
  6
CONTINUOUS
  0
LAYER
  5
4D
100
AcDbSymbolTableRecord
100
AcDbLayerTableRecord
  2
OBSTACLE
 70
     0
 62
     7
  6
CONTINUOUS
  0
LAYER
  5
96
100
AcDbSymbolTableRecord
100
AcDbLayerTableRecord
  2
BUILDING_ENVELOPE
 70
     0
 62
     7
  6
CONTINUOUS
  0
LAYER
  5
C5
100
AcDbSymbolTableRecord
100
AcDbLayerTableRecord
  2
BGIMAGE
 70
     0
 62
    -7
  6
CONTINUOUS
  0
ENDTAB
  0
TABLE
  2
STYLE
  5
3
100
AcDbSymbolTable
 70
     1
  0
STYLE
  5
F
100
AcDbSymbolTableRecord
100
AcDbTextStyleTableRecord
  2
STANDARD
 70
     0
 40
0.0
 41
1.0
 50
0.0
 71
     0
 42
0.2
  3
txt.shx
  4

  0
ENDTAB
  0
TABLE
  2
VIEW
  5
6
100
AcDbSymbolTable
 70
     0
  0
ENDTAB
  0
TABLE
  2
UCS
  5
7
100
AcDbSymbolTable
 70
     0
  0
ENDTAB
  0
TABLE
  2
APPID
  5
9
100
AcDbSymbolTable
 70
     1
  0
APPID
  5
10
100
AcDbSymbolTableRecord
100
AcDbRegAppTableRecord
  2
ACAD
 70
     0
  0
ENDTAB
  0
TABLE
  2
DIMSTYLE
  5
A
100
AcDbSymbolTable
 70
     1
  0
DIMSTYLE
105
1D
100
AcDbSymbolTableRecord
100
AcDbDimStyleTableRecord
  2
STANDARD
 70
     0
  3

  4

  5

  6

  7

 40
1.0
 41
0.18
 42
0.0625
 43
0.38
 44
0.18
 45
0.0
 46
0.0
 47
0.0
 48
0.0
 71
     0
 72
     0
 73
     1
 74
     1
 75
     0
 76
     0
 77
     0
 78
     0
140
0.18
141
0.09
142
0.0
143
25.4
144
1.0
145
0.0
146
1.0
147
0.09
170
     0
171
     2
172
     0
173
     0
174
     0
175
     0
176
     0
177
     0
178
     0
270
     2
271
     4
272
     4
273
     2
274
     2
275
     0
280
     0
281
     0
282
     0
283
     1
284
     0
285
     0
286
     0
287
     3
288
     0
340
F
  0
ENDTAB
  0
TABLE
  2
BLOCK_RECORD
  5
1
100
AcDbSymbolTable
 70
    26
  0
BLOCK_RECORD
  5
18
100
AcDbSymbolTableRecord
100
AcDbBlockTableRecord
  2
*MODEL_SPACE
  0
BLOCK_RECORD
  5
15
100
AcDbSymbolTableRecord
100
AcDbBlockTableRecord
  2
*PAPER_SPACE
  0
BLOCK_RECORD
  5
AB
100
AcDbSymbolTableRecord
100
AcDbBlockTableRecord
  2
SPACE
  0
BLOCK_RECORD
  5
C2
100
AcDbSymbolTableRecord
100
AcDbBlockTableRecord
  2
SLAB
  0
BLOCK_RECORD
  5
C8
100
AcDbSymbolTableRecord
100
AcDbBlockTableRecord
  2
RECTANGLE
  0
BLOCK_RECORD
  5
CC
100
AcDbSymbolTableRecord
100
AcDbBlockTableRecord
  2
LINE_WITH_EXTENSIONS
  0
BLOCK_RECORD
  5
D0
100
AcDbSymbolTableRecord
100
AcDbBlockTableRecord
  2
DYNAMIC_CONNECTOR
  0
BLOCK_RECORD
  5
D4
100
AcDbSymbolTableRecord
100
AcDbBlockTableRecord
  2
WALL
  0
BLOCK_RECORD
  5
DB
100
AcDbSymbolTableRecord
100
AcDbBlockTableRecord
  2
WINDOW
  0
BLOCK_RECORD
  5
103
100
AcDbSymbolTableRecord
100
AcDbBlockTableRecord
  2
WORK_SURFACE
  0
BLOCK_RECORD
  5
117
100
AcDbSymbolTableRecord
100
AcDbBlockTableRecord
  2
ROUND_CORNER
  0
BLOCK_RECORD
  5
12B
100
AcDbSymbolTableRecord
100
AcDbBlockTableRecord
  2
HORIZONTAL_MEASURE
  0
BLOCK_RECORD
  5
13F
100
AcDbSymbolTableRecord
100
AcDbBlockTableRecord
  2
CORNER_SURFACE
  0
BLOCK_RECORD
  5
143
100
AcDbSymbolTableRecord
100
AcDbBlockTableRecord
  2
STORAGE_UNIT
  0
BLOCK_RECORD
  5
15C
100
AcDbSymbolTableRecord
100
AcDbBlockTableRecord
  2
WALL_1
  0
BLOCK_RECORD
  5
161
100
AcDbSymbolTableRecord
100
AcDbBlockTableRecord
  2
STORAGE_UNIT_16
  0
BLOCK_RECORD
  5
17A
100
AcDbSymbolTableRecord
100
AcDbBlockTableRecord
  2
WORK_PENINSULA
  0
BLOCK_RECORD
  5
17F
100
AcDbSymbolTableRecord
100
AcDbBlockTableRecord
  2
CORNER_SURFACE_18
  0
BLOCK_RECORD
  5
183
100
AcDbSymbolTableRecord
100
AcDbBlockTableRecord
  2
WORK_SURFACE_19
  0
BLOCK_RECORD
  5
197
100
AcDbSymbolTableRecord
100
AcDbBlockTableRecord
  2
BOOKSHELF
  0
BLOCK_RECORD
  5
1AC
100
AcDbSymbolTableRecord
100
AcDbBlockTableRecord
  2
FLAT_FILE
  0
BLOCK_RECORD
  5
1C6
100
AcDbSymbolTableRecord
100
AcDbBlockTableRecord
  2
DESK
  0
BLOCK_RECORD
  5
1CA
100
AcDbSymbolTableRecord
100
AcDbBlockTableRecord
  2
BASIN
  0
BLOCK_RECORD
  5
1DC
100
AcDbSymbolTableRecord
100
AcDbBlockTableRecord
  2
TABLE
  0
BLOCK_RECORD
  5
1E0
100
AcDbSymbolTableRecord
100
AcDbBlockTableRecord
  2
REFERENCE_RECTANGLE
  0
BLOCK_RECORD
  5
1E5
100
AcDbSymbolTableRecord
100
AcDbBlockTableRecord
  2
WALL_26
  0
BLOCK_RECORD
  5
1EC
100
AcDbSymbolTableRecord
100
AcDbBlockTableRecord
  2
WINDOW_27
  0
BLOCK_RECORD
  5
214
100
AcDbSymbolTableRecord
100
AcDbBlockTableRecord
  2
DOOR
  0
ENDTAB
  0
ENDSEC
  0
SECTION
  2
BLOCKS
  0
BLOCK
  5
19
100
AcDbEntity
  8
0
100
AcDbBlockBegin
  2
*MODEL_SPACE
 70
     0
 10
0.0
 20
0.0
 30
0.0
  3
*MODEL_SPACE
  1

  0
ENDBLK
  5
1A
100
AcDbEntity
  8
0
100
AcDbBlockEnd
  0
BLOCK
  5
16
100
AcDbEntity
 67
     1
  8
0
100
AcDbBlockBegin
  2
*PAPER_SPACE
 70
     0
 10
0.0
 20
0.0
 30
0.0
  3
*PAPER_SPACE
  1

  0
ENDBLK
  5
17
100
AcDbEntity
 67
     1
  8
0
100
AcDbBlockEnd
  0
BLOCK
  5
AC
100
AcDbEntity
  8
0
100
AcDbBlockBegin
  2
SPACE
 70
     2
 10
0.0
 20
0.0
 30
0.0
  3
SPACE
  1

  0
ATTDEF
  5
AD
100
AcDbEntity
  8
0
100
AcDbText
 10
1500.0
 20
1500.0
 30
0.0
 40
0.2
  1

100
AcDbAttributeDefinition
  3
Name
  2
NAME
 70
     0
  0
ATTDEF
  5
AE
100
AcDbEntity
  8
0
100
AcDbText
 10
1500.0
 20
1500.0
 30
0.0
 40
0.2
  1

100
AcDbAttributeDefinition
  3
Space ID
  2
LOCATIONID
 70
     0
  0
ATTDEF
  5
AF
100
AcDbEntity
  8
0
100
AcDbText
 10
1500.0
 20
1500.0
 30
0.0
 40
0.2
  1

100
AcDbAttributeDefinition
  3
Department
  2
DEPARTMENT
 70
     0
  0
ATTDEF
  5
B0
100
AcDbEntity
  8
0
100
AcDbText
 10
1500.0
 20
1500.0
 30
0.0
 40
0.2
  1
Office
100
AcDbAttributeDefinition
  3
Space use
  2
USE
 70
     0
  0
ATTDEF
  5
B1
100
AcDbEntity
  8
0
100
AcDbText
 10
1500.0
 20
1500.0
 30
0.0
 40
0.2
  1

100
AcDbAttributeDefinition
  3
Phone number
  2
PHONENUMBER
 70
     0
  0
ATTDEF
  5
B2
100
AcDbEntity
  8
0
100
AcDbText
 10
1500.0
 20
1500.0
 30
0.0
 40
0.2
  1
0
100
AcDbAttributeDefinition
  3
Occupancy
  2
OCCUPANTCOUNT
 70
     0
  0
ATTDEF
  5
B3
100
AcDbEntity
  8
0
100
AcDbText
 10
1500.0
 20
1500.0
 30
0.0
 40
0.2
  1
0
100
AcDbAttributeDefinition
  3
Capacity
  2
OCCUPANTCAPACITY
 70
     0
  0
ATTDEF
  5
B4
100
AcDbEntity
  8
0
100
AcDbText
 10
1500.0
 20
1500.0
 30
0.0
 40
0.2
  1

100
AcDbAttributeDefinition
  3
ID
  2
ID
 70
     0
  0
ATTDEF
  5
B5
100
AcDbEntity
  8
0
100
AcDbText
 10
1500.0
 20
1500.0
 30
0.0
 40
0.2
  1

100
AcDbAttributeDefinition
  3
Belongs to
  2
BELONGSTO
 70
     0
  0
ATTDEF
  5
B6
100
AcDbEntity
  8
0
100
AcDbText
 10
1500.0
 20
1500.0
 30
0.0
 40
0.2
  1

100
AcDbAttributeDefinition
  3
Modified
  2
MODIFY
 70
     0
  0
ATTDEF
  5
B7
100
AcDbEntity
  8
0
100
AcDbText
 10
1500.0
 20
1500.0
 30
0.0
 40
0.2
  1
Location
100
AcDbAttributeDefinition
  3
Shape class
  2
SHAPECLASS
 70
     0
  0
ATTDEF
  5
B8
100
AcDbEntity
  8
0
100
AcDbText
 10
1500.0
 20
1500.0
 30
0.0
 40
0.2
  1
Space
100
AcDbAttributeDefinition
  3
Shape type
  2
SHAPETYPE
 70
     0
  0
ATTDEF
  5
B9
100
AcDbEntity
  8
0
100
AcDbText
 10
1500.0
 20
1500.0
 30
0.0
 40
0.2
  1

100
AcDbAttributeDefinition
  3
Subshape type
  2
SUBSHAPETYPE
 70
     0
  0
ATTDEF
  5
BA
100
AcDbEntity
  8
0
100
AcDbText
 10
1500.0
 20
1500.0
 30
0.0
 40
0.2
  1
0
100
AcDbAttributeDefinition
  3
Space height
  2
SPACEHEIGHT
 70
     0
  0
ATTDEF
  5
BB
100
AcDbEntity
  8
0
100
AcDbText
 10
1500.0
 20
1500.0
 30
0.0
 40
0.2
  1
0
100
AcDbAttributeDefinition
  3
Zones
  2
ZONES
 70
     0
  0
ATTDEF
  5
BC
100
AcDbEntity
  8
0
100
AcDbText
 10
1500.0
 20
1500.0
 30
0.0
 40
0.2
  1
9M^ 2
100
AcDbAttributeDefinition
  3
Calculated area
  2
VISAREA
 70
     0
  0
ATTDEF
  5
BD
100
AcDbEntity
  8
0
100
AcDbText
 10
1500.0
 20
1500.0
 30
0.0
 40
0.2
  1
0
100
AcDbAttributeDefinition
  3
Base elevation
  2
BASEELEVATION
 70
     0
  0
LWPOLYLINE
  5
BE
102
{ACAD_REACTORS
330
BF
102
}
100
AcDbEntity
  8
OBSTACLE
  6
CONTINUOUS
100
AcDbPolyline
 90
        4
 70
     1
 10
0.0
 20
0.0
 10
3000.0
 20
0.0
 10
3000.0
 20
3000.0
 10
0.0
 20
3000.0
  0
HATCH
  5
BF
100
AcDbEntity
  8
OBSTACLE
 62
    94
100
AcDbHatch
 10
0.0
 20
0.0
 30
0.0
210
0.0
220
0.0
230
1.0
  2
ANSI31
 70
     0
 71
     1
 91
        1
 92
        2
 72
     0
 73
     1
 93
        4
 10
0.0000000000005414
 20
0.0000000000005414
 10
2999.9999999999991
 20
0.0000000000005414
 10
2999.9999999999991
 20
2999.9999999999991
 10
0.0000000000005414
 20
2999.9999999999991
 97
       72
330
4B
330
4E
330
4F
330
50
330
52
330
54
330
56
330
57
330
58
330
5B
330
5D
330
5E
330
5F
330
61
330
63
330
64
330
65
330
66
330
67
330
68
330
69
330
6A
330
6B
330
6C
330
6D
330
6E
330
6F
330
74
330
75
330
76
330
77
330
78
330
79
330
7A
330
7B
330
7C
330
7D
330
7E
330
7F
330
80
330
85
330
86
330
87
330
88
330
89
330
8A
330
8B
330
8C
330
8D
330
8E
330
8F
330
90
330
91
330
97
330
98
330
99
330
9A
330
9B
330
9C
330
9D
330
9E
330
9F
330
A0
330
A1
330
A2
330
A3
330
A4
330
A5
330
A6
330
A7
330
AA
330
BE
 75
     0
 76
     1
 52
0.0
 41
25.4
 77
     0
 78
     1
 53
45.0
 43
0.0
 44
0.0
 45
-2.2351999999999999
 46
2.2351999999999999
 79
     0
 98
        0
  0
MTEXT
  5
C0
100
AcDbEntity
  8
OBSTACLE
100
AcDbMText
 10
1500.0
 20
1439.972346
 30
0.0
 40
158.751211
 41
2045.332697
 71
     5
 72
     5
  1
\C7;\fCalibri|b0|i0|;\H158.75121116638;Office\P9\P.0 sq. m.\P
  0
ENDBLK
  5
C1
100
AcDbEntity
  8
0
100
AcDbBlockEnd
  0
BLOCK
  5
C3
100
AcDbEntity
  8
0
100
AcDbBlockBegin
  2
SLAB
 70
     0
 10
0.0
 20
0.0
 30
0.0
  3
SLAB
  1

  0
LWPOLYLINE
  5
C6
102
{ACAD_REACTORS
330
D7
102
}
100
AcDbEntity
  8
BGIMAGE
  6
DASHEDX2
100
AcDbPolyline
 90
        4
 70
     1
 10
0.0
 20
0.0
 10
3000.0
 20
0.0
 10
3000.0
 20
3000.0
 10
0.0
 20
3000.0
  0
ENDBLK
  5
C7
100
AcDbEntity
  8
0
100
AcDbBlockEnd
  0
BLOCK
  5
C9
100
AcDbEntity
  8
0
100
AcDbBlockBegin
  2
RECTANGLE
 70
     2
 10
0.0
 20
0.0
 30
0.0
  3
RECTANGLE
  1

  0
LWPOLYLINE
  5
CA
102
{ACAD_REACTORS
330
D7
102
}
100
AcDbEntity
  8
0
  6
CONTINUOUS
 62
     7
100
AcDbPolyline
 90
        4
 70
     1
 10
40.0
 20
37.5
 10
60.0
 20
37.5
 10
60.0
 20
62.5
 10
40.0
 20
62.5
  0
ENDBLK
  5
CB
100
AcDbEntity
  8
0
100
AcDbBlockEnd
  0
BLOCK
  5
CD
100
AcDbEntity
  8
0
100
AcDbBlockBegin
  2
LINE_WITH_EXTENSIONS
 70
     0
 10
0.0
 20
0.0
 30
0.0
  3
LINE_WITH_EXTENSIONS
  1

  0
LINE
  5
CE
100
AcDbEntity
  8
0
  6
CONTINUOUS
 62
     7
100
AcDbLine
 10
32.5
 20
52.54
 30
0.0
 11
67.5
 21
52.54
 31
0.0
  0
ENDBLK
  5
CF
100
AcDbEntity
  8
0
100
AcDbBlockEnd
  0
BLOCK
  5
D1
100
AcDbEntity
  8
0
100
AcDbBlockBegin
  2
DYNAMIC_CONNECTOR
 70
     0
 10
0.0
 20
0.0
 30
0.0
  3
DYNAMIC_CONNECTOR
  1

  0
LWPOLYLINE
  5
D2
100
AcDbEntity
  8
BGIMAGE
  6
CONTINUOUS
100
AcDbPolyline
 90
        3
 70
     0
 10
25.4
 20
50.8
 10
25.4
 20
25.4
 10
50.8
 20
25.4
  0
ENDBLK
  5
D3
100
AcDbEntity
  8
0
100
AcDbBlockEnd
  0
BLOCK
  5
D5
100
AcDbEntity
  8
0
100
AcDbBlockBegin
  2
WALL
 70
     0
 10
0.0
 20
0.0
 30
0.0
  3
WALL
  1

  0
LWPOLYLINE
  5
D6
102
{ACAD_REACTORS
330
D7
102
}
100
AcDbEntity
  8
BGIMAGE
  6
CONTINUOUS
 62
     7
100
AcDbPolyline
 90
        6
 70
     1
 10
0.0
 20
1650.0
 10
3000.0
 20
1650.0
 10
3000.0
 20
1575.0
 10
3000.0
 20
1500.0
 10
0.0
 20
1500.0
 10
0.0
 20
1575.0
  0
HATCH
  5
D7
100
AcDbEntity
  8
BGIMAGE
 62
   253
100
AcDbHatch
 10
0.0
 20
0.0
 30
0.0
210
0.0
220
0.0
230
1.0
  2
SOLID
 70
     1
 71
     1
 91
        1
 92
        3
 72
     0
 73
     1
 93
        6
 10
0.0
 20
1650.0000000000002
 10
2999.9999999999986
 20
1650.0000000000002
 10
2999.9999999999986
 20
1574.9999999999998
 10
2999.9999999999986
 20
1500.0
 10
0.0
 20
1500.0
 10
0.0
 20
1574.9999999999998
 97
        3
330
C6
330
CA
330
D6
 75
     0
 76
     1
 98
        0
  0
LWPOLYLINE
  5
D8
100
AcDbEntity
  8
BGIMAGE
  6
CONTINUOUS
 62
     7
100
AcDbPolyline
 90
        4
 70
     0
 10
0.0
 20
1575.0
 10
0.0
 20
1650.0
 10
3000.0
 20
1650.0
 10
3000.0
 20
1575.0
  0
LWPOLYLINE
  5
D9
100
AcDbEntity
  8
BGIMAGE
  6
CONTINUOUS
 62
     7
100
AcDbPolyline
 90
        4
 70
     0
 10
0.0
 20
1575.0
 10
0.0
 20
1500.0
 10
3000.0
 20
1500.0
 10
3000.0
 20
1575.0
  0
ENDBLK
  5
DA
100
AcDbEntity
  8
0
100
AcDbBlockEnd
  0
BLOCK
  5
DC
100
AcDbEntity
  8
0
100
AcDbBlockBegin
  2
WINDOW
 70
     2
 10
0.0
 20
0.0
 30
0.0
  3
WINDOW
  1

  0
ATTDEF
  5
DD
100
AcDbEntity
  8
0
100
AcDbText
 10
1500.0
 20
1500.0
 30
0.0
 40
0.2
  1
51.181102362205
100
AcDbAttributeDefinition
  3
Window height
  2
VISWNDWHEIGHT
 70
     0
  0
ATTDEF
  5
DE
100
AcDbEntity
  8
0
100
AcDbText
 10
1500.0
 20
1500.0
 30
0.0
 40
0.2
  1
0
100
AcDbAttributeDefinition
  3
Reference Line Offset
  2
REFLN
 70
     0
  0
ATTDEF
  5
DF
100
AcDbEntity
  8
0
100
AcDbText
 10
1500.0
 20
1500.0
 30
0.0
 40
0.2
  1
35.433070866142
100
AcDbAttributeDefinition
  3
Window width
  2
SUBTYPE
 70
     0
  0
ATTDEF
  5
E0
100
AcDbEntity
  8
0
100
AcDbText
 10
1500.0
 20
1500.0
 30
0.0
 40
0.2
  1
7.8740157480315
100
AcDbAttributeDefinition
  3
Window frame depth
  2
SUBVISWNDWFRAMEDEPTH
 70
     0
  0
ATTDEF
  5
E1
100
AcDbEntity
  8
0
100
AcDbText
 10
1500.0
 20
1500.0
 30
0.0
 40
0.2
  1
1.9685039370079
100
AcDbAttributeDefinition
  3
Window frame width
  2
SUBVISWNDWFRAMEWIDTH
 70
     0
  0
ATTDEF
  5
E2
100
AcDbEntity
  8
0
100
AcDbText
 10
1500.0
 20
1500.0
 30
0.0
 40
0.2
  1
1.9685039370079
100
AcDbAttributeDefinition
  3
Window sash depth
  2
SUBVISWNDWSASHDEPTH
 70
     0
  0
ATTDEF
  5
E3
100
AcDbEntity
  8
0
100
AcDbText
 10
1500.0
 20
1500.0
 30
0.0
 40
0.2
  1
1.9685039370079
100
AcDbAttributeDefinition
  3
Window sash width
  2
SUBVISWNDWSASHWIDTH
 70
     0
  0
ATTDEF
  5
E4
100
AcDbEntity
  8
0
100
AcDbText
 10
1500.0
 20
1500.0
 30
0.0
 40
0.2
  1
1.9685039370079
100
AcDbAttributeDefinition
  3
Window sill depth inside
  2
SUBVISWNDWSILLDEPTHIN
 70
     0
  0
ATTDEF
  5
E5
100
AcDbEntity
  8
0
100
AcDbText
 10
1500.0
 20
1500.0
 30
0.0
 40
0.2
  1
1.9685039370079
100
AcDbAttributeDefinition
  3
Window sill width inside
  2
SUBVISWNDWSILLWIDTHIN
 70
     0
  0
ATTDEF
  5
E6
100
AcDbEntity
  8
0
100
AcDbText
 10
1500.0
 20
1500.0
 30
0.0
 40
0.2
  1
1.9685039370079
100
AcDbAttributeDefinition
  3
Window sill depth outside
  2
SUBVISWNDWSILLDEPTHOUT
 70
     0
  0
ATTDEF
  5
E7
100
AcDbEntity
  8
0
100
AcDbText
 10
1500.0
 20
1500.0
 30
0.0
 40
0.2
  1
1.9685039370079
100
AcDbAttributeDefinition
  3
Window sill width outside
  2
SUBVISWNDWSILLWIDTHOUT
 70
     0
  0
ATTDEF
  5
E8
100
AcDbEntity
  8
0
100
AcDbText
 10
1500.0
 20
1500.0
 30
0.0
 40
0.2
  1
82.677165354331
100
AcDbAttributeDefinition
  3
Window header height
  2
VISWNDWHEADERHEIGHT
 70
     0
  0
ATTDEF
  5
E9
100
AcDbEntity
  8
0
100
AcDbText
 10
1500.0
 20
1500.0
 30
0.0
 40
0.2
  1
3.9370078740157
100
AcDbAttributeDefinition
  3
Window along wall offset
  2
VISWNDWALONGWALLOFFSET
 70
     0
  0
ATTDEF
  5
EA
100
AcDbEntity
  8
0
100
AcDbText
 10
1500.0
 20
1500.0
 30
0.0
 40
0.2
  1
17.716535433071
100
AcDbAttributeDefinition
  3
Window operator size
  2
VISWNDWOPERATOR
 70
     0
  0
ATTDEF
  5
EB
100
AcDbEntity
  8
0
100
AcDbText
 10
1500.0
 20
1500.0
 30
0.0
 40
0.2
  1
41.338582677165
100
AcDbAttributeDefinition
  3
Window spring height
  2
VISWNDWSPRING
 70
     0
  0
ATTDEF
  5
EC
100
AcDbEntity
  8
0
100
AcDbText
 10
1500.0
 20
1500.0
 30
0.0
 40
0.2
  1
Center
100
AcDbAttributeDefinition
  3
Window within wall offset
  2
VISJUSTIFICATION
 70
     0
  0
ATTDEF
  5
ED
100
AcDbEntity
  8
0
100
AcDbText
 10
1500.0
 20
1500.0
 30
0.0
 40
0.2
  1
Building Component
100
AcDbAttributeDefinition
  3
Shape class
  2
SHAPECLASS
 70
     0
  0
ATTDEF
  5
EE
100
AcDbEntity
  8
0
100
AcDbText
 10
1500.0
 20
1500.0
 30
0.0
 40
0.2
  1
Window
100
AcDbAttributeDefinition
  3
Shape type
  2
SHAPETYPE
 70
     0
  0
ATTDEF
  5
EF
100
AcDbEntity
  8
0
100
AcDbText
 10
1500.0
 20
1500.0
 30
0.0
 40
0.2
  1
Picture
100
AcDbAttributeDefinition
  3
Window type
  2
SUBSHAPETYPE
 70
     0
  0
ATTDEF
  5
F0
100
AcDbEntity
  8
0
100
AcDbText
 10
1500.0
 20
1500.0
 30
0.0
 40
0.2
  1
0
100
AcDbAttributeDefinition
  3
Window number
  2
WNDWNUMBER
 70
     0
  0
ATTDEF
  5
F1
100
AcDbEntity
  8
0
100
AcDbText
 10
1500.0
 20
1500.0
 30
0.0
 40
0.2
  1
0
100
AcDbAttributeDefinition
  3
Fire rating
  2
FIRERATING
 70
     0
  0
LWPOLYLINE
  5
F2
102
{ACAD_REACTORS
330
132
102
}
100
AcDbEntity
  8
BGIMAGE
  6
CONTINUOUS
 62
     7
100
AcDbPolyline
 90
        4
 70
     1
 10
1050.0
 20
1419.92
 10
1950.0
 20
1419.92
 10
1950.0
 20
1580.08
 10
1050.0
 20
1580.08
  0
LINE
  5
F3
102
{ACAD_REACTORS
330
132
102
}
100
AcDbEntity
  8
BGIMAGE
  6
CONTINUOUS
 62
     7
100
AcDbLine
 10
1050.0
 20
1425.0
 30
0.0
 11
1050.0
 21
1575.0
 31
0.0
  0
LINE
  5
F4
102
{ACAD_REACTORS
330
132
102
}
100
AcDbEntity
  8
BGIMAGE
  6
CONTINUOUS
 62
     7
100
AcDbLine
 10
1050.0
 20
1575.0
 30
0.0
 11
1100.0
 21
1575.0
 31
0.0
  0
LINE
  5
F5
102
{ACAD_REACTORS
330
132
102
}
100
AcDbEntity
  8
BGIMAGE
  6
CONTINUOUS
 62
     7
100
AcDbLine
 10
1100.0
 20
1575.0
 30
0.0
 11
1100.0
 21
1525.0
 31
0.0
  0
LINE
  5
F6
102
{ACAD_REACTORS
330
132
102
}
100
AcDbEntity
  8
BGIMAGE
  6
CONTINUOUS
 62
     7
100
AcDbLine
 10
1100.0
 20
1475.0
 30
0.0
 11
1100.0
 21
1425.0
 31
0.0
  0
LINE
  5
F7
102
{ACAD_REACTORS
330
132
102
}
100
AcDbEntity
  8
BGIMAGE
  6
CONTINUOUS
 62
     7
100
AcDbLine
 10
1100.0
 20
1425.0
 30
0.0
 11
1050.0
 21
1425.0
 31
0.0
  0
LINE
  5
F8
102
{ACAD_REACTORS
330
132
102
}
100
AcDbEntity
  8
BGIMAGE
  6
CONTINUOUS
 62
     7
100
AcDbLine
 10
1950.0
 20
1425.0
 30
0.0
 11
1950.0
 21
1575.0
 31
0.0
  0
LINE
  5
F9
102
{ACAD_REACTORS
330
132
102
}
100
AcDbEntity
  8
BGIMAGE
  6
CONTINUOUS
 62
     7
100
AcDbLine
 10
1950.0
 20
1575.0
 30
0.0
 11
1900.0
 21
1575.0
 31
0.0
  0
LINE
  5
FA
102
{ACAD_REACTORS
330
132
102
}
100
AcDbEntity
  8
BGIMAGE
  6
CONTINUOUS
 62
     7
100
AcDbLine
 10
1900.0
 20
1575.0
 30
0.0
 11
1900.0
 21
1525.0
 31
0.0
  0
LINE
  5
FB
102
{ACAD_REACTORS
330
132
102
}
100
AcDbEntity
  8
BGIMAGE
  6
CONTINUOUS
 62
     7
100
AcDbLine
 10
1900.0
 20
1475.0
 30
0.0
 11
1900.0
 21
1425.0
 31
0.0
  0
LINE
  5
FC
102
{ACAD_REACTORS
330
132
102
}
100
AcDbEntity
  8
BGIMAGE
  6
CONTINUOUS
 62
     7
100
AcDbLine
 10
1900.0
 20
1425.0
 30
0.0
 11
1950.0
 21
1425.0
 31
0.0
  0
LWPOLYLINE
  5
FD
102
{ACAD_REACTORS
330
132
102
}
100
AcDbEntity
  8
BGIMAGE
  6
CONTINUOUS
 62
     7
100
AcDbPolyline
 90
        4
 70
     1
 10
1100.0
 20
1525.0
 10
1150.0
 20
1525.0
 10
1150.0
 20
1475.0
 10
1100.0
 20
1475.0
  0
LWPOLYLINE
  5
FE
102
{ACAD_REACTORS
330
132
102
}
100
AcDbEntity
  8
BGIMAGE
  6
CONTINUOUS
 62
     7
100
AcDbPolyline
 90
        4
 70
     1
 10
1900.0
 20
1525.0
 10
1850.0
 20
1525.0
 10
1850.0
 20
1475.0
 10
1900.0
 20
1475.0
  0
LINE
  5
FF
100
AcDbEntity
  8
BGIMAGE
  6
CONTINUOUS
 62
     7
100
AcDbLine
 10
1150.0
 20
1500.0
 30
0.0
 11
1850.0
 21
1500.0
 31
0.0
  0
LINE
  5
100
100
AcDbEntity
  8
BGIMAGE
  6
CONTINUOUS
 62
     7
100
AcDbLine
 10
1050.0
 20
1425.0
 30
0.0
 11
1050.0
 21
1575.0
 31
0.0
  0
LINE
  5
101
100
AcDbEntity
  8
BGIMAGE
  6
CONTINUOUS
 62
     7
100
AcDbLine
 10
1950.0
 20
1425.0
 30
0.0
 11
1950.0
 21
1575.0
 31
0.0
  0
ENDBLK
  5
102
100
AcDbEntity
  8
0
100
AcDbBlockEnd
  0
BLOCK
  5
104
100
AcDbEntity
  8
0
100
AcDbBlockBegin
  2
WORK_SURFACE
 70
     2
 10
0.0
 20
0.0
 30
0.0
  3
WORK_SURFACE
  1

  0
ATTDEF
  5
105
100
AcDbEntity
  8
0
100
AcDbText
 10
1500.0
 20
1500.0
 30
0.0
 40
0.2
  1
47.244094488189
100
AcDbAttributeDefinition
  3
Length
  2
LENGTH
 70
     0
  0
ATTDEF
  5
106
100
AcDbEntity
  8
0
100
AcDbText
 10
1500.0
 20
1500.0
 30
0.0
 40
0.2
  1
23.622047244094
100
AcDbAttributeDefinition
  3
Depth
  2
DEPTH
 70
     0
  0
ATTDEF
  5
107
100
AcDbEntity
  8
0
100
AcDbText
 10
1500.0
 20
1500.0
 30
0.0
 40
0.2
  1
Asset
100
AcDbAttributeDefinition
  3
Shape class
  2
SHAPECLASS
 70
     0
  0
ATTDEF
  5
108
100
AcDbEntity
  8
0
100
AcDbText
 10
1500.0
 20
1500.0
 30
0.0
 40
0.2
  1
Furniture
100
AcDbAttributeDefinition
  3
Shape type
  2
SHAPETYPE
 70
     0
  0
ATTDEF
  5
109
100
AcDbEntity
  8
0
100
AcDbText
 10
1500.0
 20
1500.0
 30
0.0
 40
0.2
  1
Worksurface
100
AcDbAttributeDefinition
  3
Subshape type
  2
SUBSHAPETYPE
 70
     0
  0
ATTDEF
  5
10A
100
AcDbEntity
  8
0
100
AcDbText
 10
1500.0
 20
1500.0
 30
0.0
 40
0.2
  1
0
100
AcDbAttributeDefinition
  3
ID
  2
ID
 70
     0
  0
ATTDEF
  5
10B
100
AcDbEntity
  8
0
100
AcDbText
 10
1500.0
 20
1500.0
 30
0.0
 40
0.2
  1
0
100
AcDbAttributeDefinition
  3
Name
  2
NAME
 70
     0
  0
ATTDEF
  5
10C
100
AcDbEntity
  8
0
100
AcDbText
 10
1500.0
 20
1500.0
 30
0.0
 40
0.2
  1
0
100
AcDbAttributeDefinition
  3
Department
  2
DEPARTMENT
 70
     0
  0
ATTDEF
  5
10D
100
AcDbEntity
  8
0
100
AcDbText
 10
1500.0
 20
1500.0
 30
0.0
 40
0.2
  1
0
100
AcDbAttributeDefinition
  3
Belongs to
  2
BELONGSTO
 70
     0
  0
ATTDEF
  5
10E
100
AcDbEntity
  8
0
100
AcDbText
 10
1500.0
 20
1500.0
 30
0.0
 40
0.2
  1
0
100
AcDbAttributeDefinition
  3
Modified
  2
MODIFY
 70
     0
  0
ATTDEF
  5
10F
100
AcDbEntity
  8
0
100
AcDbText
 10
1500.0
 20
1500.0
 30
0.0
 40
0.2
  1
0
100
AcDbAttributeDefinition
  3
Asset number
  2
ASSETNUMBER
 70
     0
  0
ATTDEF
  5
110
100
AcDbEntity
  8
0
100
AcDbText
 10
1500.0
 20
1500.0
 30
0.0
 40
0.2
  1
0
100
AcDbAttributeDefinition
  3
Serial number
  2
SERIALNUMBER
 70
     0
  0
ATTDEF
  5
111
100
AcDbEntity
  8
0
100
AcDbText
 10
1500.0
 20
1500.0
 30
0.0
 40
0.2
  1
0
100
AcDbAttributeDefinition
  3
Product description
  2
PRODUCTDESCRIPTION
 70
     0
  0
ATTDEF
  5
112
100
AcDbEntity
  8
0
100
AcDbText
 10
1500.0
 20
1500.0
 30
0.0
 40
0.2
  1
0
100
AcDbAttributeDefinition
  3
Purchase date
  2
PURCHASEDATE
 70
     0
  0
ATTDEF
  5
113
100
AcDbEntity
  8
0
100
AcDbText
 10
1500.0
 20
1500.0
 30
0.0
 40
0.2
  1
0
100
AcDbAttributeDefinition
  3
Product number
  2
PRODUCTNUMBER
 70
     0
  0
ATTDEF
  5
114
100
AcDbEntity
  8
0
100
AcDbText
 10
1500.0
 20
1500.0
 30
0.0
 40
0.2
  1
0
100
AcDbAttributeDefinition
  3
Base elevation
  2
BASEELEVATION
 70
     0
  0
LWPOLYLINE
  5
115
102
{ACAD_REACTORS
330
132
102
}
100
AcDbEntity
  8
BGIMAGE
  6
CONTINUOUS
 62
     7
100
AcDbPolyline
 90
        4
 70
     1
 10
1200.0
 20
900.0
 10
1800.0
 20
900.0
 10
1800.0
 20
2100.0
 10
1200.0
 20
2100.0
  0
ENDBLK
  5
116
100
AcDbEntity
  8
0
100
AcDbBlockEnd
  0
BLOCK
  5
118
100
AcDbEntity
  8
0
100
AcDbBlockBegin
  2
ROUND_CORNER
 70
     2
 10
0.0
 20
0.0
 30
0.0
  3
ROUND_CORNER
  1

  0
ATTDEF
  5
119
100
AcDbEntity
  8
0
100
AcDbText
 10
1500.0
 20
1500.0
 30
0.0
 40
0.2
  1
23.622047244094
100
AcDbAttributeDefinition
  3
Depth
  2
DEPTH
 70
     0
  0
ATTDEF
  5
11A
100
AcDbEntity
  8
0
100
AcDbText
 10
1500.0
 20
1500.0
 30
0.0
 40
0.2
  1
31.496062992126
100
AcDbAttributeDefinition
  3
Height
  2
HEIGHT
 70
     0
  0
ATTDEF
  5
11B
100
AcDbEntity
  8
0
100
AcDbText
 10
1500.0
 20
1500.0
 30
0.0
 40
0.2
  1
Asset
100
AcDbAttributeDefinition
  3
Shape class
  2
SHAPECLASS
 70
     0
  0
ATTDEF
  5
11C
100
AcDbEntity
  8
0
100
AcDbText
 10
1500.0
 20
1500.0
 30
0.0
 40
0.2
  1
Furniture
100
AcDbAttributeDefinition
  3
Shape type
  2
SHAPETYPE
 70
     0
  0
ATTDEF
  5
11D
100
AcDbEntity
  8
0
100
AcDbText
 10
1500.0
 20
1500.0
 30
0.0
 40
0.2
  1
Table
100
AcDbAttributeDefinition
  3
Subshape type
  2
SUBSHAPETYPE
 70
     0
  0
ATTDEF
  5
11E
100
AcDbEntity
  8
0
100
AcDbText
 10
1500.0
 20
1500.0
 30
0.0
 40
0.2
  1
0
100
AcDbAttributeDefinition
  3
ID
  2
ID
 70
     0
  0
ATTDEF
  5
11F
100
AcDbEntity
  8
0
100
AcDbText
 10
1500.0
 20
1500.0
 30
0.0
 40
0.2
  1
0
100
AcDbAttributeDefinition
  3
Name
  2
NAME
 70
     0
  0
ATTDEF
  5
120
100
AcDbEntity
  8
0
100
AcDbText
 10
1500.0
 20
1500.0
 30
0.0
 40
0.2
  1
0
100
AcDbAttributeDefinition
  3
Department
  2
DEPARTMENT
 70
     0
  0
ATTDEF
  5
121
100
AcDbEntity
  8
0
100
AcDbText
 10
1500.0
 20
1500.0
 30
0.0
 40
0.2
  1
0
100
AcDbAttributeDefinition
  3
Belongs to
  2
BELONGSTO
 70
     0
  0
ATTDEF
  5
122
100
AcDbEntity
  8
0
100
AcDbText
 10
1500.0
 20
1500.0
 30
0.0
 40
0.2
  1
0
100
AcDbAttributeDefinition
  3
Modified
  2
MODIFY
 70
     0
  0
ATTDEF
  5
123
100
AcDbEntity
  8
0
100
AcDbText
 10
1500.0
 20
1500.0
 30
0.0
 40
0.2
  1
0
100
AcDbAttributeDefinition
  3
Asset number
  2
ASSETNUMBER
 70
     0
  0
ATTDEF
  5
124
100
AcDbEntity
  8
0
100
AcDbText
 10
1500.0
 20
1500.0
 30
0.0
 40
0.2
  1
0
100
AcDbAttributeDefinition
  3
Serial number
  2
SERIALNUMBER
 70
     0
  0
ATTDEF
  5
125
100
AcDbEntity
  8
0
100
AcDbText
 10
1500.0
 20
1500.0
 30
0.0
 40
0.2
  1
0
100
AcDbAttributeDefinition
  3
Product description
  2
PRODUCTDESCRIPTION
 70
     0
  0
ATTDEF
  5
126
100
AcDbEntity
  8
0
100
AcDbText
 10
1500.0
 20
1500.0
 30
0.0
 40
0.2
  1
0
100
AcDbAttributeDefinition
  3
Purchase date
  2
PURCHASEDATE
 70
     0
  0
ATTDEF
  5
127
100
AcDbEntity
  8
0
100
AcDbText
 10
1500.0
 20
1500.0
 30
0.0
 40
0.2
  1
0
100
AcDbAttributeDefinition
  3
Product number
  2
PRODUCTNUMBER
 70
     0
  0
ATTDEF
  5
128
100
AcDbEntity
  8
0
100
AcDbText
 10
1500.0
 20
1500.0
 30
0.0
 40
0.2
  1
0
100
AcDbAttributeDefinition
  3
Base elevation
  2
BASEELEVATION
 70
     0
  0
LWPOLYLINE
  5
129
102
{ACAD_REACTORS
330
132
102
}
100
AcDbEntity
  8
OBSTACLE
  6
CONTINUOUS
 62
     7
100
AcDbPolyline
 90
        3
 70
     1
 10
1800.0
 20
1200.0
 10
1800.0
 20
1800.0
 10
1200.0
 20
1800.0
 42
0.414214
  0
ENDBLK
  5
12A
100
AcDbEntity
  8
0
100
AcDbBlockEnd
  0
BLOCK
  5
12C
100
AcDbEntity
  8
0
100
AcDbBlockBegin
  2
HORIZONTAL_MEASURE
 70
     2
 10
0.0
 20
0.0
 30
0.0
  3
HORIZONTAL_MEASURE
  1

  0
ATTDEF
  5
12D
100
AcDbEntity
  8
0
100
AcDbText
 10
0.0
 20
15.0
 30
0.0
 40
0.2
  1
1.1811023622047
100
AcDbAttributeDefinition
  3
Length
  2
LENGTH
 70
     0
  0
ATTDEF
  5
12E
100
AcDbEntity
  8
0
100
AcDbText
 10
0.0
 20
15.0
 30
0.0
 40
0.2
  1
Annotation
100
AcDbAttributeDefinition
  3
Shape class
  2
SHAPECLASS
 70
     0
  0
ATTDEF
  5
12F
100
AcDbEntity
  8
0
100
AcDbText
 10
0.0
 20
15.0
 30
0.0
 40
0.2
  1
Measure tool
100
AcDbAttributeDefinition
  3
Shape type
  2
SHAPETYPE
 70
     0
  0
ATTDEF
  5
130
100
AcDbEntity
  8
0
100
AcDbText
 10
0.0
 20
15.0
 30
0.0
 40
0.2
  1
Horizontal
100
AcDbAttributeDefinition
  3
Subshape type
  2
SUBSHAPETYPE
 70
     0
  0
LWPOLYLINE
  5
131
102
{ACAD_REACTORS
330
132
102
}
100
AcDbEntity
  8
OBSTACLE
  6
CONTINUOUS
100
AcDbPolyline
 90
        6
 70
     1
 10
0.0
 20
15.0
 10
0.0
 20
21.322825
 42
-0.414223
 10
1.580706
 20
22.903531
 10
13.699498
 20
22.903531
 42
-0.414223
 10
16.860911
 20
19.742119
 10
16.860911
 20
15.0
  0
HATCH
  5
132
100
AcDbEntity
  8
OBSTACLE
 62
   254
100
AcDbHatch
 10
0.0
 20
0.0
 30
0.0
210
0.0
220
0.0
230
1.0
  2
SOLID
 70
     1
 71
     1
 91
        1
 92
        3
 72
     1
 73
     1
 93
        6
 10
0.0
 20
14.999999999999998
 42
0.0
 10
0.0
 20
21.322824783637152
 42
-0.4142231524190838
 10
1.5807061959093098
 20
22.903530979546435
 42
0.0
 10
13.699498221282163
 20
22.903530979546439
 42
-0.4142231524190798
 10
16.860910613100742
 20
19.742118587727859
 42
0.0
 10
16.860910613100739
 20
14.999999999999998
 42
0.0
 97
       16
330
F2
330
F3
330
F4
330
F5
330
F6
330
F7
330
F8
330
F9
330
FA
330
FB
330
FC
330
FD
330
FE
330
115
330
129
330
131
 75
     0
 76
     1
 98
        0
  0
LINE
  5
133
100
AcDbEntity
  8
OBSTACLE
  6
CONTINUOUS
100
AcDbLine
 10
16.860911
 20
15.790353
 30
0.0
 11
30.0
 21
15.790353
 31
0.0
  0
LINE
  5
134
100
AcDbEntity
  8
OBSTACLE
  6
CONTINUOUS
100
AcDbLine
 10
30.0
 20
16.580706
 30
0.0
 11
30.0
 21
15.790353
 31
0.0
  0
LINE
  5
135
100
AcDbEntity
  8
OBSTACLE
  6
CONTINUOUS
100
AcDbLine
 10
30.0
 20
15.790353
 30
0.0
 11
30.0
 21
0.0
 31
0.0
  0
LINE
  5
136
100
AcDbEntity
  8
OBSTACLE
  6
CONTINUOUS
100
AcDbLine
 10
27.810152
 20
15.790353
 30
0.0
 11
27.810152
 21
16.18553
 31
0.0
  0
LINE
  5
137
100
AcDbEntity
  8
OBSTACLE
  6
CONTINUOUS
100
AcDbLine
 10
25.620304
 20
15.790353
 30
0.0
 11
25.620304
 21
16.580706
 31
0.0
  0
LINE
  5
138
100
AcDbEntity
  8
OBSTACLE
  6
CONTINUOUS
100
AcDbLine
 10
23.430455
 20
15.790353
 30
0.0
 11
23.430455
 21
16.18553
 31
0.0
  0
LINE
  5
139
100
AcDbEntity
  8
OBSTACLE
  6
CONTINUOUS
100
AcDbLine
 10
21.240607
 20
15.790353
 30
0.0
 11
21.240607
 21
16.580706
 31
0.0
  0
LINE
  5
13A
100
AcDbEntity
  8
OBSTACLE
  6
CONTINUOUS
100
AcDbLine
 10
19.050759
 20
15.790353
 30
0.0
 11
19.050759
 21
16.18553
 31
0.0
  0
MTEXT
  5
13B
100
AcDbEntity
  8
OBSTACLE
100
AcDbMText
 10
8.430455
 20
18.951765
 30
0.0
 40
158.751211
 41
16.860911
 71
     5
 72
     5
  1
\C7;\fCalibri|b0|i0|;\H158.75121116638;3\P0\P \Pm\Pm\P.
  0
LWPOLYLINE
  5
13C
102
{ACAD_REACTORS
330
13D
102
}
100
AcDbEntity
  8
OBSTACLE
  6
CONTINUOUS
100
AcDbPolyline
 90
        4
 70
     1
 10
16.860911
 20
15.790353
 10
30.0
 20
15.790353
 10
30.0
 20
16.580706
 10
16.860911
 20
16.580706
  0
HATCH
  5
13D
100
AcDbEntity
  8
OBSTACLE
 62
     2
100
AcDbHatch
 10
0.0
 20
0.0
 30
0.0
210
0.0
220
0.0
230
1.0
  2
SOLID
 70
     1
 71
     1
 91
        1
 92
        3
 72
     0
 73
     1
 93
        4
 10
16.860910613100742
 20
15.790353097954643
 10
30.0
 20
15.790353097954643
 10
30.0
 20
16.580706195909286
 10
16.860910613100742
 20
16.580706195909286
 97
        1
330
13C
 75
     0
 76
     1
 98
        0
  0
ENDBLK
  5
13E
100
AcDbEntity
  8
0
100
AcDbBlockEnd
  0
BLOCK
  5
140
100
AcDbEntity
  8
0
100
AcDbBlockBegin
  2
CORNER_SURFACE
 70
     0
 10
0.0
 20
0.0
 30
0.0
  3
CORNER_SURFACE
  1

  0
LWPOLYLINE
  5
141
102
{ACAD_REACTORS
330
1E8
102
}
100
AcDbEntity
  8
BGIMAGE
  6
CONTINUOUS
 62
     7
100
AcDbPolyline
 90
        8
 70
     1
 10
900.0
 20
2100.0
 10
900.0
 20
1500.0
 42
0.414223
 10
1500.0
 20
900.0
 10
2100.0
 20
900.0
 10
2100.0
 20
1500.0
 10
1900.0
 20
1500.0
 10
1500.0
 20
1900.0
 10
1500.0
 20
2100.0
  0
ENDBLK
  5
142
100
AcDbEntity
  8
0
100
AcDbBlockEnd
  0
BLOCK
  5
144
100
AcDbEntity
  8
0
100
AcDbBlockBegin
  2
STORAGE_UNIT
 70
     2
 10
0.0
 20
0.0
 30
0.0
  3
STORAGE_UNIT
  1

  0
ATTDEF
  5
145
100
AcDbEntity
  8
0
100
AcDbText
 10
1500.0
 20
1500.0
 30
0.0
 40
0.2
  1
19.685039370079
100
AcDbAttributeDefinition
  3
Width
  2
WIDTH
 70
     0
  0
ATTDEF
  5
146
100
AcDbEntity
  8
0
100
AcDbText
 10
1500.0
 20
1500.0
 30
0.0
 40
0.2
  1
11.811023622047
100
AcDbAttributeDefinition
  3
Depth
  2
DEPTH
 70
     0
  0
ATTDEF
  5
147
100
AcDbEntity
  8
0
100
AcDbText
 10
1500.0
 20
1500.0
 30
0.0
 40
0.2
  1
27.55905511811
100
AcDbAttributeDefinition
  3
Height
  2
HEIGHT
 70
     0
  0
ATTDEF
  5
148
100
AcDbEntity
  8
0
100
AcDbText
 10
1500.0
 20
1500.0
 30
0.0
 40
0.2
  1
Asset
100
AcDbAttributeDefinition
  3
Shape class
  2
SHAPECLASS
 70
     0
  0
ATTDEF
  5
149
100
AcDbEntity
  8
0
100
AcDbText
 10
1500.0
 20
1500.0
 30
0.0
 40
0.2
  1
Furniture
100
AcDbAttributeDefinition
  3
Shape type
  2
SHAPETYPE
 70
     0
  0
ATTDEF
  5
14A
100
AcDbEntity
  8
0
100
AcDbText
 10
1500.0
 20
1500.0
 30
0.0
 40
0.2
  1
Storage
100
AcDbAttributeDefinition
  3
Subshape type
  2
SUBSHAPETYPE
 70
     0
  0
ATTDEF
  5
14B
100
AcDbEntity
  8
0
100
AcDbText
 10
1500.0
 20
1500.0
 30
0.0
 40
0.2
  1
0
100
AcDbAttributeDefinition
  3
ID
  2
ID
 70
     0
  0
ATTDEF
  5
14C
100
AcDbEntity
  8
0
100
AcDbText
 10
1500.0
 20
1500.0
 30
0.0
 40
0.2
  1
0
100
AcDbAttributeDefinition
  3
Name
  2
NAME
 70
     0
  0
ATTDEF
  5
14D
100
AcDbEntity
  8
0
100
AcDbText
 10
1500.0
 20
1500.0
 30
0.0
 40
0.2
  1
0
100
AcDbAttributeDefinition
  3
Department
  2
DEPARTMENT
 70
     0
  0
ATTDEF
  5
14E
100
AcDbEntity
  8
0
100
AcDbText
 10
1500.0
 20
1500.0
 30
0.0
 40
0.2
  1
0
100
AcDbAttributeDefinition
  3
Belongs to
  2
BELONGSTO
 70
     0
  0
ATTDEF
  5
14F
100
AcDbEntity
  8
0
100
AcDbText
 10
1500.0
 20
1500.0
 30
0.0
 40
0.2
  1
0
100
AcDbAttributeDefinition
  3
Modified
  2
MODIFY
 70
     0
  0
ATTDEF
  5
150
100
AcDbEntity
  8
0
100
AcDbText
 10
1500.0
 20
1500.0
 30
0.0
 40
0.2
  1
0
100
AcDbAttributeDefinition
  3
Asset number
  2
ASSETNUMBER
 70
     0
  0
ATTDEF
  5
151
100
AcDbEntity
  8
0
100
AcDbText
 10
1500.0
 20
1500.0
 30
0.0
 40
0.2
  1
0
100
AcDbAttributeDefinition
  3
Serial number
  2
SERIALNUMBER
 70
     0
  0
ATTDEF
  5
152
100
AcDbEntity
  8
0
100
AcDbText
 10
1500.0
 20
1500.0
 30
0.0
 40
0.2
  1
0
100
AcDbAttributeDefinition
  3
Product description
  2
PRODUCTDESCRIPTION
 70
     0
  0
ATTDEF
  5
153
100
AcDbEntity
  8
0
100
AcDbText
 10
1500.0
 20
1500.0
 30
0.0
 40
0.2
  1
0
100
AcDbAttributeDefinition
  3
Purchase date
  2
PURCHASEDATE
 70
     0
  0
ATTDEF
  5
154
100
AcDbEntity
  8
0
100
AcDbText
 10
1500.0
 20
1500.0
 30
0.0
 40
0.2
  1
0
100
AcDbAttributeDefinition
  3
Product number
  2
PRODUCTNUMBER
 70
     0
  0
ATTDEF
  5
155
100
AcDbEntity
  8
0
100
AcDbText
 10
1500.0
 20
1500.0
 30
0.0
 40
0.2
  1
0
100
AcDbAttributeDefinition
  3
Base elevation
  2
BASEELEVATION
 70
     0
  0
LWPOLYLINE
  5
156
102
{ACAD_REACTORS
330
1E8
102
}
100
AcDbEntity
  8
WALL
  6
CONTINUOUS
 62
     7
100
AcDbPolyline
 90
        4
 70
     1
 10
1650.0
 20
1450.0
 10
1675.0
 20
1450.0
 10
1675.0
 20
1475.0
 10
1650.0
 20
1475.0
  0
LWPOLYLINE
  5
157
102
{ACAD_REACTORS
330
1E8
102
}
100
AcDbEntity
  8
WALL
  6
CONTINUOUS
 62
     7
100
AcDbPolyline
 90
        4
 70
     1
 10
1650.0
 20
1525.0
 10
1675.0
 20
1525.0
 10
1675.0
 20
1550.0
 10
1650.0
 20
1550.0
  0
LWPOLYLINE
  5
158
102
{ACAD_REACTORS
330
1E8
102
}
100
AcDbEntity
  8
WALL
  6
CONTINUOUS
 62
     7
100
AcDbPolyline
 90
        4
 70
     1
 10
1350.0
 20
1250.0
 10
1350.0
 20
1750.0
 10
1625.0
 20
1750.0
 10
1625.0
 20
1250.0
  0
LINE
  5
159
100
AcDbEntity
  8
WALL
  6
CONTINUOUS
 62
     7
100
AcDbLine
 10
1625.0
 20
1500.0
 30
0.0
 11
1650.0
 21
1500.0
 31
0.0
  0
LWPOLYLINE
  5
15A
102
{ACAD_REACTORS
330
1E8
102
}
100
AcDbEntity
  8
WALL
  6
CONTINUOUS
 62
     7
100
AcDbPolyline
 90
        4
 70
     1
 10
1625.0
 20
1250.0
 10
1650.0
 20
1250.0
 10
1650.0
 20
1750.0
 10
1625.0
 20
1750.0
  0
ENDBLK
  5
15B
100
AcDbEntity
  8
0
100
AcDbBlockEnd
  0
BLOCK
  5
15D
100
AcDbEntity
  8
0
100
AcDbBlockBegin
  2
WALL_1
 70
     0
 10
0.0
 20
0.0
 30
0.0
  3
WALL_1
  1

  0
LWPOLYLINE
  5
15E
102
{ACAD_REACTORS
330
1E8
102
}
100
AcDbEntity
  8
BGIMAGE
  6
CONTINUOUS
 62
     7
100
AcDbPolyline
 90
        4
 70
     1
 10
1650.0
 20
1300.0
 10
1650.0
 20
1700.0
 10
1350.0
 20
1700.0
 10
1350.0
 20
1300.0
  0
LWPOLYLINE
  5
15F
102
{ACAD_REACTORS
330
1E8
102
}
100
AcDbEntity
  8
BGIMAGE
  6
CONTINUOUS
 62
     7
100
AcDbPolyline
 90
        4
 70
     1
 10
1650.0
 20
1327.0
 10
1675.0
 20
1327.0
 10
1675.0
 20
1673.0
 10
1650.0
 20
1673.0
  0
ENDBLK
  5
160
100
AcDbEntity
  8
0
100
AcDbBlockEnd
  0
BLOCK
  5
162
100
AcDbEntity
  8
0
100
AcDbBlockBegin
  2
STORAGE_UNIT_16
 70
     2
 10
0.0
 20
0.0
 30
0.0
  3
STORAGE_UNIT_16
  1

  0
ATTDEF
  5
163
100
AcDbEntity
  8
0
100
AcDbText
 10
1500.0
 20
1500.0
 30
0.0
 40
0.2
  1
19.685039370079
100
AcDbAttributeDefinition
  3
Width
  2
WIDTH
 70
     0
  0
ATTDEF
  5
164
100
AcDbEntity
  8
0
100
AcDbText
 10
1500.0
 20
1500.0
 30
0.0
 40
0.2
  1
11.811023622047
100
AcDbAttributeDefinition
  3
Depth
  2
DEPTH
 70
     0
  0
ATTDEF
  5
165
100
AcDbEntity
  8
0
100
AcDbText
 10
1500.0
 20
1500.0
 30
0.0
 40
0.2
  1
27.55905511811
100
AcDbAttributeDefinition
  3
Height
  2
HEIGHT
 70
     0
  0
ATTDEF
  5
166
100
AcDbEntity
  8
0
100
AcDbText
 10
1500.0
 20
1500.0
 30
0.0
 40
0.2
  1
Asset
100
AcDbAttributeDefinition
  3
Shape class
  2
SHAPECLASS
 70
     0
  0
ATTDEF
  5
167
100
AcDbEntity
  8
0
100
AcDbText
 10
1500.0
 20
1500.0
 30
0.0
 40
0.2
  1
Furniture
100
AcDbAttributeDefinition
  3
Shape type
  2
SHAPETYPE
 70
     0
  0
ATTDEF
  5
168
100
AcDbEntity
  8
0
100
AcDbText
 10
1500.0
 20
1500.0
 30
0.0
 40
0.2
  1
Storage
100
AcDbAttributeDefinition
  3
Subshape type
  2
SUBSHAPETYPE
 70
     0
  0
ATTDEF
  5
169
100
AcDbEntity
  8
0
100
AcDbText
 10
1500.0
 20
1500.0
 30
0.0
 40
0.2
  1
0
100
AcDbAttributeDefinition
  3
ID
  2
ID
 70
     0
  0
ATTDEF
  5
16A
100
AcDbEntity
  8
0
100
AcDbText
 10
1500.0
 20
1500.0
 30
0.0
 40
0.2
  1
0
100
AcDbAttributeDefinition
  3
Name
  2
NAME
 70
     0
  0
ATTDEF
  5
16B
100
AcDbEntity
  8
0
100
AcDbText
 10
1500.0
 20
1500.0
 30
0.0
 40
0.2
  1
0
100
AcDbAttributeDefinition
  3
Department
  2
DEPARTMENT
 70
     0
  0
ATTDEF
  5
16C
100
AcDbEntity
  8
0
100
AcDbText
 10
1500.0
 20
1500.0
 30
0.0
 40
0.2
  1
0
100
AcDbAttributeDefinition
  3
Belongs to
  2
BELONGSTO
 70
     0
  0
ATTDEF
  5
16D
100
AcDbEntity
  8
0
100
AcDbText
 10
1500.0
 20
1500.0
 30
0.0
 40
0.2
  1
0
100
AcDbAttributeDefinition
  3
Modified
  2
MODIFY
 70
     0
  0
ATTDEF
  5
16E
100
AcDbEntity
  8
0
100
AcDbText
 10
1500.0
 20
1500.0
 30
0.0
 40
0.2
  1
0
100
AcDbAttributeDefinition
  3
Asset number
  2
ASSETNUMBER
 70
     0
  0
ATTDEF
  5
16F
100
AcDbEntity
  8
0
100
AcDbText
 10
1500.0
 20
1500.0
 30
0.0
 40
0.2
  1
0
100
AcDbAttributeDefinition
  3
Serial number
  2
SERIALNUMBER
 70
     0
  0
ATTDEF
  5
170
100
AcDbEntity
  8
0
100
AcDbText
 10
1500.0
 20
1500.0
 30
0.0
 40
0.2
  1
0
100
AcDbAttributeDefinition
  3
Product description
  2
PRODUCTDESCRIPTION
 70
     0
  0
ATTDEF
  5
171
100
AcDbEntity
  8
0
100
AcDbText
 10
1500.0
 20
1500.0
 30
0.0
 40
0.2
  1
0
100
AcDbAttributeDefinition
  3
Purchase date
  2
PURCHASEDATE
 70
     0
  0
ATTDEF
  5
172
100
AcDbEntity
  8
0
100
AcDbText
 10
1500.0
 20
1500.0
 30
0.0
 40
0.2
  1
0
100
AcDbAttributeDefinition
  3
Product number
  2
PRODUCTNUMBER
 70
     0
  0
ATTDEF
  5
173
100
AcDbEntity
  8
0
100
AcDbText
 10
1500.0
 20
1500.0
 30
0.0
 40
0.2
  1
0
100
AcDbAttributeDefinition
  3
Base elevation
  2
BASEELEVATION
 70
     0
  0
LWPOLYLINE
  5
174
102
{ACAD_REACTORS
330
1E8
102
}
100
AcDbEntity
  8
WALL
  6
CONTINUOUS
 62
     7
100
AcDbPolyline
 90
        4
 70
     1
 10
1650.0
 20
1450.0
 10
1675.0
 20
1450.0
 10
1675.0
 20
1475.0
 10
1650.0
 20
1475.0
  0
LWPOLYLINE
  5
175
102
{ACAD_REACTORS
330
1E8
102
}
100
AcDbEntity
  8
WALL
  6
CONTINUOUS
 62
     7
100
AcDbPolyline
 90
        4
 70
     1
 10
1650.0
 20
1525.0
 10
1675.0
 20
1525.0
 10
1675.0
 20
1550.0
 10
1650.0
 20
1550.0
  0
LWPOLYLINE
  5
176
102
{ACAD_REACTORS
330
1E8
102
}
100
AcDbEntity
  8
WALL
  6
CONTINUOUS
 62
     7
100
AcDbPolyline
 90
        4
 70
     1
 10
1350.0
 20
1250.0
 10
1350.0
 20
1750.0
 10
1625.0
 20
1750.0
 10
1625.0
 20
1250.0
  0
LINE
  5
177
100
AcDbEntity
  8
WALL
  6
CONTINUOUS
 62
     7
100
AcDbLine
 10
1625.0
 20
1500.0
 30
0.0
 11
1650.0
 21
1500.0
 31
0.0
  0
LWPOLYLINE
  5
178
102
{ACAD_REACTORS
330
1E8
102
}
100
AcDbEntity
  8
WALL
  6
CONTINUOUS
 62
     7
100
AcDbPolyline
 90
        4
 70
     1
 10
1625.0
 20
1250.0
 10
1650.0
 20
1250.0
 10
1650.0
 20
1750.0
 10
1625.0
 20
1750.0
  0
ENDBLK
  5
179
100
AcDbEntity
  8
0
100
AcDbBlockEnd
  0
BLOCK
  5
17B
100
AcDbEntity
  8
0
100
AcDbBlockBegin
  2
WORK_PENINSULA
 70
     0
 10
0.0
 20
0.0
 30
0.0
  3
WORK_PENINSULA
  1

  0
LWPOLYLINE
  5
17C
102
{ACAD_REACTORS
330
1E8
102
}
100
AcDbEntity
  8
OBSTACLE
  6
CONTINUOUS
 62
     7
100
AcDbPolyline
 90
        4
 70
     1
 10
1000.0
 20
1800.0
 10
1700.0
 20
1800.0
 42
-1.0
 10
1700.0
 20
1200.0
 10
1000.0
 20
1200.0
  0
LWPOLYLINE
  5
17D
102
{ACAD_REACTORS
330
1E8
102
}
100
AcDbEntity
  8
OBSTACLE
  6
DASHED2
 62
     7
100
AcDbPolyline
 90
        2
 70
     1
 10
1650.0
 20
1500.0
 42
-1.0
 10
1750.0
 20
1500.0
 42
-1.0
  0
ENDBLK
  5
17E
100
AcDbEntity
  8
0
100
AcDbBlockEnd
  0
BLOCK
  5
180
100
AcDbEntity
  8
0
100
AcDbBlockBegin
  2
CORNER_SURFACE_18
 70
     0
 10
0.0
 20
0.0
 30
0.0
  3
CORNER_SURFACE_18
  1

  0
LWPOLYLINE
  5
181
102
{ACAD_REACTORS
330
1E8
102
}
100
AcDbEntity
  8
BGIMAGE
  6
CONTINUOUS
 62
     7
100
AcDbPolyline
 90
        8
 70
     1
 10
900.0
 20
2100.0
 10
900.0
 20
1500.0
 42
0.414223
 10
1500.0
 20
900.0
 10
2100.0
 20
900.0
 10
2100.0
 20
1500.0
 10
1853.5534
 20
1500.0
 10
1500.0
 20
1853.5534
 10
1500.0
 20
2100.0
  0
ENDBLK
  5
182
100
AcDbEntity
  8
0
100
AcDbBlockEnd
  0
BLOCK
  5
184
100
AcDbEntity
  8
0
100
AcDbBlockBegin
  2
WORK_SURFACE_19
 70
     2
 10
0.0
 20
0.0
 30
0.0
  3
WORK_SURFACE_19
  1

  0
ATTDEF
  5
185
100
AcDbEntity
  8
0
100
AcDbText
 10
1500.0
 20
1500.0
 30
0.0
 40
0.2
  1
47.244094488189
100
AcDbAttributeDefinition
  3
Length
  2
LENGTH
 70
     0
  0
ATTDEF
  5
186
100
AcDbEntity
  8
0
100
AcDbText
 10
1500.0
 20
1500.0
 30
0.0
 40
0.2
  1
23.622047244094
100
AcDbAttributeDefinition
  3
Depth
  2
DEPTH
 70
     0
  0
ATTDEF
  5
187
100
AcDbEntity
  8
0
100
AcDbText
 10
1500.0
 20
1500.0
 30
0.0
 40
0.2
  1
Asset
100
AcDbAttributeDefinition
  3
Shape class
  2
SHAPECLASS
 70
     0
  0
ATTDEF
  5
188
100
AcDbEntity
  8
0
100
AcDbText
 10
1500.0
 20
1500.0
 30
0.0
 40
0.2
  1
Furniture
100
AcDbAttributeDefinition
  3
Shape type
  2
SHAPETYPE
 70
     0
  0
ATTDEF
  5
189
100
AcDbEntity
  8
0
100
AcDbText
 10
1500.0
 20
1500.0
 30
0.0
 40
0.2
  1
Worksurface
100
AcDbAttributeDefinition
  3
Subshape type
  2
SUBSHAPETYPE
 70
     0
  0
ATTDEF
  5
18A
100
AcDbEntity
  8
0
100
AcDbText
 10
1500.0
 20
1500.0
 30
0.0
 40
0.2
  1
0
100
AcDbAttributeDefinition
  3
ID
  2
ID
 70
     0
  0
ATTDEF
  5
18B
100
AcDbEntity
  8
0
100
AcDbText
 10
1500.0
 20
1500.0
 30
0.0
 40
0.2
  1
0
100
AcDbAttributeDefinition
  3
Name
  2
NAME
 70
     0
  0
ATTDEF
  5
18C
100
AcDbEntity
  8
0
100
AcDbText
 10
1500.0
 20
1500.0
 30
0.0
 40
0.2
  1
0
100
AcDbAttributeDefinition
  3
Department
  2
DEPARTMENT
 70
     0
  0
ATTDEF
  5
18D
100
AcDbEntity
  8
0
100
AcDbText
 10
1500.0
 20
1500.0
 30
0.0
 40
0.2
  1
0
100
AcDbAttributeDefinition
  3
Belongs to
  2
BELONGSTO
 70
     0
  0
ATTDEF
  5
18E
100
AcDbEntity
  8
0
100
AcDbText
 10
1500.0
 20
1500.0
 30
0.0
 40
0.2
  1
0
100
AcDbAttributeDefinition
  3
Modified
  2
MODIFY
 70
     0
  0
ATTDEF
  5
18F
100
AcDbEntity
  8
0
100
AcDbText
 10
1500.0
 20
1500.0
 30
0.0
 40
0.2
  1
0
100
AcDbAttributeDefinition
  3
Asset number
  2
ASSETNUMBER
 70
     0
  0
ATTDEF
  5
190
100
AcDbEntity
  8
0
100
AcDbText
 10
1500.0
 20
1500.0
 30
0.0
 40
0.2
  1
0
100
AcDbAttributeDefinition
  3
Serial number
  2
SERIALNUMBER
 70
     0
  0
ATTDEF
  5
191
100
AcDbEntity
  8
0
100
AcDbText
 10
1500.0
 20
1500.0
 30
0.0
 40
0.2
  1
0
100
AcDbAttributeDefinition
  3
Product description
  2
PRODUCTDESCRIPTION
 70
     0
  0
ATTDEF
  5
192
100
AcDbEntity
  8
0
100
AcDbText
 10
1500.0
 20
1500.0
 30
0.0
 40
0.2
  1
0
100
AcDbAttributeDefinition
  3
Purchase date
  2
PURCHASEDATE
 70
     0
  0
ATTDEF
  5
193
100
AcDbEntity
  8
0
100
AcDbText
 10
1500.0
 20
1500.0
 30
0.0
 40
0.2
  1
0
100
AcDbAttributeDefinition
  3
Product number
  2
PRODUCTNUMBER
 70
     0
  0
ATTDEF
  5
194
100
AcDbEntity
  8
0
100
AcDbText
 10
1500.0
 20
1500.0
 30
0.0
 40
0.2
  1
0
100
AcDbAttributeDefinition
  3
Base elevation
  2
BASEELEVATION
 70
     0
  0
LWPOLYLINE
  5
195
102
{ACAD_REACTORS
330
1E8
102
}
100
AcDbEntity
  8
BGIMAGE
  6
CONTINUOUS
 62
     7
100
AcDbPolyline
 90
        4
 70
     1
 10
1200.0
 20
900.0
 10
1800.0
 20
900.0
 10
1800.0
 20
2100.0
 10
1200.0
 20
2100.0
  0
ENDBLK
  5
196
100
AcDbEntity
  8
0
100
AcDbBlockEnd
  0
BLOCK
  5
198
100
AcDbEntity
  8
0
100
AcDbBlockBegin
  2
BOOKSHELF
 70
     2
 10
0.0
 20
0.0
 30
0.0
  3
BOOKSHELF
  1

  0
ATTDEF
  5
199
100
AcDbEntity
  8
0
100
AcDbText
 10
1500.0
 20
1500.0
 30
0.0
 40
0.2
  1
11.811023622047
100
AcDbAttributeDefinition
  3
Depth
  2
DEPTH
 70
     0
  0
ATTDEF
  5
19A
100
AcDbEntity
  8
0
100
AcDbText
 10
1500.0
 20
1500.0
 30
0.0
 40
0.2
  1
39.370078740157
100
AcDbAttributeDefinition
  3
Length
  2
LENGTH
 70
     0
  0
ATTDEF
  5
19B
100
AcDbEntity
  8
0
100
AcDbText
 10
1500.0
 20
1500.0
 30
0.0
 40
0.2
  1
Asset
100
AcDbAttributeDefinition
  3
Shape class
  2
SHAPECLASS
 70
     0
  0
ATTDEF
  5
19C
100
AcDbEntity
  8
0
100
AcDbText
 10
1500.0
 20
1500.0
 30
0.0
 40
0.2
  1
Furniture
100
AcDbAttributeDefinition
  3
Shape type
  2
SHAPETYPE
 70
     0
  0
ATTDEF
  5
19D
100
AcDbEntity
  8
0
100
AcDbText
 10
1500.0
 20
1500.0
 30
0.0
 40
0.2
  1
Shelf
100
AcDbAttributeDefinition
  3
Subshape type
  2
SUBSHAPETYPE
 70
     0
  0
ATTDEF
  5
19E
100
AcDbEntity
  8
0
100
AcDbText
 10
1500.0
 20
1500.0
 30
0.0
 40
0.2
  1
0
100
AcDbAttributeDefinition
  3
ID
  2
ID
 70
     0
  0
ATTDEF
  5
19F
100
AcDbEntity
  8
0
100
AcDbText
 10
1500.0
 20
1500.0
 30
0.0
 40
0.2
  1
0
100
AcDbAttributeDefinition
  3
Name
  2
NAME
 70
     0
  0
ATTDEF
  5
1A0
100
AcDbEntity
  8
0
100
AcDbText
 10
1500.0
 20
1500.0
 30
0.0
 40
0.2
  1
0
100
AcDbAttributeDefinition
  3
Department
  2
DEPARTMENT
 70
     0
  0
ATTDEF
  5
1A1
100
AcDbEntity
  8
0
100
AcDbText
 10
1500.0
 20
1500.0
 30
0.0
 40
0.2
  1
0
100
AcDbAttributeDefinition
  3
Belongs to
  2
BELONGSTO
 70
     0
  0
ATTDEF
  5
1A2
100
AcDbEntity
  8
0
100
AcDbText
 10
1500.0
 20
1500.0
 30
0.0
 40
0.2
  1
0
100
AcDbAttributeDefinition
  3
Modified
  2
MODIFY
 70
     0
  0
ATTDEF
  5
1A3
100
AcDbEntity
  8
0
100
AcDbText
 10
1500.0
 20
1500.0
 30
0.0
 40
0.2
  1
0
100
AcDbAttributeDefinition
  3
Asset number
  2
ASSETNUMBER
 70
     0
  0
ATTDEF
  5
1A4
100
AcDbEntity
  8
0
100
AcDbText
 10
1500.0
 20
1500.0
 30
0.0
 40
0.2
  1
0
100
AcDbAttributeDefinition
  3
Serial number
  2
SERIALNUMBER
 70
     0
  0
ATTDEF
  5
1A5
100
AcDbEntity
  8
0
100
AcDbText
 10
1500.0
 20
1500.0
 30
0.0
 40
0.2
  1
0
100
AcDbAttributeDefinition
  3
Product description
  2
PRODUCTDESCRIPTION
 70
     0
  0
ATTDEF
  5
1A6
100
AcDbEntity
  8
0
100
AcDbText
 10
1500.0
 20
1500.0
 30
0.0
 40
0.2
  1
0
100
AcDbAttributeDefinition
  3
Purchase date
  2
PURCHASEDATE
 70
     0
  0
ATTDEF
  5
1A7
100
AcDbEntity
  8
0
100
AcDbText
 10
1500.0
 20
1500.0
 30
0.0
 40
0.2
  1
0
100
AcDbAttributeDefinition
  3
Product number
  2
PRODUCTNUMBER
 70
     0
  0
ATTDEF
  5
1A8
100
AcDbEntity
  8
0
100
AcDbText
 10
1500.0
 20
1500.0
 30
0.0
 40
0.2
  1
0
100
AcDbAttributeDefinition
  3
Base elevation
  2
BASEELEVATION
 70
     0
  0
LWPOLYLINE
  5
1A9
100
AcDbEntity
  8
BGIMAGE
  6
CONTINUOUS
 62
     7
100
AcDbPolyline
 90
        4
 70
     0
 10
1650.0
 20
1025.0
 10
1375.0
 20
1025.0
 10
1375.0
 20
1975.0
 10
1650.0
 20
1975.0
  0
LWPOLYLINE
  5
1AA
102
{ACAD_REACTORS
330
1E8
102
}
100
AcDbEntity
  8
BGIMAGE
  6
CONTINUOUS
 62
     7
100
AcDbPolyline
 90
        4
 70
     1
 10
1350.0
 20
1000.0
 10
1650.0
 20
1000.0
 10
1650.0
 20
2000.0
 10
1350.0
 20
2000.0
  0
ENDBLK
  5
1AB
100
AcDbEntity
  8
0
100
AcDbBlockEnd
  0
BLOCK
  5
1AD
100
AcDbEntity
  8
0
100
AcDbBlockBegin
  2
FLAT_FILE
 70
     2
 10
0.0
 20
0.0
 30
0.0
  3
FLAT_FILE
  1

  0
ATTDEF
  5
1AE
100
AcDbEntity
  8
0
100
AcDbText
 10
1500.0
 20
1500.0
 30
0.0
 40
0.2
  1
47.244094488189
100
AcDbAttributeDefinition
  3
Width
  2
WIDTH
 70
     0
  0
ATTDEF
  5
1AF
100
AcDbEntity
  8
0
100
AcDbText
 10
1500.0
 20
1500.0
 30
0.0
 40
0.2
  1
35.433070866142
100
AcDbAttributeDefinition
  3
Depth
  2
DEPTH
 70
     0
  0
ATTDEF
  5
1B0
100
AcDbEntity
  8
0
100
AcDbText
 10
1500.0
 20
1500.0
 30
0.0
 40
0.2
  1
Asset
100
AcDbAttributeDefinition
  3
Shape class
  2
SHAPECLASS
 70
     0
  0
ATTDEF
  5
1B1
100
AcDbEntity
  8
0
100
AcDbText
 10
1500.0
 20
1500.0
 30
0.0
 40
0.2
  1
Furniture
100
AcDbAttributeDefinition
  3
Shape type
  2
SHAPETYPE
 70
     0
  0
ATTDEF
  5
1B2
100
AcDbEntity
  8
0
100
AcDbText
 10
1500.0
 20
1500.0
 30
0.0
 40
0.2
  1
File Cabinet
100
AcDbAttributeDefinition
  3
Subshape type
  2
SUBSHAPETYPE
 70
     0
  0
ATTDEF
  5
1B3
100
AcDbEntity
  8
0
100
AcDbText
 10
1500.0
 20
1500.0
 30
0.0
 40
0.2
  1
0
100
AcDbAttributeDefinition
  3
ID
  2
ID
 70
     0
  0
ATTDEF
  5
1B4
100
AcDbEntity
  8
0
100
AcDbText
 10
1500.0
 20
1500.0
 30
0.0
 40
0.2
  1
0
100
AcDbAttributeDefinition
  3
Name
  2
NAME
 70
     0
  0
ATTDEF
  5
1B5
100
AcDbEntity
  8
0
100
AcDbText
 10
1500.0
 20
1500.0
 30
0.0
 40
0.2
  1
0
100
AcDbAttributeDefinition
  3
Department
  2
DEPARTMENT
 70
     0
  0
ATTDEF
  5
1B6
100
AcDbEntity
  8
0
100
AcDbText
 10
1500.0
 20
1500.0
 30
0.0
 40
0.2
  1
0
100
AcDbAttributeDefinition
  3
Belongs to
  2
BELONGSTO
 70
     0
  0
ATTDEF
  5
1B7
100
AcDbEntity
  8
0
100
AcDbText
 10
1500.0
 20
1500.0
 30
0.0
 40
0.2
  1
0
100
AcDbAttributeDefinition
  3
Modified
  2
MODIFY
 70
     0
  0
ATTDEF
  5
1B8
100
AcDbEntity
  8
0
100
AcDbText
 10
1500.0
 20
1500.0
 30
0.0
 40
0.2
  1
0
100
AcDbAttributeDefinition
  3
Asset number
  2
ASSETNUMBER
 70
     0
  0
ATTDEF
  5
1B9
100
AcDbEntity
  8
0
100
AcDbText
 10
1500.0
 20
1500.0
 30
0.0
 40
0.2
  1
0
100
AcDbAttributeDefinition
  3
Serial number
  2
SERIALNUMBER
 70
     0
  0
ATTDEF
  5
1BA
100
AcDbEntity
  8
0
100
AcDbText
 10
1500.0
 20
1500.0
 30
0.0
 40
0.2
  1
0
100
AcDbAttributeDefinition
  3
Product description
  2
PRODUCTDESCRIPTION
 70
     0
  0
ATTDEF
  5
1BB
100
AcDbEntity
  8
0
100
AcDbText
 10
1500.0
 20
1500.0
 30
0.0
 40
0.2
  1
0
100
AcDbAttributeDefinition
  3
Purchase date
  2
PURCHASEDATE
 70
     0
  0
ATTDEF
  5
1BC
100
AcDbEntity
  8
0
100
AcDbText
 10
1500.0
 20
1500.0
 30
0.0
 40
0.2
  1
0
100
AcDbAttributeDefinition
  3
Product number
  2
PRODUCTNUMBER
 70
     0
  0
ATTDEF
  5
1BD
100
AcDbEntity
  8
0
100
AcDbText
 10
1500.0
 20
1500.0
 30
0.0
 40
0.2
  1
0
100
AcDbAttributeDefinition
  3
Base elevation
  2
BASEELEVATION
 70
     0
  0
LWPOLYLINE
  5
1BE
102
{ACAD_REACTORS
330
1E8
102
}
100
AcDbEntity
  8
BGIMAGE
  6
CONTINUOUS
 62
     7
100
AcDbPolyline
 90
        4
 70
     1
 10
1950.0
 20
1160.0
 10
1950.0
 20
1260.0
 10
1970.0
 20
1260.0
 10
1970.0
 20
1160.0
  0
LWPOLYLINE
  5
1BF
102
{ACAD_REACTORS
330
1E8
102
}
100
AcDbEntity
  8
BGIMAGE
  6
CONTINUOUS
 62
     7
100
AcDbPolyline
 90
        4
 70
     1
 10
1070.0
 20
920.0
 10
1070.0
 20
2080.0
 10
1950.0
 20
2080.0
 10
1950.0
 20
920.0
  0
LINE
  5
1C0
100
AcDbEntity
  8
BGIMAGE
  6
CONTINUOUS
 62
     7
100
AcDbLine
 10
1930.0
 20
920.0
 30
0.0
 11
1930.0
 21
2080.0
 31
0.0
  0
LINE
  5
1C1
100
AcDbEntity
  8
BGIMAGE
  6
CONTINUOUS
 62
     7
100
AcDbLine
 10
1070.0
 20
940.0
 30
0.0
 11
1930.0
 21
940.0
 31
0.0
  0
LINE
  5
1C2
100
AcDbEntity
  8
BGIMAGE
  6
CONTINUOUS
 62
     7
100
AcDbLine
 10
1070.0
 20
2060.0
 30
0.0
 11
1930.0
 21
2060.0
 31
0.0
  0
LWPOLYLINE
  5
1C3
102
{ACAD_REACTORS
330
1E8
102
}
100
AcDbEntity
  8
BGIMAGE
  6
CONTINUOUS
 62
     7
100
AcDbPolyline
 90
        4
 70
     1
 10
1950.0
 20
1740.0
 10
1950.0
 20
1840.0
 10
1970.0
 20
1840.0
 10
1970.0
 20
1740.0
  0
LWPOLYLINE
  5
1C4
102
{ACAD_REACTORS
330
1E8
102
}
100
AcDbEntity
  8
BGIMAGE
  6
CONTINUOUS
 62
     7
100
AcDbPolyline
 90
        4
 70
     1
 10
1050.0
 20
900.0
 10
1950.0
 20
900.0
 10
1950.0
 20
2100.0
 10
1050.0
 20
2100.0
  0
ENDBLK
  5
1C5
100
AcDbEntity
  8
0
100
AcDbBlockEnd
  0
BLOCK
  5
1C7
100
AcDbEntity
  8
0
100
AcDbBlockBegin
  2
DESK
 70
     0
 10
0.0
 20
0.0
 30
0.0
  3
DESK
  1

  0
LWPOLYLINE
  5
1C8
102
{ACAD_REACTORS
330
1E8
102
}
100
AcDbEntity
  8
BGIMAGE
  6
CONTINUOUS
 62
     7
100
AcDbPolyline
 90
        4
 70
     1
 10
1100.0
 20
700.0
 10
1900.0
 20
700.0
 10
1900.0
 20
2300.0
 10
1100.0
 20
2300.0
  0
ENDBLK
  5
1C9
100
AcDbEntity
  8
0
100
AcDbBlockEnd
  0
BLOCK
  5
1CB
100
AcDbEntity
  8
0
100
AcDbBlockBegin
  2
BASIN
 70
     2
 10
0.0
 20
0.0
 30
0.0
  3
BASIN
  1

  0
ATTDEF
  5
1CC
100
AcDbEntity
  8
0
100
AcDbText
 10
1200.0
 20
1500.0
 30
0.0
 40
0.2
  1
Building Component
100
AcDbAttributeDefinition
  3
Shape class
  2
SHAPECLASS
 70
     0
  0
ATTDEF
  5
1CD
100
AcDbEntity
  8
0
100
AcDbText
 10
1200.0
 20
1500.0
 30
0.0
 40
0.2
  1
Plumbing Fixture
100
AcDbAttributeDefinition
  3
Shape type
  2
SHAPETYPE
 70
     0
  0
ATTDEF
  5
1CE
100
AcDbEntity
  8
0
100
AcDbText
 10
1200.0
 20
1500.0
 30
0.0
 40
0.2
  1
Sink
100
AcDbAttributeDefinition
  3
Subshape type
  2
SUBSHAPETYPE
 70
     0
  0
ATTDEF
  5
1CF
100
AcDbEntity
  8
0
100
AcDbText
 10
1200.0
 20
1500.0
 30
0.0
 40
0.2
  1
0
100
AcDbAttributeDefinition
  3
Top elevation
  2
TOPELEVATION
 70
     0
  0
LWPOLYLINE
  5
1D0
102
{ACAD_REACTORS
330
1E8
102
}
100
AcDbEntity
  8
BGIMAGE
  6
CONTINUOUS
 62
     7
100
AcDbPolyline
 90
        4
 70
     1
 10
1750.0
 20
1225.0
 10
1750.0
 20
1775.0
 10
1250.0
 20
1775.0
 10
1250.0
 20
1225.0
  0
LWPOLYLINE
  5
1D1
102
{ACAD_REACTORS
330
1E8
102
}
100
AcDbEntity
  8
BGIMAGE
  6
CONTINUOUS
 62
     7
100
AcDbPolyline
 90
        8
 70
     1
 10
1691.729323
 20
1673.80719
 42
0.414214
 10
1664.661654
 20
1701.30719
 10
1433.082707
 20
1701.30719
 42
0.414214
 10
1406.015038
 20
1673.80719
 10
1406.015038
 20
1326.19281
 42
0.414214
 10
1433.082707
 20
1298.69281
 10
1664.661654
 20
1298.69281
 42
0.414214
 10
1691.729323
 20
1326.19281
  0
ELLIPSE
  5
1D2
100
AcDbEntity
  8
BGIMAGE
  6
CONTINUOUS
 62
     7
100
AcDbEllipse
 10
1531.954887
 20
1500.0
 30
0.0
 11
0.0
 21
30.555555555555621
 31
0.0
210
0.0
220
0.0
230
1.0
 40
0.984279
 41
3.1415926535897931
 42
6.2831853071796004
  0
ELLIPSE
  5
1D3
100
AcDbEntity
  8
BGIMAGE
  6
CONTINUOUS
 62
     7
100
AcDbEllipse
 10
1531.954887
 20
1500.0
 30
0.0
 11
0.0
 21
30.555555555555486
 31
0.0
210
0.0
220
0.0
230
1.0
 40
0.984279
 41
0.0000000000000022
 42
3.1415926535897909
  0
LWPOLYLINE
  5
1D4
102
{ACAD_REACTORS
330
1E8
102
}
100
AcDbEntity
  8
BGIMAGE
  6
CONTINUOUS
 62
     7
100
AcDbPolyline
 90
        8
 70
     1
 10
1733.082707
 20
1731.323528
 42
0.414214
 10
1706.015038
 20
1758.823528
 10
1293.984962
 20
1758.823528
 42
0.414214
 10
1266.917293
 20
1731.323528
 10
1266.917293
 20
1268.676472
 42
0.414214
 10
1293.984962
 20
1241.176472
 10
1706.015038
 20
1241.176472
 42
0.414214
 10
1733.082707
 20
1268.676472
  0
LWPOLYLINE
  5
1D5
102
{ACAD_REACTORS
330
1E8
102
}
100
AcDbEntity
  8
BGIMAGE
  6
CONTINUOUS
 62
     7
100
AcDbPolyline
 90
        8
 70
     1
 10
1706.766917
 20
1702.56536
 42
0.414214
 10
1679.699248
 20
1730.06536
 10
1418.045113
 20
1730.06536
 42
0.414214
 10
1390.977444
 20
1702.56536
 10
1390.977444
 20
1297.434639
 42
0.414214
 10
1418.045113
 20
1269.934639
 10
1679.699248
 20
1269.934639
 42
0.414214
 10
1706.766917
 20
1297.434639
  0
LINE
  5
1D6
100
AcDbEntity
  8
BGIMAGE
  6
CONTINUOUS
 62
     7
100
AcDbLine
 10
1341.262641
 20
1530.555555
 30
0.0
 11
1341.262641
 21
1591.666667
 31
0.0
  0
LINE
  5
1D7
100
AcDbEntity
  8
BGIMAGE
  6
CONTINUOUS
 62
     7
100
AcDbLine
 10
1310.150376
 20
1562.719299
 30
0.0
 11
1370.300752
 21
1562.719299
 31
0.0
  0
LINE
  5
1D8
100
AcDbEntity
  8
BGIMAGE
  6
CONTINUOUS
 62
     7
100
AcDbLine
 10
1341.262641
 20
1408.333333
 30
0.0
 11
1341.262641
 21
1469.444444
 31
0.0
  0
LINE
  5
1D9
100
AcDbEntity
  8
BGIMAGE
  6
CONTINUOUS
 62
     7
100
AcDbLine
 10
1310.150376
 20
1440.497077
 30
0.0
 11
1370.300752
 21
1440.497077
 31
0.0
  0
LWPOLYLINE
  5
1DA
102
{ACAD_REACTORS
330
1E8
102
}
100
AcDbEntity
  8
BGIMAGE
  6
CONTINUOUS
 62
     7
100
AcDbPolyline
 90
        4
 70
     1
 10
1464.285714
 20
1484.722222
 10
1464.285714
 20
1515.277778
 10
1313.909774
 20
1515.277778
 10
1313.909774
 20
1484.722222
  0
ENDBLK
  5
1DB
100
AcDbEntity
  8
0
100
AcDbBlockEnd
  0
BLOCK
  5
1DD
100
AcDbEntity
  8
0
100
AcDbBlockBegin
  2
TABLE
 70
     0
 10
0.0
 20
0.0
 30
0.0
  3
TABLE
  1

  0
LWPOLYLINE
  5
1DE
102
{ACAD_REACTORS
330
1E8
102
}
100
AcDbEntity
  8
BGIMAGE
  6
CONTINUOUS
 62
     7
100
AcDbPolyline
 90
        4
 70
     1
 10
1000.0
 20
600.0
 10
2000.0
 20
600.0
 10
2000.0
 20
2400.0
 10
1000.0
 20
2400.0
  0
ENDBLK
  5
1DF
100
AcDbEntity
  8
0
100
AcDbBlockEnd
  0
BLOCK
  5
1E1
100
AcDbEntity
  8
0
100
AcDbBlockBegin
  2
REFERENCE_RECTANGLE
 70
     2
 10
0.0
 20
0.0
 30
0.0
  3
REFERENCE_RECTANGLE
  1

  0
LWPOLYLINE
  5
1E2
102
{ACAD_REACTORS
330
1E8
102
}
100
AcDbEntity
  8
BGIMAGE
  6
CONTINUOUS
100
AcDbPolyline
 90
        4
 70
     1
 10
45.0
 20
55.0
 10
45.0
 20
45.0
 10
55.0
 20
45.0
 10
55.0
 20
55.0
  0
MTEXT
  5
1E3
100
AcDbEntity
  8
BGIMAGE
100
AcDbMText
 10
50.0
 20
50.0
 30
0.0
 40
105.83293
 41
10.0
 71
     5
 72
     5
  1
\C7;\fCalibri|b0|i0|;\H105.83292961121;1
  0
ENDBLK
  5
1E4
100
AcDbEntity
  8
0
100
AcDbBlockEnd
  0
BLOCK
  5
1E6
100
AcDbEntity
  8
0
100
AcDbBlockBegin
  2
WALL_26
 70
     0
 10
0.0
 20
0.0
 30
0.0
  3
WALL_26
  1

  0
LWPOLYLINE
  5
1E7
102
{ACAD_REACTORS
330
1E8
102
}
100
AcDbEntity
  8
BGIMAGE
  6
CONTINUOUS
 62
     7
100
AcDbPolyline
 90
        6
 70
     1
 10
0.0
 20
1600.0
 10
3000.0
 20
1600.0
 10
3000.0
 20
1550.0
 10
3000.0
 20
1500.0
 10
0.0
 20
1500.0
 10
0.0
 20
1550.0
  0
HATCH
  5
1E8
100
AcDbEntity
  8
BGIMAGE
 62
   253
100
AcDbHatch
 10
0.0
 20
0.0
 30
0.0
210
0.0
220
0.0
230
1.0
  2
SOLID
 70
     1
 71
     1
 91
        1
 92
        3
 72
     0
 73
     1
 93
        6
 10
0.0
 20
1600.0
 10
2999.9999999999986
 20
1600.0
 10
2999.9999999999986
 20
1550.0
 10
2999.9999999999986
 20
1500.0
 10
0.0
 20
1500.0
 10
0.0
 20
1550.0
 97
       29
330
141
330
156
330
157
330
158
330
15A
330
15E
330
15F
330
174
330
175
330
176
330
178
330
17C
330
17D
330
181
330
195
330
1AA
330
1BE
330
1BF
330
1C3
330
1C4
330
1C8
330
1D0
330
1D1
330
1D4
330
1D5
330
1DA
330
1DE
330
1E2
330
1E7
 75
     0
 76
     1
 98
        0
  0
LWPOLYLINE
  5
1E9
100
AcDbEntity
  8
BGIMAGE
  6
CONTINUOUS
 62
     7
100
AcDbPolyline
 90
        4
 70
     0
 10
0.0
 20
1550.0
 10
0.0
 20
1600.0
 10
3000.0
 20
1600.0
 10
3000.0
 20
1550.0
  0
LWPOLYLINE
  5
1EA
100
AcDbEntity
  8
BGIMAGE
  6
CONTINUOUS
 62
     7
100
AcDbPolyline
 90
        4
 70
     0
 10
0.0
 20
1550.0
 10
0.0
 20
1500.0
 10
3000.0
 20
1500.0
 10
3000.0
 20
1550.0
  0
ENDBLK
  5
1EB
100
AcDbEntity
  8
0
100
AcDbBlockEnd
  0
BLOCK
  5
1ED
100
AcDbEntity
  8
0
100
AcDbBlockBegin
  2
WINDOW_27
 70
     2
 10
0.0
 20
0.0
 30
0.0
  3
WINDOW_27
  1

  0
ATTDEF
  5
1EE
100
AcDbEntity
  8
0
100
AcDbText
 10
1500.0
 20
1500.0
 30
0.0
 40
0.2
  1
51.181102362205
100
AcDbAttributeDefinition
  3
Window height
  2
VISWNDWHEIGHT
 70
     0
  0
ATTDEF
  5
1EF
100
AcDbEntity
  8
0
100
AcDbText
 10
1500.0
 20
1500.0
 30
0.0
 40
0.2
  1
0
100
AcDbAttributeDefinition
  3
Reference Line Offset
  2
REFLN
 70
     0
  0
ATTDEF
  5
1F0
100
AcDbEntity
  8
0
100
AcDbText
 10
1500.0
 20
1500.0
 30
0.0
 40
0.2
  1
35.433070866142
100
AcDbAttributeDefinition
  3
Window width
  2
SUBTYPE
 70
     0
  0
ATTDEF
  5
1F1
100
AcDbEntity
  8
0
100
AcDbText
 10
1500.0
 20
1500.0
 30
0.0
 40
0.2
  1
7.8740157480315
100
AcDbAttributeDefinition
  3
Window frame depth
  2
SUBVISWNDWFRAMEDEPTH
 70
     0
  0
ATTDEF
  5
1F2
100
AcDbEntity
  8
0
100
AcDbText
 10
1500.0
 20
1500.0
 30
0.0
 40
0.2
  1
1.9685039370079
100
AcDbAttributeDefinition
  3
Window frame width
  2
SUBVISWNDWFRAMEWIDTH
 70
     0
  0
ATTDEF
  5
1F3
100
AcDbEntity
  8
0
100
AcDbText
 10
1500.0
 20
1500.0
 30
0.0
 40
0.2
  1
1.9685039370079
100
AcDbAttributeDefinition
  3
Window sash depth
  2
SUBVISWNDWSASHDEPTH
 70
     0
  0
ATTDEF
  5
1F4
100
AcDbEntity
  8
0
100
AcDbText
 10
1500.0
 20
1500.0
 30
0.0
 40
0.2
  1
1.9685039370079
100
AcDbAttributeDefinition
  3
Window sash width
  2
SUBVISWNDWSASHWIDTH
 70
     0
  0
ATTDEF
  5
1F5
100
AcDbEntity
  8
0
100
AcDbText
 10
1500.0
 20
1500.0
 30
0.0
 40
0.2
  1
1.9685039370079
100
AcDbAttributeDefinition
  3
Window sill depth inside
  2
SUBVISWNDWSILLDEPTHIN
 70
     0
  0
ATTDEF
  5
1F6
100
AcDbEntity
  8
0
100
AcDbText
 10
1500.0
 20
1500.0
 30
0.0
 40
0.2
  1
1.9685039370079
100
AcDbAttributeDefinition
  3
Window sill width inside
  2
SUBVISWNDWSILLWIDTHIN
 70
     0
  0
ATTDEF
  5
1F7
100
AcDbEntity
  8
0
100
AcDbText
 10
1500.0
 20
1500.0
 30
0.0
 40
0.2
  1
1.9685039370079
100
AcDbAttributeDefinition
  3
Window sill depth outside
  2
SUBVISWNDWSILLDEPTHOUT
 70
     0
  0
ATTDEF
  5
1F8
100
AcDbEntity
  8
0
100
AcDbText
 10
1500.0
 20
1500.0
 30
0.0
 40
0.2
  1
1.9685039370079
100
AcDbAttributeDefinition
  3
Window sill width outside
  2
SUBVISWNDWSILLWIDTHOUT
 70
     0
  0
ATTDEF
  5
1F9
100
AcDbEntity
  8
0
100
AcDbText
 10
1500.0
 20
1500.0
 30
0.0
 40
0.2
  1
82.677165354331
100
AcDbAttributeDefinition
  3
Window header height
  2
VISWNDWHEADERHEIGHT
 70
     0
  0
ATTDEF
  5
1FA
100
AcDbEntity
  8
0
100
AcDbText
 10
1500.0
 20
1500.0
 30
0.0
 40
0.2
  1
3.9370078740157
100
AcDbAttributeDefinition
  3
Window along wall offset
  2
VISWNDWALONGWALLOFFSET
 70
     0
  0
ATTDEF
  5
1FB
100
AcDbEntity
  8
0
100
AcDbText
 10
1500.0
 20
1500.0
 30
0.0
 40
0.2
  1
17.716535433071
100
AcDbAttributeDefinition
  3
Window operator size
  2
VISWNDWOPERATOR
 70
     0
  0
ATTDEF
  5
1FC
100
AcDbEntity
  8
0
100
AcDbText
 10
1500.0
 20
1500.0
 30
0.0
 40
0.2
  1
41.338582677165
100
AcDbAttributeDefinition
  3
Window spring height
  2
VISWNDWSPRING
 70
     0
  0
ATTDEF
  5
1FD
100
AcDbEntity
  8
0
100
AcDbText
 10
1500.0
 20
1500.0
 30
0.0
 40
0.2
  1
Center
100
AcDbAttributeDefinition
  3
Window within wall offset
  2
VISJUSTIFICATION
 70
     0
  0
ATTDEF
  5
1FE
100
AcDbEntity
  8
0
100
AcDbText
 10
1500.0
 20
1500.0
 30
0.0
 40
0.2
  1
Building Component
100
AcDbAttributeDefinition
  3
Shape class
  2
SHAPECLASS
 70
     0
  0
ATTDEF
  5
1FF
100
AcDbEntity
  8
0
100
AcDbText
 10
1500.0
 20
1500.0
 30
0.0
 40
0.2
  1
Window
100
AcDbAttributeDefinition
  3
Shape type
  2
SHAPETYPE
 70
     0
  0
ATTDEF
  5
200
100
AcDbEntity
  8
0
100
AcDbText
 10
1500.0
 20
1500.0
 30
0.0
 40
0.2
  1
Picture
100
AcDbAttributeDefinition
  3
Window type
  2
SUBSHAPETYPE
 70
     0
  0
ATTDEF
  5
201
100
AcDbEntity
  8
0
100
AcDbText
 10
1500.0
 20
1500.0
 30
0.0
 40
0.2
  1
0
100
AcDbAttributeDefinition
  3
Window number
  2
WNDWNUMBER
 70
     0
  0
ATTDEF
  5
202
100
AcDbEntity
  8
0
100
AcDbText
 10
1500.0
 20
1500.0
 30
0.0
 40
0.2
  1
0
100
AcDbAttributeDefinition
  3
Fire rating
  2
FIRERATING
 70
     0
  0
LWPOLYLINE
  5
203
100
AcDbEntity
  8
BGIMAGE
  6
CONTINUOUS
 62
     7
100
AcDbPolyline
 90
        4
 70
     1
 10
1050.0
 20
1419.92
 10
1950.0
 20
1419.92
 10
1950.0
 20
1580.08
 10
1050.0
 20
1580.08
  0
LINE
  5
204
100
AcDbEntity
  8
BGIMAGE
  6
CONTINUOUS
 62
     7
100
AcDbLine
 10
1050.0
 20
1425.0
 30
0.0
 11
1050.0
 21
1575.0
 31
0.0
  0
LINE
  5
205
100
AcDbEntity
  8
BGIMAGE
  6
CONTINUOUS
 62
     7
100
AcDbLine
 10
1050.0
 20
1575.0
 30
0.0
 11
1100.0
 21
1575.0
 31
0.0
  0
LINE
  5
206
100
AcDbEntity
  8
BGIMAGE
  6
CONTINUOUS
 62
     7
100
AcDbLine
 10
1100.0
 20
1575.0
 30
0.0
 11
1100.0
 21
1525.0
 31
0.0
  0
LINE
  5
207
100
AcDbEntity
  8
BGIMAGE
  6
CONTINUOUS
 62
     7
100
AcDbLine
 10
1100.0
 20
1475.0
 30
0.0
 11
1100.0
 21
1425.0
 31
0.0
  0
LINE
  5
208
100
AcDbEntity
  8
BGIMAGE
  6
CONTINUOUS
 62
     7
100
AcDbLine
 10
1100.0
 20
1425.0
 30
0.0
 11
1050.0
 21
1425.0
 31
0.0
  0
LINE
  5
209
100
AcDbEntity
  8
BGIMAGE
  6
CONTINUOUS
 62
     7
100
AcDbLine
 10
1950.0
 20
1425.0
 30
0.0
 11
1950.0
 21
1575.0
 31
0.0
  0
LINE
  5
20A
100
AcDbEntity
  8
BGIMAGE
  6
CONTINUOUS
 62
     7
100
AcDbLine
 10
1950.0
 20
1575.0
 30
0.0
 11
1900.0
 21
1575.0
 31
0.0
  0
LINE
  5
20B
100
AcDbEntity
  8
BGIMAGE
  6
CONTINUOUS
 62
     7
100
AcDbLine
 10
1900.0
 20
1575.0
 30
0.0
 11
1900.0
 21
1525.0
 31
0.0
  0
LINE
  5
20C
100
AcDbEntity
  8
BGIMAGE
  6
CONTINUOUS
 62
     7
100
AcDbLine
 10
1900.0
 20
1475.0
 30
0.0
 11
1900.0
 21
1425.0
 31
0.0
  0
LINE
  5
20D
100
AcDbEntity
  8
BGIMAGE
  6
CONTINUOUS
 62
     7
100
AcDbLine
 10
1900.0
 20
1425.0
 30
0.0
 11
1950.0
 21
1425.0
 31
0.0
  0
LWPOLYLINE
  5
20E
100
AcDbEntity
  8
BGIMAGE
  6
CONTINUOUS
 62
     7
100
AcDbPolyline
 90
        4
 70
     1
 10
1100.0
 20
1525.0
 10
1150.0
 20
1525.0
 10
1150.0
 20
1475.0
 10
1100.0
 20
1475.0
  0
LWPOLYLINE
  5
20F
100
AcDbEntity
  8
BGIMAGE
  6
CONTINUOUS
 62
     7
100
AcDbPolyline
 90
        4
 70
     1
 10
1900.0
 20
1525.0
 10
1850.0
 20
1525.0
 10
1850.0
 20
1475.0
 10
1900.0
 20
1475.0
  0
LINE
  5
210
100
AcDbEntity
  8
BGIMAGE
  6
CONTINUOUS
 62
     7
100
AcDbLine
 10
1150.0
 20
1500.0
 30
0.0
 11
1850.0
 21
1500.0
 31
0.0
  0
LINE
  5
211
100
AcDbEntity
  8
BGIMAGE
  6
CONTINUOUS
 62
     7
100
AcDbLine
 10
1050.0
 20
1425.0
 30
0.0
 11
1050.0
 21
1575.0
 31
0.0
  0
LINE
  5
212
100
AcDbEntity
  8
BGIMAGE
  6
CONTINUOUS
 62
     7
100
AcDbLine
 10
1950.0
 20
1425.0
 30
0.0
 11
1950.0
 21
1575.0
 31
0.0
  0
ENDBLK
  5
213
100
AcDbEntity
  8
0
100
AcDbBlockEnd
  0
BLOCK
  5
215
100
AcDbEntity
  8
0
100
AcDbBlockBegin
  2
DOOR
 70
     2
 10
0.0
 20
0.0
 30
0.0
  3
DOOR
  1

  0
ATTDEF
  5
216
100
AcDbEntity
  8
0
100
AcDbText
 10
1500.0
 20
1500.0
 30
0.0
 40
0.2
  1
82.677165354331
100
AcDbAttributeDefinition
  3
Door height
  2
VISDOORHEIGHT
 70
     0
  0
ATTDEF
  5
217
100
AcDbEntity
  8
0
100
AcDbText
 10
1500.0
 20
1500.0
 30
0.0
 40
0.2
  1
0
100
AcDbAttributeDefinition
  3
Reference Line Offset
  2
REFLN
 70
     0
  0
ATTDEF
  5
218
100
AcDbEntity
  8
0
100
AcDbText
 10
1500.0
 20
1500.0
 30
0.0
 40
0.2
  1
35.433070866142
100
AcDbAttributeDefinition
  3
Door width
  2
SUBTYPE
 70
     0
  0
ATTDEF
  5
219
100
AcDbEntity
  8
0
100
AcDbText
 10
1500.0
 20
1500.0
 30
0.0
 40
0.2
  1
1.9685039370079
100
AcDbAttributeDefinition
  3
Door frame width
  2
SUBVISDOORFRAMEWIDTH
 70
     0
  0
ATTDEF
  5
21A
100
AcDbEntity
  8
0
100
AcDbText
 10
1500.0
 20
1500.0
 30
0.0
 40
0.2
  1
1.9685039370079
100
AcDbAttributeDefinition
  3
Door frame depth
  2
SUBVISDOORFRAMEDEPTH
 70
     0
  0
ATTDEF
  5
21B
100
AcDbEntity
  8
0
100
AcDbText
 10
1500.0
 20
1500.0
 30
0.0
 40
0.2
  1
0.78740157480315
100
AcDbAttributeDefinition
  3
Door stop width
  2
SUBVISDOORSTOPWIDTH
 70
     0
  0
ATTDEF
  5
21C
100
AcDbEntity
  8
0
100
AcDbText
 10
1500.0
 20
1500.0
 30
0.0
 40
0.2
  1
1.9685039370079
100
AcDbAttributeDefinition
  3
Door stop depth
  2
SUBVISDOORSTOPDEPTH
 70
     0
  0
ATTDEF
  5
21D
100
AcDbEntity
  8
0
100
AcDbText
 10
1500.0
 20
1500.0
 30
0.0
 40
0.2
  1
1.9685039370079
100
AcDbAttributeDefinition
  3
Door threshold depth inside
  2
SUBVISDOORTHRESDEPTHIN
 70
     0
  0
ATTDEF
  5
21E
100
AcDbEntity
  8
0
100
AcDbText
 10
1500.0
 20
1500.0
 30
0.0
 40
0.2
  1
1.9685039370079
100
AcDbAttributeDefinition
  3
Door threshold width inside
  2
SUBVISDOORTHRESWIDTHIN
 70
     0
  0
ATTDEF
  5
21F
100
AcDbEntity
  8
0
100
AcDbText
 10
1500.0
 20
1500.0
 30
0.0
 40
0.2
  1
1.9685039370079
100
AcDbAttributeDefinition
  3
Door threshold depth outside
  2
SUBVISDOORTHRESDEPTHOUT
 70
     0
  0
ATTDEF
  5
220
100
AcDbEntity
  8
0
100
AcDbText
 10
1500.0
 20
1500.0
 30
0.0
 40
0.2
  1
1.9685039370079
100
AcDbAttributeDefinition
  3
Door threshold width outside
  2
SUBVISDOORTHRESWIDTHOUT
 70
     0
  0
ATTDEF
  5
221
100
AcDbEntity
  8
0
100
AcDbText
 10
1500.0
 20
1500.0
 30
0.0
 40
0.2
  1
1.9685039370079
100
AcDbAttributeDefinition
  3
Door panel thickness
  2
SUBVISDOORPANELTHICKNESS
 70
     0
  0
ATTDEF
  5
222
100
AcDbEntity
  8
0
100
AcDbText
 10
1500.0
 20
1500.0
 30
0.0
 40
0.2
  1
17.716535433071
100
AcDbAttributeDefinition
  3
Door leaf width
  2
VISDOORLEAF
 70
     0
  0
ATTDEF
  5
223
100
AcDbEntity
  8
0
100
AcDbText
 10
1500.0
 20
1500.0
 30
0.0
 40
0.2
  1
41.338582677165
100
AcDbAttributeDefinition
  3
Door spring height
  2
VISDOORSPRING
 70
     0
  0
ATTDEF
  5
224
100
AcDbEntity
  8
0
100
AcDbText
 10
1500.0
 20
1500.0
 30
0.0
 40
0.2
  1
3.9370078740157
100
AcDbAttributeDefinition
  3
Door along wall offset
  2
VISDOORALONGWALLOFFSET
 70
     0
  0
ATTDEF
  5
225
100
AcDbEntity
  8
0
100
AcDbText
 10
1500.0
 20
1500.0
 30
0.0
 40
0.2
  1
Single
100
AcDbAttributeDefinition
  3
Door type
  2
SUBSHAPETYPE
 70
     0
  0
ATTDEF
  5
226
100
AcDbEntity
  8
0
100
AcDbText
 10
1500.0
 20
1500.0
 30
0.0
 40
0.2
  1
Center
100
AcDbAttributeDefinition
  3
Door within wall offset
  2
VISJUSTIFICATION
 70
     0
  0
ATTDEF
  5
227
100
AcDbEntity
  8
0
100
AcDbText
 10
1500.0
 20
1500.0
 30
0.0
 40
0.2
  1
50
100
AcDbAttributeDefinition
  3
Door open percentage
  2
VISDOOROPENPERCENT
 70
     0
  0
ATTDEF
  5
228
100
AcDbEntity
  8
0
100
AcDbText
 10
1500.0
 20
1500.0
 30
0.0
 40
0.2
  1
Building Component
100
AcDbAttributeDefinition
  3
Shape class
  2
SHAPECLASS
 70
     0
  0
ATTDEF
  5
229
100
AcDbEntity
  8
0
100
AcDbText
 10
1500.0
 20
1500.0
 30
0.0
 40
0.2
  1
Door
100
AcDbAttributeDefinition
  3
Shape type
  2
SHAPETYPE
 70
     0
  0
ATTDEF
  5
22A
100
AcDbEntity
  8
0
100
AcDbText
 10
1500.0
 20
1500.0
 30
0.0
 40
0.2
  1
0
100
AcDbAttributeDefinition
  3
Fire rating
  2
FIRERATING
 70
     0
  0
ATTDEF
  5
22B
100
AcDbEntity
  8
0
100
AcDbText
 10
1500.0
 20
1500.0
 30
0.0
 40
0.2
  1
0
100
AcDbAttributeDefinition
  3
Door number
  2
DOORNUMBER
 70
     0
  0
ATTDEF
  5
22C
100
AcDbEntity
  8
0
100
AcDbText
 10
1500.0
 20
1500.0
 30
0.0
 40
0.2
  1
0
100
AcDbAttributeDefinition
  3
Base elevation
  2
BASEELEVATION
 70
     0
  0
LWPOLYLINE
  5
22D
100
AcDbEntity
  8
BGIMAGE
  6
CONTINUOUS
 62
     7
100
AcDbPolyline
 90
        4
 70
     1
 10
1000.0
 20
1419.92
 10
2000.0
 20
1419.92
 10
2000.0
 20
1580.08
 10
1000.0
 20
1580.08
  0
LINE
  5
22E
100
AcDbEntity
  8
BGIMAGE
  6
CONTINUOUS
 62
     7
100
AcDbLine
 10
2000.0
 20
1425.0
 30
0.0
 11
2000.0
 21
1575.0
 31
0.0
  0
LINE
  5
22F
100
AcDbEntity
  8
BGIMAGE
  6
CONTINUOUS
 62
     7
100
AcDbLine
 10
2000.0
 20
1575.0
 30
0.0
 11
1950.0
 21
1575.0
 31
0.0
  0
LINE
  5
230
100
AcDbEntity
  8
BGIMAGE
  6
CONTINUOUS
 62
     7
100
AcDbLine
 10
1950.0
 20
1575.0
 30
0.0
 11
1950.0
 21
1525.0
 31
0.0
  0
LINE
  5
231
100
AcDbEntity
  8
BGIMAGE
  6
CONTINUOUS
 62
     7
100
AcDbLine
 10
1950.0
 20
1475.0
 30
0.0
 11
1950.0
 21
1425.0
 31
0.0
  0
LINE
  5
232
100
AcDbEntity
  8
BGIMAGE
  6
CONTINUOUS
 62
     7
100
AcDbLine
 10
1950.0
 20
1425.0
 30
0.0
 11
2000.0
 21
1425.0
 31
0.0
  0
LINE
  5
233
100
AcDbEntity
  8
BGIMAGE
  6
CONTINUOUS
 62
     7
100
AcDbLine
 10
1000.0
 20
1425.0
 30
0.0
 11
1000.0
 21
1575.0
 31
0.0
  0
LINE
  5
234
100
AcDbEntity
  8
BGIMAGE
  6
CONTINUOUS
 62
     7
100
AcDbLine
 10
1000.0
 20
1575.0
 30
0.0
 11
1050.0
 21
1575.0
 31
0.0
  0
LINE
  5
235
100
AcDbEntity
  8
BGIMAGE
  6
CONTINUOUS
 62
     7
100
AcDbLine
 10
1050.0
 20
1575.0
 30
0.0
 11
1050.0
 21
1525.0
 31
0.0
  0
LINE
  5
236
100
AcDbEntity
  8
BGIMAGE
  6
CONTINUOUS
 62
     7
100
AcDbLine
 10
1050.0
 20
1475.0
 30
0.0
 11
1050.0
 21
1425.0
 31
0.0
  0
LINE
  5
237
100
AcDbEntity
  8
BGIMAGE
  6
CONTINUOUS
 62
     7
100
AcDbLine
 10
1050.0
 20
1425.0
 30
0.0
 11
1000.0
 21
1425.0
 31
0.0
  0
LINE
  5
238
100
AcDbEntity
  8
BGIMAGE
  6
CONTINUOUS
 62
     7
100
AcDbLine
 10
1950.0
 20
1525.0
 30
0.0
 11
1930.0
 21
1525.0
 31
0.0
  0
LINE
  5
239
100
AcDbEntity
  8
BGIMAGE
  6
CONTINUOUS
 62
     7
100
AcDbLine
 10
1930.0
 20
1525.0
 30
0.0
 11
1930.0
 21
1475.0
 31
0.0
  0
LINE
  5
23A
100
AcDbEntity
  8
BGIMAGE
  6
CONTINUOUS
 62
     7
100
AcDbLine
 10
1930.0
 20
1475.0
 30
0.0
 11
1950.0
 21
1475.0
 31
0.0
  0
LINE
  5
23B
100
AcDbEntity
  8
BGIMAGE
  6
CONTINUOUS
 62
     7
100
AcDbLine
 10
1050.0
 20
1525.0
 30
0.0
 11
1070.0
 21
1525.0
 31
0.0
  0
LINE
  5
23C
100
AcDbEntity
  8
BGIMAGE
  6
CONTINUOUS
 62
     7
100
AcDbLine
 10
1070.0
 20
1525.0
 30
0.0
 11
1070.0
 21
1475.0
 31
0.0
  0
LINE
  5
23D
100
AcDbEntity
  8
BGIMAGE
  6
CONTINUOUS
 62
     7
100
AcDbLine
 10
1070.0
 20
1475.0
 30
0.0
 11
1050.0
 21
1475.0
 31
0.0
  0
LINE
  5
23E
100
AcDbEntity
  8
BGIMAGE
  6
CONTINUOUS
 62
     7
100
AcDbLine
 10
2000.0
 20
1425.0
 30
0.0
 11
2000.0
 21
1575.0
 31
0.0
  0
LINE
  5
23F
100
AcDbEntity
  8
BGIMAGE
  6
CONTINUOUS
 62
     7
100
AcDbLine
 10
1000.0
 20
1425.0
 30
0.0
 11
1000.0
 21
1575.0
 31
0.0
  0
ARC
  5
240
100
AcDbEntity
  8
BGIMAGE
  6
CONTINUOUS
 62
     7
100
AcDbCircle
 10
1950.0
 20
1575.0
 30
0.0
 40
900.0
100
AcDbArc
 50
90.0
 51
180.0
  0
LWPOLYLINE
  5
241
100
AcDbEntity
  8
BGIMAGE
  6
CONTINUOUS
 62
     7
100
AcDbPolyline
 90
        4
 70
     1
 10
1900.0
 20
2475.0
 10
1900.0
 20
1575.0
 10
1950.0
 20
1575.0
 10
1950.0
 20
2475.0
  0
ENDBLK
  5
242
100
AcDbEntity
  8
0
100
AcDbBlockEnd
  0
ENDSEC
  0
SECTION
  2
ENTITIES
  0
LWPOLYLINE
  5
33
102
{ACAD_REACTORS
330
34
102
}
100
AcDbEntity
  8
WALL
  6
CONTINUOUS
100
AcDbPolyline
 90
        4
 70
     1
 10
49650.0
 20
16500.0
 10
49650.0
 20
11450.0
 10
49500.0
 20
11300.0
 10
49500.0
 20
16650.0
  0
HATCH
  5
34
102
{ACAD_REACTORS
330
31
102
}
100
AcDbEntity
  8
WALL
 62
   253
100
AcDbHatch
 10
0.0
 20
0.0
 30
0.0
210
0.0
220
0.0
230
1.0
  2
SOLID
 70
     1
 71
     1
 91
        1
 92
        3
 72
     0
 73
     1
 93
        4
 10
49649.999999999993
 20
16500.000000000004
 10
49649.999999999993
 20
11450.0
 10
49499.999999999993
 20
11300.0
 10
49499.999999999993
 20
16650.000000000004
 97
        1
330
33
 75
     0
 76
     1
 98
        0
  0
LINE
  5
35
102
{ACAD_REACTORS
330
31
102
}
100
AcDbEntity
  8
WALL
  6
CONTINUOUS
100
AcDbLine
 10
49650.0
 20
16500.0
 30
0.0
 11
49650.0
 21
11450.0
 31
0.0
  0
LINE
  5
36
102
{ACAD_REACTORS
330
31
102
}
100
AcDbEntity
  8
WALL
  6
CONTINUOUS
100
AcDbLine
 10
49500.0
 20
16650.0
 30
0.0
 11
49500.0
 21
11300.0
 31
0.0
  0
LWPOLYLINE
  5
38
102
{ACAD_REACTORS
330
39
102
}
100
AcDbEntity
  8
WALL
  6
CONTINUOUS
100
AcDbPolyline
 90
        5
 70
     1
 10
49650.0
 20
11450.0
 10
53200.0
 20
11450.0
 10
53200.0
 20
11375.0
 10
53200.0
 20
11300.0
 10
49500.0
 20
11300.0
  0
HATCH
  5
39
102
{ACAD_REACTORS
330
37
102
}
100
AcDbEntity
  8
WALL
 62
   253
100
AcDbHatch
 10
0.0
 20
0.0
 30
0.0
210
0.0
220
0.0
230
1.0
  2
SOLID
 70
     1
 71
     1
 91
        1
 92
        3
 72
     0
 73
     1
 93
        5
 10
49649.999999999993
 20
11449.999999999996
 10
53199.999999999985
 20
11449.999999999996
 10
53199.999999999985
 20
11374.999999999996
 10
53199.999999999985
 20
11299.999999999996
 10
49499.999999999993
 20
11299.999999999996
 97
        1
330
38
 75
     0
 76
     1
 98
        0
  0
LWPOLYLINE
  5
3A
102
{ACAD_REACTORS
330
37
102
}
100
AcDbEntity
  8
WALL
  6
CONTINUOUS
100
AcDbPolyline
 90
        3
 70
     0
 10
49650.0
 20
11450.0
 10
53200.0
 20
11450.0
 10
53200.0
 20
11375.0
  0
LWPOLYLINE
  5
3B
102
{ACAD_REACTORS
330
37
102
}
100
AcDbEntity
  8
WALL
  6
CONTINUOUS
100
AcDbPolyline
 90
        3
 70
     0
 10
49500.0
 20
11300.0
 10
53200.0
 20
11300.0
 10
53200.0
 20
11375.0
  0
LWPOLYLINE
  5
3D
102
{ACAD_REACTORS
330
3E
102
}
100
AcDbEntity
  8
WALL
  6
CONTINUOUS
100
AcDbPolyline
 90
        5
 70
     1
 10
49500.0
 20
16650.0
 10
53200.0
 20
16650.0
 10
53200.0
 20
16575.0
 10
53200.0
 20
16500.0
 10
49650.0
 20
16500.0
  0
HATCH
  5
3E
102
{ACAD_REACTORS
330
3C
102
}
100
AcDbEntity
  8
WALL
 62
   253
100
AcDbHatch
 10
0.0
 20
0.0
 30
0.0
210
0.0
220
0.0
230
1.0
  2
SOLID
 70
     1
 71
     1
 91
        1
 92
        3
 72
     0
 73
     1
 93
        5
 10
49499.999999999985
 20
16649.999999999978
 10
53199.999999999971
 20
16650.000000000022
 10
53199.999999999985
 20
16575.000000000025
 10
53199.999999999985
 20
16500.000000000025
 10
49649.999999999993
 20
16499.999999999982
 97
        1
330
3D
 75
     0
 76
     1
 98
        0
  0
LWPOLYLINE
  5
3F
102
{ACAD_REACTORS
330
3C
102
}
100
AcDbEntity
  8
WALL
  6
CONTINUOUS
100
AcDbPolyline
 90
        3
 70
     0
 10
49500.0
 20
16650.0
 10
53200.0
 20
16650.0
 10
53200.0
 20
16575.0
  0
LWPOLYLINE
  5
40
102
{ACAD_REACTORS
330
3C
102
}
100
AcDbEntity
  8
WALL
  6
CONTINUOUS
100
AcDbPolyline
 90
        3
 70
     0
 10
49650.0
 20
16500.0
 10
53200.0
 20
16500.0
 10
53200.0
 20
16575.0
  0
LWPOLYLINE
  5
42
102
{ACAD_REACTORS
330
43
102
}
100
AcDbEntity
  8
WALL
  6
CONTINUOUS
100
AcDbPolyline
 90
        4
 70
     1
 10
53050.0
 20
11450.0
 10
53050.0
 20
16500.0
 10
53200.0
 20
16500.0
 10
53200.0
 20
11450.0
  0
HATCH
  5
43
102
{ACAD_REACTORS
330
41
102
}
100
AcDbEntity
  8
WALL
 62
   253
100
AcDbHatch
 10
0.0
 20
0.0
 30
0.0
210
0.0
220
0.0
230
1.0
  2
SOLID
 70
     1
 71
     1
 91
        1
 92
        3
 72
     0
 73
     1
 93
        4
 10
53049.999999999993
 20
11449.999999999996
 10
53049.999999999993
 20
16499.999999999996
 10
53199.999999999993
 20
16500.0
 10
53199.999999999993
 20
11449.999999999998
 97
        1
330
42
 75
     0
 76
     1
 98
        0
  0
LWPOLYLINE
  5
44
102
{ACAD_REACTORS
330
45
102
}
100
AcDbEntity
  8
WALL
  6
CONTINUOUS
100
AcDbPolyline
 90
        4
 70
     1
 10
53200.0
 20
11450.0
 10
53050.0
 20
11450.0
 10
53050.0
 20
11435.0
 10
53200.0
 20
11435.0
  0
HATCH
  5
45
102
{ACAD_REACTORS
330
41
102
}
100
AcDbEntity
  8
WALL
 62
   253
100
AcDbHatch
 10
0.0
 20
0.0
 30
0.0
210
0.0
220
0.0
230
1.0
  2
SOLID
 70
     1
 71
     1
 91
        1
 92
        3
 72
     0
 73
     1
 93
        4
 10
53199.999999999993
 20
11449.999999999996
 10
53049.999999999993
 20
11449.999999999996
 10
53049.999999999993
 20
11434.999999999996
 10
53199.999999999993
 20
11434.999999999996
 97
        1
330
44
 75
     0
 76
     1
 98
        0
  0
LWPOLYLINE
  5
46
102
{ACAD_REACTORS
330
47
102
}
100
AcDbEntity
  8
WALL
  6
CONTINUOUS
100
AcDbPolyline
 90
        4
 70
     1
 10
53050.0
 20
16500.0
 10
53200.0
 20
16500.0
 10
53200.0
 20
16515.0
 10
53050.0
 20
16515.0
  0
HATCH
  5
47
102
{ACAD_REACTORS
330
41
102
}
100
AcDbEntity
  8
WALL
 62
   253
100
AcDbHatch
 10
0.0
 20
0.0
 30
0.0
210
0.0
220
0.0
230
1.0
  2
SOLID
 70
     1
 71
     1
 91
        1
 92
        3
 72
     0
 73
     1
 93
        4
 10
53049.999999999993
 20
16500.0
 10
53199.999999999993
 20
16500.0
 10
53199.999999999993
 20
16514.999999999996
 10
53049.999999999993
 20
16514.999999999996
 97
        1
330
46
 75
     0
 76
     1
 98
        0
  0
LINE
  5
48
102
{ACAD_REACTORS
330
41
102
}
100
AcDbEntity
  8
WALL
  6
CONTINUOUS
100
AcDbLine
 10
53050.0
 20
11450.0
 30
0.0
 11
53050.0
 21
16500.0
 31
0.0
  0
LINE
  5
49
102
{ACAD_REACTORS
330
41
102
}
100
AcDbEntity
  8
WALL
  6
CONTINUOUS
100
AcDbLine
 10
53200.0
 20
11450.0
 30
0.0
 11
53200.0
 21
16500.0
 31
0.0
  0
LWPOLYLINE
  5
4B
102
{ACAD_REACTORS
330
BF
102
}
100
AcDbEntity
  8
OCCUPIED
  6
CONTINUOUS
100
AcDbPolyline
 90
        8
 70
     1
 10
53050.0
 20
15000.0
 10
53050.0
 20
15900.0
 42
0.414223
 10
52450.0
 20
16500.0
 10
51850.0
 20
16500.0
 10
51850.0
 20
15900.0
 10
52050.0
 20
15900.0
 10
52450.0
 20
15500.0
 10
52450.0
 20
15000.0
  0
LWPOLYLINE
  5
4E
102
{ACAD_REACTORS
330
4C
102
}
100
AcDbEntity
  8
OBSTACLE
  6
CONTINUOUS
100
AcDbPolyline
 90
        4
 70
     1
 10
51300.0
 20
16000.0
 10
51300.0
 20
15975.0
 10
51325.0
 20
15975.0
 10
51325.0
 20
16000.0
  0
LWPOLYLINE
  5
4F
102
{ACAD_REACTORS
330
4C
102
}
100
AcDbEntity
  8
OBSTACLE
  6
CONTINUOUS
100
AcDbPolyline
 90
        4
 70
     1
 10
51375.0
 20
16000.0
 10
51375.0
 20
15975.0
 10
51400.0
 20
15975.0
 10
51400.0
 20
16000.0
  0
LWPOLYLINE
  5
50
102
{ACAD_REACTORS
330
4C
102
}
100
AcDbEntity
  8
OBSTACLE
  6
CONTINUOUS
100
AcDbPolyline
 90
        4
 70
     1
 10
50850.0
 20
16500.0
 10
51850.0
 20
16500.0
 10
51850.0
 20
16025.0
 10
50850.0
 20
16025.0
  0
LINE
  5
51
102
{ACAD_REACTORS
330
4C
102
}
100
AcDbEntity
  8
OBSTACLE
  6
CONTINUOUS
100
AcDbLine
 10
51350.0
 20
16025.0
 30
0.0
 11
51350.0
 21
16000.0
 31
0.0
  0
LWPOLYLINE
  5
52
102
{ACAD_REACTORS
330
4C
102
}
100
AcDbEntity
  8
OBSTACLE
  6
CONTINUOUS
100
AcDbPolyline
 90
        4
 70
     1
 10
50850.0
 20
16025.0
 10
50850.0
 20
16000.0
 10
51850.0
 20
16000.0
 10
51850.0
 20
16025.0
  0
LWPOLYLINE
  5
54
102
{ACAD_REACTORS
330
53
102
}
100
AcDbEntity
  8
OCCUPIED
  6
CONTINUOUS
100
AcDbPolyline
 90
        4
 70
     1
 10
50450.0
 20
11450.0
 10
50450.0
 20
13650.0
 42
-1.0
 10
52250.0
 20
13650.0
 10
52250.0
 20
11450.0
  0
LWPOLYLINE
  5
56
102
{ACAD_REACTORS
330
53
102
}
100
AcDbEntity
  8
OCCUPIED
  6
DASHED2
100
AcDbPolyline
 90
        2
 70
     1
 10
51350.0
 20
13600.0
 42
-1.0
 10
51350.0
 20
13700.0
 42
-1.0
  0
LWPOLYLINE
  5
57
102
{ACAD_REACTORS
330
BF
102
}
100
AcDbEntity
  8
OCCUPIED
  6
CONTINUOUS
100
AcDbPolyline
 90
        4
 70
     1
 10
49850.0
 20
11450.0
 10
50450.0
 20
11450.0
 10
50450.0
 20
11850.0
 10
49850.0
 20
11850.0
  0
LWPOLYLINE
  5
58
102
{ACAD_REACTORS
330
BF
102
}
100
AcDbEntity
  8
OCCUPIED
  6
CONTINUOUS
100
AcDbPolyline
 90
        4
 70
     1
 10
52250.0
 20
11450.0
 10
52850.0
 20
11450.0
 10
52850.0
 20
11850.0
 10
52250.0
 20
11850.0
  0
LWPOLYLINE
  5
5A
102
{ACAD_REACTORS
330
59
102
}
100
AcDbEntity
  8
OBSTACLE
  6
CONTINUOUS
100
AcDbPolyline
 90
        4
 70
     0
 10
49950.0
 20
13725.0
 10
49675.0
 20
13725.0
 10
49675.0
 20
15675.0
 10
49950.0
 20
15675.0
  0
LWPOLYLINE
  5
5B
102
{ACAD_REACTORS
330
59
102
}
100
AcDbEntity
  8
OBSTACLE
  6
CONTINUOUS
100
AcDbPolyline
 90
        4
 70
     1
 10
49650.0
 20
13700.0
 10
49950.0
 20
13700.0
 10
49950.0
 20
15700.0
 10
49650.0
 20
15700.0
  0
LWPOLYLINE
  5
5D
102
{ACAD_REACTORS
330
5C
102
}
100
AcDbEntity
  8
OBSTACLE
  6
CONTINUOUS
100
AcDbPolyline
 90
        4
 70
     1
 10
49950.0
 20
16050.0
 10
49975.0
 20
16050.0
 10
49975.0
 20
16075.0
 10
49950.0
 20
16075.0
  0
LWPOLYLINE
  5
5E
102
{ACAD_REACTORS
330
5C
102
}
100
AcDbEntity
  8
OBSTACLE
  6
CONTINUOUS
100
AcDbPolyline
 90
        4
 70
     1
 10
49950.0
 20
16125.0
 10
49975.0
 20
16125.0
 10
49975.0
 20
16150.0
 10
49950.0
 20
16150.0
  0
LWPOLYLINE
  5
5F
102
{ACAD_REACTORS
330
5C
102
}
100
AcDbEntity
  8
OBSTACLE
  6
CONTINUOUS
100
AcDbPolyline
 90
        4
 70
     1
 10
49650.0
 20
15700.0
 10
49650.0
 20
16500.0
 10
49925.0
 20
16500.0
 10
49925.0
 20
15700.0
  0
LINE
  5
60
102
{ACAD_REACTORS
330
5C
102
}
100
AcDbEntity
  8
OBSTACLE
  6
CONTINUOUS
100
AcDbLine
 10
49925.0
 20
16100.0
 30
0.0
 11
49950.0
 21
16100.0
 31
0.0
  0
LWPOLYLINE
  5
61
102
{ACAD_REACTORS
330
5C
102
}
100
AcDbEntity
  8
OBSTACLE
  6
CONTINUOUS
100
AcDbPolyline
 90
        4
 70
     1
 10
49925.0
 20
15700.0
 10
49950.0
 20
15700.0
 10
49950.0
 20
16500.0
 10
49925.0
 20
16500.0
  0
LWPOLYLINE
  5
63
102
{ACAD_REACTORS
330
62
102
}
100
AcDbEntity
  8
OBSTACLE
  6
CONTINUOUS
100
AcDbPolyline
 90
        4
 70
     1
 10
52175.0
 20
11297.46
 10
53075.0
 20
11297.46
 10
53075.0
 20
11452.54
 10
52175.0
 20
11452.54
  0
LINE
  5
64
102
{ACAD_REACTORS
330
62
102
}
100
AcDbEntity
  8
OBSTACLE
  6
CONTINUOUS
100
AcDbLine
 10
52175.0
 20
11300.0
 30
0.0
 11
52175.0
 21
11450.0
 31
0.0
  0
LINE
  5
65
102
{ACAD_REACTORS
330
62
102
}
100
AcDbEntity
  8
OBSTACLE
  6
CONTINUOUS
100
AcDbLine
 10
52175.0
 20
11450.0
 30
0.0
 11
52225.0
 21
11450.0
 31
0.0
  0
LINE
  5
66
102
{ACAD_REACTORS
330
62
102
}
100
AcDbEntity
  8
OBSTACLE
  6
CONTINUOUS
100
AcDbLine
 10
52225.0
 20
11450.0
 30
0.0
 11
52225.0
 21
11400.0
 31
0.0
  0
LINE
  5
67
102
{ACAD_REACTORS
330
62
102
}
100
AcDbEntity
  8
OBSTACLE
  6
CONTINUOUS
100
AcDbLine
 10
52225.0
 20
11350.0
 30
0.0
 11
52225.0
 21
11300.0
 31
0.0
  0
LINE
  5
68
102
{ACAD_REACTORS
330
62
102
}
100
AcDbEntity
  8
OBSTACLE
  6
CONTINUOUS
100
AcDbLine
 10
52225.0
 20
11300.0
 30
0.0
 11
52175.0
 21
11300.0
 31
0.0
  0
LINE
  5
69
102
{ACAD_REACTORS
330
62
102
}
100
AcDbEntity
  8
OBSTACLE
  6
CONTINUOUS
100
AcDbLine
 10
53075.0
 20
11300.0
 30
0.0
 11
53075.0
 21
11450.0
 31
0.0
  0
LINE
  5
6A
102
{ACAD_REACTORS
330
62
102
}
100
AcDbEntity
  8
OBSTACLE
  6
CONTINUOUS
100
AcDbLine
 10
53075.0
 20
11450.0
 30
0.0
 11
53025.0
 21
11450.0
 31
0.0
  0
LINE
  5
6B
102
{ACAD_REACTORS
330
62
102
}
100
AcDbEntity
  8
OBSTACLE
  6
CONTINUOUS
100
AcDbLine
 10
53025.0
 20
11450.0
 30
0.0
 11
53025.0
 21
11400.0
 31
0.0
  0
LINE
  5
6C
102
{ACAD_REACTORS
330
62
102
}
100
AcDbEntity
  8
OBSTACLE
  6
CONTINUOUS
100
AcDbLine
 10
53025.0
 20
11350.0
 30
0.0
 11
53025.0
 21
11300.0
 31
0.0
  0
LINE
  5
6D
102
{ACAD_REACTORS
330
62
102
}
100
AcDbEntity
  8
OBSTACLE
  6
CONTINUOUS
100
AcDbLine
 10
53025.0
 20
11300.0
 30
0.0
 11
53075.0
 21
11300.0
 31
0.0
  0
LWPOLYLINE
  5
6E
102
{ACAD_REACTORS
330
62
102
}
100
AcDbEntity
  8
OBSTACLE
  6
CONTINUOUS
100
AcDbPolyline
 90
        4
 70
     1
 10
52225.0
 20
11400.0
 10
52275.0
 20
11400.0
 10
52275.0
 20
11350.0
 10
52225.0
 20
11350.0
  0
LWPOLYLINE
  5
6F
102
{ACAD_REACTORS
330
62
102
}
100
AcDbEntity
  8
OBSTACLE
  6
CONTINUOUS
100
AcDbPolyline
 90
        4
 70
     1
 10
53025.0
 20
11400.0
 10
52975.0
 20
11400.0
 10
52975.0
 20
11350.0
 10
53025.0
 20
11350.0
  0
LINE
  5
70
102
{ACAD_REACTORS
330
62
102
}
100
AcDbEntity
  8
OBSTACLE
  6
CONTINUOUS
100
AcDbLine
 10
52275.0
 20
11375.0
 30
0.0
 11
52975.0
 21
11375.0
 31
0.0
  0
LINE
  5
71
102
{ACAD_REACTORS
330
62
102
}
100
AcDbEntity
  8
OBSTACLE
  6
CONTINUOUS
100
AcDbLine
 10
52175.0
 20
11300.0
 30
0.0
 11
52175.0
 21
11450.0
 31
0.0
  0
LINE
  5
72
102
{ACAD_REACTORS
330
62
102
}
100
AcDbEntity
  8
OBSTACLE
  6
CONTINUOUS
100
AcDbLine
 10
53075.0
 20
11300.0
 30
0.0
 11
53075.0
 21
11450.0
 31
0.0
  0
LWPOLYLINE
  5
74
102
{ACAD_REACTORS
330
73
102
}
100
AcDbEntity
  8
OBSTACLE
  6
CONTINUOUS
100
AcDbPolyline
 90
        4
 70
     1
 10
51110.0
 20
11297.46
 10
52010.0
 20
11297.46
 10
52010.0
 20
11452.54
 10
51110.0
 20
11452.54
  0
LINE
  5
75
102
{ACAD_REACTORS
330
73
102
}
100
AcDbEntity
  8
OBSTACLE
  6
CONTINUOUS
100
AcDbLine
 10
51110.0
 20
11300.0
 30
0.0
 11
51110.0
 21
11450.0
 31
0.0
  0
LINE
  5
76
102
{ACAD_REACTORS
330
73
102
}
100
AcDbEntity
  8
OBSTACLE
  6
CONTINUOUS
100
AcDbLine
 10
51110.0
 20
11450.0
 30
0.0
 11
51160.0
 21
11450.0
 31
0.0
  0
LINE
  5
77
102
{ACAD_REACTORS
330
73
102
}
100
AcDbEntity
  8
OBSTACLE
  6
CONTINUOUS
100
AcDbLine
 10
51160.0
 20
11450.0
 30
0.0
 11
51160.0
 21
11400.0
 31
0.0
  0
LINE
  5
78
102
{ACAD_REACTORS
330
73
102
}
100
AcDbEntity
  8
OBSTACLE
  6
CONTINUOUS
100
AcDbLine
 10
51160.0
 20
11350.0
 30
0.0
 11
51160.0
 21
11300.0
 31
0.0
  0
LINE
  5
79
102
{ACAD_REACTORS
330
73
102
}
100
AcDbEntity
  8
OBSTACLE
  6
CONTINUOUS
100
AcDbLine
 10
51160.0
 20
11300.0
 30
0.0
 11
51110.0
 21
11300.0
 31
0.0
  0
LINE
  5
7A
102
{ACAD_REACTORS
330
73
102
}
100
AcDbEntity
  8
OBSTACLE
  6
CONTINUOUS
100
AcDbLine
 10
52010.0
 20
11300.0
 30
0.0
 11
52010.0
 21
11450.0
 31
0.0
  0
LINE
  5
7B
102
{ACAD_REACTORS
330
73
102
}
100
AcDbEntity
  8
OBSTACLE
  6
CONTINUOUS
100
AcDbLine
 10
52010.0
 20
11450.0
 30
0.0
 11
51960.0
 21
11450.0
 31
0.0
  0
LINE
  5
7C
102
{ACAD_REACTORS
330
73
102
}
100
AcDbEntity
  8
OBSTACLE
  6
CONTINUOUS
100
AcDbLine
 10
51960.0
 20
11450.0
 30
0.0
 11
51960.0
 21
11400.0
 31
0.0
  0
LINE
  5
7D
102
{ACAD_REACTORS
330
73
102
}
100
AcDbEntity
  8
OBSTACLE
  6
CONTINUOUS
100
AcDbLine
 10
51960.0
 20
11350.0
 30
0.0
 11
51960.0
 21
11300.0
 31
0.0
  0
LINE
  5
7E
102
{ACAD_REACTORS
330
73
102
}
100
AcDbEntity
  8
OBSTACLE
  6
CONTINUOUS
100
AcDbLine
 10
51960.0
 20
11300.0
 30
0.0
 11
52010.0
 21
11300.0
 31
0.0
  0
LWPOLYLINE
  5
7F
102
{ACAD_REACTORS
330
73
102
}
100
AcDbEntity
  8
OBSTACLE
  6
CONTINUOUS
100
AcDbPolyline
 90
        4
 70
     1
 10
51160.0
 20
11400.0
 10
51210.0
 20
11400.0
 10
51210.0
 20
11350.0
 10
51160.0
 20
11350.0
  0
LWPOLYLINE
  5
80
102
{ACAD_REACTORS
330
73
102
}
100
AcDbEntity
  8
OBSTACLE
  6
CONTINUOUS
100
AcDbPolyline
 90
        4
 70
     1
 10
51960.0
 20
11400.0
 10
51910.0
 20
11400.0
 10
51910.0
 20
11350.0
 10
51960.0
 20
11350.0
  0
LINE
  5
81
102
{ACAD_REACTORS
330
73
102
}
100
AcDbEntity
  8
OBSTACLE
  6
CONTINUOUS
100
AcDbLine
 10
51210.0
 20
11375.0
 30
0.0
 11
51910.0
 21
11375.0
 31
0.0
  0
LINE
  5
82
102
{ACAD_REACTORS
330
73
102
}
100
AcDbEntity
  8
OBSTACLE
  6
CONTINUOUS
100
AcDbLine
 10
51110.0
 20
11300.0
 30
0.0
 11
51110.0
 21
11450.0
 31
0.0
  0
LINE
  5
83
102
{ACAD_REACTORS
330
73
102
}
100
AcDbEntity
  8
OBSTACLE
  6
CONTINUOUS
100
AcDbLine
 10
52010.0
 20
11300.0
 30
0.0
 11
52010.0
 21
11450.0
 31
0.0
  0
LWPOLYLINE
  5
85
102
{ACAD_REACTORS
330
84
102
}
100
AcDbEntity
  8
OBSTACLE
  6
CONTINUOUS
100
AcDbPolyline
 90
        4
 70
     1
 10
50090.0
 20
11297.46
 10
50990.0
 20
11297.46
 10
50990.0
 20
11452.54
 10
50090.0
 20
11452.54
  0
LINE
  5
86
102
{ACAD_REACTORS
330
84
102
}
100
AcDbEntity
  8
OBSTACLE
  6
CONTINUOUS
100
AcDbLine
 10
50090.0
 20
11300.0
 30
0.0
 11
50090.0
 21
11450.0
 31
0.0
  0
LINE
  5
87
102
{ACAD_REACTORS
330
84
102
}
100
AcDbEntity
  8
OBSTACLE
  6
CONTINUOUS
100
AcDbLine
 10
50090.0
 20
11450.0
 30
0.0
 11
50140.0
 21
11450.0
 31
0.0
  0
LINE
  5
88
102
{ACAD_REACTORS
330
84
102
}
100
AcDbEntity
  8
OBSTACLE
  6
CONTINUOUS
100
AcDbLine
 10
50140.0
 20
11450.0
 30
0.0
 11
50140.0
 21
11400.0
 31
0.0
  0
LINE
  5
89
102
{ACAD_REACTORS
330
84
102
}
100
AcDbEntity
  8
OBSTACLE
  6
CONTINUOUS
100
AcDbLine
 10
50140.0
 20
11350.0
 30
0.0
 11
50140.0
 21
11300.0
 31
0.0
  0
LINE
  5
8A
102
{ACAD_REACTORS
330
84
102
}
100
AcDbEntity
  8
OBSTACLE
  6
CONTINUOUS
100
AcDbLine
 10
50140.0
 20
11300.0
 30
0.0
 11
50090.0
 21
11300.0
 31
0.0
  0
LINE
  5
8B
102
{ACAD_REACTORS
330
84
102
}
100
AcDbEntity
  8
OBSTACLE
  6
CONTINUOUS
100
AcDbLine
 10
50990.0
 20
11300.0
 30
0.0
 11
50990.0
 21
11450.0
 31
0.0
  0
LINE
  5
8C
102
{ACAD_REACTORS
330
84
102
}
100
AcDbEntity
  8
OBSTACLE
  6
CONTINUOUS
100
AcDbLine
 10
50990.0
 20
11450.0
 30
0.0
 11
50940.0
 21
11450.0
 31
0.0
  0
LINE
  5
8D
102
{ACAD_REACTORS
330
84
102
}
100
AcDbEntity
  8
OBSTACLE
  6
CONTINUOUS
100
AcDbLine
 10
50940.0
 20
11450.0
 30
0.0
 11
50940.0
 21
11400.0
 31
0.0
  0
LINE
  5
8E
102
{ACAD_REACTORS
330
84
102
}
100
AcDbEntity
  8
OBSTACLE
  6
CONTINUOUS
100
AcDbLine
 10
50940.0
 20
11350.0
 30
0.0
 11
50940.0
 21
11300.0
 31
0.0
  0
LINE
  5
8F
102
{ACAD_REACTORS
330
84
102
}
100
AcDbEntity
  8
OBSTACLE
  6
CONTINUOUS
100
AcDbLine
 10
50940.0
 20
11300.0
 30
0.0
 11
50990.0
 21
11300.0
 31
0.0
  0
LWPOLYLINE
  5
90
102
{ACAD_REACTORS
330
84
102
}
100
AcDbEntity
  8
OBSTACLE
  6
CONTINUOUS
100
AcDbPolyline
 90
        4
 70
     1
 10
50140.0
 20
11400.0
 10
50190.0
 20
11400.0
 10
50190.0
 20
11350.0
 10
50140.0
 20
11350.0
  0
LWPOLYLINE
  5
91
102
{ACAD_REACTORS
330
84
102
}
100
AcDbEntity
  8
OBSTACLE
  6
CONTINUOUS
100
AcDbPolyline
 90
        4
 70
     1
 10
50940.0
 20
11400.0
 10
50890.0
 20
11400.0
 10
50890.0
 20
11350.0
 10
50940.0
 20
11350.0
  0
LINE
  5
92
102
{ACAD_REACTORS
330
84
102
}
100
AcDbEntity
  8
OBSTACLE
  6
CONTINUOUS
100
AcDbLine
 10
50190.0
 20
11375.0
 30
0.0
 11
50890.0
 21
11375.0
 31
0.0
  0
LINE
  5
93
102
{ACAD_REACTORS
330
84
102
}
100
AcDbEntity
  8
OBSTACLE
  6
CONTINUOUS
100
AcDbLine
 10
50090.0
 20
11300.0
 30
0.0
 11
50090.0
 21
11450.0
 31
0.0
  0
LINE
  5
94
102
{ACAD_REACTORS
330
84
102
}
100
AcDbEntity
  8
OBSTACLE
  6
CONTINUOUS
100
AcDbLine
 10
50990.0
 20
11300.0
 30
0.0
 11
50990.0
 21
11450.0
 31
0.0
  0
LWPOLYLINE
  5
97
102
{ACAD_REACTORS
330
95
102
}
100
AcDbEntity
  8
BUILDING_ENVELOPE
  6
CONTINUOUS
 62
     7
100
AcDbPolyline
 90
        4
 70
     1
 10
49950.0
 20
16652.54
 10
50850.0
 20
16652.54
 10
50850.0
 20
16497.46
 10
49950.0
 20
16497.46
  0
LINE
  5
98
102
{ACAD_REACTORS
330
95
102
}
100
AcDbEntity
  8
BUILDING_ENVELOPE
  6
CONTINUOUS
 62
     7
100
AcDbLine
 10
50850.0
 20
16650.0
 30
0.0
 11
50850.0
 21
16500.0
 31
0.0
  0
LINE
  5
99
102
{ACAD_REACTORS
330
95
102
}
100
AcDbEntity
  8
BUILDING_ENVELOPE
  6
CONTINUOUS
 62
     7
100
AcDbLine
 10
50850.0
 20
16500.0
 30
0.0
 11
50800.0
 21
16500.0
 31
0.0
  0
LINE
  5
9A
102
{ACAD_REACTORS
330
95
102
}
100
AcDbEntity
  8
BUILDING_ENVELOPE
  6
CONTINUOUS
 62
     7
100
AcDbLine
 10
50800.0
 20
16500.0
 30
0.0
 11
50800.0
 21
16550.0
 31
0.0
  0
LINE
  5
9B
102
{ACAD_REACTORS
330
95
102
}
100
AcDbEntity
  8
BUILDING_ENVELOPE
  6
CONTINUOUS
 62
     7
100
AcDbLine
 10
50800.0
 20
16600.0
 30
0.0
 11
50800.0
 21
16650.0
 31
0.0
  0
LINE
  5
9C
102
{ACAD_REACTORS
330
95
102
}
100
AcDbEntity
  8
BUILDING_ENVELOPE
  6
CONTINUOUS
 62
     7
100
AcDbLine
 10
50800.0
 20
16650.0
 30
0.0
 11
50850.0
 21
16650.0
 31
0.0
  0
LINE
  5
9D
102
{ACAD_REACTORS
330
95
102
}
100
AcDbEntity
  8
BUILDING_ENVELOPE
  6
CONTINUOUS
 62
     7
100
AcDbLine
 10
49950.0
 20
16650.0
 30
0.0
 11
49950.0
 21
16500.0
 31
0.0
  0
LINE
  5
9E
102
{ACAD_REACTORS
330
95
102
}
100
AcDbEntity
  8
BUILDING_ENVELOPE
  6
CONTINUOUS
 62
     7
100
AcDbLine
 10
49950.0
 20
16500.0
 30
0.0
 11
50000.0
 21
16500.0
 31
0.0
  0
LINE
  5
9F
102
{ACAD_REACTORS
330
95
102
}
100
AcDbEntity
  8
BUILDING_ENVELOPE
  6
CONTINUOUS
 62
     7
100
AcDbLine
 10
50000.0
 20
16500.0
 30
0.0
 11
50000.0
 21
16550.0
 31
0.0
  0
LINE
  5
A0
102
{ACAD_REACTORS
330
95
102
}
100
AcDbEntity
  8
BUILDING_ENVELOPE
  6
CONTINUOUS
 62
     7
100
AcDbLine
 10
50000.0
 20
16600.0
 30
0.0
 11
50000.0
 21
16650.0
 31
0.0
  0
LINE
  5
A1
102
{ACAD_REACTORS
330
95
102
}
100
AcDbEntity
  8
BUILDING_ENVELOPE
  6
CONTINUOUS
 62
     7
100
AcDbLine
 10
50000.0
 20
16650.0
 30
0.0
 11
49950.0
 21
16650.0
 31
0.0
  0
LINE
  5
A2
102
{ACAD_REACTORS
330
95
102
}
100
AcDbEntity
  8
BUILDING_ENVELOPE
  6
CONTINUOUS
 62
     7
100
AcDbLine
 10
50800.0
 20
16550.0
 30
0.0
 11
50780.0
 21
16550.0
 31
0.0
  0
LINE
  5
A3
102
{ACAD_REACTORS
330
95
102
}
100
AcDbEntity
  8
BUILDING_ENVELOPE
  6
CONTINUOUS
 62
     7
100
AcDbLine
 10
50780.0
 20
16550.0
 30
0.0
 11
50780.0
 21
16600.0
 31
0.0
  0
LINE
  5
A4
102
{ACAD_REACTORS
330
95
102
}
100
AcDbEntity
  8
BUILDING_ENVELOPE
  6
CONTINUOUS
 62
     7
100
AcDbLine
 10
50780.0
 20
16600.0
 30
0.0
 11
50800.0
 21
16600.0
 31
0.0
  0
LINE
  5
A5
102
{ACAD_REACTORS
330
95
102
}
100
AcDbEntity
  8
BUILDING_ENVELOPE
  6
CONTINUOUS
 62
     7
100
AcDbLine
 10
50000.0
 20
16550.0
 30
0.0
 11
50020.0
 21
16550.0
 31
0.0
  0
LINE
  5
A6
102
{ACAD_REACTORS
330
95
102
}
100
AcDbEntity
  8
BUILDING_ENVELOPE
  6
CONTINUOUS
 62
     7
100
AcDbLine
 10
50020.0
 20
16550.0
 30
0.0
 11
50020.0
 21
16600.0
 31
0.0
  0
LINE
  5
A7
102
{ACAD_REACTORS
330
95
102
}
100
AcDbEntity
  8
BUILDING_ENVELOPE
  6
CONTINUOUS
 62
     7
100
AcDbLine
 10
50020.0
 20
16600.0
 30
0.0
 11
50000.0
 21
16600.0
 31
0.0
  0
LINE
  5
A8
102
{ACAD_REACTORS
330
95
102
}
100
AcDbEntity
  8
BUILDING_ENVELOPE
  6
CONTINUOUS
 62
     7
100
AcDbLine
 10
50850.0
 20
16650.0
 30
0.0
 11
50850.0
 21
16500.0
 31
0.0
  0
LINE
  5
A9
102
{ACAD_REACTORS
330
95
102
}
100
AcDbEntity
  8
BUILDING_ENVELOPE
  6
CONTINUOUS
 62
     7
100
AcDbLine
 10
49950.0
 20
16650.0
 30
0.0
 11
49950.0
 21
16500.0
 31
0.0
  0
LWPOLYLINE
  5
AA
102
{ACAD_REACTORS
330
95
102
}
100
AcDbEntity
  8
BUILDING_ENVELOPE
  6
CONTINUOUS
 62
     7
100
AcDbPolyline
 90
        4
 70
     1
 10
50000.0
 20
16550.0
 10
50800.0
 20
16550.0
 10
50800.0
 20
16500.0
 10
50000.0
 20
16500.0
  0
ENDSEC
  0
SECTION
  2
OBJECTS
  0
DICTIONARY
  5
C
100
AcDbDictionary
  3
ACAD_GROUP
350
D
  3
ACAD_MLINESTYLE
350
1B
  0
DICTIONARY
  5
D
102
{ACAD_REACTORS
330
C
102
}
100
AcDbDictionary
  3
VISIOGROUP_0
350
31
  3
VISIOGROUP_1
350
37
  3
VISIOGROUP_2
350
3C
  3
VISIOGROUP_3
350
41
  3
VISIOGROUP_4
350
4C
  3
VISIOGROUP_5
350
53
  3
VISIOGROUP_6
350
59
  3
VISIOGROUP_7
350
5C
  3
VISIOGROUP_8
350
62
  3
VISIOGROUP_9
350
73
  3
VISIOGROUP_10
350
84
  3
VISIOGROUP_11
350
95
  0
DICTIONARY
  5
1B
102
{ACAD_REACTORS
330
C
102
}
100
AcDbDictionary
  3
STANDARD
350
1C
  0
MLINESTYLE
  5
1C
102
{ACAD_REACTORS
330
1B
102
}
100
AcDbMlineStyle
  2
STANDARD
 70
     0
  3

 62
   256
 51
90.0
 52
90.0
 71
     2
 49
0.5
 62
   256
  6
BYLAYER
 49
-0.5
 62
   256
  6
BYLAYER
  0
DICTIONARY
  5
29
102
{ACAD_REACTORS
330
C
102
}
100
AcDbDictionary
  3
MODEL
350
2A
  3
LAYOUT1
350
2B
  0
DICTIONARY
  5
2C
102
{ACAD_REACTORS
330
C
102
}
100
AcDbDictionary
  0
GROUP
  5
31
102
{ACAD_REACTORS
330
D
102
}
100
AcDbGroup
300
Group created by Visio.
 70
     0
 71
     1
340
33
340
34
340
35
340
36
  0
GROUP
  5
37
102
{ACAD_REACTORS
330
D
102
}
100
AcDbGroup
300
Group created by Visio.
 70
     0
 71
     1
340
38
340
39
340
3A
340
3B
  0
GROUP
  5
3C
102
{ACAD_REACTORS
330
D
102
}
100
AcDbGroup
300
Group created by Visio.
 70
     0
 71
     1
340
3D
340
3E
340
3F
340
40
  0
GROUP
  5
41
102
{ACAD_REACTORS
330
D
102
}
100
AcDbGroup
300
Group created by Visio.
 70
     0
 71
     1
340
42
340
43
340
44
340
45
340
46
340
47
340
48
340
49
  0
GROUP
  5
4C
102
{ACAD_REACTORS
330
D
102
}
100
AcDbGroup
300
Group created by Visio.
 70
     0
 71
     1
340
4E
340
4F
340
50
340
51
340
52
  0
GROUP
  5
53
102
{ACAD_REACTORS
330
D
102
}
100
AcDbGroup
300
Group created by Visio.
 70
     0
 71
     1
340
54
340
56
  0
GROUP
  5
59
102
{ACAD_REACTORS
330
D
102
}
100
AcDbGroup
300
Group created by Visio.
 70
     0
 71
     1
340
5A
340
5B
  0
GROUP
  5
5C
102
{ACAD_REACTORS
330
D
102
}
100
AcDbGroup
300
Group created by Visio.
 70
     0
 71
     1
340
5D
340
5E
340
5F
340
60
340
61
  0
GROUP
  5
62
102
{ACAD_REACTORS
330
D
102
}
100
AcDbGroup
300
Group created by Visio.
 70
     0
 71
     1
340
63
340
64
340
65
340
66
340
67
340
68
340
69
340
6A
340
6B
340
6C
340
6D
340
6E
340
6F
340
70
340
71
340
72
  0
GROUP
  5
73
102
{ACAD_REACTORS
330
D
102
}
100
AcDbGroup
300
Group created by Visio.
 70
     0
 71
     1
340
74
340
75
340
76
340
77
340
78
340
79
340
7A
340
7B
340
7C
340
7D
340
7E
340
7F
340
80
340
81
340
82
340
83
  0
GROUP
  5
84
102
{ACAD_REACTORS
330
D
102
}
100
AcDbGroup
300
Group created by Visio.
 70
     0
 71
     1
340
85
340
86
340
87
340
88
340
89
340
8A
340
8B
340
8C
340
8D
340
8E
340
8F
340
90
340
91
340
92
340
93
340
94
  0
GROUP
  5
95
102
{ACAD_REACTORS
330
D
102
}
100
AcDbGroup
300
Group created by Visio.
 70
     0
 71
     1
340
97
340
98
340
99
340
9A
340
9B
340
9C
340
9D
340
9E
340
9F
340
A0
340
A1
340
A2
340
A3
340
A4
340
A5
340
A6
340
A7
340
A8
340
A9
340
AA
  0
ENDSEC
  0
EOF
