  0
SECTION
  2
HEADER
  9
$ACADVER
  1
AC1014
  9
$ACADMAINTVER
 70
     0
  9
$DWGCODEPAGE
  3
ANSI_1252
  9
$INSBASE
 10
0.0
 20
0.0
 30
0.0
  9
$EXTMIN
 10
0.0
 20
0.0
 30
0.0
  9
$EXTMAX
 10
4200.819056
 20
8670.415327
 30
0.0
  9
$LIMMIN
 10
0.0
 20
0.0
  9
$LIMMAX
 10
12.0
 20
9.0
  9
$ORTHOMODE
 70
     0
  9
$REGENMODE
 70
     1
  9
$FILLMODE
 70
     0
  9
$QTEXTMODE
 70
     0
  9
$MIRRTEXT
 70
     1
  9
$DRAGMODE
 70
     2
  9
$LTSCALE
 40
1.0
  9
$OSMODE
 70
    37
  9
$ATTMODE
 70
     1
  9
$TEXTSIZE
 40
0.2
  9
$TRACEWID
 40
0.05
  9
$TEXTSTYLE
  7
STANDARD
  9
$CLAYER
  8
0
  9
$CELTYPE
  6
BYLAYER
  9
$CECOLOR
 62
   256
  9
$CELTSCALE
 40
1.0
  9
$DELOBJ
 70
     1
  9
$DISPSILH
 70
     0
  9
$DIMSCALE
 40
1.0
  9
$DIMASZ
 40
0.18
  9
$DIMEXO
 40
0.0625
  9
$DIMDLI
 40
0.38
  9
$DIMRND
 40
0.0
  9
$DIMDLE
 40
0.0
  9
$DIMEXE
 40
0.18
  9
$DIMTP
 40
0.0
  9
$DIMTM
 40
0.0
  9
$DIMTXT
 40
0.18
  9
$DIMCEN
 40
0.09
  9
$DIMTSZ
 40
0.0
  9
$DIMTOL
 70
     0
  9
$DIMLIM
 70
     0
  9
$DIMTIH
 70
     0
  9
$DIMTOH
 70
     0
  9
$DIMSE1
 70
     0
  9
$DIMSE2
 70
     0
  9
$DIMTAD
 70
     1
  9
$DIMZIN
 70
     0
  9
$DIMBLK
  1

  9
$DIMASO
 70
     1
  9
$DIMSHO
 70
     1
  9
$DIMPOST
  1

  9
$DIMAPOST
  1

  9
$DIMALT
 70
     0
  9
$DIMALTD
 70
     2
  9
$DIMALTF
 40
25.4
  9
$DIMLFAC
 40
1.0
  9
$DIMTOFL
 70
     0
  9
$DIMTVP
 40
0.0
  9
$DIMTIX
 70
     0
  9
$DIMSOXD
 70
     0
  9
$DIMSAH
 70
     0
  9
$DIMBLK1
  1

  9
$DIMBLK2
  1

  9
$DIMSTYLE
  2
STANDARD
  9
$DIMCLRD
 70
     0
  9
$DIMCLRE
 70
     0
  9
$DIMCLRT
 70
     0
  9
$DIMTFAC
 40
1.0
  9
$DIMGAP
 40
0.09
  9
$DIMJUST
 70
     0
  9
$DIMSD1
 70
     0
  9
$DIMSD2
 70
     0
  9
$DIMTOLJ
 70
     1
  9
$DIMTZIN
 70
     0
  9
$DIMALTZ
 70
     0
  9
$DIMALTTZ
 70
     0
  9
$DIMFIT
 70
     5
  9
$DIMUPT
 70
     0
  9
$DIMUNIT
 70
     2
  9
$DIMDEC
 70
     2
  9
$DIMTDEC
 70
     4
  9
$DIMALTU
 70
     2
  9
$DIMALTTD
 70
     2
  9
$DIMTXSTY
  7
STANDARD
  9
$DIMAUNIT
 70
     0
  9
$LUNITS
 70
     2
  9
$LUPREC
 70
     4
  9
$SKETCHINC
 40
0.1
  9
$FILLETRAD
 40
0.5
  9
$AUNITS
 70
     0
  9
$AUPREC
 70
     0
  9
$MENU
  1
.
  9
$ELEVATION
 40
0.0
  9
$PELEVATION
 40
0.0
  9
$THICKNESS
 40
0.0
  9
$LIMCHECK
 70
     0
  9
$BLIPMODE
 70
     0
  9
$CHAMFERA
 40
0.5
  9
$CHAMFERB
 40
0.5
  9
$CHAMFERC
 40
1.0
  9
$CHAMFERD
 40
0.0
  9
$SKPOLY
 70
     0
  9
$TDCREATE
 40
2450772.666465926
  9
$TDUPDATE
 40
2456504.110196760
  9
$TDINDWG
 40
0.0011565046
  9
$TDUSRTIMER
 40
0.0011565046
  9
$USRTIMER
 70
     1
  9
$ANGBASE
 50
0.0
  9
$ANGDIR
 70
     0
  9
$PDMODE
 70
     0
  9
$PDSIZE
 40
0.0
  9
$PLINEWID
 40
0.0
  9
$COORDS
 70
     1
  9
$SPLFRAME
 70
     0
  9
$SPLINETYPE
 70
     6
  9
$SPLINESEGS
 70
     8
  9
$ATTDIA
 70
     0
  9
$ATTREQ
 70
     1
  9
$HANDLING
 70
     1
  9
$HANDSEED
  5
23A
  9
$SURFTAB1
 70
     6
  9
$SURFTAB2
 70
     6
  9
$SURFTYPE
 70
     6
  9
$SURFU
 70
     6
  9
$SURFV
 70
     6
  9
$UCSNAME
  2

  9
$UCSORG
 10
0.0
 20
0.0
 30
0.0
  9
$UCSXDIR
 10
1.0
 20
0.0
 30
0.0
  9
$UCSYDIR
 10
0.0
 20
1.0
 30
0.0
  9
$PUCSNAME
  2

  9
$PUCSORG
 10
0.0
 20
0.0
 30
0.0
  9
$PUCSXDIR
 10
1.0
 20
0.0
 30
0.0
  9
$PUCSYDIR
 10
0.0
 20
1.0
 30
0.0
  9
$USERI1
 70
     0
  9
$USERI2
 70
     0
  9
$USERI3
 70
     0
  9
$USERI4
 70
     0
  9
$USERI5
 70
     0
  9
$USERR1
 40
0.0
  9
$USERR2
 40
0.0
  9
$USERR3
 40
0.0
  9
$USERR4
 40
0.0
  9
$USERR5
 40
0.0
  9
$WORLDVIEW
 70
     1
  9
$SHADEDGE
 70
     3
  9
$SHADEDIF
 70
    70
  9
$TILEMODE
 70
     1
  9
$MAXACTVP
 70
    48
  9
$PINSBASE
 10
0.0
 20
0.0
 30
0.0
  9
$PLIMCHECK
 70
     0
  9
$PEXTMIN
 10
0.0
 20
0.0
 30
0.0
  9
$PEXTMAX
 10
0.0
 20
0.0
 30
0.0
  9
$PLIMMIN
 10
0.0
 20
0.0
  9
$PLIMMAX
 10
12.0
 20
9.0
  9
$UNITMODE
 70
     0
  9
$VISRETAIN
 70
     1
  9
$PLINEGEN
 70
     0
  9
$PSLTSCALE
 70
     1
  9
$TREEDEPTH
 70
  3020
  9
$PICKSTYLE
 70
     1
  9
$CMLSTYLE
  2
STANDARD
  9
$CMLJUST
 70
     0
  9
$CMLSCALE
 40
1.0
  9
$PROXYGRAPHICS
 70
     1
  9
$MEASUREMENT
 70
     0
  0
ENDSEC
  0
SECTION
  2
CLASSES
  0
CLASS
  1
LWPOLYLINE
  2
AcDbPolyline
  3
AutoCAD 2000
 90
       20
280
     0
281
     1
  0
CLASS
  1
IMAGE
  2
AcDbRasterImage
  3
ISM
 90
       21
280
     0
281
     1
  0
CLASS
  1
OLE2FRAME
  2
AcDbOle2Frame
  3
AutoCAD 2000
 90
       21
280
     0
281
     1
  0
CLASS
  1
HATCH
  2
AcDbHatch
  3
AutoCAD 2000
 90
       20
280
     0
281
     1
  0
CLASS
  1
DICTIONARYVAR
  2
AcDbDictionaryVar
  3
ObjectDBX Classes
 90
       20
280
     0
281
     0
  0
CLASS
  1
RASTERVARIABLES
  2
AcDbRasterVariables
  3
ISM
 90
       21
280
     0
281
     0
  0
CLASS
  1
IMAGEDEF
  2
AcDbRasterImageDef
  3
ISM
 90
       21
280
     0
281
     0
  0
CLASS
  1
IMAGEDEF_REACTOR
  2
AcDbRasterImageDefReactor
  3
ISM
 90
       21
280
     0
281
     0
  0
CLASS
  1
IDBUFFER
  2
AcDbIdBuffer
  3
ObjectDBX Classes
 90
       20
280
     0
281
     0
  0
CLASS
  1
SPATIAL_FILTER
  2
AcDbSpatialFilter
  3
ObjectDBX Classes
 90
       20
280
     0
281
     0
  0
CLASS
  1
XRECORD
  2
AcDbXrecord
  3
AutoCAD 2000
 90
       21
280
     0
281
     0
  0
CLASS
  1
SORTENTSTABLE
  2
AcDbSortentsTable
  3
"AutoCAD"
 90
        0
280
     0
281
     0
  0
CLASS
  1
LAYER_INDEX
  2
AcDbLayerIndex
  3
"Acad"
 90
        0
280
     0
281
     0
  0
CLASS
  1
SPATIAL_INDEX
  2
AcDbSpatialIndex
  3
"Acad"
 90
        0
280
     0
281
     0
  0
CLASS
  1
OBJECT_PTR
  2
CAseDLPNTableRecord
  3
"ASE-LPNTableRecord"
 90
        1
280
     0
281
     0
  0
CLASS
  1
LAYOUT
  2
AcDbLayout
  3
"AutoCAD 2000"
 90
        1
280
     0
281
     0
  0
CLASS
  1
PLOTSETTINGS
  2
AcDbPlotsettings
  3
"AutoCAD 2000"
 90
        1
280
     0
281
     0
  0
CLASS
  1
ACDBDICTIONARYWDFLT
  2
AcDbDictionaryWithDefault
  3
"AutoCAD 2000"
 90
        1
280
     0
281
     0
  0
CLASS
  1
ACDBPLACEHOLDER
  2
AcDbPlaceholder
  3
"AutoCAD 2000"
 90
        1
280
     0
281
     0
  0
CLASS
  1
VBA_PROJECT
  2
AcDbVbaProject
  3
"AutoCAD 2000"
 90
        1
280
     0
281
     0
  0
CLASS
  1
WIPEOUT
  2
AcDbWipeout
  3
"AutoCAD 2000"
 90
        1
280
     0
281
     1
  0
CLASS
  1
WIPEOUTVARIABLES
  2
AcDbWipeoutVariables
  3
"AutoCAD 2000"
 90
        1
280
     0
281
     0
  0
CLASS
  1
RTEXT
  2
RText
  3
RText|AutoCAD Express Tool|expresstools@autodesk.com
 90
        1
280
     0
281
     1
  0
CLASS
  1
ARCALIGNEDTEXT
  2
AcDbArcAlignedText
  3
RText|AutoCAD Express Tool|expresstools@autodesk.com
 90
        1
280
     0
281
     1
  0
ENDSEC
  0
SECTION
  2
TABLES
  0
TABLE
  2
VPORT
  5
8
100
AcDbSymbolTable
 70
     1
  0
VPORT
  5
25
100
AcDbSymbolTableRecord
100
AcDbViewportTableRecord
  2
*ACTIVE
 70
     0
 10
0.0
 20
0.0
 11
1.0
 21
1.0
 12
2100.409528
 22
4335.207664
 13
0.0
 23
0.0
 14
0.5
 24
0.5
 15
0.5
 25
0.5
 16
0.0
 26
0.0
 36
1.0
 17
0.0
 27
0.0
 37
0.0
 40
8670.415327
 41
0.4845
 42
50.0
 43
0.0
 44
0.0
 50
0.0
 51
0.0
 71
     0
 72
   100
 73
     1
 74
     1
 75
     0
 76
     0
 77
     0
 78
     0
  0
ENDTAB
  0
TABLE
  2
LTYPE
  5
5
100
AcDbSymbolTable
 70
     3
  0
LTYPE
  5
12
100
AcDbSymbolTableRecord
100
AcDbLinetypeTableRecord
  2
BYBLOCK
 70
     0
  3

 72
    65
 73
     0
 40
0.0
  0
LTYPE
  5
13
100
AcDbSymbolTableRecord
100
AcDbLinetypeTableRecord
  2
BYLAYER
 70
     0
  3

 72
    65
 73
     0
 40
0.0
  0
LTYPE
  5
14
100
AcDbSymbolTableRecord
100
AcDbLinetypeTableRecord
  2
CONTINUOUS
 70
     0
  3
Solid line
 72
    65
 73
     0
 40
0.0
  0
ENDTAB
  0
TABLE
  2
LAYER
  5
2
100
AcDbSymbolTable
 70
     6
  0
LAYER
  5
E
100
AcDbSymbolTableRecord
100
AcDbLayerTableRecord
  2
0
 70
     0
 62
     7
  6
CONTINUOUS
  0
LAYER
  5
32
100
AcDbSymbolTableRecord
100
AcDbLayerTableRecord
  2
OBSTACLE
 70
     0
 62
     7
  6
CONTINUOUS
  0
LAYER
  5
3C
100
AcDbSymbolTableRecord
100
AcDbLayerTableRecord
  2
WALL
 70
     0
 62
     7
  6
CONTINUOUS
  0
LAYER
  5
4B
100
AcDbSymbolTableRecord
100
AcDbLayerTableRecord
  2
MOUNTABLE
 70
     0
 62
     7
  6
CONTINUOUS
  0
LAYER
  5
4E
100
AcDbSymbolTableRecord
100
AcDbLayerTableRecord
  2
OCCUPIED
 70
     0
 62
     7
  6
CONTINUOUS
  0
LAYER
  5
E6
100
AcDbSymbolTableRecord
100
AcDbLayerTableRecord
  2
WP
 70
     0
 62
     7
  6
CONTINUOUS
  0
ENDTAB
  0
TABLE
  2
STYLE
  5
3
100
AcDbSymbolTable
 70
     1
  0
STYLE
  5
F
100
AcDbSymbolTableRecord
100
AcDbTextStyleTableRecord
  2
STANDARD
 70
     0
 40
0.0
 41
1.0
 50
0.0
 71
     0
 42
0.2
  3
txt.shx
  4

  0
ENDTAB
  0
TABLE
  2
VIEW
  5
6
100
AcDbSymbolTable
 70
     0
  0
ENDTAB
  0
TABLE
  2
UCS
  5
7
100
AcDbSymbolTable
 70
     0
  0
ENDTAB
  0
TABLE
  2
APPID
  5
9
100
AcDbSymbolTable
 70
     1
  0
APPID
  5
10
100
AcDbSymbolTableRecord
100
AcDbRegAppTableRecord
  2
ACAD
 70
     0
  0
ENDTAB
  0
TABLE
  2
DIMSTYLE
  5
A
100
AcDbSymbolTable
 70
     1
  0
DIMSTYLE
105
1D
100
AcDbSymbolTableRecord
100
AcDbDimStyleTableRecord
  2
STANDARD
 70
     0
  3

  4

  5

  6

  7

 40
1.0
 41
0.18
 42
0.0625
 43
0.38
 44
0.18
 45
0.0
 46
0.0
 47
0.0
 48
0.0
 71
     0
 72
     0
 73
     1
 74
     1
 75
     0
 76
     0
 77
     0
 78
     0
140
0.18
141
0.09
142
0.0
143
25.4
144
1.0
145
0.0
146
1.0
147
0.09
170
     0
171
     2
172
     0
173
     0
174
     0
175
     0
176
     0
177
     0
178
     0
270
     2
271
     4
272
     4
273
     2
274
     2
275
     0
280
     0
281
     0
282
     0
283
     1
284
     0
285
     0
286
     0
287
     3
288
     0
340
F
  0
ENDTAB
  0
TABLE
  2
BLOCK_RECORD
  5
1
100
AcDbSymbolTable
 70
    15
  0
BLOCK_RECORD
  5
18
100
AcDbSymbolTableRecord
100
AcDbBlockTableRecord
  2
*MODEL_SPACE
  0
BLOCK_RECORD
  5
15
100
AcDbSymbolTableRecord
100
AcDbBlockTableRecord
  2
*PAPER_SPACE
  0
BLOCK_RECORD
  5
88
100
AcDbSymbolTableRecord
100
AcDbBlockTableRecord
  2
STUHL
  0
BLOCK_RECORD
  5
BC
100
AcDbSymbolTableRecord
100
AcDbBlockTableRecord
  2
RAUM
  0
BLOCK_RECORD
  5
CF
100
AcDbSymbolTableRecord
100
AcDbBlockTableRecord
  2
TAFEL
  0
BLOCK_RECORD
  5
EA
100
AcDbSymbolTableRecord
100
AcDbBlockTableRecord
  2
ARCHIVSCHRANK
  0
BLOCK_RECORD
  5
10A
100
AcDbSymbolTableRecord
100
AcDbBlockTableRecord
  2
FENSTER
  0
BLOCK_RECORD
  5
11D
100
AcDbSymbolTableRecord
100
AcDbBlockTableRecord
  2
RECHTECKIGER_TISCH
  0
BLOCK_RECORD
  5
138
100
AcDbSymbolTableRecord
100
AcDbBlockTableRecord
  2
REGAL
  0
BLOCK_RECORD
  5
154
100
AcDbSymbolTableRecord
100
AcDbBlockTableRecord
  2
OFFENES_REGAL
  0
BLOCK_RECORD
  5
172
100
AcDbSymbolTableRecord
100
AcDbBlockTableRecord
  2
KLEINE_PFLANZE
  0
BLOCK_RECORD
  5
1F4
100
AcDbSymbolTableRecord
100
AcDbBlockTableRecord
  2
UNGLEICH
  0
BLOCK_RECORD
  5
20E
100
AcDbSymbolTableRecord
100
AcDbBlockTableRecord
  2
LATERAL_FILE
  0
BLOCK_RECORD
  5
227
100
AcDbSymbolTableRecord
100
AcDbBlockTableRecord
  2
MARKER_BOARD
  0
BLOCK_RECORD
  5
22C
100
AcDbSymbolTableRecord
100
AcDbBlockTableRecord
  2
SQUARE
  0
BLOCK_RECORD
  5
230
100
AcDbSymbolTableRecord
100
AcDbBlockTableRecord
  2
RECTANGLE
  0
BLOCK_RECORD
  5
234
100
AcDbSymbolTableRecord
100
AcDbBlockTableRecord
  2
DATA_POINT
  0
ENDTAB
  0
ENDSEC
  0
SECTION
  2
BLOCKS
  0
BLOCK
  5
19
100
AcDbEntity
  8
0
100
AcDbBlockBegin
  2
*MODEL_SPACE
 70
     0
 10
0.0
 20
0.0
 30
0.0
  3
*MODEL_SPACE
  1

  0
ENDBLK
  5
1A
100
AcDbEntity
  8
0
100
AcDbBlockEnd
  0
BLOCK
  5
16
100
AcDbEntity
 67
     1
  8
0
100
AcDbBlockBegin
  2
*PAPER_SPACE
 70
     0
 10
0.0
 20
0.0
 30
0.0
  3
*PAPER_SPACE
  1

  0
ENDBLK
  5
17
100
AcDbEntity
 67
     1
  8
0
100
AcDbBlockEnd
  0
BLOCK
  5
89
100
AcDbEntity
  8
0
100
AcDbBlockBegin
  2
STUHL
 70
     2
 10
0.0
 20
0.0
 30
0.0
  3
STUHL
  1

  0
ATTDEF
  5
8A
100
AcDbEntity
  8
0
100
AcDbText
 10
1500.0
 20
1500.0
 30
0.0
 40
0.2
  1
Posten
100
AcDbAttributeDefinition
  3
ShapeClass
  2
SHAPECLASS
 70
     0
  0
ATTDEF
  5
8B
100
AcDbEntity
  8
0
100
AcDbText
 10
1500.0
 20
1500.0
 30
0.0
 40
0.2
  1
M\U+00F6bel
100
AcDbAttributeDefinition
  3
ShapeType
  2
SHAPETYPE
 70
     0
  0
ATTDEF
  5
8C
100
AcDbEntity
  8
0
100
AcDbText
 10
1500.0
 20
1500.0
 30
0.0
 40
0.2
  1
Stuhl
100
AcDbAttributeDefinition
  3
SubShapeType
  2
SUBSHAPETYPE
 70
     0
  0
ATTDEF
  5
8D
100
AcDbEntity
  8
0
100
AcDbText
 10
1500.0
 20
1500.0
 30
0.0
 40
0.2
  1
0
100
AcDbAttributeDefinition
  3
ID
  2
ID
 70
     0
  0
ATTDEF
  5
8E
100
AcDbEntity
  8
0
100
AcDbText
 10
1500.0
 20
1500.0
 30
0.0
 40
0.2
  1
0
100
AcDbAttributeDefinition
  3
Name
  2
NAME
 70
     0
  0
ATTDEF
  5
8F
100
AcDbEntity
  8
0
100
AcDbText
 10
1500.0
 20
1500.0
 30
0.0
 40
0.2
  1
0
100
AcDbAttributeDefinition
  3
Abteilung
  2
DEPARTMENT
 70
     0
  0
ATTDEF
  5
90
100
AcDbEntity
  8
0
100
AcDbText
 10
1500.0
 20
1500.0
 30
0.0
 40
0.2
  1
0
100
AcDbAttributeDefinition
  3
Geh\U+00F6rt
  2
BELONGSTO
 70
     0
  0
ATTDEF
  5
91
100
AcDbEntity
  8
0
100
AcDbText
 10
1500.0
 20
1500.0
 30
0.0
 40
0.2
  1
0
100
AcDbAttributeDefinition
  3
Ge\U+00E4ndert
  2
MODIFY
 70
     0
  0
ATTDEF
  5
92
100
AcDbEntity
  8
0
100
AcDbText
 10
1500.0
 20
1500.0
 30
0.0
 40
0.2
  1
0
100
AcDbAttributeDefinition
  3
Inventarnummer
  2
ASSETNUMBER
 70
     0
  0
ATTDEF
  5
93
100
AcDbEntity
  8
0
100
AcDbText
 10
1500.0
 20
1500.0
 30
0.0
 40
0.2
  1
0
100
AcDbAttributeDefinition
  3
Seriennummer
  2
SERIALNUMBER
 70
     0
  0
ATTDEF
  5
94
100
AcDbEntity
  8
0
100
AcDbText
 10
1500.0
 20
1500.0
 30
0.0
 40
0.2
  1
0
100
AcDbAttributeDefinition
  3
Hersteller
  2
MANUFACTURER
 70
     0
  0
ATTDEF
  5
95
100
AcDbEntity
  8
0
100
AcDbText
 10
1500.0
 20
1500.0
 30
0.0
 40
0.2
  1
0
100
AcDbAttributeDefinition
  3
Modell-ID oder -markierung
  2
MODELID
 70
     0
  0
ATTDEF
  5
96
100
AcDbEntity
  8
0
100
AcDbText
 10
1500.0
 20
1500.0
 30
0.0
 40
0.2
  1
0
100
AcDbAttributeDefinition
  3
Modellname
  2
MODELNAME
 70
     0
  0
ATTDEF
  5
97
100
AcDbEntity
  8
0
100
AcDbText
 10
1500.0
 20
1500.0
 30
0.0
 40
0.2
  1
0
100
AcDbAttributeDefinition
  3
Produktbeschreibung
  2
PRODUCTDESCRIPTION
 70
     0
  0
ATTDEF
  5
98
100
AcDbEntity
  8
0
100
AcDbText
 10
1500.0
 20
1500.0
 30
0.0
 40
0.2
  1
0
100
AcDbAttributeDefinition
  3
Einkaufsdatum
  2
PURCHASEDATE
 70
     0
  0
ATTDEF
  5
99
100
AcDbEntity
  8
0
100
AcDbText
 10
1500.0
 20
1500.0
 30
0.0
 40
0.2
  1
0
100
AcDbAttributeDefinition
  3
Liste der Optionen
  2
OPTIONSLIST
 70
     0
  0
ATTDEF
  5
9A
100
AcDbEntity
  8
0
100
AcDbText
 10
1500.0
 20
1500.0
 30
0.0
 40
0.2
  1
0
100
AcDbAttributeDefinition
  3
Katalog-URL
  2
CATALOGURL
 70
     0
  0
ATTDEF
  5
9B
100
AcDbEntity
  8
0
100
AcDbText
 10
1500.0
 20
1500.0
 30
0.0
 40
0.2
  1
0
100
AcDbAttributeDefinition
  3
Klassifizierung
  2
CLASSIFICATION
 70
     0
  0
ATTDEF
  5
9C
100
AcDbEntity
  8
0
100
AcDbText
 10
1500.0
 20
1500.0
 30
0.0
 40
0.2
  1
0
100
AcDbAttributeDefinition
  3
Klassifizierungsquelle
  2
CLASSIFICATIONSOURCE
 70
     0
  0
ATTDEF
  5
9D
100
AcDbEntity
  8
0
100
AcDbText
 10
1500.0
 20
1500.0
 30
0.0
 40
0.2
  1
0
100
AcDbAttributeDefinition
  3
Produktnummer
  2
PRODUCTNUMBER
 70
     0
  0
ATTDEF
  5
9E
100
AcDbEntity
  8
0
100
AcDbText
 10
1500.0
 20
1500.0
 30
0.0
 40
0.2
  1
0
100
AcDbAttributeDefinition
  3
Base elevation
  2
BASEELEVATION
 70
     0
  0
ELLIPSE
  5
9F
102
{ACAD_REACTORS
330
BF
102
}
100
AcDbEntity
  8
OBSTACLE
  6
CONTINUOUS
 62
     7
100
AcDbEllipse
 10
1281.060176
 20
1697.191789
 30
0.0
 11
-50.749841925788161
 21
0.0000000000000389
 31
0.0
210
0.0
220
0.0
230
1.0
 40
0.993661
 41
-3.1415925397131059
 42
-2.7776248049770018
  0
ELLIPSE
  5
A0
102
{ACAD_REACTORS
330
BF
102
}
100
AcDbEntity
  8
OBSTACLE
  6
CONTINUOUS
 62
     7
100
AcDbEllipse
 10
1281.060249
 20
1697.19179
 30
0.0
 11
-50.749768880213871
 21
0.0000000000000389
 31
0.0
210
0.0
220
0.0
230
1.0
 40
0.993661
 41
2.9483770829299987
 42
3.1415927477635628
  0
LINE
  5
A1
102
{ACAD_REACTORS
330
BF
102
}
100
AcDbEntity
  8
OBSTACLE
  6
CONTINUOUS
 62
     7
100
AcDbLine
 10
1330.86566
 20
1687.50881
 30
0.0
 11
1312.652786
 21
1500.763077
 31
0.0
  0
LINE
  5
A2
102
{ACAD_REACTORS
330
BF
102
}
100
AcDbEntity
  8
OBSTACLE
  6
CONTINUOUS
 62
     7
100
AcDbLine
 10
1312.652786
 20
1500.763077
 30
0.0
 11
1330.86566
 21
1314.017347
 31
0.0
  0
ELLIPSE
  5
A3
102
{ACAD_REACTORS
330
BF
102
}
100
AcDbEntity
  8
OBSTACLE
  6
CONTINUOUS
 62
     7
100
AcDbEllipse
 10
1281.060251
 20
1304.334367
 30
0.0
 11
50.749767297942064
 21
0.0
 31
0.0
210
0.0
220
0.0
230
1.0
 40
0.993661
 41
-0.0000001437279904
 42
0.1932155736812382
  0
ELLIPSE
  5
A4
102
{ACAD_REACTORS
330
BF
102
}
100
AcDbEntity
  8
OBSTACLE
  6
CONTINUOUS
 62
     7
100
AcDbEllipse
 10
1281.060149
 20
1304.33437
 30
0.0
 11
50.749869078876863
 21
0.0
 31
0.0
210
0.0
220
0.0
230
1.0
 40
0.993661
 41
-0.3868147344182142
 42
-0.0000002003987607
  0
ARC
  5
A5
102
{ACAD_REACTORS
330
BF
102
}
100
AcDbEntity
  8
OBSTACLE
  6
CONTINUOUS
 62
     7
100
AcDbCircle
 10
1437.941008
 20
1387.671246
 30
0.0
 40
150.171264
100
AcDbArc
 50
222.970725
 51
270.028449
  0
LINE
  5
A6
102
{ACAD_REACTORS
330
BF
102
}
100
AcDbEntity
  8
OBSTACLE
  6
CONTINUOUS
 62
     7
100
AcDbLine
 10
1438.015572
 20
1237.5
 30
0.0
 11
1649.796286
 21
1237.5
 31
0.0
  0
ARC
  5
A7
102
{ACAD_REACTORS
330
BF
102
}
100
AcDbEntity
  8
OBSTACLE
  6
CONTINUOUS
 62
     7
100
AcDbCircle
 10
1649.898143
 20
1387.601857
 30
0.0
 40
150.101892
100
AcDbArc
 50
269.96112
 51
359.96112
  0
LINE
  5
A8
102
{ACAD_REACTORS
330
BF
102
}
100
AcDbEntity
  8
OBSTACLE
  6
CONTINUOUS
 62
     7
100
AcDbLine
 10
1800.0
 20
1387.5
 30
0.0
 11
1800.0
 21
1612.5
 31
0.0
  0
ARC
  5
A9
102
{ACAD_REACTORS
330
BF
102
}
100
AcDbEntity
  8
OBSTACLE
  6
CONTINUOUS
 62
     7
100
AcDbCircle
 10
1649.898143
 20
1612.398143
 30
0.0
 40
150.101892
100
AcDbArc
 50
0.03888
 51
90.03888
  0
LINE
  5
AA
102
{ACAD_REACTORS
330
BF
102
}
100
AcDbEntity
  8
OBSTACLE
  6
CONTINUOUS
 62
     7
100
AcDbLine
 10
1649.796286
 20
1762.5
 30
0.0
 11
1499.592571
 21
1762.5
 31
0.0
  0
LINE
  5
AB
102
{ACAD_REACTORS
330
BF
102
}
100
AcDbEntity
  8
OBSTACLE
  6
CONTINUOUS
 62
     7
100
AcDbLine
 10
1499.592571
 20
1762.5
 30
0.0
 11
1438.015572
 21
1762.5
 31
0.0
  0
ARC
  5
AC
102
{ACAD_REACTORS
330
BF
102
}
100
AcDbEntity
  8
OBSTACLE
  6
CONTINUOUS
 62
     7
100
AcDbCircle
 10
1437.941295
 20
1612.328445
 30
0.0
 40
150.171573
100
AcDbArc
 50
89.971661
 51
136.79189
  0
LINE
  5
AD
102
{ACAD_REACTORS
330
BF
102
}
100
AcDbEntity
  8
OBSTACLE
  6
CONTINUOUS
 62
     7
100
AcDbLine
 10
1200.073572
 20
1500.763077
 30
0.0
 11
1200.0
 21
1501.228485
 31
0.0
  0
LINE
  5
AE
102
{ACAD_REACTORS
330
BF
102
}
100
AcDbEntity
  8
OBSTACLE
  6
CONTINUOUS
 62
     7
100
AcDbLine
 10
1200.0
 20
1501.228485
 30
0.0
 11
1200.147145
 21
1501.228485
 31
0.0
  0
LINE
  5
AF
102
{ACAD_REACTORS
330
BF
102
}
100
AcDbEntity
  8
OBSTACLE
  6
CONTINUOUS
 62
     7
100
AcDbLine
 10
1200.147145
 20
1501.228485
 30
0.0
 11
1231.125294
 21
1697.191795
 31
0.0
  0
ELLIPSE
  5
B0
102
{ACAD_REACTORS
330
BF
102
}
100
AcDbEntity
  8
OBSTACLE
  6
CONTINUOUS
 62
     7
100
AcDbEllipse
 10
1281.875087
 20
1697.191796
 30
0.0
 11
-50.749793445387951
 21
0.0000000000000389
 31
0.0
210
0.0
220
0.0
230
1.0
 40
0.993661
 41
-1.5707963006199734
 42
0.0000000212194581
  0
ELLIPSE
  5
B1
102
{ACAD_REACTORS
330
BF
102
}
100
AcDbEntity
  8
OBSTACLE
  6
CONTINUOUS
 62
     7
100
AcDbEllipse
 10
1281.875082
 20
1697.191796
 30
0.0
 11
-50.749793445388029
 21
0.0000000000000389
 31
0.0
210
0.0
220
0.0
230
1.0
 40
0.993661
 41
3.1415926323703367
 42
4.712388904881605
  0
ELLIPSE
  5
B2
102
{ACAD_REACTORS
330
BF
102
}
100
AcDbEntity
  8
OBSTACLE
  6
CONTINUOUS
 62
     7
100
AcDbEllipse
 10
1281.875107
 20
1697.19179
 30
0.0
 11
-50.749768880272107
 21
0.0000000000000389
 31
0.0
210
0.0
220
0.0
230
1.0
 40
0.993661
 41
2.9483770829301257
 42
3.1415927477634686
  0
LINE
  5
B3
102
{ACAD_REACTORS
330
BF
102
}
100
AcDbEntity
  8
OBSTACLE
  6
CONTINUOUS
 62
     7
100
AcDbLine
 10
1331.680517
 20
1687.50881
 30
0.0
 11
1313.467643
 21
1500.763077
 31
0.0
  0
LINE
  5
B4
102
{ACAD_REACTORS
330
BF
102
}
100
AcDbEntity
  8
OBSTACLE
  6
CONTINUOUS
 62
     7
100
AcDbLine
 10
1313.467643
 20
1500.763077
 30
0.0
 11
1331.680517
 21
1314.017347
 31
0.0
  0
ELLIPSE
  5
B5
102
{ACAD_REACTORS
330
BF
102
}
100
AcDbEntity
  8
OBSTACLE
  6
CONTINUOUS
 62
     7
100
AcDbEllipse
 10
1281.875108
 20
1304.334367
 30
0.0
 11
50.749767297943521
 21
0.0000000000001803
 31
0.0
210
0.0
220
0.0
230
1.0
 40
0.993661
 41
-0.0000001437279928
 42
0.1932155736812301
  0
ELLIPSE
  5
B6
102
{ACAD_REACTORS
330
BF
102
}
100
AcDbEntity
  8
OBSTACLE
  6
CONTINUOUS
 62
     7
100
AcDbEllipse
 10
1281.875087
 20
1304.334358
 30
0.0
 11
50.749788748298371
 21
0.0000000000001803
 31
0.0
210
0.0
220
0.0
230
1.0
 40
0.993661
 41
-1.5707963438456645
 42
0.0000000483514886
  0
ELLIPSE
  5
B7
102
{ACAD_REACTORS
330
BF
102
}
100
AcDbEntity
  8
OBSTACLE
  6
CONTINUOUS
 62
     7
100
AcDbEllipse
 10
1281.875083
 20
1304.334358
 30
0.0
 11
50.749788748298542
 21
0.0000000000001803
 31
0.0
210
0.0
220
0.0
230
1.0
 40
0.993661
 41
3.1415926052382988
 42
4.7123890467636471
  0
LINE
  5
B8
102
{ACAD_REACTORS
330
BF
102
}
100
AcDbEntity
  8
OBSTACLE
  6
CONTINUOUS
 62
     7
100
AcDbLine
 10
1231.125294
 20
1304.33436
 30
0.0
 11
1200.147145
 21
1500.297672
 31
0.0
  0
LINE
  5
B9
102
{ACAD_REACTORS
330
BF
102
}
100
AcDbEntity
  8
OBSTACLE
  6
CONTINUOUS
 62
     7
100
AcDbLine
 10
1200.147145
 20
1500.297672
 30
0.0
 11
1200.0
 21
1500.297672
 31
0.0
  0
LINE
  5
BA
102
{ACAD_REACTORS
330
BF
102
}
100
AcDbEntity
  8
OBSTACLE
  6
CONTINUOUS
 62
     7
100
AcDbLine
 10
1200.0
 20
1500.297672
 30
0.0
 11
1200.073572
 21
1500.763077
 31
0.0
  0
ENDBLK
  5
BB
100
AcDbEntity
  8
0
100
AcDbBlockEnd
  0
BLOCK
  5
BD
100
AcDbEntity
  8
0
100
AcDbBlockBegin
  2
RAUM
 70
     0
 10
0.0
 20
0.0
 30
0.0
  3
RAUM
  1

  0
LWPOLYLINE
  5
BE
102
{ACAD_REACTORS
330
BF
102
}
100
AcDbEntity
  8
OBSTACLE
  6
CONTINUOUS
 62
     7
100
AcDbPolyline
 90
        4
 70
     1
 10
3150.0
 20
2900.0
 10
3150.0
 20
100.0
 10
3000.0
 20
250.0
 10
3000.0
 20
2750.0
  0
HATCH
  5
BF
100
AcDbEntity
  8
OBSTACLE
 62
   253
100
AcDbHatch
 10
0.0
 20
0.0
 30
0.0
210
0.0
220
0.0
230
1.0
  2
SOLID
 70
     1
 71
     1
 91
        1
 92
        3
 72
     0
 73
     1
 93
        4
 10
3149.9999999999941
 20
2900.0000000000164
 10
3149.9999999999941
 20
100.00000000002129
 10
2999.9999999999936
 20
250.00000000001785
 10
2999.9999999999936
 20
2750.0000000000155
 97
       29
330
9F
330
A0
330
A1
330
A2
330
A3
330
A4
330
A5
330
A6
330
A7
330
A8
330
A9
330
AA
330
AB
330
AC
330
AD
330
AE
330
AF
330
B0
330
B1
330
B2
330
B3
330
B4
330
B5
330
B6
330
B7
330
B8
330
B9
330
BA
330
BE
 75
     0
 76
     1
 98
        0
  0
LINE
  5
C0
100
AcDbEntity
  8
OBSTACLE
  6
CONTINUOUS
 62
     7
100
AcDbLine
 10
3150.0
 20
2900.0
 30
0.0
 11
3150.0
 21
100.0
 31
0.0
  0
LINE
  5
C1
100
AcDbEntity
  8
OBSTACLE
  6
CONTINUOUS
 62
     7
100
AcDbLine
 10
3000.0
 20
2750.0
 30
0.0
 11
3000.0
 21
250.0
 31
0.0
  0
LWPOLYLINE
  5
C2
102
{ACAD_REACTORS
330
C3
102
}
100
AcDbEntity
  8
OBSTACLE
  6
CONTINUOUS
 62
     7
100
AcDbPolyline
 90
        4
 70
     1
 10
3150.0
 20
100.0
 10
-150.0
 20
100.0
 10
0.0
 20
250.0
 10
3000.0
 20
250.0
  0
HATCH
  5
C3
100
AcDbEntity
  8
OBSTACLE
 62
   253
100
AcDbHatch
 10
0.0
 20
0.0
 30
0.0
210
0.0
220
0.0
230
1.0
  2
SOLID
 70
     1
 71
     1
 91
        1
 92
        3
 72
     0
 73
     1
 93
        4
 10
3149.9999999999995
 20
100.00000000000921
 10
-150.00000000000776
 20
100.00000000000921
 10
-0.0000000000057753
 20
250.00000000000921
 10
3000.0000000000005
 20
250.00000000000921
 97
        1
330
C2
 75
     0
 76
     1
 98
        0
  0
LINE
  5
C4
100
AcDbEntity
  8
OBSTACLE
  6
CONTINUOUS
 62
     7
100
AcDbLine
 10
3150.0
 20
100.0
 30
0.0
 11
-150.0
 21
100.0
 31
0.0
  0
LINE
  5
C5
100
AcDbEntity
  8
OBSTACLE
  6
CONTINUOUS
 62
     7
100
AcDbLine
 10
3000.0
 20
250.0
 30
0.0
 11
0.0
 21
250.0
 31
0.0
  0
LWPOLYLINE
  5
C6
102
{ACAD_REACTORS
330
C7
102
}
100
AcDbEntity
  8
OBSTACLE
  6
CONTINUOUS
 62
     7
100
AcDbPolyline
 90
        4
 70
     1
 10
-150.0
 20
100.0
 10
-150.0
 20
2900.0
 10
0.0
 20
2750.0
 10
0.0
 20
250.0
  0
HATCH
  5
C7
100
AcDbEntity
  8
OBSTACLE
 62
   253
100
AcDbHatch
 10
0.0
 20
0.0
 30
0.0
210
0.0
220
0.0
230
1.0
  2
SOLID
 70
     1
 71
     1
 91
        1
 92
        3
 72
     0
 73
     1
 93
        4
 10
-149.99999999999602
 20
99.999999999996547
 10
-149.99999999999602
 20
2899.999999999995
 10
0.0000000000039705
 20
2749.9999999999977
 10
0.0000000000039705
 20
250.00000000000054
 97
        1
330
C6
 75
     0
 76
     1
 98
        0
  0
LINE
  5
C8
100
AcDbEntity
  8
OBSTACLE
  6
CONTINUOUS
 62
     7
100
AcDbLine
 10
-150.0
 20
100.0
 30
0.0
 11
-150.0
 21
2900.0
 31
0.0
  0
LINE
  5
C9
100
AcDbEntity
  8
OBSTACLE
  6
CONTINUOUS
 62
     7
100
AcDbLine
 10
0.0
 20
250.0
 30
0.0
 11
0.0
 21
2750.0
 31
0.0
  0
LWPOLYLINE
  5
CA
102
{ACAD_REACTORS
330
CB
102
}
100
AcDbEntity
  8
OBSTACLE
  6
CONTINUOUS
 62
     7
100
AcDbPolyline
 90
        4
 70
     1
 10
-150.0
 20
2900.0
 10
3150.0
 20
2900.0
 10
3000.0
 20
2750.0
 10
0.0
 20
2750.0
  0
HATCH
  5
CB
100
AcDbEntity
  8
OBSTACLE
 62
   253
100
AcDbHatch
 10
0.0
 20
0.0
 30
0.0
210
0.0
220
0.0
230
1.0
  2
SOLID
 70
     1
 71
     1
 91
        1
 92
        3
 72
     0
 73
     1
 93
        4
 10
-149.99999999998525
 20
2900.0000000000068
 10
3150.0000000000014
 20
2900.0000000000068
 10
3000.0000000000014
 20
2750.0000000000068
 10
0.0000000000128139
 20
2750.0000000000068
 97
        1
330
CA
 75
     0
 76
     1
 98
        0
  0
LINE
  5
CC
100
AcDbEntity
  8
OBSTACLE
  6
CONTINUOUS
 62
     7
100
AcDbLine
 10
-150.0
 20
2900.0
 30
0.0
 11
3150.0
 21
2900.0
 31
0.0
  0
LINE
  5
CD
100
AcDbEntity
  8
OBSTACLE
  6
CONTINUOUS
 62
     7
100
AcDbLine
 10
0.0
 20
2750.0
 30
0.0
 11
3000.0
 21
2750.0
 31
0.0
  0
ENDBLK
  5
CE
100
AcDbEntity
  8
0
100
AcDbBlockEnd
  0
BLOCK
  5
D0
100
AcDbEntity
  8
0
100
AcDbBlockBegin
  2
TAFEL
 70
     2
 10
0.0
 20
0.0
 30
0.0
  3
TAFEL
  1

  0
ATTDEF
  5
D1
100
AcDbEntity
  8
0
100
AcDbText
 10
500.0
 20
500.0
 30
0.0
 40
0.2
  1
Posten
100
AcDbAttributeDefinition
  3
ShapeClass
  2
SHAPECLASS
 70
     0
  0
ATTDEF
  5
D2
100
AcDbEntity
  8
0
100
AcDbText
 10
500.0
 20
500.0
 30
0.0
 40
0.2
  1
M\U+00F6bel
100
AcDbAttributeDefinition
  3
ShapeType
  2
SHAPETYPE
 70
     0
  0
ATTDEF
  5
D3
100
AcDbEntity
  8
0
100
AcDbText
 10
500.0
 20
500.0
 30
0.0
 40
0.2
  1
Whiteboard
100
AcDbAttributeDefinition
  3
SubShapeType
  2
SUBSHAPETYPE
 70
     0
  0
ATTDEF
  5
D4
100
AcDbEntity
  8
0
100
AcDbText
 10
500.0
 20
500.0
 30
0.0
 40
0.2
  1
0
100
AcDbAttributeDefinition
  3
ID
  2
ID
 70
     0
  0
ATTDEF
  5
D5
100
AcDbEntity
  8
0
100
AcDbText
 10
500.0
 20
500.0
 30
0.0
 40
0.2
  1
0
100
AcDbAttributeDefinition
  3
Name
  2
NAME
 70
     0
  0
ATTDEF
  5
D6
100
AcDbEntity
  8
0
100
AcDbText
 10
500.0
 20
500.0
 30
0.0
 40
0.2
  1
0
100
AcDbAttributeDefinition
  3
Abteilung
  2
DEPARTMENT
 70
     0
  0
ATTDEF
  5
D7
100
AcDbEntity
  8
0
100
AcDbText
 10
500.0
 20
500.0
 30
0.0
 40
0.2
  1
0
100
AcDbAttributeDefinition
  3
Geh\U+00F6rt
  2
BELONGSTO
 70
     0
  0
ATTDEF
  5
D8
100
AcDbEntity
  8
0
100
AcDbText
 10
500.0
 20
500.0
 30
0.0
 40
0.2
  1
0
100
AcDbAttributeDefinition
  3
Ge\U+00E4ndert
  2
MODIFY
 70
     0
  0
ATTDEF
  5
D9
100
AcDbEntity
  8
0
100
AcDbText
 10
500.0
 20
500.0
 30
0.0
 40
0.2
  1
0
100
AcDbAttributeDefinition
  3
Inventarnummer
  2
ASSETNUMBER
 70
     0
  0
ATTDEF
  5
DA
100
AcDbEntity
  8
0
100
AcDbText
 10
500.0
 20
500.0
 30
0.0
 40
0.2
  1
0
100
AcDbAttributeDefinition
  3
Seriennummer
  2
SERIALNUMBER
 70
     0
  0
ATTDEF
  5
DB
100
AcDbEntity
  8
0
100
AcDbText
 10
500.0
 20
500.0
 30
0.0
 40
0.2
  1
0
100
AcDbAttributeDefinition
  3
Hersteller
  2
MANUFACTURER
 70
     0
  0
ATTDEF
  5
DC
100
AcDbEntity
  8
0
100
AcDbText
 10
500.0
 20
500.0
 30
0.0
 40
0.2
  1
0
100
AcDbAttributeDefinition
  3
Modell-ID oder -markierung
  2
MODELID
 70
     0
  0
ATTDEF
  5
DD
100
AcDbEntity
  8
0
100
AcDbText
 10
500.0
 20
500.0
 30
0.0
 40
0.2
  1
0
100
AcDbAttributeDefinition
  3
Modellname
  2
MODELNAME
 70
     0
  0
ATTDEF
  5
DE
100
AcDbEntity
  8
0
100
AcDbText
 10
500.0
 20
500.0
 30
0.0
 40
0.2
  1
0
100
AcDbAttributeDefinition
  3
Produktbeschreibung
  2
PRODUCTDESCRIPTION
 70
     0
  0
ATTDEF
  5
DF
100
AcDbEntity
  8
0
100
AcDbText
 10
500.0
 20
500.0
 30
0.0
 40
0.2
  1
0
100
AcDbAttributeDefinition
  3
Einkaufsdatum
  2
PURCHASEDATE
 70
     0
  0
ATTDEF
  5
E0
100
AcDbEntity
  8
0
100
AcDbText
 10
500.0
 20
500.0
 30
0.0
 40
0.2
  1
0
100
AcDbAttributeDefinition
  3
Liste der Optionen
  2
OPTIONSLIST
 70
     0
  0
ATTDEF
  5
E1
100
AcDbEntity
  8
0
100
AcDbText
 10
500.0
 20
500.0
 30
0.0
 40
0.2
  1
0
100
AcDbAttributeDefinition
  3
Katalog-URL
  2
CATALOGURL
 70
     0
  0
ATTDEF
  5
E2
100
AcDbEntity
  8
0
100
AcDbText
 10
500.0
 20
500.0
 30
0.0
 40
0.2
  1
0
100
AcDbAttributeDefinition
  3
Klassifizierung
  2
CLASSIFICATION
 70
     0
  0
ATTDEF
  5
E3
100
AcDbEntity
  8
0
100
AcDbText
 10
500.0
 20
500.0
 30
0.0
 40
0.2
  1
0
100
AcDbAttributeDefinition
  3
Klassifizierungsquelle
  2
CLASSIFICATIONSOURCE
 70
     0
  0
ATTDEF
  5
E4
100
AcDbEntity
  8
0
100
AcDbText
 10
500.0
 20
500.0
 30
0.0
 40
0.2
  1
0
100
AcDbAttributeDefinition
  3
Produktnummer
  2
PRODUCTNUMBER
 70
     0
  0
ATTDEF
  5
E5
100
AcDbEntity
  8
0
100
AcDbText
 10
500.0
 20
500.0
 30
0.0
 40
0.2
  1
0
100
AcDbAttributeDefinition
  3
Base elevation
  2
BASEELEVATION
 70
     0
  0
LINE
  5
E7
100
AcDbEntity
  8
WP
  6
CONTINUOUS
 62
     7
100
AcDbLine
 10
485.0
 20
0.0
 30
0.0
 11
485.0
 21
1000.0
 31
0.0
  0
LWPOLYLINE
  5
E8
102
{ACAD_REACTORS
330
237
102
}
100
AcDbEntity
  8
WP
  6
CONTINUOUS
 62
     7
100
AcDbPolyline
 90
        4
 70
     1
 10
462.5
 20
0.0
 10
537.5
 20
0.0
 10
537.5
 20
1000.0
 10
462.5
 20
1000.0
  0
ENDBLK
  5
E9
100
AcDbEntity
  8
0
100
AcDbBlockEnd
  0
BLOCK
  5
EB
100
AcDbEntity
  8
0
100
AcDbBlockBegin
  2
ARCHIVSCHRANK
 70
     2
 10
0.0
 20
0.0
 30
0.0
  3
ARCHIVSCHRANK
  1

  0
ATTDEF
  5
EC
100
AcDbEntity
  8
0
100
AcDbText
 10
1500.0
 20
1500.0
 30
0.0
 40
0.2
  1
19.685039370079
100
AcDbAttributeDefinition
  3
Breite
  2
WIDTH
 70
     0
  0
ATTDEF
  5
ED
100
AcDbEntity
  8
0
100
AcDbText
 10
1500.0
 20
1500.0
 30
0.0
 40
0.2
  1
11.811023622047
100
AcDbAttributeDefinition
  3
Tiefe
  2
DEPTH
 70
     0
  0
ATTDEF
  5
EE
100
AcDbEntity
  8
0
100
AcDbText
 10
1500.0
 20
1500.0
 30
0.0
 40
0.2
  1
27.55905511811
100
AcDbAttributeDefinition
  3
H\U+00F6he
  2
HEIGHT
 70
     0
  0
ATTDEF
  5
EF
100
AcDbEntity
  8
0
100
AcDbText
 10
1500.0
 20
1500.0
 30
0.0
 40
0.2
  1
Posten
100
AcDbAttributeDefinition
  3
ShapeClass
  2
SHAPECLASS
 70
     0
  0
ATTDEF
  5
F0
100
AcDbEntity
  8
0
100
AcDbText
 10
1500.0
 20
1500.0
 30
0.0
 40
0.2
  1
M\U+00F6bel
100
AcDbAttributeDefinition
  3
ShapeType
  2
SHAPETYPE
 70
     0
  0
ATTDEF
  5
F1
100
AcDbEntity
  8
0
100
AcDbText
 10
1500.0
 20
1500.0
 30
0.0
 40
0.2
  1
Archiv
100
AcDbAttributeDefinition
  3
SubShapeType
  2
SUBSHAPETYPE
 70
     0
  0
ATTDEF
  5
F2
100
AcDbEntity
  8
0
100
AcDbText
 10
1500.0
 20
1500.0
 30
0.0
 40
0.2
  1
0
100
AcDbAttributeDefinition
  3
ID
  2
ID
 70
     0
  0
ATTDEF
  5
F3
100
AcDbEntity
  8
0
100
AcDbText
 10
1500.0
 20
1500.0
 30
0.0
 40
0.2
  1
0
100
AcDbAttributeDefinition
  3
Name
  2
NAME
 70
     0
  0
ATTDEF
  5
F4
100
AcDbEntity
  8
0
100
AcDbText
 10
1500.0
 20
1500.0
 30
0.0
 40
0.2
  1
0
100
AcDbAttributeDefinition
  3
Abteilung
  2
DEPARTMENT
 70
     0
  0
ATTDEF
  5
F5
100
AcDbEntity
  8
0
100
AcDbText
 10
1500.0
 20
1500.0
 30
0.0
 40
0.2
  1
0
100
AcDbAttributeDefinition
  3
Geh\U+00F6rt
  2
BELONGSTO
 70
     0
  0
ATTDEF
  5
F6
100
AcDbEntity
  8
0
100
AcDbText
 10
1500.0
 20
1500.0
 30
0.0
 40
0.2
  1
0
100
AcDbAttributeDefinition
  3
Ge\U+00E4ndert
  2
MODIFY
 70
     0
  0
ATTDEF
  5
F7
100
AcDbEntity
  8
0
100
AcDbText
 10
1500.0
 20
1500.0
 30
0.0
 40
0.2
  1
0
100
AcDbAttributeDefinition
  3
Inventarnummer
  2
ASSETNUMBER
 70
     0
  0
ATTDEF
  5
F8
100
AcDbEntity
  8
0
100
AcDbText
 10
1500.0
 20
1500.0
 30
0.0
 40
0.2
  1
0
100
AcDbAttributeDefinition
  3
Seriennummer
  2
SERIALNUMBER
 70
     0
  0
ATTDEF
  5
F9
100
AcDbEntity
  8
0
100
AcDbText
 10
1500.0
 20
1500.0
 30
0.0
 40
0.2
  1
0
100
AcDbAttributeDefinition
  3
Hersteller
  2
MANUFACTURER
 70
     0
  0
ATTDEF
  5
FA
100
AcDbEntity
  8
0
100
AcDbText
 10
1500.0
 20
1500.0
 30
0.0
 40
0.2
  1
0
100
AcDbAttributeDefinition
  3
Modell-ID oder -markierung
  2
MODELID
 70
     0
  0
ATTDEF
  5
FB
100
AcDbEntity
  8
0
100
AcDbText
 10
1500.0
 20
1500.0
 30
0.0
 40
0.2
  1
0
100
AcDbAttributeDefinition
  3
Modellname
  2
MODELNAME
 70
     0
  0
ATTDEF
  5
FC
100
AcDbEntity
  8
0
100
AcDbText
 10
1500.0
 20
1500.0
 30
0.0
 40
0.2
  1
0
100
AcDbAttributeDefinition
  3
Produktbeschreibung
  2
PRODUCTDESCRIPTION
 70
     0
  0
ATTDEF
  5
FD
100
AcDbEntity
  8
0
100
AcDbText
 10
1500.0
 20
1500.0
 30
0.0
 40
0.2
  1
0
100
AcDbAttributeDefinition
  3
Einkaufsdatum
  2
PURCHASEDATE
 70
     0
  0
ATTDEF
  5
FE
100
AcDbEntity
  8
0
100
AcDbText
 10
1500.0
 20
1500.0
 30
0.0
 40
0.2
  1
0
100
AcDbAttributeDefinition
  3
Liste der Optionen
  2
OPTIONSLIST
 70
     0
  0
ATTDEF
  5
FF
100
AcDbEntity
  8
0
100
AcDbText
 10
1500.0
 20
1500.0
 30
0.0
 40
0.2
  1
0
100
AcDbAttributeDefinition
  3
Katalog-URL
  2
CATALOGURL
 70
     0
  0
ATTDEF
  5
100
100
AcDbEntity
  8
0
100
AcDbText
 10
1500.0
 20
1500.0
 30
0.0
 40
0.2
  1
0
100
AcDbAttributeDefinition
  3
Klassifizierung
  2
CLASSIFICATION
 70
     0
  0
ATTDEF
  5
101
100
AcDbEntity
  8
0
100
AcDbText
 10
1500.0
 20
1500.0
 30
0.0
 40
0.2
  1
0
100
AcDbAttributeDefinition
  3
Klassifizierungsquelle
  2
CLASSIFICATIONSOURCE
 70
     0
  0
ATTDEF
  5
102
100
AcDbEntity
  8
0
100
AcDbText
 10
1500.0
 20
1500.0
 30
0.0
 40
0.2
  1
0
100
AcDbAttributeDefinition
  3
Produktnummer
  2
PRODUCTNUMBER
 70
     0
  0
ATTDEF
  5
103
100
AcDbEntity
  8
0
100
AcDbText
 10
1500.0
 20
1500.0
 30
0.0
 40
0.2
  1
0
100
AcDbAttributeDefinition
  3
Base elevation
  2
BASEELEVATION
 70
     0
  0
LWPOLYLINE
  5
104
102
{ACAD_REACTORS
330
237
102
}
100
AcDbEntity
  8
WP
  6
CONTINUOUS
 62
     7
100
AcDbPolyline
 90
        4
 70
     1
 10
1650.0
 20
1450.0
 10
1675.0
 20
1450.0
 10
1675.0
 20
1475.0
 10
1650.0
 20
1475.0
  0
LWPOLYLINE
  5
105
102
{ACAD_REACTORS
330
237
102
}
100
AcDbEntity
  8
WP
  6
CONTINUOUS
 62
     7
100
AcDbPolyline
 90
        4
 70
     1
 10
1650.0
 20
1525.0
 10
1675.0
 20
1525.0
 10
1675.0
 20
1550.0
 10
1650.0
 20
1550.0
  0
LWPOLYLINE
  5
106
102
{ACAD_REACTORS
330
237
102
}
100
AcDbEntity
  8
WP
  6
CONTINUOUS
 62
     7
100
AcDbPolyline
 90
        4
 70
     1
 10
1350.0
 20
1250.0
 10
1350.0
 20
1750.0
 10
1625.0
 20
1750.0
 10
1625.0
 20
1250.0
  0
LINE
  5
107
100
AcDbEntity
  8
WP
  6
CONTINUOUS
 62
     7
100
AcDbLine
 10
1625.0
 20
1500.0
 30
0.0
 11
1650.0
 21
1500.0
 31
0.0
  0
LWPOLYLINE
  5
108
102
{ACAD_REACTORS
330
237
102
}
100
AcDbEntity
  8
WP
  6
CONTINUOUS
 62
     7
100
AcDbPolyline
 90
        4
 70
     1
 10
1625.0
 20
1250.0
 10
1650.0
 20
1250.0
 10
1650.0
 20
1750.0
 10
1625.0
 20
1750.0
  0
ENDBLK
  5
109
100
AcDbEntity
  8
0
100
AcDbBlockEnd
  0
BLOCK
  5
10B
100
AcDbEntity
  8
0
100
AcDbBlockBegin
  2
FENSTER
 70
     0
 10
0.0
 20
0.0
 30
0.0
  3
FENSTER
  1

  0
LWPOLYLINE
  5
10C
102
{ACAD_REACTORS
330
237
102
}
100
AcDbEntity
  8
OBSTACLE
  6
CONTINUOUS
 62
     7
100
AcDbPolyline
 90
        4
 70
     1
 10
1050.0
 20
1419.92
 10
1950.0
 20
1419.92
 10
1950.0
 20
1580.08
 10
1050.0
 20
1580.08
  0
LINE
  5
10D
102
{ACAD_REACTORS
330
237
102
}
100
AcDbEntity
  8
OBSTACLE
  6
CONTINUOUS
 62
     7
100
AcDbLine
 10
1050.0
 20
1425.0
 30
0.0
 11
1050.0
 21
1575.0
 31
0.0
  0
LINE
  5
10E
102
{ACAD_REACTORS
330
237
102
}
100
AcDbEntity
  8
OBSTACLE
  6
CONTINUOUS
 62
     7
100
AcDbLine
 10
1050.0
 20
1575.0
 30
0.0
 11
1100.0
 21
1575.0
 31
0.0
  0
LINE
  5
10F
102
{ACAD_REACTORS
330
237
102
}
100
AcDbEntity
  8
OBSTACLE
  6
CONTINUOUS
 62
     7
100
AcDbLine
 10
1100.0
 20
1575.0
 30
0.0
 11
1100.0
 21
1525.0
 31
0.0
  0
LINE
  5
110
102
{ACAD_REACTORS
330
237
102
}
100
AcDbEntity
  8
OBSTACLE
  6
CONTINUOUS
 62
     7
100
AcDbLine
 10
1100.0
 20
1475.0
 30
0.0
 11
1100.0
 21
1425.0
 31
0.0
  0
LINE
  5
111
102
{ACAD_REACTORS
330
237
102
}
100
AcDbEntity
  8
OBSTACLE
  6
CONTINUOUS
 62
     7
100
AcDbLine
 10
1100.0
 20
1425.0
 30
0.0
 11
1050.0
 21
1425.0
 31
0.0
  0
LINE
  5
112
102
{ACAD_REACTORS
330
237
102
}
100
AcDbEntity
  8
OBSTACLE
  6
CONTINUOUS
 62
     7
100
AcDbLine
 10
1950.0
 20
1425.0
 30
0.0
 11
1950.0
 21
1575.0
 31
0.0
  0
LINE
  5
113
102
{ACAD_REACTORS
330
237
102
}
100
AcDbEntity
  8
OBSTACLE
  6
CONTINUOUS
 62
     7
100
AcDbLine
 10
1950.0
 20
1575.0
 30
0.0
 11
1900.0
 21
1575.0
 31
0.0
  0
LINE
  5
114
102
{ACAD_REACTORS
330
237
102
}
100
AcDbEntity
  8
OBSTACLE
  6
CONTINUOUS
 62
     7
100
AcDbLine
 10
1900.0
 20
1575.0
 30
0.0
 11
1900.0
 21
1525.0
 31
0.0
  0
LINE
  5
115
102
{ACAD_REACTORS
330
237
102
}
100
AcDbEntity
  8
OBSTACLE
  6
CONTINUOUS
 62
     7
100
AcDbLine
 10
1900.0
 20
1475.0
 30
0.0
 11
1900.0
 21
1425.0
 31
0.0
  0
LINE
  5
116
102
{ACAD_REACTORS
330
237
102
}
100
AcDbEntity
  8
OBSTACLE
  6
CONTINUOUS
 62
     7
100
AcDbLine
 10
1900.0
 20
1425.0
 30
0.0
 11
1950.0
 21
1425.0
 31
0.0
  0
LWPOLYLINE
  5
117
102
{ACAD_REACTORS
330
237
102
}
100
AcDbEntity
  8
OBSTACLE
  6
CONTINUOUS
 62
     7
100
AcDbPolyline
 90
        4
 70
     1
 10
1100.0
 20
1525.0
 10
1150.0
 20
1525.0
 10
1150.0
 20
1475.0
 10
1100.0
 20
1475.0
  0
LWPOLYLINE
  5
118
102
{ACAD_REACTORS
330
237
102
}
100
AcDbEntity
  8
OBSTACLE
  6
CONTINUOUS
 62
     7
100
AcDbPolyline
 90
        4
 70
     1
 10
1900.0
 20
1525.0
 10
1850.0
 20
1525.0
 10
1850.0
 20
1475.0
 10
1900.0
 20
1475.0
  0
LINE
  5
119
100
AcDbEntity
  8
OBSTACLE
  6
CONTINUOUS
 62
     7
100
AcDbLine
 10
1150.0
 20
1500.0
 30
0.0
 11
1850.0
 21
1500.0
 31
0.0
  0
LINE
  5
11A
100
AcDbEntity
  8
OBSTACLE
  6
CONTINUOUS
 62
     7
100
AcDbLine
 10
1050.0
 20
1425.0
 30
0.0
 11
1050.0
 21
1575.0
 31
0.0
  0
LINE
  5
11B
100
AcDbEntity
  8
OBSTACLE
  6
CONTINUOUS
 62
     7
100
AcDbLine
 10
1950.0
 20
1425.0
 30
0.0
 11
1950.0
 21
1575.0
 31
0.0
  0
ENDBLK
  5
11C
100
AcDbEntity
  8
0
100
AcDbBlockEnd
  0
BLOCK
  5
11E
100
AcDbEntity
  8
0
100
AcDbBlockBegin
  2
RECHTECKIGER_TISCH
 70
     2
 10
0.0
 20
0.0
 30
0.0
  3
RECHTECKIGER_TISCH
  1

  0
ATTDEF
  5
11F
100
AcDbEntity
  8
0
100
AcDbText
 10
1500.0
 20
1500.0
 30
0.0
 40
0.2
  1
39.370078740157
100
AcDbAttributeDefinition
  3
&Breite
  2
WIDTH
 70
     0
  0
ATTDEF
  5
120
100
AcDbEntity
  8
0
100
AcDbText
 10
1500.0
 20
1500.0
 30
0.0
 40
0.2
  1
70.866141732283
100
AcDbAttributeDefinition
  3
&L\U+00E4nge
  2
LENGTH
 70
     0
  0
ATTDEF
  5
121
100
AcDbEntity
  8
0
100
AcDbText
 10
1500.0
 20
1500.0
 30
0.0
 40
0.2
  1
Posten
100
AcDbAttributeDefinition
  3
ShapeClass
  2
SHAPECLASS
 70
     0
  0
ATTDEF
  5
122
100
AcDbEntity
  8
0
100
AcDbText
 10
1500.0
 20
1500.0
 30
0.0
 40
0.2
  1
M\U+00F6bel
100
AcDbAttributeDefinition
  3
ShapeType
  2
SHAPETYPE
 70
     0
  0
ATTDEF
  5
123
100
AcDbEntity
  8
0
100
AcDbText
 10
1500.0
 20
1500.0
 30
0.0
 40
0.2
  1
Rechteckiger Tisch
100
AcDbAttributeDefinition
  3
SubShapeType
  2
SUBSHAPETYPE
 70
     0
  0
ATTDEF
  5
124
100
AcDbEntity
  8
0
100
AcDbText
 10
1500.0
 20
1500.0
 30
0.0
 40
0.2
  1
0
100
AcDbAttributeDefinition
  3
ID
  2
ID
 70
     0
  0
ATTDEF
  5
125
100
AcDbEntity
  8
0
100
AcDbText
 10
1500.0
 20
1500.0
 30
0.0
 40
0.2
  1
0
100
AcDbAttributeDefinition
  3
Name
  2
NAME
 70
     0
  0
ATTDEF
  5
126
100
AcDbEntity
  8
0
100
AcDbText
 10
1500.0
 20
1500.0
 30
0.0
 40
0.2
  1
0
100
AcDbAttributeDefinition
  3
Abteilung
  2
DEPARTMENT
 70
     0
  0
ATTDEF
  5
127
100
AcDbEntity
  8
0
100
AcDbText
 10
1500.0
 20
1500.0
 30
0.0
 40
0.2
  1
0
100
AcDbAttributeDefinition
  3
Geh\U+00F6rt
  2
BELONGSTO
 70
     0
  0
ATTDEF
  5
128
100
AcDbEntity
  8
0
100
AcDbText
 10
1500.0
 20
1500.0
 30
0.0
 40
0.2
  1
0
100
AcDbAttributeDefinition
  3
Ge\U+00E4ndert
  2
MODIFY
 70
     0
  0
ATTDEF
  5
129
100
AcDbEntity
  8
0
100
AcDbText
 10
1500.0
 20
1500.0
 30
0.0
 40
0.2
  1
0
100
AcDbAttributeDefinition
  3
Inventarnummer
  2
ASSETNUMBER
 70
     0
  0
ATTDEF
  5
12A
100
AcDbEntity
  8
0
100
AcDbText
 10
1500.0
 20
1500.0
 30
0.0
 40
0.2
  1
0
100
AcDbAttributeDefinition
  3
Seriennummer
  2
SERIALNUMBER
 70
     0
  0
ATTDEF
  5
12B
100
AcDbEntity
  8
0
100
AcDbText
 10
1500.0
 20
1500.0
 30
0.0
 40
0.2
  1
0
100
AcDbAttributeDefinition
  3
Hersteller
  2
MANUFACTURER
 70
     0
  0
ATTDEF
  5
12C
100
AcDbEntity
  8
0
100
AcDbText
 10
1500.0
 20
1500.0
 30
0.0
 40
0.2
  1
0
100
AcDbAttributeDefinition
  3
Modell-ID oder -markierung
  2
MODELID
 70
     0
  0
ATTDEF
  5
12D
100
AcDbEntity
  8
0
100
AcDbText
 10
1500.0
 20
1500.0
 30
0.0
 40
0.2
  1
0
100
AcDbAttributeDefinition
  3
Modellname
  2
MODELNAME
 70
     0
  0
ATTDEF
  5
12E
100
AcDbEntity
  8
0
100
AcDbText
 10
1500.0
 20
1500.0
 30
0.0
 40
0.2
  1
0
100
AcDbAttributeDefinition
  3
Produktbeschreibung
  2
PRODUCTDESCRIPTION
 70
     0
  0
ATTDEF
  5
12F
100
AcDbEntity
  8
0
100
AcDbText
 10
1500.0
 20
1500.0
 30
0.0
 40
0.2
  1
0
100
AcDbAttributeDefinition
  3
Einkaufsdatum
  2
PURCHASEDATE
 70
     0
  0
ATTDEF
  5
130
100
AcDbEntity
  8
0
100
AcDbText
 10
1500.0
 20
1500.0
 30
0.0
 40
0.2
  1
0
100
AcDbAttributeDefinition
  3
Liste der Optionen
  2
OPTIONSLIST
 70
     0
  0
ATTDEF
  5
131
100
AcDbEntity
  8
0
100
AcDbText
 10
1500.0
 20
1500.0
 30
0.0
 40
0.2
  1
0
100
AcDbAttributeDefinition
  3
Katalog-URL
  2
CATALOGURL
 70
     0
  0
ATTDEF
  5
132
100
AcDbEntity
  8
0
100
AcDbText
 10
1500.0
 20
1500.0
 30
0.0
 40
0.2
  1
0
100
AcDbAttributeDefinition
  3
Klassifizierung
  2
CLASSIFICATION
 70
     0
  0
ATTDEF
  5
133
100
AcDbEntity
  8
0
100
AcDbText
 10
1500.0
 20
1500.0
 30
0.0
 40
0.2
  1
0
100
AcDbAttributeDefinition
  3
Klassifizierungsquelle
  2
CLASSIFICATIONSOURCE
 70
     0
  0
ATTDEF
  5
134
100
AcDbEntity
  8
0
100
AcDbText
 10
1500.0
 20
1500.0
 30
0.0
 40
0.2
  1
0
100
AcDbAttributeDefinition
  3
Produktnummer
  2
PRODUCTNUMBER
 70
     0
  0
ATTDEF
  5
135
100
AcDbEntity
  8
0
100
AcDbText
 10
1500.0
 20
1500.0
 30
0.0
 40
0.2
  1
0
100
AcDbAttributeDefinition
  3
Base elevation
  2
BASEELEVATION
 70
     0
  0
LWPOLYLINE
  5
136
102
{ACAD_REACTORS
330
237
102
}
100
AcDbEntity
  8
OBSTACLE
  6
CONTINUOUS
 62
     7
100
AcDbPolyline
 90
        4
 70
     1
 10
1000.0
 20
600.0
 10
2000.0
 20
600.0
 10
2000.0
 20
2400.0
 10
1000.0
 20
2400.0
  0
ENDBLK
  5
137
100
AcDbEntity
  8
0
100
AcDbBlockEnd
  0
BLOCK
  5
139
100
AcDbEntity
  8
0
100
AcDbBlockBegin
  2
REGAL
 70
     2
 10
0.0
 20
0.0
 30
0.0
  3
REGAL
  1

  0
ATTDEF
  5
13A
100
AcDbEntity
  8
0
100
AcDbText
 10
1500.0
 20
1500.0
 30
0.0
 40
0.2
  1
11.811023622047
100
AcDbAttributeDefinition
  3
&Tiefe
  2
DEPTH
 70
     0
  0
ATTDEF
  5
13B
100
AcDbEntity
  8
0
100
AcDbText
 10
1500.0
 20
1500.0
 30
0.0
 40
0.2
  1
39.370078740157
100
AcDbAttributeDefinition
  3
&L\U+00E4nge
  2
LENGTH
 70
     0
  0
ATTDEF
  5
13C
100
AcDbEntity
  8
0
100
AcDbText
 10
1500.0
 20
1500.0
 30
0.0
 40
0.2
  1
Posten
100
AcDbAttributeDefinition
  3
ShapeClass
  2
SHAPECLASS
 70
     0
  0
ATTDEF
  5
13D
100
AcDbEntity
  8
0
100
AcDbText
 10
1500.0
 20
1500.0
 30
0.0
 40
0.2
  1
M\U+00F6bel
100
AcDbAttributeDefinition
  3
ShapeType
  2
SHAPETYPE
 70
     0
  0
ATTDEF
  5
13E
100
AcDbEntity
  8
0
100
AcDbText
 10
1500.0
 20
1500.0
 30
0.0
 40
0.2
  1
Regal
100
AcDbAttributeDefinition
  3
SubShapeType
  2
SUBSHAPETYPE
 70
     0
  0
ATTDEF
  5
13F
100
AcDbEntity
  8
0
100
AcDbText
 10
1500.0
 20
1500.0
 30
0.0
 40
0.2
  1
0
100
AcDbAttributeDefinition
  3
ID
  2
ID
 70
     0
  0
ATTDEF
  5
140
100
AcDbEntity
  8
0
100
AcDbText
 10
1500.0
 20
1500.0
 30
0.0
 40
0.2
  1
0
100
AcDbAttributeDefinition
  3
Name
  2
NAME
 70
     0
  0
ATTDEF
  5
141
100
AcDbEntity
  8
0
100
AcDbText
 10
1500.0
 20
1500.0
 30
0.0
 40
0.2
  1
0
100
AcDbAttributeDefinition
  3
Abteilung
  2
DEPARTMENT
 70
     0
  0
ATTDEF
  5
142
100
AcDbEntity
  8
0
100
AcDbText
 10
1500.0
 20
1500.0
 30
0.0
 40
0.2
  1
0
100
AcDbAttributeDefinition
  3
Geh\U+00F6rt
  2
BELONGSTO
 70
     0
  0
ATTDEF
  5
143
100
AcDbEntity
  8
0
100
AcDbText
 10
1500.0
 20
1500.0
 30
0.0
 40
0.2
  1
0
100
AcDbAttributeDefinition
  3
Ge\U+00E4ndert
  2
MODIFY
 70
     0
  0
ATTDEF
  5
144
100
AcDbEntity
  8
0
100
AcDbText
 10
1500.0
 20
1500.0
 30
0.0
 40
0.2
  1
0
100
AcDbAttributeDefinition
  3
Inventarnummer
  2
ASSETNUMBER
 70
     0
  0
ATTDEF
  5
145
100
AcDbEntity
  8
0
100
AcDbText
 10
1500.0
 20
1500.0
 30
0.0
 40
0.2
  1
0
100
AcDbAttributeDefinition
  3
Seriennummer
  2
SERIALNUMBER
 70
     0
  0
ATTDEF
  5
146
100
AcDbEntity
  8
0
100
AcDbText
 10
1500.0
 20
1500.0
 30
0.0
 40
0.2
  1
0
100
AcDbAttributeDefinition
  3
Hersteller
  2
MANUFACTURER
 70
     0
  0
ATTDEF
  5
147
100
AcDbEntity
  8
0
100
AcDbText
 10
1500.0
 20
1500.0
 30
0.0
 40
0.2
  1
0
100
AcDbAttributeDefinition
  3
Modell-ID oder -markierung
  2
MODELID
 70
     0
  0
ATTDEF
  5
148
100
AcDbEntity
  8
0
100
AcDbText
 10
1500.0
 20
1500.0
 30
0.0
 40
0.2
  1
0
100
AcDbAttributeDefinition
  3
Modellname
  2
MODELNAME
 70
     0
  0
ATTDEF
  5
149
100
AcDbEntity
  8
0
100
AcDbText
 10
1500.0
 20
1500.0
 30
0.0
 40
0.2
  1
0
100
AcDbAttributeDefinition
  3
Produktbeschreibung
  2
PRODUCTDESCRIPTION
 70
     0
  0
ATTDEF
  5
14A
100
AcDbEntity
  8
0
100
AcDbText
 10
1500.0
 20
1500.0
 30
0.0
 40
0.2
  1
0
100
AcDbAttributeDefinition
  3
Einkaufsdatum
  2
PURCHASEDATE
 70
     0
  0
ATTDEF
  5
14B
100
AcDbEntity
  8
0
100
AcDbText
 10
1500.0
 20
1500.0
 30
0.0
 40
0.2
  1
0
100
AcDbAttributeDefinition
  3
Liste der Optionen
  2
OPTIONSLIST
 70
     0
  0
ATTDEF
  5
14C
100
AcDbEntity
  8
0
100
AcDbText
 10
1500.0
 20
1500.0
 30
0.0
 40
0.2
  1
0
100
AcDbAttributeDefinition
  3
Katalog-URL
  2
CATALOGURL
 70
     0
  0
ATTDEF
  5
14D
100
AcDbEntity
  8
0
100
AcDbText
 10
1500.0
 20
1500.0
 30
0.0
 40
0.2
  1
0
100
AcDbAttributeDefinition
  3
Klassifizierung
  2
CLASSIFICATION
 70
     0
  0
ATTDEF
  5
14E
100
AcDbEntity
  8
0
100
AcDbText
 10
1500.0
 20
1500.0
 30
0.0
 40
0.2
  1
0
100
AcDbAttributeDefinition
  3
Klassifizierungsquelle
  2
CLASSIFICATIONSOURCE
 70
     0
  0
ATTDEF
  5
14F
100
AcDbEntity
  8
0
100
AcDbText
 10
1500.0
 20
1500.0
 30
0.0
 40
0.2
  1
0
100
AcDbAttributeDefinition
  3
Produktnummer
  2
PRODUCTNUMBER
 70
     0
  0
ATTDEF
  5
150
100
AcDbEntity
  8
0
100
AcDbText
 10
1500.0
 20
1500.0
 30
0.0
 40
0.2
  1
0
100
AcDbAttributeDefinition
  3
Base elevation
  2
BASEELEVATION
 70
     0
  0
LWPOLYLINE
  5
151
100
AcDbEntity
  8
OBSTACLE
  6
CONTINUOUS
 62
     7
100
AcDbPolyline
 90
        4
 70
     0
 10
1650.0
 20
1025.0
 10
1375.0
 20
1025.0
 10
1375.0
 20
1975.0
 10
1650.0
 20
1975.0
  0
LWPOLYLINE
  5
152
102
{ACAD_REACTORS
330
237
102
}
100
AcDbEntity
  8
OBSTACLE
  6
CONTINUOUS
 62
     7
100
AcDbPolyline
 90
        4
 70
     1
 10
1350.0
 20
1000.0
 10
1650.0
 20
1000.0
 10
1650.0
 20
2000.0
 10
1350.0
 20
2000.0
  0
ENDBLK
  5
153
100
AcDbEntity
  8
0
100
AcDbBlockEnd
  0
BLOCK
  5
155
100
AcDbEntity
  8
0
100
AcDbBlockBegin
  2
OFFENES_REGAL
 70
     2
 10
0.0
 20
0.0
 30
0.0
  3
OFFENES_REGAL
  1

  0
ATTDEF
  5
156
100
AcDbEntity
  8
0
100
AcDbText
 10
1500.0
 20
1500.0
 30
0.0
 40
0.2
  1
47.244094488189
100
AcDbAttributeDefinition
  3
Breite
  2
WIDTH
 70
     0
  0
ATTDEF
  5
157
100
AcDbEntity
  8
0
100
AcDbText
 10
1500.0
 20
1500.0
 30
0.0
 40
0.2
  1
11.811023622047
100
AcDbAttributeDefinition
  3
Tiefe
  2
DEPTH
 70
     0
  0
ATTDEF
  5
158
100
AcDbEntity
  8
0
100
AcDbText
 10
1500.0
 20
1500.0
 30
0.0
 40
0.2
  1
5.9055118110236
100
AcDbAttributeDefinition
  3
H\U+00F6he
  2
HEIGHT
 70
     0
  0
ATTDEF
  5
159
100
AcDbEntity
  8
0
100
AcDbText
 10
1500.0
 20
1500.0
 30
0.0
 40
0.2
  1
Posten
100
AcDbAttributeDefinition
  3
ShapeClass
  2
SHAPECLASS
 70
     0
  0
ATTDEF
  5
15A
100
AcDbEntity
  8
0
100
AcDbText
 10
1500.0
 20
1500.0
 30
0.0
 40
0.2
  1
M\U+00F6bel
100
AcDbAttributeDefinition
  3
ShapeType
  2
SHAPETYPE
 70
     0
  0
ATTDEF
  5
15B
100
AcDbEntity
  8
0
100
AcDbText
 10
1500.0
 20
1500.0
 30
0.0
 40
0.2
  1
Regal
100
AcDbAttributeDefinition
  3
SubShapeType
  2
SUBSHAPETYPE
 70
     0
  0
ATTDEF
  5
15C
100
AcDbEntity
  8
0
100
AcDbText
 10
1500.0
 20
1500.0
 30
0.0
 40
0.2
  1
0
100
AcDbAttributeDefinition
  3
ID
  2
ID
 70
     0
  0
ATTDEF
  5
15D
100
AcDbEntity
  8
0
100
AcDbText
 10
1500.0
 20
1500.0
 30
0.0
 40
0.2
  1
0
100
AcDbAttributeDefinition
  3
Name
  2
NAME
 70
     0
  0
ATTDEF
  5
15E
100
AcDbEntity
  8
0
100
AcDbText
 10
1500.0
 20
1500.0
 30
0.0
 40
0.2
  1
0
100
AcDbAttributeDefinition
  3
Abteilung
  2
DEPARTMENT
 70
     0
  0
ATTDEF
  5
15F
100
AcDbEntity
  8
0
100
AcDbText
 10
1500.0
 20
1500.0
 30
0.0
 40
0.2
  1
0
100
AcDbAttributeDefinition
  3
Geh\U+00F6rt
  2
BELONGSTO
 70
     0
  0
ATTDEF
  5
160
100
AcDbEntity
  8
0
100
AcDbText
 10
1500.0
 20
1500.0
 30
0.0
 40
0.2
  1
0
100
AcDbAttributeDefinition
  3
Ge\U+00E4ndert
  2
MODIFY
 70
     0
  0
ATTDEF
  5
161
100
AcDbEntity
  8
0
100
AcDbText
 10
1500.0
 20
1500.0
 30
0.0
 40
0.2
  1
0
100
AcDbAttributeDefinition
  3
Inventarnummer
  2
ASSETNUMBER
 70
     0
  0
ATTDEF
  5
162
100
AcDbEntity
  8
0
100
AcDbText
 10
1500.0
 20
1500.0
 30
0.0
 40
0.2
  1
0
100
AcDbAttributeDefinition
  3
Seriennummer
  2
SERIALNUMBER
 70
     0
  0
ATTDEF
  5
163
100
AcDbEntity
  8
0
100
AcDbText
 10
1500.0
 20
1500.0
 30
0.0
 40
0.2
  1
0
100
AcDbAttributeDefinition
  3
Hersteller
  2
MANUFACTURER
 70
     0
  0
ATTDEF
  5
164
100
AcDbEntity
  8
0
100
AcDbText
 10
1500.0
 20
1500.0
 30
0.0
 40
0.2
  1
0
100
AcDbAttributeDefinition
  3
Modell-ID oder -markierung
  2
MODELID
 70
     0
  0
ATTDEF
  5
165
100
AcDbEntity
  8
0
100
AcDbText
 10
1500.0
 20
1500.0
 30
0.0
 40
0.2
  1
0
100
AcDbAttributeDefinition
  3
Modellname
  2
MODELNAME
 70
     0
  0
ATTDEF
  5
166
100
AcDbEntity
  8
0
100
AcDbText
 10
1500.0
 20
1500.0
 30
0.0
 40
0.2
  1
0
100
AcDbAttributeDefinition
  3
Produktbeschreibung
  2
PRODUCTDESCRIPTION
 70
     0
  0
ATTDEF
  5
167
100
AcDbEntity
  8
0
100
AcDbText
 10
1500.0
 20
1500.0
 30
0.0
 40
0.2
  1
0
100
AcDbAttributeDefinition
  3
Einkaufsdatum
  2
PURCHASEDATE
 70
     0
  0
ATTDEF
  5
168
100
AcDbEntity
  8
0
100
AcDbText
 10
1500.0
 20
1500.0
 30
0.0
 40
0.2
  1
0
100
AcDbAttributeDefinition
  3
Liste der Optionen
  2
OPTIONSLIST
 70
     0
  0
ATTDEF
  5
169
100
AcDbEntity
  8
0
100
AcDbText
 10
1500.0
 20
1500.0
 30
0.0
 40
0.2
  1
0
100
AcDbAttributeDefinition
  3
Katalog-URL
  2
CATALOGURL
 70
     0
  0
ATTDEF
  5
16A
100
AcDbEntity
  8
0
100
AcDbText
 10
1500.0
 20
1500.0
 30
0.0
 40
0.2
  1
0
100
AcDbAttributeDefinition
  3
Klassifizierung
  2
CLASSIFICATION
 70
     0
  0
ATTDEF
  5
16B
100
AcDbEntity
  8
0
100
AcDbText
 10
1500.0
 20
1500.0
 30
0.0
 40
0.2
  1
0
100
AcDbAttributeDefinition
  3
Klassifizierungsquelle
  2
CLASSIFICATIONSOURCE
 70
     0
  0
ATTDEF
  5
16C
100
AcDbEntity
  8
0
100
AcDbText
 10
1500.0
 20
1500.0
 30
0.0
 40
0.2
  1
0
100
AcDbAttributeDefinition
  3
Produktnummer
  2
PRODUCTNUMBER
 70
     0
  0
ATTDEF
  5
16D
100
AcDbEntity
  8
0
100
AcDbText
 10
1500.0
 20
1500.0
 30
0.0
 40
0.2
  1
0
100
AcDbAttributeDefinition
  3
Base elevation
  2
BASEELEVATION
 70
     0
  0
LWPOLYLINE
  5
16E
102
{ACAD_REACTORS
330
237
102
}
100
AcDbEntity
  8
WALL
  6
CONTINUOUS
 62
     7
100
AcDbPolyline
 90
        4
 70
     1
 10
1350.0
 20
900.0
 10
1650.0
 20
900.0
 10
1650.0
 20
2100.0
 10
1350.0
 20
2100.0
  0
LINE
  5
16F
100
AcDbEntity
  8
WALL
  6
CONTINUOUS
 62
     7
100
AcDbLine
 10
1350.0
 20
920.0
 30
0.0
 11
1650.0
 21
920.0
 31
0.0
  0
LINE
  5
170
100
AcDbEntity
  8
WALL
  6
CONTINUOUS
 62
     7
100
AcDbLine
 10
1350.0
 20
2080.0
 30
0.0
 11
1650.0
 21
2080.0
 31
0.0
  0
ENDBLK
  5
171
100
AcDbEntity
  8
0
100
AcDbBlockEnd
  0
BLOCK
  5
173
100
AcDbEntity
  8
0
100
AcDbBlockBegin
  2
KLEINE_PFLANZE
 70
     2
 10
0.0
 20
0.0
 30
0.0
  3
KLEINE_PFLANZE
  1

  0
ATTDEF
  5
174
100
AcDbEntity
  8
0
100
AcDbText
 10
1500.0
 20
1500.0
 30
0.0
 40
0.2
  1
Posten
100
AcDbAttributeDefinition
  3
ShapeClass
  2
SHAPECLASS
 70
     0
  0
ATTDEF
  5
175
100
AcDbEntity
  8
0
100
AcDbText
 10
1500.0
 20
1500.0
 30
0.0
 40
0.2
  1
M\U+00F6bel
100
AcDbAttributeDefinition
  3
ShapeType
  2
SHAPETYPE
 70
     0
  0
ATTDEF
  5
176
100
AcDbEntity
  8
0
100
AcDbText
 10
1500.0
 20
1500.0
 30
0.0
 40
0.2
  1
Pflanze
100
AcDbAttributeDefinition
  3
SubShapeType
  2
SUBSHAPETYPE
 70
     0
  0
ATTDEF
  5
177
100
AcDbEntity
  8
0
100
AcDbText
 10
1500.0
 20
1500.0
 30
0.0
 40
0.2
  1
0
100
AcDbAttributeDefinition
  3
ID
  2
ID
 70
     0
  0
ATTDEF
  5
178
100
AcDbEntity
  8
0
100
AcDbText
 10
1500.0
 20
1500.0
 30
0.0
 40
0.2
  1
0
100
AcDbAttributeDefinition
  3
Name
  2
NAME
 70
     0
  0
ATTDEF
  5
179
100
AcDbEntity
  8
0
100
AcDbText
 10
1500.0
 20
1500.0
 30
0.0
 40
0.2
  1
0
100
AcDbAttributeDefinition
  3
Abteilung
  2
DEPARTMENT
 70
     0
  0
ATTDEF
  5
17A
100
AcDbEntity
  8
0
100
AcDbText
 10
1500.0
 20
1500.0
 30
0.0
 40
0.2
  1
0
100
AcDbAttributeDefinition
  3
Geh\U+00F6rt zu
  2
BELONGSTO
 70
     0
  0
ATTDEF
  5
17B
100
AcDbEntity
  8
0
100
AcDbText
 10
1500.0
 20
1500.0
 30
0.0
 40
0.2
  1
0
100
AcDbAttributeDefinition
  3
Ge\U+00E4ndert
  2
MODIFY
 70
     0
  0
ATTDEF
  5
17C
100
AcDbEntity
  8
0
100
AcDbText
 10
1500.0
 20
1500.0
 30
0.0
 40
0.2
  1
0
100
AcDbAttributeDefinition
  3
Inventarnummer
  2
ASSETNUMBER
 70
     0
  0
ATTDEF
  5
17D
100
AcDbEntity
  8
0
100
AcDbText
 10
1500.0
 20
1500.0
 30
0.0
 40
0.2
  1
0
100
AcDbAttributeDefinition
  3
Seriennummer
  2
SERIALNUMBER
 70
     0
  0
ATTDEF
  5
17E
100
AcDbEntity
  8
0
100
AcDbText
 10
1500.0
 20
1500.0
 30
0.0
 40
0.2
  1
0
100
AcDbAttributeDefinition
  3
Hersteller
  2
MANUFACTURER
 70
     0
  0
ATTDEF
  5
17F
100
AcDbEntity
  8
0
100
AcDbText
 10
1500.0
 20
1500.0
 30
0.0
 40
0.2
  1
0
100
AcDbAttributeDefinition
  3
Modell-ID oder -markierung
  2
MODELID
 70
     0
  0
ATTDEF
  5
180
100
AcDbEntity
  8
0
100
AcDbText
 10
1500.0
 20
1500.0
 30
0.0
 40
0.2
  1
0
100
AcDbAttributeDefinition
  3
Modellname
  2
MODELNAME
 70
     0
  0
ATTDEF
  5
181
100
AcDbEntity
  8
0
100
AcDbText
 10
1500.0
 20
1500.0
 30
0.0
 40
0.2
  1
0
100
AcDbAttributeDefinition
  3
Produktbeschreibung
  2
PRODUCTDESCRIPTION
 70
     0
  0
ATTDEF
  5
182
100
AcDbEntity
  8
0
100
AcDbText
 10
1500.0
 20
1500.0
 30
0.0
 40
0.2
  1
0
100
AcDbAttributeDefinition
  3
Einkaufsdatum
  2
PURCHASEDATE
 70
     0
  0
ATTDEF
  5
183
100
AcDbEntity
  8
0
100
AcDbText
 10
1500.0
 20
1500.0
 30
0.0
 40
0.2
  1
0
100
AcDbAttributeDefinition
  3
Liste der Optionen
  2
OPTIONSLIST
 70
     0
  0
ATTDEF
  5
184
100
AcDbEntity
  8
0
100
AcDbText
 10
1500.0
 20
1500.0
 30
0.0
 40
0.2
  1
0
100
AcDbAttributeDefinition
  3
Katalog-URL
  2
CATALOGURL
 70
     0
  0
ATTDEF
  5
185
100
AcDbEntity
  8
0
100
AcDbText
 10
1500.0
 20
1500.0
 30
0.0
 40
0.2
  1
0
100
AcDbAttributeDefinition
  3
Klassifizierung
  2
CLASSIFICATION
 70
     0
  0
ATTDEF
  5
186
100
AcDbEntity
  8
0
100
AcDbText
 10
1500.0
 20
1500.0
 30
0.0
 40
0.2
  1
0
100
AcDbAttributeDefinition
  3
Klassifizierungsquelle
  2
CLASSIFICATIONSOURCE
 70
     0
  0
ATTDEF
  5
187
100
AcDbEntity
  8
0
100
AcDbText
 10
1500.0
 20
1500.0
 30
0.0
 40
0.2
  1
0
100
AcDbAttributeDefinition
  3
Produktnummer
  2
PRODUCTNUMBER
 70
     0
  0
ATTDEF
  5
188
100
AcDbEntity
  8
0
100
AcDbText
 10
1500.0
 20
1500.0
 30
0.0
 40
0.2
  1
0
100
AcDbAttributeDefinition
  3
Base elevation
  2
BASEELEVATION
 70
     0
  0
LWPOLYLINE
  5
189
102
{ACAD_REACTORS
330
237
102
}
100
AcDbEntity
  8
OBSTACLE
  6
CONTINUOUS
 62
     7
100
AcDbPolyline
 90
        2
 70
     1
 10
1405.494505
 20
1447.252747
 42
-1.0
 10
1616.483517
 20
1447.252747
 42
-1.0
  0
LWPOLYLINE
  5
18A
102
{ACAD_REACTORS
330
237
102
}
100
AcDbEntity
  8
OBSTACLE
  6
CONTINUOUS
 62
     7
100
AcDbPolyline
 90
        2
 70
     1
 10
1431.868131
 20
1447.252747
 42
-1.0
 10
1590.10989
 20
1447.252747
 42
-1.0
  0
LWPOLYLINE
  5
18B
102
{ACAD_REACTORS
330
237
102
}
100
AcDbEntity
  8
OBSTACLE
  6
CONTINUOUS
 62
     7
100
AcDbPolyline
 90
        2
 70
     1
 10
1405.494506
 20
1593.406595
 42
-1.0
 10
1412.087913
 20
1593.406595
 42
-1.0
  0
LWPOLYLINE
  5
18C
102
{ACAD_REACTORS
330
237
102
}
100
AcDbEntity
  8
OBSTACLE
  6
CONTINUOUS
 62
     7
100
AcDbPolyline
 90
        2
 70
     1
 10
1414.285714
 20
1556.043956
 42
-1.0
 10
1420.879121
 20
1556.043956
 42
-1.0
  0
ELLIPSE
  5
18D
102
{ACAD_REACTORS
330
237
102
}
100
AcDbEntity
  8
OBSTACLE
  6
CONTINUOUS
 62
     7
100
AcDbEllipse
 10
1424.725274
 20
1536.263736
 30
0.0
 11
0.0
 21
-9.8901103291622796
 31
0.0
210
0.0
220
0.0
230
1.0
 40
0.833333
 41
1.5707963667949041
 42
4.7123889403846828
  0
ELLIPSE
  5
18E
102
{ACAD_REACTORS
330
237
102
}
100
AcDbEntity
  8
OBSTACLE
  6
CONTINUOUS
 62
     7
100
AcDbEllipse
 10
1424.725274
 20
1536.263737
 30
0.0
 11
0.0
 21
-9.8901103291623329
 31
0.0
210
0.0
220
0.0
230
1.0
 40
0.833333
 41
4.7123890203847054
 42
1.5707962867948808
  0
LWPOLYLINE
  5
18F
102
{ACAD_REACTORS
330
237
102
}
100
AcDbEntity
  8
OBSTACLE
  6
CONTINUOUS
 62
     7
100
AcDbPolyline
 90
        2
 70
     1
 10
1429.670328
 20
1619.780221
 42
-1.0
 10
1436.263735
 20
1619.780221
 42
-1.0
  0
LWPOLYLINE
  5
190
102
{ACAD_REACTORS
330
237
102
}
100
AcDbEntity
  8
OBSTACLE
  6
CONTINUOUS
 62
     7
100
AcDbPolyline
 90
        2
 70
     1
 10
1425.274726
 20
1641.758242
 42
-1.0
 10
1431.868132
 20
1641.758242
 42
-1.0
  0
LWPOLYLINE
  5
191
102
{ACAD_REACTORS
330
237
102
}
100
AcDbEntity
  8
OBSTACLE
  6
CONTINUOUS
 62
     7
100
AcDbPolyline
 90
        2
 70
     1
 10
1438.461539
 20
1654.945056
 42
-1.0
 10
1445.054946
 20
1654.945056
 42
-1.0
  0
LWPOLYLINE
  5
192
102
{ACAD_REACTORS
330
237
102
}
100
AcDbEntity
  8
OBSTACLE
  6
CONTINUOUS
 62
     7
100
AcDbPolyline
 90
        2
 70
     1
 10
1680.21978
 20
1410.989011
 42
-1.0
 10
1686.813187
 20
1410.989011
 42
-1.0
  0
LWPOLYLINE
  5
193
102
{ACAD_REACTORS
330
237
102
}
100
AcDbEntity
  8
OBSTACLE
  6
CONTINUOUS
 62
     7
100
AcDbPolyline
 90
        2
 70
     1
 10
1662.637364
 20
1410.989011
 42
-1.0
 10
1669.230771
 20
1410.989011
 42
-1.0
  0
LWPOLYLINE
  5
194
102
{ACAD_REACTORS
330
237
102
}
100
AcDbEntity
  8
OBSTACLE
  6
CONTINUOUS
 62
     7
100
AcDbPolyline
 90
        2
 70
     1
 10
1673.626374
 20
1538.461538
 42
-1.0
 10
1680.21978
 20
1538.461538
 42
-1.0
  0
LWPOLYLINE
  5
195
102
{ACAD_REACTORS
330
237
102
}
100
AcDbEntity
  8
OBSTACLE
  6
CONTINUOUS
 62
     7
100
AcDbPolyline
 90
        2
 70
     1
 10
1484.615385
 20
1487.912089
 42
-1.0
 10
1491.208792
 20
1487.912089
 42
-1.0
  0
LWPOLYLINE
  5
196
102
{ACAD_REACTORS
330
237
102
}
100
AcDbEntity
  8
OBSTACLE
  6
CONTINUOUS
 62
     7
100
AcDbPolyline
 90
        2
 70
     1
 10
1486.813187
 20
1404.395604
 42
-1.0
 10
1493.406593
 20
1404.395604
 42
-1.0
  0
LWPOLYLINE
  5
197
102
{ACAD_REACTORS
330
237
102
}
100
AcDbEntity
  8
OBSTACLE
  6
CONTINUOUS
 62
     7
100
AcDbPolyline
 90
        2
 70
     1
 10
1300.0
 20
1402.197803
 42
-1.0
 10
1306.593407
 20
1402.197803
 42
-1.0
  0
LWPOLYLINE
  5
198
102
{ACAD_REACTORS
330
237
102
}
100
AcDbEntity
  8
OBSTACLE
  6
CONTINUOUS
 62
     7
100
AcDbPolyline
 90
        2
 70
     1
 10
1651.648352
 20
1536.263736
 42
-1.0
 10
1658.241759
 20
1536.263736
 42
-1.0
  0
LWPOLYLINE
  5
199
102
{ACAD_REACTORS
330
237
102
}
100
AcDbEntity
  8
OBSTACLE
  6
CONTINUOUS
 62
     7
100
AcDbPolyline
 90
        2
 70
     1
 10
1559.34066
 20
1435.164836
 42
-1.0
 10
1565.934066
 20
1435.164836
 42
-1.0
  0
LWPOLYLINE
  5
19A
102
{ACAD_REACTORS
330
237
102
}
100
AcDbEntity
  8
OBSTACLE
  6
CONTINUOUS
 62
     7
100
AcDbPolyline
 90
        2
 70
     1
 10
1447.252747
 20
1474.725275
 42
-1.0
 10
1453.846154
 20
1474.725275
 42
-1.0
  0
LWPOLYLINE
  5
19B
102
{ACAD_REACTORS
330
237
102
}
100
AcDbEntity
  8
OBSTACLE
  6
CONTINUOUS
 62
     7
100
AcDbPolyline
 90
        2
 70
     1
 10
1315.384615
 20
1410.989011
 42
-1.0
 10
1321.978021
 20
1410.989011
 42
-1.0
  0
LWPOLYLINE
  5
19C
102
{ACAD_REACTORS
330
237
102
}
100
AcDbEntity
  8
OBSTACLE
  6
CONTINUOUS
 62
     7
100
AcDbPolyline
 90
        2
 70
     1
 10
1414.285714
 20
1628.571429
 42
-1.0
 10
1420.879121
 20
1628.571429
 42
-1.0
  0
LWPOLYLINE
  5
19D
102
{ACAD_REACTORS
330
237
102
}
100
AcDbEntity
  8
OBSTACLE
  6
CONTINUOUS
 62
     7
100
AcDbPolyline
 90
        2
 70
     1
 10
1407.692307
 20
1613.186815
 42
-1.0
 10
1414.285714
 20
1613.186815
 42
-1.0
  0
LWPOLYLINE
  5
19E
102
{ACAD_REACTORS
330
237
102
}
100
AcDbEntity
  8
OBSTACLE
  6
CONTINUOUS
 62
     7
100
AcDbPolyline
 90
        2
 70
     1
 10
1535.164834
 20
1505.494505
 42
-1.0
 10
1541.758241
 20
1505.494505
 42
-1.0
  0
LWPOLYLINE
  5
19F
102
{ACAD_REACTORS
330
237
102
}
100
AcDbEntity
  8
OBSTACLE
  6
CONTINUOUS
 62
     7
100
AcDbPolyline
 90
        2
 70
     1
 10
1636.263738
 20
1426.373625
 42
-1.0
 10
1642.857144
 20
1426.373625
 42
-1.0
  0
LWPOLYLINE
  5
1A0
102
{ACAD_REACTORS
330
237
102
}
100
AcDbEntity
  8
OBSTACLE
  6
CONTINUOUS
 62
     7
100
AcDbPolyline
 90
        2
 70
     1
 10
1649.450551
 20
1399.999999
 42
-1.0
 10
1656.043958
 20
1399.999999
 42
-1.0
  0
LWPOLYLINE
  5
1A1
102
{ACAD_REACTORS
330
237
102
}
100
AcDbEntity
  8
OBSTACLE
  6
CONTINUOUS
 62
     7
100
AcDbPolyline
 90
        2
 70
     1
 10
1693.406593
 20
1397.802197
 42
-1.0
 10
1700.0
 20
1397.802197
 42
-1.0
  0
LWPOLYLINE
  5
1A2
102
{ACAD_REACTORS
330
237
102
}
100
AcDbEntity
  8
OBSTACLE
  6
CONTINUOUS
 62
     7
100
AcDbPolyline
 90
        2
 70
     1
 10
1634.065934
 20
1531.868131
 42
-1.0
 10
1640.65934
 20
1531.868131
 42
-1.0
  0
LWPOLYLINE
  5
1A3
102
{ACAD_REACTORS
330
237
102
}
100
AcDbEntity
  8
OBSTACLE
  6
CONTINUOUS
 62
     7
100
AcDbPolyline
 90
        2
 70
     1
 10
1616.483518
 20
1534.065935
 42
-1.0
 10
1623.076924
 20
1534.065935
 42
-1.0
  0
LWPOLYLINE
  5
1A4
102
{ACAD_REACTORS
330
237
102
}
100
AcDbEntity
  8
OBSTACLE
  6
CONTINUOUS
 62
     7
100
AcDbPolyline
 90
        2
 70
     1
 10
1609.890111
 20
1512.087911
 42
-1.0
 10
1616.483518
 20
1512.087911
 42
-1.0
  0
LWPOLYLINE
  5
1A5
102
{ACAD_REACTORS
330
237
102
}
100
AcDbEntity
  8
OBSTACLE
  6
CONTINUOUS
 62
     7
100
AcDbPolyline
 90
        2
 70
     1
 10
1594.505494
 20
1525.274725
 42
-1.0
 10
1601.098901
 20
1525.274725
 42
-1.0
  0
LWPOLYLINE
  5
1A6
102
{ACAD_REACTORS
330
237
102
}
100
AcDbEntity
  8
OBSTACLE
  6
CONTINUOUS
 62
     7
100
AcDbPolyline
 90
        2
 70
     1
 10
1585.714286
 20
1501.098902
 42
-1.0
 10
1592.307693
 20
1501.098902
 42
-1.0
  0
LWPOLYLINE
  5
1A7
102
{ACAD_REACTORS
330
237
102
}
100
AcDbEntity
  8
OBSTACLE
  6
CONTINUOUS
 62
     7
100
AcDbPolyline
 90
        2
 70
     1
 10
1565.934066
 20
1520.879122
 42
-1.0
 10
1572.527473
 20
1520.879122
 42
-1.0
  0
LWPOLYLINE
  5
1A8
102
{ACAD_REACTORS
330
237
102
}
100
AcDbEntity
  8
OBSTACLE
  6
CONTINUOUS
 62
     7
100
AcDbPolyline
 90
        2
 70
     1
 10
1464.835166
 20
1463.736264
 42
-1.0
 10
1471.428572
 20
1463.736264
 42
-1.0
  0
LWPOLYLINE
  5
1A9
102
{ACAD_REACTORS
330
237
102
}
100
AcDbEntity
  8
OBSTACLE
  6
CONTINUOUS
 62
     7
100
AcDbPolyline
 90
        2
 70
     1
 10
1453.846154
 20
1567.032968
 42
-1.0
 10
1460.43956
 20
1567.032968
 42
-1.0
  0
LWPOLYLINE
  5
1AA
102
{ACAD_REACTORS
330
237
102
}
100
AcDbEntity
  8
OBSTACLE
  6
CONTINUOUS
 62
     7
100
AcDbPolyline
 90
        2
 70
     1
 10
1423.076922
 20
1448.351649
 42
-1.0
 10
1456.043955
 20
1448.351649
 42
-1.0
  0
ELLIPSE
  5
1AB
102
{ACAD_REACTORS
330
237
102
}
100
AcDbEntity
  8
OBSTACLE
  6
CONTINUOUS
 62
     7
100
AcDbEllipse
 10
1486.263737
 20
1465.934065
 30
0.0
 11
0.0
 21
-9.8901103291623063
 31
0.0
210
0.0
220
0.0
230
1.0
 40
0.833333
 41
1.5707963667948972
 42
4.712388940384689
  0
ELLIPSE
  5
1AC
102
{ACAD_REACTORS
330
237
102
}
100
AcDbEntity
  8
OBSTACLE
  6
CONTINUOUS
 62
     7
100
AcDbEllipse
 10
1486.263737
 20
1465.934065
 30
0.0
 11
0.0
 21
-9.890110329162388
 31
0.0
210
0.0
220
0.0
230
1.0
 40
0.833333
 41
4.7123890203846397
 42
1.5707962867949479
  0
LWPOLYLINE
  5
1AD
102
{ACAD_REACTORS
330
237
102
}
100
AcDbEntity
  8
OBSTACLE
  6
CONTINUOUS
 62
     7
100
AcDbPolyline
 90
        2
 70
     1
 10
1502.197801
 20
1457.142857
 42
-1.0
 10
1508.791208
 20
1457.142857
 42
-1.0
  0
LWPOLYLINE
  5
1AE
102
{ACAD_REACTORS
330
237
102
}
100
AcDbEntity
  8
OBSTACLE
  6
CONTINUOUS
 62
     7
100
AcDbPolyline
 90
        2
 70
     1
 10
1539.56044
 20
1619.780221
 42
-1.0
 10
1546.153846
 20
1619.780221
 42
-1.0
  0
LWPOLYLINE
  5
1AF
102
{ACAD_REACTORS
330
237
102
}
100
AcDbEntity
  8
OBSTACLE
  6
CONTINUOUS
 62
     7
100
AcDbPolyline
 90
        2
 70
     1
 10
1462.637362
 20
1556.043956
 42
-1.0
 10
1469.230768
 20
1556.043956
 42
-1.0
  0
LWPOLYLINE
  5
1B0
102
{ACAD_REACTORS
330
237
102
}
100
AcDbEntity
  8
OBSTACLE
  6
CONTINUOUS
 62
     7
100
AcDbPolyline
 90
        2
 70
     1
 10
1563.736265
 20
1476.923077
 42
-1.0
 10
1570.329672
 20
1476.923077
 42
-1.0
  0
LWPOLYLINE
  5
1B1
102
{ACAD_REACTORS
330
237
102
}
100
AcDbEntity
  8
OBSTACLE
  6
CONTINUOUS
 62
     7
100
AcDbPolyline
 90
        2
 70
     1
 10
1524.175825
 20
1479.120878
 42
-1.0
 10
1530.769232
 20
1479.120878
 42
-1.0
  0
LWPOLYLINE
  5
1B2
102
{ACAD_REACTORS
330
237
102
}
100
AcDbEntity
  8
OBSTACLE
  6
CONTINUOUS
 62
     7
100
AcDbPolyline
 90
        2
 70
     1
 10
1493.406593
 20
1501.098902
 42
-1.0
 10
1500.0
 20
1501.098902
 42
-1.0
  0
LWPOLYLINE
  5
1B3
102
{ACAD_REACTORS
330
237
102
}
100
AcDbEntity
  8
OBSTACLE
  6
CONTINUOUS
 62
     7
100
AcDbPolyline
 90
        2
 70
     1
 10
1416.483515
 20
1573.626375
 42
-1.0
 10
1423.076922
 20
1573.626375
 42
-1.0
  0
LWPOLYLINE
  5
1B4
102
{ACAD_REACTORS
330
237
102
}
100
AcDbEntity
  8
OBSTACLE
  6
CONTINUOUS
 62
     7
100
AcDbPolyline
 90
        2
 70
     1
 10
1497.802199
 20
1589.010989
 42
-1.0
 10
1504.395605
 20
1589.010989
 42
-1.0
  0
ELLIPSE
  5
1B5
102
{ACAD_REACTORS
330
237
102
}
100
AcDbEntity
  8
OBSTACLE
  6
CONTINUOUS
 62
     7
100
AcDbEllipse
 10
1426.923077
 20
1597.802197
 30
0.0
 11
0.0
 21
-9.8901103291623613
 31
0.0
210
0.0
220
0.0
230
1.0
 40
0.833333
 41
1.570796366794915
 42
4.7123889403846713
  0
ELLIPSE
  5
1B6
102
{ACAD_REACTORS
330
237
102
}
100
AcDbEntity
  8
OBSTACLE
  6
CONTINUOUS
 62
     7
100
AcDbEllipse
 10
1426.923077
 20
1597.802198
 30
0.0
 11
0.0
 21
-9.8901103291624661
 31
0.0
210
0.0
220
0.0
230
1.0
 40
0.833333
 41
4.7123890203846646
 42
1.5707962867949219
  0
LWPOLYLINE
  5
1B7
102
{ACAD_REACTORS
330
237
102
}
100
AcDbEntity
  8
OBSTACLE
  6
CONTINUOUS
 62
     7
100
AcDbPolyline
 90
        2
 70
     1
 10
1629.670331
 20
1384.615384
 42
-1.0
 10
1636.263738
 20
1384.615384
 42
-1.0
  0
LWPOLYLINE
  5
1B8
102
{ACAD_REACTORS
330
237
102
}
100
AcDbEntity
  8
OBSTACLE
  6
CONTINUOUS
 62
     7
100
AcDbPolyline
 90
        2
 70
     1
 10
1467.032967
 20
1415.384616
 42
-1.0
 10
1473.626374
 20
1415.384616
 42
-1.0
  0
LWPOLYLINE
  5
1B9
102
{ACAD_REACTORS
330
237
102
}
100
AcDbEntity
  8
OBSTACLE
  6
CONTINUOUS
 62
     7
100
AcDbPolyline
 90
        2
 70
     1
 10
1504.395605
 20
1408.791209
 42
-1.0
 10
1510.989012
 20
1408.791209
 42
-1.0
  0
LWPOLYLINE
  5
1BA
102
{ACAD_REACTORS
330
237
102
}
100
AcDbEntity
  8
OBSTACLE
  6
CONTINUOUS
 62
     7
100
AcDbPolyline
 90
        2
 70
     1
 10
1647.252747
 20
1415.384616
 42
-1.0
 10
1653.846154
 20
1415.384616
 42
-1.0
  0
LWPOLYLINE
  5
1BB
102
{ACAD_REACTORS
330
237
102
}
100
AcDbEntity
  8
OBSTACLE
  6
CONTINUOUS
 62
     7
100
AcDbPolyline
 90
        2
 70
     1
 10
1372.527473
 20
1389.010989
 42
-1.0
 10
1379.120879
 20
1389.010989
 42
-1.0
  0
LWPOLYLINE
  5
1BC
102
{ACAD_REACTORS
330
237
102
}
100
AcDbEntity
  8
OBSTACLE
  6
CONTINUOUS
 62
     7
100
AcDbPolyline
 90
        2
 70
     1
 10
1409.890109
 20
1384.615384
 42
-1.0
 10
1416.483515
 20
1384.615384
 42
-1.0
  0
ELLIPSE
  5
1BD
102
{ACAD_REACTORS
330
237
102
}
100
AcDbEntity
  8
OBSTACLE
  6
CONTINUOUS
 62
     7
100
AcDbEllipse
 10
1341.208791
 20
1410.98901
 30
0.0
 11
0.0
 21
-9.8901103291623276
 31
0.0
210
0.0
220
0.0
230
1.0
 40
0.833333
 41
1.5707963667948965
 42
4.7123889403846899
  0
ELLIPSE
  5
1BE
102
{ACAD_REACTORS
330
237
102
}
100
AcDbEntity
  8
OBSTACLE
  6
CONTINUOUS
 62
     7
100
AcDbEllipse
 10
1341.208791
 20
1410.989011
 30
0.0
 11
0.0
 21
-9.8901103291623276
 31
0.0
210
0.0
220
0.0
230
1.0
 40
0.833333
 41
4.7123890203846877
 42
1.5707962867948979
  0
ELLIPSE
  5
1BF
102
{ACAD_REACTORS
330
237
102
}
100
AcDbEntity
  8
OBSTACLE
  6
CONTINUOUS
 62
     7
100
AcDbEllipse
 10
1369.780219
 20
1410.98901
 30
0.0
 11
0.0
 21
-9.8901103291623205
 31
0.0
210
0.0
220
0.0
230
1.0
 40
0.833333
 41
1.5707963667948972
 42
4.712388940384689
  0
ELLIPSE
  5
1C0
102
{ACAD_REACTORS
330
237
102
}
100
AcDbEntity
  8
OBSTACLE
  6
CONTINUOUS
 62
     7
100
AcDbEllipse
 10
1369.780219
 20
1410.989011
 30
0.0
 11
0.0
 21
-9.8901103291623329
 31
0.0
210
0.0
220
0.0
230
1.0
 40
0.833333
 41
4.7123890203846805
 42
1.5707962867949055
  0
ELLIPSE
  5
1C1
102
{ACAD_REACTORS
330
237
102
}
100
AcDbEntity
  8
OBSTACLE
  6
CONTINUOUS
 62
     7
100
AcDbEllipse
 10
1393.956044
 20
1399.999998
 30
0.0
 11
0.0
 21
-9.8901103291623063
 31
0.0
210
0.0
220
0.0
230
1.0
 40
0.833333
 41
1.5707963667948965
 42
4.7123889403846899
  0
ELLIPSE
  5
1C2
102
{ACAD_REACTORS
330
237
102
}
100
AcDbEntity
  8
OBSTACLE
  6
CONTINUOUS
 62
     7
100
AcDbEllipse
 10
1393.956044
 20
1399.999999
 30
0.0
 11
0.0
 21
-9.8901103291623205
 31
0.0
210
0.0
220
0.0
230
1.0
 40
0.833333
 41
4.7123890203846841
 42
1.5707962867949015
  0
ELLIPSE
  5
1C3
102
{ACAD_REACTORS
330
237
102
}
100
AcDbEntity
  8
OBSTACLE
  6
CONTINUOUS
 62
     7
100
AcDbEllipse
 10
1431.31868
 20
1391.20879
 30
0.0
 11
0.0
 21
-9.890110329162388
 31
0.0
210
0.0
220
0.0
230
1.0
 40
0.833333
 41
1.5707963667949025
 42
4.7123889403846837
  0
ELLIPSE
  5
1C4
102
{ACAD_REACTORS
330
237
102
}
100
AcDbEntity
  8
OBSTACLE
  6
CONTINUOUS
 62
     7
100
AcDbEllipse
 10
1431.31868
 20
1391.208791
 30
0.0
 11
0.0
 21
-9.890110329162388
 31
0.0
210
0.0
220
0.0
230
1.0
 40
0.833333
 41
4.7123890203846894
 42
1.5707962867948972
  0
LWPOLYLINE
  5
1C5
102
{ACAD_REACTORS
330
237
102
}
100
AcDbEntity
  8
OBSTACLE
  6
CONTINUOUS
 62
     7
100
AcDbPolyline
 90
        2
 70
     1
 10
1517.582419
 20
1399.999999
 42
-1.0
 10
1524.175825
 20
1399.999999
 42
-1.0
  0
LWPOLYLINE
  5
1C6
102
{ACAD_REACTORS
330
237
102
}
100
AcDbEntity
  8
OBSTACLE
  6
CONTINUOUS
 62
     7
100
AcDbPolyline
 90
        2
 70
     1
 10
1387.912087
 20
1421.978023
 42
-1.0
 10
1394.505494
 20
1421.978023
 42
-1.0
  0
LWPOLYLINE
  5
1C7
102
{ACAD_REACTORS
330
237
102
}
100
AcDbEntity
  8
OBSTACLE
  6
CONTINUOUS
 62
     7
100
AcDbPolyline
 90
        2
 70
     1
 10
1605.494506
 20
1386.813185
 42
-1.0
 10
1612.087913
 20
1386.813185
 42
-1.0
  0
ELLIPSE
  5
1C8
102
{ACAD_REACTORS
330
237
102
}
100
AcDbEntity
  8
OBSTACLE
  6
CONTINUOUS
 62
     7
100
AcDbEllipse
 10
1418.131867
 20
1417.582417
 30
0.0
 11
0.0
 21
-9.8901103291623063
 31
0.0
210
0.0
220
0.0
230
1.0
 40
0.833333
 41
1.5707963667948794
 42
4.7123889403847068
  0
ELLIPSE
  5
1C9
102
{ACAD_REACTORS
330
237
102
}
100
AcDbEntity
  8
OBSTACLE
  6
CONTINUOUS
 62
     7
100
AcDbEllipse
 10
1418.131867
 20
1417.582418
 30
0.0
 11
0.0
 21
-9.8901103291623613
 31
0.0
210
0.0
220
0.0
230
1.0
 40
0.833333
 41
4.7123890203846663
 42
1.5707962867949199
  0
ELLIPSE
  5
1CA
102
{ACAD_REACTORS
330
237
102
}
100
AcDbEntity
  8
OBSTACLE
  6
CONTINUOUS
 62
     7
100
AcDbEllipse
 10
1571.978023
 20
1384.615384
 30
0.0
 11
0.0
 21
-9.8901103291624146
 31
0.0
210
0.0
220
0.0
230
1.0
 40
0.833333
 41
1.5707963667949074
 42
4.7123889403846793
  0
ELLIPSE
  5
1CB
102
{ACAD_REACTORS
330
237
102
}
100
AcDbEntity
  8
OBSTACLE
  6
CONTINUOUS
 62
     7
100
AcDbEllipse
 10
1571.978023
 20
1384.615385
 30
0.0
 11
0.0
 21
-9.8901103291623063
 31
0.0
210
0.0
220
0.0
230
1.0
 40
0.833333
 41
4.7123890203988168
 42
1.5707962867807699
  0
ELLIPSE
  5
1CC
102
{ACAD_REACTORS
330
237
102
}
100
AcDbEntity
  8
OBSTACLE
  6
CONTINUOUS
 62
     7
100
AcDbEllipse
 10
1631.318683
 20
1408.791209
 30
0.0
 11
0.0
 21
-9.8901103291623613
 31
0.0
210
0.0
220
0.0
230
1.0
 40
0.833333
 41
1.5707963667948719
 42
4.7123889403847148
  0
ELLIPSE
  5
1CD
102
{ACAD_REACTORS
330
237
102
}
100
AcDbEntity
  8
OBSTACLE
  6
CONTINUOUS
 62
     7
100
AcDbEllipse
 10
1631.318683
 20
1408.79121
 30
0.0
 11
0.0
 21
-9.890110329162848
 31
0.0
210
0.0
220
0.0
230
1.0
 40
0.833333
 41
4.712389020384613
 42
1.5707962867949725
  0
ELLIPSE
  5
1CE
102
{ACAD_REACTORS
330
237
102
}
100
AcDbEntity
  8
OBSTACLE
  6
CONTINUOUS
 62
     7
100
AcDbEllipse
 10
1598.35165
 20
1406.593405
 30
0.0
 11
0.0
 21
-9.8901103291624146
 31
0.0
210
0.0
220
0.0
230
1.0
 40
0.833333
 41
1.5707963667949107
 42
4.7123889403846757
  0
ELLIPSE
  5
1CF
102
{ACAD_REACTORS
330
237
102
}
100
AcDbEntity
  8
OBSTACLE
  6
CONTINUOUS
 62
     7
100
AcDbEllipse
 10
1598.35165
 20
1406.593406
 30
0.0
 11
0.0
 21
-9.8901103291624146
 31
0.0
210
0.0
220
0.0
230
1.0
 40
0.833333
 41
4.712389020384574
 42
1.5707962867950123
  0
ELLIPSE
  5
1D0
102
{ACAD_REACTORS
330
237
102
}
100
AcDbEntity
  8
OBSTACLE
  6
CONTINUOUS
 62
     7
100
AcDbEllipse
 10
1569.780219
 20
1501.098902
 30
0.0
 11
0.0
 21
-9.8901103291623613
 31
0.0
210
0.0
220
0.0
230
1.0
 40
0.833333
 41
1.5707963667948821
 42
4.7123889403847041
  0
ELLIPSE
  5
1D1
102
{ACAD_REACTORS
330
237
102
}
100
AcDbEntity
  8
OBSTACLE
  6
CONTINUOUS
 62
     7
100
AcDbEllipse
 10
1569.780219
 20
1501.098902
 30
0.0
 11
0.0
 21
-9.8901103291619261
 31
0.0
210
0.0
220
0.0
230
1.0
 40
0.833333
 41
4.7123890203847356
 42
1.5707962867948508
  0
ELLIPSE
  5
1D2
102
{ACAD_REACTORS
330
237
102
}
100
AcDbEntity
  8
OBSTACLE
  6
CONTINUOUS
 62
     7
100
AcDbEllipse
 10
1569.780219
 20
1415.384615
 30
0.0
 11
0.0
 21
-9.8901103291623613
 31
0.0
210
0.0
220
0.0
230
1.0
 40
0.833333
 41
1.5707963667949143
 42
4.7123889403846722
  0
ELLIPSE
  5
1D3
102
{ACAD_REACTORS
330
237
102
}
100
AcDbEntity
  8
OBSTACLE
  6
CONTINUOUS
 62
     7
100
AcDbEllipse
 10
1569.780219
 20
1415.384616
 30
0.0
 11
0.0
 21
-9.890110329162253
 31
0.0
210
0.0
220
0.0
230
1.0
 40
0.833333
 41
4.7123890203846877
 42
1.5707962867948988
  0
ELLIPSE
  5
1D4
102
{ACAD_REACTORS
330
237
102
}
100
AcDbEntity
  8
OBSTACLE
  6
CONTINUOUS
 62
     7
100
AcDbEllipse
 10
1541.208791
 20
1391.20879
 30
0.0
 11
0.0
 21
-9.8901103291625745
 31
0.0
210
0.0
220
0.0
230
1.0
 40
0.833333
 41
1.5707963667948981
 42
4.7123889403846881
  0
ELLIPSE
  5
1D5
102
{ACAD_REACTORS
330
237
102
}
100
AcDbEntity
  8
OBSTACLE
  6
CONTINUOUS
 62
     7
100
AcDbEllipse
 10
1541.208791
 20
1391.208791
 30
0.0
 11
0.0
 21
-9.8901103291624146
 31
0.0
210
0.0
220
0.0
230
1.0
 40
0.833333
 41
4.7123890203846992
 42
1.570796286794887
  0
ELLIPSE
  5
1D6
102
{ACAD_REACTORS
330
237
102
}
100
AcDbEntity
  8
OBSTACLE
  6
CONTINUOUS
 62
     7
100
AcDbEllipse
 10
1521.428572
 20
1454.945055
 30
0.0
 11
0.0
 21
-9.8901103291621979
 31
0.0
210
0.0
220
0.0
230
1.0
 40
0.833333
 41
1.5707963667948903
 42
4.7123889403846961
  0
ELLIPSE
  5
1D7
102
{ACAD_REACTORS
330
237
102
}
100
AcDbEntity
  8
OBSTACLE
  6
CONTINUOUS
 62
     7
100
AcDbEllipse
 10
1521.428572
 20
1454.945056
 30
0.0
 11
0.0
 21
-9.890110329162253
 31
0.0
210
0.0
220
0.0
230
1.0
 40
0.833333
 41
4.7123890203846983
 42
1.5707962867948877
  0
LWPOLYLINE
  5
1D8
102
{ACAD_REACTORS
330
237
102
}
100
AcDbEntity
  8
OBSTACLE
  6
CONTINUOUS
 62
     7
100
AcDbPolyline
 90
        2
 70
     1
 10
1519.78022
 20
1424.175824
 42
-1.0
 10
1552.747253
 20
1424.175824
 42
-1.0
  0
ELLIPSE
  5
1D9
102
{ACAD_REACTORS
330
237
102
}
100
AcDbEntity
  8
OBSTACLE
  6
CONTINUOUS
 62
     7
100
AcDbEllipse
 10
1554.395605
 20
1457.142857
 30
0.0
 11
0.0
 21
-9.8901103291624146
 31
0.0
210
0.0
220
0.0
230
1.0
 40
0.833333
 41
1.5707963667948821
 42
4.7123889403847041
  0
ELLIPSE
  5
1DA
102
{ACAD_REACTORS
330
237
102
}
100
AcDbEntity
  8
OBSTACLE
  6
CONTINUOUS
 62
     7
100
AcDbEllipse
 10
1554.395605
 20
1457.142857
 30
0.0
 11
0.0
 21
-9.8901103291624146
 31
0.0
210
0.0
220
0.0
230
1.0
 40
0.833333
 41
4.7123890203846877
 42
1.5707962867948988
  0
ELLIPSE
  5
1DB
102
{ACAD_REACTORS
330
237
102
}
100
AcDbEntity
  8
OBSTACLE
  6
CONTINUOUS
 62
     7
100
AcDbEllipse
 10
1543.406593
 20
1483.516483
 30
0.0
 11
0.0
 21
-9.8901103291621446
 31
0.0
210
0.0
220
0.0
230
1.0
 40
0.833333
 41
1.5707963667948246
 42
4.7123889403847619
  0
ELLIPSE
  5
1DC
102
{ACAD_REACTORS
330
237
102
}
100
AcDbEntity
  8
OBSTACLE
  6
CONTINUOUS
 62
     7
100
AcDbEllipse
 10
1543.406593
 20
1483.516484
 30
0.0
 11
0.0
 21
-9.8901103291619812
 31
0.0
210
0.0
220
0.0
230
1.0
 40
0.833333
 41
4.7123890203846326
 42
1.5707962867949534
  0
ELLIPSE
  5
1DD
102
{ACAD_REACTORS
330
237
102
}
100
AcDbEntity
  8
OBSTACLE
  6
CONTINUOUS
 62
     7
100
AcDbEllipse
 10
1451.0989
 20
1413.186812
 30
0.0
 11
0.0
 21
-9.8901103291623063
 31
0.0
210
0.0
220
0.0
230
1.0
 40
0.833333
 41
1.5707963667948965
 42
4.7123889403846899
  0
ELLIPSE
  5
1DE
102
{ACAD_REACTORS
330
237
102
}
100
AcDbEntity
  8
OBSTACLE
  6
CONTINUOUS
 62
     7
100
AcDbEllipse
 10
1451.0989
 20
1413.186812
 30
0.0
 11
0.0
 21
-9.8901103291623329
 31
0.0
210
0.0
220
0.0
230
1.0
 40
0.833333
 41
4.712389020384677
 42
1.5707962867949097
  0
ELLIPSE
  5
1DF
102
{ACAD_REACTORS
330
237
102
}
100
AcDbEntity
  8
OBSTACLE
  6
CONTINUOUS
 62
     7
100
AcDbEllipse
 10
1440.109891
 20
1564.835164
 30
0.0
 11
0.0
 21
-9.8901103291619545
 31
0.0
210
0.0
220
0.0
230
1.0
 40
0.833333
 41
1.5707963667948519
 42
4.7123889403847343
  0
ELLIPSE
  5
1E0
102
{ACAD_REACTORS
330
237
102
}
100
AcDbEntity
  8
OBSTACLE
  6
CONTINUOUS
 62
     7
100
AcDbEllipse
 10
1440.109891
 20
1564.835165
 30
0.0
 11
0.0
 21
-9.8901103291620078
 31
0.0
210
0.0
220
0.0
230
1.0
 40
0.833333
 41
4.7123890203846752
 42
1.5707962867949137
  0
ELLIPSE
  5
1E1
102
{ACAD_REACTORS
330
237
102
}
100
AcDbEntity
  8
OBSTACLE
  6
CONTINUOUS
 62
     7
100
AcDbEllipse
 10
1455.494505
 20
1536.263736
 30
0.0
 11
0.0
 21
-9.8901103291621162
 31
0.0
210
0.0
220
0.0
230
1.0
 40
0.833333
 41
1.5707963667949012
 42
4.7123889403846846
  0
ELLIPSE
  5
1E2
102
{ACAD_REACTORS
330
237
102
}
100
AcDbEntity
  8
OBSTACLE
  6
CONTINUOUS
 62
     7
100
AcDbEllipse
 10
1455.494505
 20
1536.263737
 30
0.0
 11
0.0
 21
-9.8901103291621979
 31
0.0
210
0.0
220
0.0
230
1.0
 40
0.833333
 41
4.7123890203846965
 42
1.570796286794889
  0
ELLIPSE
  5
1E3
102
{ACAD_REACTORS
330
237
102
}
100
AcDbEntity
  8
OBSTACLE
  6
CONTINUOUS
 62
     7
100
AcDbEllipse
 10
1484.065933
 20
1573.626374
 30
0.0
 11
0.0
 21
-9.8901103291625212
 31
0.0
210
0.0
220
0.0
230
1.0
 40
0.833333
 41
1.5707963667949094
 42
4.7123889403846775
  0
ELLIPSE
  5
1E4
102
{ACAD_REACTORS
330
237
102
}
100
AcDbEntity
  8
OBSTACLE
  6
CONTINUOUS
 62
     7
100
AcDbEllipse
 10
1484.065933
 20
1573.626375
 30
0.0
 11
0.0
 21
-9.8901103291623613
 31
0.0
210
0.0
220
0.0
230
1.0
 40
0.833333
 41
4.7123890203847187
 42
1.5707962867948673
  0
ELLIPSE
  5
1E5
102
{ACAD_REACTORS
330
237
102
}
100
AcDbEntity
  8
OBSTACLE
  6
CONTINUOUS
 62
     7
100
AcDbEllipse
 10
1530.219779
 20
1605.494506
 30
0.0
 11
0.0
 21
-9.8901103291624661
 31
0.0
210
0.0
220
0.0
230
1.0
 40
0.833333
 41
1.5707963667948766
 42
4.7123889403847095
  0
ELLIPSE
  5
1E6
102
{ACAD_REACTORS
330
237
102
}
100
AcDbEntity
  8
OBSTACLE
  6
CONTINUOUS
 62
     7
100
AcDbEllipse
 10
1530.219779
 20
1605.494506
 30
0.0
 11
0.0
 21
-9.8901103291623613
 31
0.0
210
0.0
220
0.0
230
1.0
 40
0.833333
 41
4.7123890203846068
 42
1.5707962867949794
  0
ELLIPSE
  5
1E7
102
{ACAD_REACTORS
330
237
102
}
100
AcDbEntity
  8
OBSTACLE
  6
CONTINUOUS
 62
     7
100
AcDbEllipse
 10
1519.23077
 20
1580.219781
 30
0.0
 11
0.0
 21
-9.8901103291626313
 31
0.0
210
0.0
220
0.0
230
1.0
 40
0.833333
 41
1.5707963667948519
 42
4.7123889403847343
  0
ELLIPSE
  5
1E8
102
{ACAD_REACTORS
330
237
102
}
100
AcDbEntity
  8
OBSTACLE
  6
CONTINUOUS
 62
     7
100
AcDbEllipse
 10
1519.23077
 20
1580.219782
 30
0.0
 11
0.0
 21
-9.8901103291625745
 31
0.0
210
0.0
220
0.0
230
1.0
 40
0.833333
 41
4.7123890203846912
 42
1.5707962867948946
  0
ELLIPSE
  5
1E9
102
{ACAD_REACTORS
330
237
102
}
100
AcDbEntity
  8
OBSTACLE
  6
CONTINUOUS
 62
     7
100
AcDbEllipse
 10
1501.648352
 20
1560.439561
 30
0.0
 11
0.0
 21
-9.8901103291624146
 31
0.0
210
0.0
220
0.0
230
1.0
 40
0.833333
 41
1.5707963667948959
 42
4.7123889403846899
  0
ELLIPSE
  5
1EA
102
{ACAD_REACTORS
330
237
102
}
100
AcDbEntity
  8
OBSTACLE
  6
CONTINUOUS
 62
     7
100
AcDbEllipse
 10
1501.648352
 20
1560.439562
 30
0.0
 11
0.0
 21
-9.8901103291623613
 31
0.0
210
0.0
220
0.0
230
1.0
 40
0.833333
 41
4.7123890203846859
 42
1.5707962867949001
  0
LWPOLYLINE
  5
1EB
102
{ACAD_REACTORS
330
237
102
}
100
AcDbEntity
  8
OBSTACLE
  6
CONTINUOUS
 62
     7
100
AcDbPolyline
 90
        2
 70
     1
 10
1478.021979
 20
1526.373626
 42
-1.0
 10
1510.989012
 20
1526.373626
 42
-1.0
  0
ELLIPSE
  5
1EC
102
{ACAD_REACTORS
330
237
102
}
100
AcDbEntity
  8
OBSTACLE
  6
CONTINUOUS
 62
     7
100
AcDbEllipse
 10
1519.23077
 20
1501.098902
 30
0.0
 11
0.0
 21
-9.8901103291623063
 31
0.0
210
0.0
220
0.0
230
1.0
 40
0.833333
 41
1.5707963667948273
 42
4.7123889403847592
  0
ELLIPSE
  5
1ED
102
{ACAD_REACTORS
330
237
102
}
100
AcDbEntity
  8
OBSTACLE
  6
CONTINUOUS
 62
     7
100
AcDbEllipse
 10
1519.23077
 20
1501.098902
 30
0.0
 11
0.0
 21
-9.8901103291623063
 31
0.0
210
0.0
220
0.0
230
1.0
 40
0.833333
 41
4.7123890203846361
 42
1.5707962867949494
  0
ELLIPSE
  5
1EE
102
{ACAD_REACTORS
330
237
102
}
100
AcDbEntity
  8
OBSTACLE
  6
CONTINUOUS
 62
     7
100
AcDbEllipse
 10
1503.846153
 20
1476.923076
 30
0.0
 11
0.0
 21
-9.8901103291623329
 31
0.0
210
0.0
220
0.0
230
1.0
 40
0.833333
 41
1.5707963667948575
 42
4.712388940384729
  0
ELLIPSE
  5
1EF
102
{ACAD_REACTORS
330
237
102
}
100
AcDbEntity
  8
OBSTACLE
  6
CONTINUOUS
 62
     7
100
AcDbEllipse
 10
1503.846153
 20
1476.923077
 30
0.0
 11
0.0
 21
-9.8901103291624146
 31
0.0
210
0.0
220
0.0
230
1.0
 40
0.833333
 41
4.7123890203846655
 42
1.5707962867949206
  0
ELLIPSE
  5
1F0
102
{ACAD_REACTORS
330
237
102
}
100
AcDbEntity
  8
OBSTACLE
  6
CONTINUOUS
 62
     7
100
AcDbEllipse
 10
1466.483517
 20
1437.362637
 30
0.0
 11
0.0
 21
-9.890110329162253
 31
0.0
210
0.0
220
0.0
230
1.0
 40
0.833333
 41
1.570796366794915
 42
4.7123889403846713
  0
ELLIPSE
  5
1F1
102
{ACAD_REACTORS
330
237
102
}
100
AcDbEntity
  8
OBSTACLE
  6
CONTINUOUS
 62
     7
100
AcDbEllipse
 10
1466.483517
 20
1437.362637
 30
0.0
 11
0.0
 21
-9.890110329162388
 31
0.0
210
0.0
220
0.0
230
1.0
 40
0.833333
 41
4.7123890203847019
 42
1.5707962867948837
  0
LWPOLYLINE
  5
1F2
102
{ACAD_REACTORS
330
237
102
}
100
AcDbEntity
  8
OBSTACLE
  6
CONTINUOUS
 62
     7
100
AcDbPolyline
 90
        2
 70
     1
 10
1481.318682
 20
1432.417582
 42
-1.0
 10
1510.989012
 20
1432.417582
 42
-1.0
  0
ENDBLK
  5
1F3
100
AcDbEntity
  8
0
100
AcDbBlockEnd
  0
BLOCK
  5
1F5
100
AcDbEntity
  8
0
100
AcDbBlockBegin
  2
UNGLEICH
 70
     0
 10
0.0
 20
0.0
 30
0.0
  3
UNGLEICH
  1

  0
LWPOLYLINE
  5
1F6
102
{ACAD_REACTORS
330
237
102
}
100
AcDbEntity
  8
OBSTACLE
  6
CONTINUOUS
 62
     7
100
AcDbPolyline
 90
        4
 70
     1
 10
550.0
 20
1394.92
 10
2450.0
 20
1394.92
 10
2450.0
 20
1605.08
 10
550.0
 20
1605.08
  0
LINE
  5
1F7
102
{ACAD_REACTORS
330
237
102
}
100
AcDbEntity
  8
OBSTACLE
  6
CONTINUOUS
 62
     7
100
AcDbLine
 10
2450.0
 20
1400.0
 30
0.0
 11
2450.0
 21
1600.0
 31
0.0
  0
LINE
  5
1F8
102
{ACAD_REACTORS
330
237
102
}
100
AcDbEntity
  8
OBSTACLE
  6
CONTINUOUS
 62
     7
100
AcDbLine
 10
2450.0
 20
1600.0
 30
0.0
 11
2400.0
 21
1600.0
 31
0.0
  0
LINE
  5
1F9
102
{ACAD_REACTORS
330
237
102
}
100
AcDbEntity
  8
OBSTACLE
  6
CONTINUOUS
 62
     7
100
AcDbLine
 10
2400.0
 20
1600.0
 30
0.0
 11
2400.0
 21
1550.0
 31
0.0
  0
LINE
  5
1FA
102
{ACAD_REACTORS
330
237
102
}
100
AcDbEntity
  8
OBSTACLE
  6
CONTINUOUS
 62
     7
100
AcDbLine
 10
2400.0
 20
1500.0
 30
0.0
 11
2400.0
 21
1400.0
 31
0.0
  0
LINE
  5
1FB
102
{ACAD_REACTORS
330
237
102
}
100
AcDbEntity
  8
OBSTACLE
  6
CONTINUOUS
 62
     7
100
AcDbLine
 10
2400.0
 20
1400.0
 30
0.0
 11
2450.0
 21
1400.0
 31
0.0
  0
LINE
  5
1FC
102
{ACAD_REACTORS
330
237
102
}
100
AcDbEntity
  8
OBSTACLE
  6
CONTINUOUS
 62
     7
100
AcDbLine
 10
550.0
 20
1400.0
 30
0.0
 11
550.0
 21
1600.0
 31
0.0
  0
LINE
  5
1FD
102
{ACAD_REACTORS
330
237
102
}
100
AcDbEntity
  8
OBSTACLE
  6
CONTINUOUS
 62
     7
100
AcDbLine
 10
550.0
 20
1600.0
 30
0.0
 11
600.0
 21
1600.0
 31
0.0
  0
LINE
  5
1FE
102
{ACAD_REACTORS
330
237
102
}
100
AcDbEntity
  8
OBSTACLE
  6
CONTINUOUS
 62
     7
100
AcDbLine
 10
600.0
 20
1600.0
 30
0.0
 11
600.0
 21
1550.0
 31
0.0
  0
LINE
  5
1FF
102
{ACAD_REACTORS
330
237
102
}
100
AcDbEntity
  8
OBSTACLE
  6
CONTINUOUS
 62
     7
100
AcDbLine
 10
600.0
 20
1500.0
 30
0.0
 11
600.0
 21
1400.0
 31
0.0
  0
LINE
  5
200
102
{ACAD_REACTORS
330
237
102
}
100
AcDbEntity
  8
OBSTACLE
  6
CONTINUOUS
 62
     7
100
AcDbLine
 10
600.0
 20
1400.0
 30
0.0
 11
550.0
 21
1400.0
 31
0.0
  0
LINE
  5
201
102
{ACAD_REACTORS
330
237
102
}
100
AcDbEntity
  8
OBSTACLE
  6
CONTINUOUS
 62
     7
100
AcDbLine
 10
2400.0
 20
1550.0
 30
0.0
 11
2380.0
 21
1550.0
 31
0.0
  0
LINE
  5
202
102
{ACAD_REACTORS
330
237
102
}
100
AcDbEntity
  8
OBSTACLE
  6
CONTINUOUS
 62
     7
100
AcDbLine
 10
2380.0
 20
1550.0
 30
0.0
 11
2380.0
 21
1500.0
 31
0.0
  0
LINE
  5
203
102
{ACAD_REACTORS
330
237
102
}
100
AcDbEntity
  8
OBSTACLE
  6
CONTINUOUS
 62
     7
100
AcDbLine
 10
2380.0
 20
1500.0
 30
0.0
 11
2400.0
 21
1500.0
 31
0.0
  0
LINE
  5
204
102
{ACAD_REACTORS
330
237
102
}
100
AcDbEntity
  8
OBSTACLE
  6
CONTINUOUS
 62
     7
100
AcDbLine
 10
600.0
 20
1550.0
 30
0.0
 11
620.0
 21
1550.0
 31
0.0
  0
LINE
  5
205
102
{ACAD_REACTORS
330
237
102
}
100
AcDbEntity
  8
OBSTACLE
  6
CONTINUOUS
 62
     7
100
AcDbLine
 10
620.0
 20
1550.0
 30
0.0
 11
620.0
 21
1500.0
 31
0.0
  0
LINE
  5
206
102
{ACAD_REACTORS
330
237
102
}
100
AcDbEntity
  8
OBSTACLE
  6
CONTINUOUS
 62
     7
100
AcDbLine
 10
620.0
 20
1500.0
 30
0.0
 11
600.0
 21
1500.0
 31
0.0
  0
LINE
  5
207
100
AcDbEntity
  8
OBSTACLE
  6
CONTINUOUS
 62
     7
100
AcDbLine
 10
2450.0
 20
1400.0
 30
0.0
 11
2450.0
 21
1600.0
 31
0.0
  0
LINE
  5
208
100
AcDbEntity
  8
OBSTACLE
  6
CONTINUOUS
 62
     7
100
AcDbLine
 10
550.0
 20
1400.0
 30
0.0
 11
550.0
 21
1600.0
 31
0.0
  0
ARC
  5
209
100
AcDbEntity
  8
OBSTACLE
  6
CONTINUOUS
 62
     7
100
AcDbCircle
 10
600.0
 20
1600.0
 30
0.0
 40
1050.0
100
AcDbArc
 50
0.0
 51
90.0
  0
ARC
  5
20A
100
AcDbEntity
  8
OBSTACLE
  6
CONTINUOUS
 62
     7
100
AcDbCircle
 10
2400.0
 20
1600.0
 30
0.0
 40
750.0
100
AcDbArc
 50
90.0
 51
180.0
  0
LWPOLYLINE
  5
20B
102
{ACAD_REACTORS
330
237
102
}
100
AcDbEntity
  8
OBSTACLE
  6
CONTINUOUS
 62
     7
100
AcDbPolyline
 90
        4
 70
     1
 10
600.0
 20
2650.0
 10
600.0
 20
1600.0
 10
650.0
 20
1600.0
 10
650.0
 20
2650.0
  0
LWPOLYLINE
  5
20C
102
{ACAD_REACTORS
330
237
102
}
100
AcDbEntity
  8
OBSTACLE
  6
CONTINUOUS
 62
     7
100
AcDbPolyline
 90
        4
 70
     1
 10
2350.0
 20
2350.0
 10
2350.0
 20
1600.0
 10
2400.0
 20
1600.0
 10
2400.0
 20
2350.0
  0
ENDBLK
  5
20D
100
AcDbEntity
  8
0
100
AcDbBlockEnd
  0
BLOCK
  5
20F
100
AcDbEntity
  8
0
100
AcDbBlockBegin
  2
LATERAL_FILE
 70
     2
 10
0.0
 20
0.0
 30
0.0
  3
LATERAL_FILE
  1

  0
ATTDEF
  5
210
100
AcDbEntity
  8
0
100
AcDbText
 10
1500.0
 20
1500.0
 30
0.0
 40
0.2
  1
47.244094488189
100
AcDbAttributeDefinition
  3
Width
  2
WIDTH
 70
     0
  0
ATTDEF
  5
211
100
AcDbEntity
  8
0
100
AcDbText
 10
1500.0
 20
1500.0
 30
0.0
 40
0.2
  1
15.748031496063
100
AcDbAttributeDefinition
  3
Depth
  2
DEPTH
 70
     0
  0
ATTDEF
  5
212
100
AcDbEntity
  8
0
100
AcDbText
 10
1500.0
 20
1500.0
 30
0.0
 40
0.2
  1
Asset
100
AcDbAttributeDefinition
  3
Shape class
  2
SHAPECLASS
 70
     0
  0
ATTDEF
  5
213
100
AcDbEntity
  8
0
100
AcDbText
 10
1500.0
 20
1500.0
 30
0.0
 40
0.2
  1
Furniture
100
AcDbAttributeDefinition
  3
Shape type
  2
SHAPETYPE
 70
     0
  0
ATTDEF
  5
214
100
AcDbEntity
  8
0
100
AcDbText
 10
1500.0
 20
1500.0
 30
0.0
 40
0.2
  1
File Cabinet
100
AcDbAttributeDefinition
  3
Subshape type
  2
SUBSHAPETYPE
 70
     0
  0
ATTDEF
  5
215
100
AcDbEntity
  8
0
100
AcDbText
 10
1500.0
 20
1500.0
 30
0.0
 40
0.2
  1
0
100
AcDbAttributeDefinition
  3
ID
  2
ID
 70
     0
  0
ATTDEF
  5
216
100
AcDbEntity
  8
0
100
AcDbText
 10
1500.0
 20
1500.0
 30
0.0
 40
0.2
  1
0
100
AcDbAttributeDefinition
  3
Name
  2
NAME
 70
     0
  0
ATTDEF
  5
217
100
AcDbEntity
  8
0
100
AcDbText
 10
1500.0
 20
1500.0
 30
0.0
 40
0.2
  1
0
100
AcDbAttributeDefinition
  3
Department
  2
DEPARTMENT
 70
     0
  0
ATTDEF
  5
218
100
AcDbEntity
  8
0
100
AcDbText
 10
1500.0
 20
1500.0
 30
0.0
 40
0.2
  1
0
100
AcDbAttributeDefinition
  3
Belongs to
  2
BELONGSTO
 70
     0
  0
ATTDEF
  5
219
100
AcDbEntity
  8
0
100
AcDbText
 10
1500.0
 20
1500.0
 30
0.0
 40
0.2
  1
0
100
AcDbAttributeDefinition
  3
Modified
  2
MODIFY
 70
     0
  0
ATTDEF
  5
21A
100
AcDbEntity
  8
0
100
AcDbText
 10
1500.0
 20
1500.0
 30
0.0
 40
0.2
  1
0
100
AcDbAttributeDefinition
  3
Asset number
  2
ASSETNUMBER
 70
     0
  0
ATTDEF
  5
21B
100
AcDbEntity
  8
0
100
AcDbText
 10
1500.0
 20
1500.0
 30
0.0
 40
0.2
  1
0
100
AcDbAttributeDefinition
  3
Serial number
  2
SERIALNUMBER
 70
     0
  0
ATTDEF
  5
21C
100
AcDbEntity
  8
0
100
AcDbText
 10
1500.0
 20
1500.0
 30
0.0
 40
0.2
  1
0
100
AcDbAttributeDefinition
  3
Product description
  2
PRODUCTDESCRIPTION
 70
     0
  0
ATTDEF
  5
21D
100
AcDbEntity
  8
0
100
AcDbText
 10
1500.0
 20
1500.0
 30
0.0
 40
0.2
  1
0
100
AcDbAttributeDefinition
  3
Purchase date
  2
PURCHASEDATE
 70
     0
  0
ATTDEF
  5
21E
100
AcDbEntity
  8
0
100
AcDbText
 10
1500.0
 20
1500.0
 30
0.0
 40
0.2
  1
0
100
AcDbAttributeDefinition
  3
Product number
  2
PRODUCTNUMBER
 70
     0
  0
ATTDEF
  5
21F
100
AcDbEntity
  8
0
100
AcDbText
 10
1500.0
 20
1500.0
 30
0.0
 40
0.2
  1
0
100
AcDbAttributeDefinition
  3
Base elevation
  2
BASEELEVATION
 70
     0
  0
LWPOLYLINE
  5
220
102
{ACAD_REACTORS
330
237
102
}
100
AcDbEntity
  8
OBSTACLE
  6
CONTINUOUS
 62
     7
100
AcDbPolyline
 90
        4
 70
     1
 10
1700.0
 20
1450.0
 10
1700.0
 20
1550.0
 10
1720.0
 20
1550.0
 10
1720.0
 20
1450.0
  0
LWPOLYLINE
  5
221
102
{ACAD_REACTORS
330
237
102
}
100
AcDbEntity
  8
OBSTACLE
  6
CONTINUOUS
 62
     7
100
AcDbPolyline
 90
        4
 70
     1
 10
1320.0
 20
920.0
 10
1320.0
 20
2080.0
 10
1700.0
 20
2080.0
 10
1700.0
 20
920.0
  0
LINE
  5
222
100
AcDbEntity
  8
OBSTACLE
  6
CONTINUOUS
 62
     7
100
AcDbLine
 10
1680.0
 20
920.0
 30
0.0
 11
1680.0
 21
2080.0
 31
0.0
  0
LINE
  5
223
100
AcDbEntity
  8
OBSTACLE
  6
CONTINUOUS
 62
     7
100
AcDbLine
 10
1320.0
 20
940.0
 30
0.0
 11
1680.0
 21
940.0
 31
0.0
  0
LINE
  5
224
100
AcDbEntity
  8
OBSTACLE
  6
CONTINUOUS
 62
     7
100
AcDbLine
 10
1320.0
 20
2060.0
 30
0.0
 11
1680.0
 21
2060.0
 31
0.0
  0
LWPOLYLINE
  5
225
102
{ACAD_REACTORS
330
237
102
}
100
AcDbEntity
  8
OBSTACLE
  6
CONTINUOUS
 62
     7
100
AcDbPolyline
 90
        4
 70
     1
 10
1300.0
 20
900.0
 10
1700.0
 20
900.0
 10
1700.0
 20
2100.0
 10
1300.0
 20
2100.0
  0
ENDBLK
  5
226
100
AcDbEntity
  8
0
100
AcDbBlockEnd
  0
BLOCK
  5
228
100
AcDbEntity
  8
0
100
AcDbBlockBegin
  2
MARKER_BOARD
 70
     0
 10
0.0
 20
0.0
 30
0.0
  3
MARKER_BOARD
  1

  0
LINE
  5
229
100
AcDbEntity
  8
WP
  6
CONTINUOUS
 62
     7
100
AcDbLine
 10
485.0
 20
0.0
 30
0.0
 11
485.0
 21
1000.0
 31
0.0
  0
LWPOLYLINE
  5
22A
102
{ACAD_REACTORS
330
237
102
}
100
AcDbEntity
  8
WP
  6
CONTINUOUS
 62
     7
100
AcDbPolyline
 90
        4
 70
     1
 10
462.5
 20
0.0
 10
537.5
 20
0.0
 10
537.5
 20
1000.0
 10
462.5
 20
1000.0
  0
ENDBLK
  5
22B
100
AcDbEntity
  8
0
100
AcDbBlockEnd
  0
BLOCK
  5
22D
100
AcDbEntity
  8
0
100
AcDbBlockBegin
  2
SQUARE
 70
     2
 10
0.0
 20
0.0
 30
0.0
  3
SQUARE
  1

  0
LWPOLYLINE
  5
22E
102
{ACAD_REACTORS
330
237
102
}
100
AcDbEntity
  8
0
  6
CONTINUOUS
 62
     7
100
AcDbPolyline
 90
        4
 70
     1
 10
30.0
 20
30.0
 10
70.0
 20
30.0
 10
70.0
 20
70.0
 10
30.0
 20
70.0
  0
ENDBLK
  5
22F
100
AcDbEntity
  8
0
100
AcDbBlockEnd
  0
BLOCK
  5
231
100
AcDbEntity
  8
0
100
AcDbBlockBegin
  2
RECTANGLE
 70
     0
 10
0.0
 20
0.0
 30
0.0
  3
RECTANGLE
  1

  0
LWPOLYLINE
  5
232
102
{ACAD_REACTORS
330
237
102
}
100
AcDbEntity
  8
0
  6
CONTINUOUS
 62
     7
100
AcDbPolyline
 90
        4
 70
     1
 10
30.0
 20
35.0
 10
70.0
 20
35.0
 10
70.0
 20
65.0
 10
30.0
 20
65.0
  0
ENDBLK
  5
233
100
AcDbEntity
  8
0
100
AcDbBlockEnd
  0
BLOCK
  5
235
100
AcDbEntity
  8
0
100
AcDbBlockBegin
  2
DATA_POINT
 70
     0
 10
0.0
 20
0.0
 30
0.0
  3
DATA_POINT
  1

  0
LWPOLYLINE
  5
236
102
{ACAD_REACTORS
330
237
102
}
100
AcDbEntity
  8
0
  6
CONTINUOUS
 62
    14
100
AcDbPolyline
 90
        2
 70
     1
 10
47.5
 20
50.0
 42
-1.0
 10
52.5
 20
50.0
 42
-1.0
  0
HATCH
  5
237
100
AcDbEntity
  8
0
 62
    13
100
AcDbHatch
 10
0.0
 20
0.0
 30
0.0
210
0.0
220
0.0
230
1.0
  2
SOLID
 70
     1
 71
     1
 91
        1
 92
        3
 72
     1
 73
     1
 93
        2
 10
47.5
 20
50.0
 42
-0.9999999999999999
 10
52.5
 20
50.0
 42
-1.0000000000000071
 97
      153
330
E8
330
104
330
105
330
106
330
108
330
10C
330
10D
330
10E
330
10F
330
110
330
111
330
112
330
113
330
114
330
115
330
116
330
117
330
118
330
136
330
152
330
16E
330
189
330
18A
330
18B
330
18C
330
18D
330
18E
330
18F
330
190
330
191
330
192
330
193
330
194
330
195
330
196
330
197
330
198
330
199
330
19A
330
19B
330
19C
330
19D
330
19E
330
19F
330
1A0
330
1A1
330
1A2
330
1A3
330
1A4
330
1A5
330
1A6
330
1A7
330
1A8
330
1A9
330
1AA
330
1AB
330
1AC
330
1AD
330
1AE
330
1AF
330
1B0
330
1B1
330
1B2
330
1B3
330
1B4
330
1B5
330
1B6
330
1B7
330
1B8
330
1B9
330
1BA
330
1BB
330
1BC
330
1BD
330
1BE
330
1BF
330
1C0
330
1C1
330
1C2
330
1C3
330
1C4
330
1C5
330
1C6
330
1C7
330
1C8
330
1C9
330
1CA
330
1CB
330
1CC
330
1CD
330
1CE
330
1CF
330
1D0
330
1D1
330
1D2
330
1D3
330
1D4
330
1D5
330
1D6
330
1D7
330
1D8
330
1D9
330
1DA
330
1DB
330
1DC
330
1DD
330
1DE
330
1DF
330
1E0
330
1E1
330
1E2
330
1E3
330
1E4
330
1E5
330
1E6
330
1E7
330
1E8
330
1E9
330
1EA
330
1EB
330
1EC
330
1ED
330
1EE
330
1EF
330
1F0
330
1F1
330
1F2
330
1F6
330
1F7
330
1F8
330
1F9
330
1FA
330
1FB
330
1FC
330
1FD
330
1FE
330
1FF
330
200
330
201
330
202
330
203
330
204
330
205
330
206
330
20B
330
20C
330
220
330
221
330
225
330
22A
330
22E
330
232
330
236
 75
     0
 76
     1
 98
        0
  0
LWPOLYLINE
  5
238
100
AcDbEntity
  8
0
  6
CONTINUOUS
 62
    14
100
AcDbPolyline
 90
        2
 70
     1
 10
48.25
 20
50.0
 42
-1.0
 10
51.75
 20
50.0
 42
-1.0
  0
ENDBLK
  5
239
100
AcDbEntity
  8
0
100
AcDbBlockEnd
  0
ENDSEC
  0
SECTION
  2
ENTITIES
  0
LWPOLYLINE
  5
33
102
{ACAD_REACTORS
330
34
102
}
100
AcDbEntity
  8
OBSTACLE
  6
CONTINUOUS
100
AcDbPolyline
 90
        4
 70
     1
 10
746.428571
 20
1756.071429
 10
746.428571
 20
1856.071429
 10
766.428571
 20
1856.071429
 10
766.428571
 20
1756.071429
  0
HATCH
  5
34
102
{ACAD_REACTORS
330
31
102
}
100
AcDbEntity
  8
OBSTACLE
 62
    49
100
AcDbHatch
 10
0.0
 20
0.0
 30
0.0
210
0.0
220
0.0
230
1.0
  2
SOLID
 70
     1
 71
     1
 91
        2
 92
        3
 72
     0
 73
     1
 93
        4
 10
746.42857142857133
 20
1756.0714285714316
 10
746.42857142857133
 20
1856.0714285714316
 10
766.42857142857133
 20
1856.0714285714316
 10
766.42857142857133
 20
1756.0714285714316
 97
        1
330
33
 92
        3
 72
     0
 73
     1
 93
        4
 10
366.42857142857133
 20
1226.0714285714314
 10
366.42857142857133
 20
2386.0714285714316
 10
746.42857142857133
 20
2386.0714285714316
 10
746.42857142857133
 20
1226.0714285714314
 97
        1
330
35
 75
     0
 76
     1
 98
        0
  0
LWPOLYLINE
  5
35
102
{ACAD_REACTORS
330
34
102
}
100
AcDbEntity
  8
OBSTACLE
  6
CONTINUOUS
100
AcDbPolyline
 90
        4
 70
     1
 10
366.428571
 20
1226.071429
 10
366.428571
 20
2386.071429
 10
746.428571
 20
2386.071429
 10
746.428571
 20
1226.071429
  0
LINE
  5
36
102
{ACAD_REACTORS
330
31
102
}
100
AcDbEntity
  8
OBSTACLE
  6
CONTINUOUS
100
AcDbLine
 10
726.428571
 20
1226.071429
 30
0.0
 11
726.428571
 21
2386.071429
 31
0.0
  0
LINE
  5
37
102
{ACAD_REACTORS
330
31
102
}
100
AcDbEntity
  8
OBSTACLE
  6
CONTINUOUS
100
AcDbLine
 10
366.428571
 20
1246.071429
 30
0.0
 11
726.428571
 21
1246.071429
 31
0.0
  0
LINE
  5
38
102
{ACAD_REACTORS
330
31
102
}
100
AcDbEntity
  8
OBSTACLE
  6
CONTINUOUS
100
AcDbLine
 10
366.428571
 20
2366.071429
 30
0.0
 11
726.428571
 21
2366.071429
 31
0.0
  0
LWPOLYLINE
  5
39
102
{ACAD_REACTORS
330
3A
102
}
100
AcDbEntity
  8
OBSTACLE
  6
CONTINUOUS
100
AcDbPolyline
 90
        4
 70
     1
 10
346.428571
 20
1206.071429
 10
746.428571
 20
1206.071429
 10
746.428571
 20
2406.071429
 10
346.428571
 20
2406.071429
  0
HATCH
  5
3A
102
{ACAD_REACTORS
330
31
102
}
100
AcDbEntity
  8
OBSTACLE
 62
    49
100
AcDbHatch
 10
0.0
 20
0.0
 30
0.0
210
0.0
220
0.0
230
1.0
  2
SOLID
 70
     1
 71
     1
 91
        1
 92
        3
 72
     0
 73
     1
 93
        4
 10
346.42857142857133
 20
1206.0714285714314
 10
746.42857142857133
 20
1206.0714285714314
 10
746.42857142857133
 20
2406.0714285714316
 10
346.42857142857133
 20
2406.0714285714316
 97
        1
330
39
 75
     0
 76
     1
 98
        0
  0
LWPOLYLINE
  5
3D
102
{ACAD_REACTORS
330
3E
102
}
100
AcDbEntity
  8
WALL
  6
CONTINUOUS
100
AcDbPolyline
 90
        5
 70
     1
 10
4010.410543
 20
8185.657934
 10
4000.194677
 20
1058.466667
 10
3850.409528
 20
1208.466667
 10
3860.410697
 20
8185.872938
 10
3935.41062
 20
8185.765436
  0
HATCH
  5
3E
102
{ACAD_REACTORS
330
3B
102
}
100
AcDbEntity
  8
WALL
 62
   251
100
AcDbHatch
 10
0.0
 20
0.0
 30
0.0
210
0.0
220
0.0
230
1.0
  2
SOLID
 70
     1
 71
     1
 91
        1
 92
        3
 72
     0
 73
     1
 93
        5
 10
4010.4105426635024
 20
8185.657933629228
 10
4000.194677138586
 20
1058.4666666666988
 10
3850.4095277778133
 20
1208.4666666666935
 10
3860.4106967533771
 20
8185.8729381376206
 10
3935.4106197084402
 20
8185.7654358834243
 97
        1
330
3D
 75
     0
 76
     1
 98
        0
  0
LWPOLYLINE
  5
3F
102
{ACAD_REACTORS
330
3B
102
}
100
AcDbEntity
  8
WALL
  6
CONTINUOUS
100
AcDbPolyline
 90
        3
 70
     0
 10
3935.41062
 20
8185.765436
 10
4010.410543
 20
8185.657934
 10
4000.194677
 20
1058.466667
  0
LWPOLYLINE
  5
40
102
{ACAD_REACTORS
330
3B
102
}
100
AcDbEntity
  8
WALL
  6
CONTINUOUS
100
AcDbPolyline
 90
        3
 70
     0
 10
3935.41062
 20
8185.765436
 10
3860.410697
 20
8185.872938
 10
3850.409528
 20
1208.466667
  0
LWPOLYLINE
  5
42
102
{ACAD_REACTORS
330
43
102
}
100
AcDbEntity
  8
WALL
  6
CONTINUOUS
100
AcDbPolyline
 90
        4
 70
     1
 10
4000.194677
 20
1058.466667
 10
198.989338
 20
1058.466667
 10
350.409528
 20
1208.466667
 10
3850.409528
 20
1208.466667
  0
HATCH
  5
43
102
{ACAD_REACTORS
330
41
102
}
100
AcDbEntity
  8
WALL
 62
   251
100
AcDbHatch
 10
0.0
 20
0.0
 30
0.0
210
0.0
220
0.0
230
1.0
  2
SOLID
 70
     1
 71
     1
 91
        1
 92
        3
 72
     0
 73
     1
 93
        4
 10
4000.1946771385419
 20
1058.4666666666692
 10
198.98933760358227
 20
1058.4666666666692
 10
350.40952777776806
 20
1208.4666666666692
 10
3850.4095277777733
 20
1208.4666666666692
 97
        1
330
42
 75
     0
 76
     1
 98
        0
  0
LINE
  5
44
102
{ACAD_REACTORS
330
41
102
}
100
AcDbEntity
  8
WALL
  6
CONTINUOUS
100
AcDbLine
 10
4000.194677
 20
1058.466667
 30
0.0
 11
198.989338
 21
1058.466667
 31
0.0
  0
LINE
  5
45
102
{ACAD_REACTORS
330
41
102
}
100
AcDbEntity
  8
WALL
  6
CONTINUOUS
100
AcDbLine
 10
3850.409528
 20
1208.466667
 30
0.0
 11
350.409528
 21
1208.466667
 31
0.0
  0
LWPOLYLINE
  5
47
102
{ACAD_REACTORS
330
48
102
}
100
AcDbEntity
  8
WALL
  6
CONTINUOUS
100
AcDbPolyline
 90
        4
 70
     1
 10
198.989338
 20
1058.466667
 10
203.846178
 20
1573.8615
 10
353.531724
 20
1539.785724
 10
350.409528
 20
1208.466667
  0
HATCH
  5
48
102
{ACAD_REACTORS
330
46
102
}
100
AcDbEntity
  8
WALL
 62
   251
100
AcDbHatch
 10
0.0
 20
0.0
 30
0.0
210
0.0
220
0.0
230
1.0
  2
SOLID
 70
     1
 71
     1
 91
        1
 92
        3
 72
     0
 73
     1
 93
        4
 10
198.98933760358372
 20
1058.4666666666403
 10
203.84617833518959
 20
1573.8615004847293
 10
353.53172417574109
 20
1539.7857241785125
 10
350.40952777776772
 20
1208.4666666666444
 97
        1
330
47
 75
     0
 76
     1
 98
        0
  0
LINE
  5
49
102
{ACAD_REACTORS
330
46
102
}
100
AcDbEntity
  8
WALL
  6
CONTINUOUS
100
AcDbLine
 10
198.989338
 20
1058.466667
 30
0.0
 11
203.846178
 21
1573.8615
 31
0.0
  0
LINE
  5
4A
102
{ACAD_REACTORS
330
46
102
}
100
AcDbEntity
  8
WALL
  6
CONTINUOUS
100
AcDbLine
 10
350.409528
 20
1208.466667
 30
0.0
 11
353.531724
 21
1539.785724
 31
0.0
  0
LWPOLYLINE
  5
4C
102
{ACAD_REACTORS
330
4D
102
}
100
AcDbEntity
  8
MOUNTABLE
  6
CONTINUOUS
100
AcDbPolyline
 90
        4
 70
     1
 10
3017.076194
 20
7401.404167
 10
3517.076194
 20
7401.404167
 10
3517.076194
 20
7945.133333
 10
3017.076194
 20
7945.133333
  0
HATCH
  5
4D
100
AcDbEntity
  8
MOUNTABLE
 62
   251
100
AcDbHatch
 10
0.0
 20
0.0
 30
0.0
210
0.0
220
0.0
230
1.0
  2
SOLID
 70
     1
 71
     1
 91
        1
 92
        3
 72
     0
 73
     1
 93
        4
 10
3017.0761944444153
 20
7401.4041666666453
 10
3517.0761944444148
 20
7401.4041666666453
 10
3517.0761944444148
 20
7945.1333333333123
 10
3017.0761944444153
 20
7945.1333333333123
 97
        1
330
4C
 75
     0
 76
     1
 98
        0
  0
LWPOLYLINE
  5
4F
102
{ACAD_REACTORS
330
50
102
}
100
AcDbEntity
  8
OCCUPIED
  6
CONTINUOUS
100
AcDbPolyline
 90
        4
 70
     1
 10
1442.076194
 20
3205.307085
 10
2142.076194
 20
3205.307085
 10
2142.076194
 20
4605.307085
 10
1442.076194
 20
4605.307085
  0
HATCH
  5
50
100
AcDbEntity
  8
OCCUPIED
 62
   254
100
AcDbHatch
 10
0.0
 20
0.0
 30
0.0
210
0.0
220
0.0
230
1.0
  2
SOLID
 70
     1
 71
     1
 91
        1
 92
        3
 72
     0
 73
     1
 93
        4
 10
1442.0761943214811
 20
3205.30708541576
 10
2142.0761943214816
 20
3205.30708541576
 10
2142.0761943214816
 20
4605.3070854157595
 10
1442.0761943214811
 20
4605.3070854157595
 97
        1
330
4F
 75
     0
 76
     1
 98
        0
  0
LWPOLYLINE
  5
51
102
{ACAD_REACTORS
330
52
102
}
100
AcDbEntity
  8
OCCUPIED
  6
CONTINUOUS
100
AcDbPolyline
 90
        4
 70
     1
 10
2142.076194
 20
3205.307085
 10
2842.076194
 20
3205.307085
 10
2842.076194
 20
4605.307085
 10
2142.076194
 20
4605.307085
  0
HATCH
  5
52
100
AcDbEntity
  8
OCCUPIED
 62
   254
100
AcDbHatch
 10
0.0
 20
0.0
 30
0.0
210
0.0
220
0.0
230
1.0
  2
SOLID
 70
     1
 71
     1
 91
        1
 92
        3
 72
     0
 73
     1
 93
        4
 10
2142.0761943214798
 20
3205.30708541576
 10
2842.0761943214798
 20
3205.30708541576
 10
2842.0761943214798
 20
4605.3070854157595
 10
2142.0761943214798
 20
4605.3070854157595
 97
        1
330
51
 75
     0
 76
     1
 98
        0
  0
LWPOLYLINE
  5
53
102
{ACAD_REACTORS
330
54
102
}
100
AcDbEntity
  8
OCCUPIED
  6
CONTINUOUS
100
AcDbPolyline
 90
        4
 70
     1
 10
2142.076194
 20
4605.307085
 10
2842.076194
 20
4605.307085
 10
2842.076194
 20
6005.307085
 10
2142.076194
 20
6005.307085
  0
HATCH
  5
54
100
AcDbEntity
  8
OCCUPIED
 62
   254
100
AcDbHatch
 10
0.0
 20
0.0
 30
0.0
210
0.0
220
0.0
230
1.0
  2
SOLID
 70
     1
 71
     1
 91
        1
 92
        3
 72
     0
 73
     1
 93
        4
 10
2142.0761943214798
 20
4605.3070854157604
 10
2842.0761943214798
 20
4605.3070854157604
 10
2842.0761943214798
 20
6005.3070854157604
 10
2142.0761943214798
 20
6005.3070854157604
 97
        1
330
53
 75
     0
 76
     1
 98
        0
  0
LWPOLYLINE
  5
55
102
{ACAD_REACTORS
330
56
102
}
100
AcDbEntity
  8
OCCUPIED
  6
CONTINUOUS
100
AcDbPolyline
 90
        4
 70
     1
 10
1442.076194
 20
4605.307085
 10
2142.076194
 20
4605.307085
 10
2142.076194
 20
6005.307085
 10
1442.076194
 20
6005.307085
  0
HATCH
  5
56
100
AcDbEntity
  8
OCCUPIED
 62
   254
100
AcDbHatch
 10
0.0
 20
0.0
 30
0.0
210
0.0
220
0.0
230
1.0
  2
SOLID
 70
     1
 71
     1
 91
        1
 92
        3
 72
     0
 73
     1
 93
        4
 10
1442.0761943214811
 20
4605.3070854157604
 10
2142.0761943214816
 20
4605.3070854157604
 10
2142.0761943214816
 20
6005.3070854157604
 10
1442.0761943214811
 20
6005.3070854157604
 97
        1
330
55
 75
     0
 76
     1
 98
        0
  0
LWPOLYLINE
  5
57
102
{ACAD_REACTORS
330
58
102
}
100
AcDbEntity
  8
OCCUPIED
  6
CONTINUOUS
100
AcDbPolyline
 90
        4
 70
     1
 10
2650.409528
 20
1295.133333
 10
3350.409528
 20
1295.133333
 10
3350.409528
 20
1995.133333
 10
2650.409528
 20
1995.133333
  0
HATCH
  5
58
100
AcDbEntity
  8
OCCUPIED
 62
   254
100
AcDbHatch
 10
0.0
 20
0.0
 30
0.0
210
0.0
220
0.0
230
1.0
  2
SOLID
 70
     1
 71
     1
 91
        1
 92
        3
 72
     0
 73
     1
 93
        4
 10
2650.4095277777819
 20
1295.1333333333125
 10
3350.4095277777819
 20
1295.1333333333125
 10
3350.4095277777819
 20
1995.1333333333127
 10
2650.4095277777819
 20
1995.1333333333127
 97
        1
330
57
 75
     0
 76
     1
 98
        0
  0
LWPOLYLINE
  5
5A
102
{ACAD_REACTORS
330
5B
102
}
100
AcDbEntity
  8
OBSTACLE
  6
CONTINUOUS
100
AcDbPolyline
 90
        4
 70
     1
 10
3470.0
 20
1595.133333
 10
3850.0
 20
1595.133333
 10
3850.0
 20
2585.133333
 10
3470.0
 20
2585.133333
  0
HATCH
  5
5B
102
{ACAD_REACTORS
330
59
102
}
100
AcDbEntity
  8
OBSTACLE
 62
    49
100
AcDbHatch
 10
0.0
 20
0.0
 30
0.0
210
0.0
220
0.0
230
1.0
  2
SOLID
 70
     1
 71
     1
 91
        1
 92
        3
 72
     0
 73
     1
 93
        4
 10
3469.9999997971458
 20
1595.133333411175
 10
3849.9999997971458
 20
1595.133333411175
 10
3849.9999997971458
 20
2585.1333334111746
 10
3469.9999997971458
 20
2585.1333334111746
 97
        1
330
5A
 75
     0
 76
     1
 98
        0
  0
LINE
  5
5C
102
{ACAD_REACTORS
330
59
102
}
100
AcDbEntity
  8
OBSTACLE
  6
CONTINUOUS
100
AcDbLine
 10
3470.0
 20
1615.133333
 30
0.0
 11
3850.0
 21
1615.133333
 31
0.0
  0
LINE
  5
5D
102
{ACAD_REACTORS
330
59
102
}
100
AcDbEntity
  8
OBSTACLE
  6
CONTINUOUS
100
AcDbLine
 10
3470.0
 20
2565.133333
 30
0.0
 11
3850.0
 21
2565.133333
 31
0.0
  0
LINE
  5
5F
102
{ACAD_REACTORS
330
5E
102
}
100
AcDbEntity
  8
OBSTACLE
  6
CONTINUOUS
100
AcDbLine
 10
3794.285714
 20
3607.5
 30
0.0
 11
3794.285714
 21
5657.5
 31
0.0
  0
LWPOLYLINE
  5
60
102
{ACAD_REACTORS
330
61
102
}
100
AcDbEntity
  8
OBSTACLE
  6
CONTINUOUS
100
AcDbPolyline
 90
        4
 70
     1
 10
3771.785714
 20
3607.5
 10
3846.785714
 20
3607.5
 10
3846.785714
 20
5657.5
 10
3771.785714
 20
5657.5
  0
HATCH
  5
61
102
{ACAD_REACTORS
330
5E
102
}
100
AcDbEntity
  8
OBSTACLE
 62
    49
100
AcDbHatch
 10
0.0
 20
0.0
 30
0.0
210
0.0
220
0.0
230
1.0
  2
SOLID
 70
     1
 71
     1
 91
        1
 92
        3
 72
     0
 73
     1
 93
        4
 10
3771.7857142857142
 20
3607.5000000000009
 10
3846.7857142857142
 20
3607.5000000000009
 10
3846.7857142857142
 20
5657.5000000000027
 10
3771.7857142857142
 20
5657.5000000000027
 97
        1
330
60
 75
     0
 76
     1
 98
        0
  0
LWPOLYLINE
  5
63
102
{ACAD_REACTORS
330
69
102
}
100
AcDbEntity
  8
OBSTACLE
  6
CONTINUOUS
100
AcDbPolyline
 90
        4
 70
     1
 10
2209.795236
 20
1209.736667
 10
1110.204764
 20
1209.736667
 10
1110.204764
 20
1057.196667
 10
2209.795236
 20
1057.196667
  0
LINE
  5
64
102
{ACAD_REACTORS
330
69
102
}
100
AcDbEntity
  8
OBSTACLE
  6
CONTINUOUS
100
AcDbLine
 10
1110.204764
 20
1208.466667
 30
0.0
 11
1110.204764
 21
1058.466667
 31
0.0
  0
LINE
  5
65
102
{ACAD_REACTORS
330
69
102
}
100
AcDbEntity
  8
OBSTACLE
  6
CONTINUOUS
100
AcDbLine
 10
1110.204764
 20
1058.466667
 30
0.0
 11
1160.204764
 21
1058.466667
 31
0.0
  0
LINE
  5
66
102
{ACAD_REACTORS
330
69
102
}
100
AcDbEntity
  8
OBSTACLE
  6
CONTINUOUS
100
AcDbLine
 10
1160.204764
 20
1058.466667
 30
0.0
 11
1160.204764
 21
1108.466667
 31
0.0
  0
LINE
  5
67
102
{ACAD_REACTORS
330
69
102
}
100
AcDbEntity
  8
OBSTACLE
  6
CONTINUOUS
100
AcDbLine
 10
1160.204764
 20
1158.466667
 30
0.0
 11
1160.204764
 21
1208.466667
 31
0.0
  0
LINE
  5
68
102
{ACAD_REACTORS
330
69
102
}
100
AcDbEntity
  8
OBSTACLE
  6
CONTINUOUS
100
AcDbLine
 10
1160.204764
 20
1208.466667
 30
0.0
 11
1110.204764
 21
1208.466667
 31
0.0
  0
HATCH
  5
69
102
{ACAD_REACTORS
330
62
102
}
100
AcDbEntity
  8
OBSTACLE
 62
    49
100
AcDbHatch
 10
0.0
 20
0.0
 30
0.0
210
0.0
220
0.0
230
1.0
  2
SOLID
 70
     1
 71
     1
 91
        2
 92
        1
 93
        6
 72
     1
 10
1110.2047638888941
 20
1208.4666666666628
 11
1110.2047638888941
 21
1058.4666666666628
 72
     1
 10
1110.2047638888941
 20
1058.4666666666628
 11
1160.2047638888944
 21
1058.4666666666628
 72
     1
 10
1160.2047638888944
 20
1058.4666666666628
 11
1160.2047638888944
 21
1108.4666666666628
 72
     1
 10
1160.2047638888944
 20
1108.4666666666628
 11
1160.2047638888944
 21
1158.4666666666628
 72
     1
 10
1160.2047638888944
 20
1158.4666666666628
 11
1160.2047638888944
 21
1208.4666666666628
 72
     1
 10
1160.2047638888944
 20
1208.4666666666628
 11
1110.2047638888941
 21
1208.4666666666628
 97
        6
330
63
330
64
330
65
330
66
330
67
330
68
 92
        1
 93
        6
 72
     1
 10
2209.7952361111161
 20
1208.4666666666628
 11
2209.7952361111161
 21
1058.4666666666628
 72
     1
 10
2209.7952361111161
 20
1058.4666666666628
 11
2159.7952361111161
 21
1058.4666666666628
 72
     1
 10
2159.7952361111161
 20
1058.4666666666628
 11
2159.7952361111161
 21
1108.4666666666628
 72
     1
 10
2159.7952361111161
 20
1108.4666666666628
 11
2159.7952361111161
 21
1158.4666666666628
 72
     1
 10
2159.7952361111161
 20
1158.4666666666628
 11
2159.7952361111161
 21
1208.4666666666628
 72
     1
 10
2159.7952361111161
 20
1208.4666666666628
 11
2209.7952361111161
 21
1208.4666666666628
 97
        5
330
6A
330
6B
330
6C
330
6D
330
6E
 75
     0
 76
     1
 98
        0
  0
LINE
  5
6A
102
{ACAD_REACTORS
330
69
102
}
100
AcDbEntity
  8
OBSTACLE
  6
CONTINUOUS
100
AcDbLine
 10
2209.795236
 20
1208.466667
 30
0.0
 11
2209.795236
 21
1058.466667
 31
0.0
  0
LINE
  5
6B
102
{ACAD_REACTORS
330
69
102
}
100
AcDbEntity
  8
OBSTACLE
  6
CONTINUOUS
100
AcDbLine
 10
2209.795236
 20
1058.466667
 30
0.0
 11
2159.795236
 21
1058.466667
 31
0.0
  0
LINE
  5
6C
102
{ACAD_REACTORS
330
69
102
}
100
AcDbEntity
  8
OBSTACLE
  6
CONTINUOUS
100
AcDbLine
 10
2159.795236
 20
1058.466667
 30
0.0
 11
2159.795236
 21
1108.466667
 31
0.0
  0
LINE
  5
6D
102
{ACAD_REACTORS
330
69
102
}
100
AcDbEntity
  8
OBSTACLE
  6
CONTINUOUS
100
AcDbLine
 10
2159.795236
 20
1158.466667
 30
0.0
 11
2159.795236
 21
1208.466667
 31
0.0
  0
LINE
  5
6E
102
{ACAD_REACTORS
330
69
102
}
100
AcDbEntity
  8
OBSTACLE
  6
CONTINUOUS
100
AcDbLine
 10
2159.795236
 20
1208.466667
 30
0.0
 11
2209.795236
 21
1208.466667
 31
0.0
  0
LINE
  5
6F
102
{ACAD_REACTORS
330
72
102
}
100
AcDbEntity
  8
OBSTACLE
  6
CONTINUOUS
100
AcDbLine
 10
1160.204764
 20
1108.466667
 30
0.0
 11
1180.204764
 21
1108.466667
 31
0.0
  0
LINE
  5
70
102
{ACAD_REACTORS
330
72
102
}
100
AcDbEntity
  8
OBSTACLE
  6
CONTINUOUS
100
AcDbLine
 10
1180.204764
 20
1108.466667
 30
0.0
 11
1180.204764
 21
1158.466667
 31
0.0
  0
LINE
  5
71
102
{ACAD_REACTORS
330
72
102
}
100
AcDbEntity
  8
OBSTACLE
  6
CONTINUOUS
100
AcDbLine
 10
1180.204764
 20
1158.466667
 30
0.0
 11
1160.204764
 21
1158.466667
 31
0.0
  0
HATCH
  5
72
102
{ACAD_REACTORS
330
62
102
}
100
AcDbEntity
  8
OBSTACLE
 62
    49
100
AcDbHatch
 10
0.0
 20
0.0
 30
0.0
210
0.0
220
0.0
230
1.0
  2
SOLID
 70
     1
 71
     1
 91
        2
 92
        1
 93
        4
 72
     1
 10
1160.2047638888944
 20
1108.4666666666628
 11
1180.2047638888941
 21
1108.4666666666628
 72
     1
 10
1180.2047638888941
 20
1108.4666666666628
 11
1180.2047638888941
 21
1158.4666666666628
 72
     1
 10
1180.2047638888941
 20
1158.4666666666628
 11
1160.2047638888944
 21
1158.4666666666628
 72
     1
 10
1160.2047638888944
 20
1158.4666666666628
 11
1160.2047638888944
 21
1108.4666666666628
 97
        3
330
6F
330
70
330
71
 92
        1
 93
        4
 72
     1
 10
2159.7952361111161
 20
1108.4666666666628
 11
2139.7952361111161
 21
1108.4666666666628
 72
     1
 10
2139.7952361111161
 20
1108.4666666666628
 11
2139.7952361111161
 21
1158.4666666666628
 72
     1
 10
2139.7952361111161
 20
1158.4666666666628
 11
2159.7952361111161
 21
1158.4666666666628
 72
     1
 10
2159.7952361111161
 20
1158.4666666666628
 11
2159.7952361111161
 21
1108.4666666666628
 97
        3
330
73
330
74
330
75
 75
     0
 76
     1
 98
        0
  0
LINE
  5
73
102
{ACAD_REACTORS
330
72
102
}
100
AcDbEntity
  8
OBSTACLE
  6
CONTINUOUS
100
AcDbLine
 10
2159.795236
 20
1108.466667
 30
0.0
 11
2139.795236
 21
1108.466667
 31
0.0
  0
LINE
  5
74
102
{ACAD_REACTORS
330
72
102
}
100
AcDbEntity
  8
OBSTACLE
  6
CONTINUOUS
100
AcDbLine
 10
2139.795236
 20
1108.466667
 30
0.0
 11
2139.795236
 21
1158.466667
 31
0.0
  0
LINE
  5
75
102
{ACAD_REACTORS
330
72
102
}
100
AcDbEntity
  8
OBSTACLE
  6
CONTINUOUS
100
AcDbLine
 10
2139.795236
 20
1158.466667
 30
0.0
 11
2159.795236
 21
1158.466667
 31
0.0
  0
LINE
  5
76
102
{ACAD_REACTORS
330
62
102
}
100
AcDbEntity
  8
OBSTACLE
  6
CONTINUOUS
100
AcDbLine
 10
1110.204764
 20
1208.466667
 30
0.0
 11
1110.204764
 21
1058.466667
 31
0.0
  0
LINE
  5
77
102
{ACAD_REACTORS
330
62
102
}
100
AcDbEntity
  8
OBSTACLE
  6
CONTINUOUS
100
AcDbLine
 10
2209.795236
 20
1208.466667
 30
0.0
 11
2209.795236
 21
1058.466667
 31
0.0
  0
LWPOLYLINE
  5
78
102
{ACAD_REACTORS
330
79
102
}
100
AcDbEntity
  8
OBSTACLE
  6
CONTINUOUS
100
AcDbPolyline
 90
        4
 70
     1
 10
1109.795236
 20
1058.466667
 10
2159.795236
 20
1058.466667
 10
2159.795236
 20
1108.466667
 10
1109.795236
 20
1108.466667
  0
HATCH
  5
79
102
{ACAD_REACTORS
330
62
102
}
100
AcDbEntity
  8
OBSTACLE
 62
    49
100
AcDbHatch
 10
0.0
 20
0.0
 30
0.0
210
0.0
220
0.0
230
1.0
  2
SOLID
 70
     1
 71
     1
 91
        1
 92
        3
 72
     0
 73
     1
 93
        4
 10
1109.7952361111161
 20
1058.4666666666628
 10
2159.7952361111161
 20
1058.4666666666628
 10
2159.7952361111161
 20
1108.4666666666628
 10
1109.7952361111161
 20
1108.4666666666628
 97
        1
330
78
 75
     0
 76
     1
 98
        0
  0
LWPOLYLINE
  5
7A
102
{ACAD_REACTORS
330
7B
102
}
100
AcDbEntity
  8
OBSTACLE
  6
CONTINUOUS
100
AcDbPolyline
 90
        4
 70
     1
 10
1109.795236
 20
1108.466667
 10
1160.204764
 20
1108.466667
 10
1160.204764
 20
1058.466667
 10
1109.795236
 20
1058.466667
  0
HATCH
  5
7B
102
{ACAD_REACTORS
330
62
102
}
100
AcDbEntity
  8
OBSTACLE
 62
    49
100
AcDbHatch
 10
0.0
 20
0.0
 30
0.0
210
0.0
220
0.0
230
1.0
  2
SOLID
 70
     1
 71
     1
 91
        1
 92
        3
 72
     0
 73
     1
 93
        4
 10
1109.7952361111163
 20
1108.4666666666628
 10
1160.2047638888944
 20
1108.4666666666628
 10
1160.2047638888944
 20
1058.4666666666628
 10
1109.7952361111163
 20
1058.4666666666628
 97
        1
330
7A
 75
     0
 76
     1
 98
        0
  0
LWPOLYLINE
  5
7D
102
{ACAD_REACTORS
330
7E
102
}
100
AcDbEntity
  8
WALL
  6
CONTINUOUS
100
AcDbPolyline
 90
        4
 70
     1
 10
203.846178
 20
1573.8615
 10
3241.940139
 20
8056.662623
 10
3337.205602
 20
7906.463193
 10
353.531724
 20
1539.785724
  0
HATCH
  5
7E
102
{ACAD_REACTORS
330
7C
102
}
100
AcDbEntity
  8
WALL
 62
   251
100
AcDbHatch
 10
0.0
 20
0.0
 30
0.0
210
0.0
220
0.0
230
1.0
  2
SOLID
 70
     1
 71
     1
 91
        1
 92
        3
 72
     0
 73
     1
 93
        4
 10
203.84617833519053
 20
1573.8615004847286
 10
3241.9401385452807
 20
8056.6626231861155
 10
3337.2056020727996
 20
7906.463193254639
 10
353.531724175742
 20
1539.7857241785111
 97
        1
330
7D
 75
     0
 76
     1
 98
        0
  0
LINE
  5
7F
102
{ACAD_REACTORS
330
7C
102
}
100
AcDbEntity
  8
WALL
  6
CONTINUOUS
100
AcDbLine
 10
203.846178
 20
1573.8615
 30
0.0
 11
3241.940139
 21
8056.662623
 31
0.0
  0
LINE
  5
80
102
{ACAD_REACTORS
330
7C
102
}
100
AcDbEntity
  8
WALL
  6
CONTINUOUS
100
AcDbLine
 10
353.531724
 20
1539.785724
 30
0.0
 11
3337.205602
 21
7906.463193
 31
0.0
  0
LWPOLYLINE
  5
82
102
{ACAD_REACTORS
330
83
102
}
100
AcDbEntity
  8
WALL
  6
CONTINUOUS
100
AcDbPolyline
 90
        4
 70
     1
 10
3241.940139
 20
8056.662623
 10
3860.223639
 20
8055.370427
 10
3860.008634
 20
7905.370549
 10
3337.205602
 20
7906.463193
  0
HATCH
  5
83
102
{ACAD_REACTORS
330
81
102
}
100
AcDbEntity
  8
WALL
 62
   251
100
AcDbHatch
 10
0.0
 20
0.0
 30
0.0
210
0.0
220
0.0
230
1.0
  2
SOLID
 70
     1
 71
     1
 91
        1
 92
        3
 72
     0
 73
     1
 93
        4
 10
3241.9401385452807
 20
8056.6626231861119
 10
3860.2236390393095
 20
8055.3704268061683
 10
3860.0086344845704
 20
7905.3705485611163
 10
3337.2056020728019
 20
7906.4631932546363
 97
        1
330
82
 75
     0
 76
     1
 98
        0
  0
LWPOLYLINE
  5
84
102
{ACAD_REACTORS
330
85
102
}
100
AcDbEntity
  8
WALL
  6
CONTINUOUS
100
AcDbPolyline
 90
        4
 70
     1
 10
3860.223639
 20
8055.370427
 10
3860.008634
 20
7905.370549
 10
3875.008619
 20
7905.349048
 10
3875.223624
 20
8055.348926
  0
HATCH
  5
85
102
{ACAD_REACTORS
330
81
102
}
100
AcDbEntity
  8
WALL
 62
   251
100
AcDbHatch
 10
0.0
 20
0.0
 30
0.0
210
0.0
220
0.0
230
1.0
  2
SOLID
 70
     1
 71
     1
 91
        1
 92
        3
 72
     0
 73
     1
 93
        4
 10
3860.2236390393077
 20
8055.3704268061683
 10
3860.0086344845722
 20
7905.3705485611163
 10
3875.0086190755846
 20
7905.3490481102772
 10
3875.2236236303211
 20
8055.3489263553301
 97
        1
330
84
 75
     0
 76
     1
 98
        0
  0
LINE
  5
86
102
{ACAD_REACTORS
330
81
102
}
100
AcDbEntity
  8
WALL
  6
CONTINUOUS
100
AcDbLine
 10
3241.940139
 20
8056.662623
 30
0.0
 11
3860.223639
 21
8055.370427
 31
0.0
  0
LINE
  5
87
102
{ACAD_REACTORS
330
81
102
}
100
AcDbEntity
  8
WALL
  6
CONTINUOUS
100
AcDbLine
 10
3337.205602
 20
7906.463193
 30
0.0
 11
3860.008634
 21
7905.370549
 31
0.0
  0
ENDSEC
  0
SECTION
  2
OBJECTS
  0
DICTIONARY
  5
C
100
AcDbDictionary
  3
ACAD_GROUP
350
D
  3
ACAD_MLINESTYLE
350
1B
  0
DICTIONARY
  5
D
102
{ACAD_REACTORS
330
C
102
}
100
AcDbDictionary
  3
VISIOGROUP_0
350
31
  3
VISIOGROUP_1
350
3B
  3
VISIOGROUP_2
350
41
  3
VISIOGROUP_3
350
46
  3
VISIOGROUP_4
350
59
  3
VISIOGROUP_5
350
5E
  3
VISIOGROUP_6
350
62
  3
VISIOGROUP_7
350
7C
  3
VISIOGROUP_8
350
81
  0
DICTIONARY
  5
1B
102
{ACAD_REACTORS
330
C
102
}
100
AcDbDictionary
  3
STANDARD
350
1C
  0
MLINESTYLE
  5
1C
102
{ACAD_REACTORS
330
1B
102
}
100
AcDbMlineStyle
  2
STANDARD
 70
     0
  3

 62
   256
 51
90.0
 52
90.0
 71
     2
 49
0.5
 62
   256
  6
BYLAYER
 49
-0.5
 62
   256
  6
BYLAYER
  0
DICTIONARY
  5
29
102
{ACAD_REACTORS
330
C
102
}
100
AcDbDictionary
  3
MODEL
350
2A
  3
LAYOUT1
350
2B
  0
DICTIONARY
  5
2C
102
{ACAD_REACTORS
330
C
102
}
100
AcDbDictionary
  0
GROUP
  5
31
102
{ACAD_REACTORS
330
D
102
}
100
AcDbGroup
300
Group created by Visio.
 70
     0
 71
     1
340
33
340
35
340
36
340
37
340
38
340
34
340
39
340
3A
  0
GROUP
  5
3B
102
{ACAD_REACTORS
330
D
102
}
100
AcDbGroup
300
Group created by Visio.
 70
     0
 71
     1
340
3D
340
3E
340
3F
340
40
  0
GROUP
  5
41
102
{ACAD_REACTORS
330
D
102
}
100
AcDbGroup
300
Group created by Visio.
 70
     0
 71
     1
340
42
340
43
340
44
340
45
  0
GROUP
  5
46
102
{ACAD_REACTORS
330
D
102
}
100
AcDbGroup
300
Group created by Visio.
 70
     0
 71
     1
340
47
340
48
340
49
340
4A
  0
GROUP
  5
59
102
{ACAD_REACTORS
330
D
102
}
100
AcDbGroup
300
Group created by Visio.
 70
     0
 71
     1
340
5A
340
5C
340
5D
340
5B
  0
GROUP
  5
5E
102
{ACAD_REACTORS
330
D
102
}
100
AcDbGroup
300
Group created by Visio.
 70
     0
 71
     1
340
5F
340
60
340
61
  0
GROUP
  5
62
102
{ACAD_REACTORS
330
D
102
}
100
AcDbGroup
300
Group created by Visio.
 70
     0
 71
     1
340
63
340
64
340
65
340
66
340
67
340
68
340
6A
340
6B
340
6C
340
6D
340
6E
340
69
340
6F
340
70
340
71
340
73
340
74
340
75
340
72
340
76
340
77
340
78
340
79
340
7A
340
7B
  0
GROUP
  5
7C
102
{ACAD_REACTORS
330
D
102
}
100
AcDbGroup
300
Group created by Visio.
 70
     0
 71
     1
340
7D
340
7E
340
7F
340
80
  0
GROUP
  5
81
102
{ACAD_REACTORS
330
D
102
}
100
AcDbGroup
300
Group created by Visio.
 70
     0
 71
     1
340
82
340
83
340
84
340
85
340
86
340
87
  0
ENDSEC
  0
EOF
