  0
SECTION
  2
HEADER
  9
$ACADVER
  1
AC1014
  9
$ACADMAINTVER
 70
     0
  9
$DWGCODEPAGE
  3
ANSI_1252
  9
$INSBASE
 10
0.0
 20
0.0
 30
0.0
  9
$EXTMIN
 10
0.0
 20
0.0
 30
0.0
  9
$EXTMAX
 10
4200.819056
 20
8670.415327
 30
0.0
  9
$LIMMIN
 10
0.0
 20
0.0
  9
$LIMMAX
 10
12.0
 20
9.0
  9
$ORTHOMODE
 70
     0
  9
$REGENMODE
 70
     1
  9
$FILLMODE
 70
     0
  9
$QTEXTMODE
 70
     0
  9
$MIRRTEXT
 70
     1
  9
$DRAGMODE
 70
     2
  9
$LTSCALE
 40
1.0
  9
$OSMODE
 70
    37
  9
$ATTMODE
 70
     1
  9
$TEXTSIZE
 40
0.2
  9
$TRACEWID
 40
0.05
  9
$TEXTSTYLE
  7
STANDARD
  9
$CLAYER
  8
0
  9
$CELTYPE
  6
BYLAYER
  9
$CECOLOR
 62
   256
  9
$CELTSCALE
 40
1.0
  9
$DELOBJ
 70
     1
  9
$DISPSILH
 70
     0
  9
$DIMSCALE
 40
1.0
  9
$DIMASZ
 40
0.18
  9
$DIMEXO
 40
0.0625
  9
$DIMDLI
 40
0.38
  9
$DIMRND
 40
0.0
  9
$DIMDLE
 40
0.0
  9
$DIMEXE
 40
0.18
  9
$DIMTP
 40
0.0
  9
$DIMTM
 40
0.0
  9
$DIMTXT
 40
0.18
  9
$DIMCEN
 40
0.09
  9
$DIMTSZ
 40
0.0
  9
$DIMTOL
 70
     0
  9
$DIMLIM
 70
     0
  9
$DIMTIH
 70
     0
  9
$DIMTOH
 70
     0
  9
$DIMSE1
 70
     0
  9
$DIMSE2
 70
     0
  9
$DIMTAD
 70
     1
  9
$DIMZIN
 70
     0
  9
$DIMBLK
  1

  9
$DIMASO
 70
     1
  9
$DIMSHO
 70
     1
  9
$DIMPOST
  1

  9
$DIMAPOST
  1

  9
$DIMALT
 70
     0
  9
$DIMALTD
 70
     2
  9
$DIMALTF
 40
25.4
  9
$DIMLFAC
 40
1.0
  9
$DIMTOFL
 70
     0
  9
$DIMTVP
 40
0.0
  9
$DIMTIX
 70
     0
  9
$DIMSOXD
 70
     0
  9
$DIMSAH
 70
     0
  9
$DIMBLK1
  1

  9
$DIMBLK2
  1

  9
$DIMSTYLE
  2
STANDARD
  9
$DIMCLRD
 70
     0
  9
$DIMCLRE
 70
     0
  9
$DIMCLRT
 70
     0
  9
$DIMTFAC
 40
1.0
  9
$DIMGAP
 40
0.09
  9
$DIMJUST
 70
     0
  9
$DIMSD1
 70
     0
  9
$DIMSD2
 70
     0
  9
$DIMTOLJ
 70
     1
  9
$DIMTZIN
 70
     0
  9
$DIMALTZ
 70
     0
  9
$DIMALTTZ
 70
     0
  9
$DIMFIT
 70
     5
  9
$DIMUPT
 70
     0
  9
$DIMUNIT
 70
     2
  9
$DIMDEC
 70
     2
  9
$DIMTDEC
 70
     4
  9
$DIMALTU
 70
     2
  9
$DIMALTTD
 70
     2
  9
$DIMTXSTY
  7
STANDARD
  9
$DIMAUNIT
 70
     0
  9
$LUNITS
 70
     2
  9
$LUPREC
 70
     4
  9
$SKETCHINC
 40
0.1
  9
$FILLETRAD
 40
0.5
  9
$AUNITS
 70
     0
  9
$AUPREC
 70
     0
  9
$MENU
  1
.
  9
$ELEVATION
 40
0.0
  9
$PELEVATION
 40
0.0
  9
$THICKNESS
 40
0.0
  9
$LIMCHECK
 70
     0
  9
$BLIPMODE
 70
     0
  9
$CHAMFERA
 40
0.5
  9
$CHAMFERB
 40
0.5
  9
$CHAMFERC
 40
1.0
  9
$CHAMFERD
 40
0.0
  9
$SKPOLY
 70
     0
  9
$TDCREATE
 40
2450772.666465926
  9
$TDUPDATE
 40
2456504.109942130
  9
$TDINDWG
 40
0.0011680787
  9
$TDUSRTIMER
 40
0.0011680787
  9
$USRTIMER
 70
     1
  9
$ANGBASE
 50
0.0
  9
$ANGDIR
 70
     0
  9
$PDMODE
 70
     0
  9
$PDSIZE
 40
0.0
  9
$PLINEWID
 40
0.0
  9
$COORDS
 70
     1
  9
$SPLFRAME
 70
     0
  9
$SPLINETYPE
 70
     6
  9
$SPLINESEGS
 70
     8
  9
$ATTDIA
 70
     0
  9
$ATTREQ
 70
     1
  9
$HANDLING
 70
     1
  9
$HANDSEED
  5
244
  9
$SURFTAB1
 70
     6
  9
$SURFTAB2
 70
     6
  9
$SURFTYPE
 70
     6
  9
$SURFU
 70
     6
  9
$SURFV
 70
     6
  9
$UCSNAME
  2

  9
$UCSORG
 10
0.0
 20
0.0
 30
0.0
  9
$UCSXDIR
 10
1.0
 20
0.0
 30
0.0
  9
$UCSYDIR
 10
0.0
 20
1.0
 30
0.0
  9
$PUCSNAME
  2

  9
$PUCSORG
 10
0.0
 20
0.0
 30
0.0
  9
$PUCSXDIR
 10
1.0
 20
0.0
 30
0.0
  9
$PUCSYDIR
 10
0.0
 20
1.0
 30
0.0
  9
$USERI1
 70
     0
  9
$USERI2
 70
     0
  9
$USERI3
 70
     0
  9
$USERI4
 70
     0
  9
$USERI5
 70
     0
  9
$USERR1
 40
0.0
  9
$USERR2
 40
0.0
  9
$USERR3
 40
0.0
  9
$USERR4
 40
0.0
  9
$USERR5
 40
0.0
  9
$WORLDVIEW
 70
     1
  9
$SHADEDGE
 70
     3
  9
$SHADEDIF
 70
    70
  9
$TILEMODE
 70
     1
  9
$MAXACTVP
 70
    48
  9
$PINSBASE
 10
0.0
 20
0.0
 30
0.0
  9
$PLIMCHECK
 70
     0
  9
$PEXTMIN
 10
0.0
 20
0.0
 30
0.0
  9
$PEXTMAX
 10
0.0
 20
0.0
 30
0.0
  9
$PLIMMIN
 10
0.0
 20
0.0
  9
$PLIMMAX
 10
12.0
 20
9.0
  9
$UNITMODE
 70
     0
  9
$VISRETAIN
 70
     1
  9
$PLINEGEN
 70
     0
  9
$PSLTSCALE
 70
     1
  9
$TREEDEPTH
 70
  3020
  9
$PICKSTYLE
 70
     1
  9
$CMLSTYLE
  2
STANDARD
  9
$CMLJUST
 70
     0
  9
$CMLSCALE
 40
1.0
  9
$PROXYGRAPHICS
 70
     1
  9
$MEASUREMENT
 70
     0
  0
ENDSEC
  0
SECTION
  2
CLASSES
  0
CLASS
  1
LWPOLYLINE
  2
AcDbPolyline
  3
AutoCAD 2000
 90
       20
280
     0
281
     1
  0
CLASS
  1
IMAGE
  2
AcDbRasterImage
  3
ISM
 90
       21
280
     0
281
     1
  0
CLASS
  1
OLE2FRAME
  2
AcDbOle2Frame
  3
AutoCAD 2000
 90
       21
280
     0
281
     1
  0
CLASS
  1
HATCH
  2
AcDbHatch
  3
AutoCAD 2000
 90
       20
280
     0
281
     1
  0
CLASS
  1
DICTIONARYVAR
  2
AcDbDictionaryVar
  3
ObjectDBX Classes
 90
       20
280
     0
281
     0
  0
CLASS
  1
RASTERVARIABLES
  2
AcDbRasterVariables
  3
ISM
 90
       21
280
     0
281
     0
  0
CLASS
  1
IMAGEDEF
  2
AcDbRasterImageDef
  3
ISM
 90
       21
280
     0
281
     0
  0
CLASS
  1
IMAGEDEF_REACTOR
  2
AcDbRasterImageDefReactor
  3
ISM
 90
       21
280
     0
281
     0
  0
CLASS
  1
IDBUFFER
  2
AcDbIdBuffer
  3
ObjectDBX Classes
 90
       20
280
     0
281
     0
  0
CLASS
  1
SPATIAL_FILTER
  2
AcDbSpatialFilter
  3
ObjectDBX Classes
 90
       20
280
     0
281
     0
  0
CLASS
  1
XRECORD
  2
AcDbXrecord
  3
AutoCAD 2000
 90
       21
280
     0
281
     0
  0
CLASS
  1
SORTENTSTABLE
  2
AcDbSortentsTable
  3
"AutoCAD"
 90
        0
280
     0
281
     0
  0
CLASS
  1
LAYER_INDEX
  2
AcDbLayerIndex
  3
"Acad"
 90
        0
280
     0
281
     0
  0
CLASS
  1
SPATIAL_INDEX
  2
AcDbSpatialIndex
  3
"Acad"
 90
        0
280
     0
281
     0
  0
CLASS
  1
OBJECT_PTR
  2
CAseDLPNTableRecord
  3
"ASE-LPNTableRecord"
 90
        1
280
     0
281
     0
  0
CLASS
  1
LAYOUT
  2
AcDbLayout
  3
"AutoCAD 2000"
 90
        1
280
     0
281
     0
  0
CLASS
  1
PLOTSETTINGS
  2
AcDbPlotsettings
  3
"AutoCAD 2000"
 90
        1
280
     0
281
     0
  0
CLASS
  1
ACDBDICTIONARYWDFLT
  2
AcDbDictionaryWithDefault
  3
"AutoCAD 2000"
 90
        1
280
     0
281
     0
  0
CLASS
  1
ACDBPLACEHOLDER
  2
AcDbPlaceholder
  3
"AutoCAD 2000"
 90
        1
280
     0
281
     0
  0
CLASS
  1
VBA_PROJECT
  2
AcDbVbaProject
  3
"AutoCAD 2000"
 90
        1
280
     0
281
     0
  0
CLASS
  1
WIPEOUT
  2
AcDbWipeout
  3
"AutoCAD 2000"
 90
        1
280
     0
281
     1
  0
CLASS
  1
WIPEOUTVARIABLES
  2
AcDbWipeoutVariables
  3
"AutoCAD 2000"
 90
        1
280
     0
281
     0
  0
CLASS
  1
RTEXT
  2
RText
  3
RText|AutoCAD Express Tool|expresstools@autodesk.com
 90
        1
280
     0
281
     1
  0
CLASS
  1
ARCALIGNEDTEXT
  2
AcDbArcAlignedText
  3
RText|AutoCAD Express Tool|expresstools@autodesk.com
 90
        1
280
     0
281
     1
  0
ENDSEC
  0
SECTION
  2
TABLES
  0
TABLE
  2
VPORT
  5
8
100
AcDbSymbolTable
 70
     1
  0
VPORT
  5
25
100
AcDbSymbolTableRecord
100
AcDbViewportTableRecord
  2
*ACTIVE
 70
     0
 10
0.0
 20
0.0
 11
1.0
 21
1.0
 12
2100.409528
 22
4335.207664
 13
0.0
 23
0.0
 14
0.5
 24
0.5
 15
0.5
 25
0.5
 16
0.0
 26
0.0
 36
1.0
 17
0.0
 27
0.0
 37
0.0
 40
8670.415327
 41
0.4845
 42
50.0
 43
0.0
 44
0.0
 50
0.0
 51
0.0
 71
     0
 72
   100
 73
     1
 74
     1
 75
     0
 76
     0
 77
     0
 78
     0
  0
ENDTAB
  0
TABLE
  2
LTYPE
  5
5
100
AcDbSymbolTable
 70
     3
  0
LTYPE
  5
12
100
AcDbSymbolTableRecord
100
AcDbLinetypeTableRecord
  2
BYBLOCK
 70
     0
  3

 72
    65
 73
     0
 40
0.0
  0
LTYPE
  5
13
100
AcDbSymbolTableRecord
100
AcDbLinetypeTableRecord
  2
BYLAYER
 70
     0
  3

 72
    65
 73
     0
 40
0.0
  0
LTYPE
  5
14
100
AcDbSymbolTableRecord
100
AcDbLinetypeTableRecord
  2
CONTINUOUS
 70
     0
  3
Solid line
 72
    65
 73
     0
 40
0.0
  0
ENDTAB
  0
TABLE
  2
LAYER
  5
2
100
AcDbSymbolTable
 70
     6
  0
LAYER
  5
E
100
AcDbSymbolTableRecord
100
AcDbLayerTableRecord
  2
0
 70
     0
 62
     7
  6
CONTINUOUS
  0
LAYER
  5
32
100
AcDbSymbolTableRecord
100
AcDbLayerTableRecord
  2
OBSTACLE
 70
     0
 62
     7
  6
CONTINUOUS
  0
LAYER
  5
3C
100
AcDbSymbolTableRecord
100
AcDbLayerTableRecord
  2
WALL
 70
     0
 62
     7
  6
CONTINUOUS
  0
LAYER
  5
4B
100
AcDbSymbolTableRecord
100
AcDbLayerTableRecord
  2
MOUNTABLE
 70
     0
 62
     7
  6
CONTINUOUS
  0
LAYER
  5
4E
100
AcDbSymbolTableRecord
100
AcDbLayerTableRecord
  2
OCCUPIED
 70
     0
 62
     7
  6
CONTINUOUS
  0
LAYER
  5
F0
100
AcDbSymbolTableRecord
100
AcDbLayerTableRecord
  2
WP
 70
     0
 62
     7
  6
CONTINUOUS
  0
ENDTAB
  0
TABLE
  2
STYLE
  5
3
100
AcDbSymbolTable
 70
     1
  0
STYLE
  5
F
100
AcDbSymbolTableRecord
100
AcDbTextStyleTableRecord
  2
STANDARD
 70
     0
 40
0.0
 41
1.0
 50
0.0
 71
     0
 42
0.2
  3
txt.shx
  4

  0
ENDTAB
  0
TABLE
  2
VIEW
  5
6
100
AcDbSymbolTable
 70
     0
  0
ENDTAB
  0
TABLE
  2
UCS
  5
7
100
AcDbSymbolTable
 70
     0
  0
ENDTAB
  0
TABLE
  2
APPID
  5
9
100
AcDbSymbolTable
 70
     1
  0
APPID
  5
10
100
AcDbSymbolTableRecord
100
AcDbRegAppTableRecord
  2
ACAD
 70
     0
  0
ENDTAB
  0
TABLE
  2
DIMSTYLE
  5
A
100
AcDbSymbolTable
 70
     1
  0
DIMSTYLE
105
1D
100
AcDbSymbolTableRecord
100
AcDbDimStyleTableRecord
  2
STANDARD
 70
     0
  3

  4

  5

  6

  7

 40
1.0
 41
0.18
 42
0.0625
 43
0.38
 44
0.18
 45
0.0
 46
0.0
 47
0.0
 48
0.0
 71
     0
 72
     0
 73
     1
 74
     1
 75
     0
 76
     0
 77
     0
 78
     0
140
0.18
141
0.09
142
0.0
143
25.4
144
1.0
145
0.0
146
1.0
147
0.09
170
     0
171
     2
172
     0
173
     0
174
     0
175
     0
176
     0
177
     0
178
     0
270
     2
271
     4
272
     4
273
     2
274
     2
275
     0
280
     0
281
     0
282
     0
283
     1
284
     0
285
     0
286
     0
287
     3
288
     0
340
F
  0
ENDTAB
  0
TABLE
  2
BLOCK_RECORD
  5
1
100
AcDbSymbolTable
 70
    15
  0
BLOCK_RECORD
  5
18
100
AcDbSymbolTableRecord
100
AcDbBlockTableRecord
  2
*MODEL_SPACE
  0
BLOCK_RECORD
  5
15
100
AcDbSymbolTableRecord
100
AcDbBlockTableRecord
  2
*PAPER_SPACE
  0
BLOCK_RECORD
  5
92
100
AcDbSymbolTableRecord
100
AcDbBlockTableRecord
  2
STUHL
  0
BLOCK_RECORD
  5
C6
100
AcDbSymbolTableRecord
100
AcDbBlockTableRecord
  2
RAUM
  0
BLOCK_RECORD
  5
D9
100
AcDbSymbolTableRecord
100
AcDbBlockTableRecord
  2
TAFEL
  0
BLOCK_RECORD
  5
F4
100
AcDbSymbolTableRecord
100
AcDbBlockTableRecord
  2
ARCHIVSCHRANK
  0
BLOCK_RECORD
  5
114
100
AcDbSymbolTableRecord
100
AcDbBlockTableRecord
  2
FENSTER
  0
BLOCK_RECORD
  5
127
100
AcDbSymbolTableRecord
100
AcDbBlockTableRecord
  2
RECHTECKIGER_TISCH
  0
BLOCK_RECORD
  5
142
100
AcDbSymbolTableRecord
100
AcDbBlockTableRecord
  2
REGAL
  0
BLOCK_RECORD
  5
15E
100
AcDbSymbolTableRecord
100
AcDbBlockTableRecord
  2
OFFENES_REGAL
  0
BLOCK_RECORD
  5
17C
100
AcDbSymbolTableRecord
100
AcDbBlockTableRecord
  2
KLEINE_PFLANZE
  0
BLOCK_RECORD
  5
1FE
100
AcDbSymbolTableRecord
100
AcDbBlockTableRecord
  2
UNGLEICH
  0
BLOCK_RECORD
  5
218
100
AcDbSymbolTableRecord
100
AcDbBlockTableRecord
  2
LATERAL_FILE
  0
BLOCK_RECORD
  5
231
100
AcDbSymbolTableRecord
100
AcDbBlockTableRecord
  2
MARKER_BOARD
  0
BLOCK_RECORD
  5
236
100
AcDbSymbolTableRecord
100
AcDbBlockTableRecord
  2
SQUARE
  0
BLOCK_RECORD
  5
23A
100
AcDbSymbolTableRecord
100
AcDbBlockTableRecord
  2
RECTANGLE
  0
BLOCK_RECORD
  5
23E
100
AcDbSymbolTableRecord
100
AcDbBlockTableRecord
  2
DATA_POINT
  0
ENDTAB
  0
ENDSEC
  0
SECTION
  2
BLOCKS
  0
BLOCK
  5
19
100
AcDbEntity
  8
0
100
AcDbBlockBegin
  2
*MODEL_SPACE
 70
     0
 10
0.0
 20
0.0
 30
0.0
  3
*MODEL_SPACE
  1

  0
ENDBLK
  5
1A
100
AcDbEntity
  8
0
100
AcDbBlockEnd
  0
BLOCK
  5
16
100
AcDbEntity
 67
     1
  8
0
100
AcDbBlockBegin
  2
*PAPER_SPACE
 70
     0
 10
0.0
 20
0.0
 30
0.0
  3
*PAPER_SPACE
  1

  0
ENDBLK
  5
17
100
AcDbEntity
 67
     1
  8
0
100
AcDbBlockEnd
  0
BLOCK
  5
93
100
AcDbEntity
  8
0
100
AcDbBlockBegin
  2
STUHL
 70
     2
 10
0.0
 20
0.0
 30
0.0
  3
STUHL
  1

  0
ATTDEF
  5
94
100
AcDbEntity
  8
0
100
AcDbText
 10
1500.0
 20
1500.0
 30
0.0
 40
0.2
  1
Posten
100
AcDbAttributeDefinition
  3
ShapeClass
  2
SHAPECLASS
 70
     0
  0
ATTDEF
  5
95
100
AcDbEntity
  8
0
100
AcDbText
 10
1500.0
 20
1500.0
 30
0.0
 40
0.2
  1
M\U+00F6bel
100
AcDbAttributeDefinition
  3
ShapeType
  2
SHAPETYPE
 70
     0
  0
ATTDEF
  5
96
100
AcDbEntity
  8
0
100
AcDbText
 10
1500.0
 20
1500.0
 30
0.0
 40
0.2
  1
Stuhl
100
AcDbAttributeDefinition
  3
SubShapeType
  2
SUBSHAPETYPE
 70
     0
  0
ATTDEF
  5
97
100
AcDbEntity
  8
0
100
AcDbText
 10
1500.0
 20
1500.0
 30
0.0
 40
0.2
  1
0
100
AcDbAttributeDefinition
  3
ID
  2
ID
 70
     0
  0
ATTDEF
  5
98
100
AcDbEntity
  8
0
100
AcDbText
 10
1500.0
 20
1500.0
 30
0.0
 40
0.2
  1
0
100
AcDbAttributeDefinition
  3
Name
  2
NAME
 70
     0
  0
ATTDEF
  5
99
100
AcDbEntity
  8
0
100
AcDbText
 10
1500.0
 20
1500.0
 30
0.0
 40
0.2
  1
0
100
AcDbAttributeDefinition
  3
Abteilung
  2
DEPARTMENT
 70
     0
  0
ATTDEF
  5
9A
100
AcDbEntity
  8
0
100
AcDbText
 10
1500.0
 20
1500.0
 30
0.0
 40
0.2
  1
0
100
AcDbAttributeDefinition
  3
Geh\U+00F6rt
  2
BELONGSTO
 70
     0
  0
ATTDEF
  5
9B
100
AcDbEntity
  8
0
100
AcDbText
 10
1500.0
 20
1500.0
 30
0.0
 40
0.2
  1
0
100
AcDbAttributeDefinition
  3
Ge\U+00E4ndert
  2
MODIFY
 70
     0
  0
ATTDEF
  5
9C
100
AcDbEntity
  8
0
100
AcDbText
 10
1500.0
 20
1500.0
 30
0.0
 40
0.2
  1
0
100
AcDbAttributeDefinition
  3
Inventarnummer
  2
ASSETNUMBER
 70
     0
  0
ATTDEF
  5
9D
100
AcDbEntity
  8
0
100
AcDbText
 10
1500.0
 20
1500.0
 30
0.0
 40
0.2
  1
0
100
AcDbAttributeDefinition
  3
Seriennummer
  2
SERIALNUMBER
 70
     0
  0
ATTDEF
  5
9E
100
AcDbEntity
  8
0
100
AcDbText
 10
1500.0
 20
1500.0
 30
0.0
 40
0.2
  1
0
100
AcDbAttributeDefinition
  3
Hersteller
  2
MANUFACTURER
 70
     0
  0
ATTDEF
  5
9F
100
AcDbEntity
  8
0
100
AcDbText
 10
1500.0
 20
1500.0
 30
0.0
 40
0.2
  1
0
100
AcDbAttributeDefinition
  3
Modell-ID oder -markierung
  2
MODELID
 70
     0
  0
ATTDEF
  5
A0
100
AcDbEntity
  8
0
100
AcDbText
 10
1500.0
 20
1500.0
 30
0.0
 40
0.2
  1
0
100
AcDbAttributeDefinition
  3
Modellname
  2
MODELNAME
 70
     0
  0
ATTDEF
  5
A1
100
AcDbEntity
  8
0
100
AcDbText
 10
1500.0
 20
1500.0
 30
0.0
 40
0.2
  1
0
100
AcDbAttributeDefinition
  3
Produktbeschreibung
  2
PRODUCTDESCRIPTION
 70
     0
  0
ATTDEF
  5
A2
100
AcDbEntity
  8
0
100
AcDbText
 10
1500.0
 20
1500.0
 30
0.0
 40
0.2
  1
0
100
AcDbAttributeDefinition
  3
Einkaufsdatum
  2
PURCHASEDATE
 70
     0
  0
ATTDEF
  5
A3
100
AcDbEntity
  8
0
100
AcDbText
 10
1500.0
 20
1500.0
 30
0.0
 40
0.2
  1
0
100
AcDbAttributeDefinition
  3
Liste der Optionen
  2
OPTIONSLIST
 70
     0
  0
ATTDEF
  5
A4
100
AcDbEntity
  8
0
100
AcDbText
 10
1500.0
 20
1500.0
 30
0.0
 40
0.2
  1
0
100
AcDbAttributeDefinition
  3
Katalog-URL
  2
CATALOGURL
 70
     0
  0
ATTDEF
  5
A5
100
AcDbEntity
  8
0
100
AcDbText
 10
1500.0
 20
1500.0
 30
0.0
 40
0.2
  1
0
100
AcDbAttributeDefinition
  3
Klassifizierung
  2
CLASSIFICATION
 70
     0
  0
ATTDEF
  5
A6
100
AcDbEntity
  8
0
100
AcDbText
 10
1500.0
 20
1500.0
 30
0.0
 40
0.2
  1
0
100
AcDbAttributeDefinition
  3
Klassifizierungsquelle
  2
CLASSIFICATIONSOURCE
 70
     0
  0
ATTDEF
  5
A7
100
AcDbEntity
  8
0
100
AcDbText
 10
1500.0
 20
1500.0
 30
0.0
 40
0.2
  1
0
100
AcDbAttributeDefinition
  3
Produktnummer
  2
PRODUCTNUMBER
 70
     0
  0
ATTDEF
  5
A8
100
AcDbEntity
  8
0
100
AcDbText
 10
1500.0
 20
1500.0
 30
0.0
 40
0.2
  1
0
100
AcDbAttributeDefinition
  3
Base elevation
  2
BASEELEVATION
 70
     0
  0
ELLIPSE
  5
A9
102
{ACAD_REACTORS
330
C9
102
}
100
AcDbEntity
  8
OBSTACLE
  6
CONTINUOUS
 62
     7
100
AcDbEllipse
 10
1281.060176
 20
1697.191789
 30
0.0
 11
-50.749841925788161
 21
0.0000000000000389
 31
0.0
210
0.0
220
0.0
230
1.0
 40
0.993661
 41
-3.1415925397131059
 42
-2.7776248049770018
  0
ELLIPSE
  5
AA
102
{ACAD_REACTORS
330
C9
102
}
100
AcDbEntity
  8
OBSTACLE
  6
CONTINUOUS
 62
     7
100
AcDbEllipse
 10
1281.060249
 20
1697.19179
 30
0.0
 11
-50.749768880213871
 21
0.0000000000000389
 31
0.0
210
0.0
220
0.0
230
1.0
 40
0.993661
 41
2.9483770829299987
 42
3.1415927477635628
  0
LINE
  5
AB
102
{ACAD_REACTORS
330
C9
102
}
100
AcDbEntity
  8
OBSTACLE
  6
CONTINUOUS
 62
     7
100
AcDbLine
 10
1330.86566
 20
1687.50881
 30
0.0
 11
1312.652786
 21
1500.763077
 31
0.0
  0
LINE
  5
AC
102
{ACAD_REACTORS
330
C9
102
}
100
AcDbEntity
  8
OBSTACLE
  6
CONTINUOUS
 62
     7
100
AcDbLine
 10
1312.652786
 20
1500.763077
 30
0.0
 11
1330.86566
 21
1314.017347
 31
0.0
  0
ELLIPSE
  5
AD
102
{ACAD_REACTORS
330
C9
102
}
100
AcDbEntity
  8
OBSTACLE
  6
CONTINUOUS
 62
     7
100
AcDbEllipse
 10
1281.060251
 20
1304.334367
 30
0.0
 11
50.749767297942064
 21
0.0
 31
0.0
210
0.0
220
0.0
230
1.0
 40
0.993661
 41
-0.0000001437279904
 42
0.1932155736812382
  0
ELLIPSE
  5
AE
102
{ACAD_REACTORS
330
C9
102
}
100
AcDbEntity
  8
OBSTACLE
  6
CONTINUOUS
 62
     7
100
AcDbEllipse
 10
1281.060149
 20
1304.33437
 30
0.0
 11
50.749869078876863
 21
0.0
 31
0.0
210
0.0
220
0.0
230
1.0
 40
0.993661
 41
-0.3868147344182142
 42
-0.0000002003987607
  0
ARC
  5
AF
102
{ACAD_REACTORS
330
C9
102
}
100
AcDbEntity
  8
OBSTACLE
  6
CONTINUOUS
 62
     7
100
AcDbCircle
 10
1437.941008
 20
1387.671246
 30
0.0
 40
150.171264
100
AcDbArc
 50
222.970725
 51
270.028449
  0
LINE
  5
B0
102
{ACAD_REACTORS
330
C9
102
}
100
AcDbEntity
  8
OBSTACLE
  6
CONTINUOUS
 62
     7
100
AcDbLine
 10
1438.015572
 20
1237.5
 30
0.0
 11
1649.796286
 21
1237.5
 31
0.0
  0
ARC
  5
B1
102
{ACAD_REACTORS
330
C9
102
}
100
AcDbEntity
  8
OBSTACLE
  6
CONTINUOUS
 62
     7
100
AcDbCircle
 10
1649.898143
 20
1387.601857
 30
0.0
 40
150.101892
100
AcDbArc
 50
269.96112
 51
359.96112
  0
LINE
  5
B2
102
{ACAD_REACTORS
330
C9
102
}
100
AcDbEntity
  8
OBSTACLE
  6
CONTINUOUS
 62
     7
100
AcDbLine
 10
1800.0
 20
1387.5
 30
0.0
 11
1800.0
 21
1612.5
 31
0.0
  0
ARC
  5
B3
102
{ACAD_REACTORS
330
C9
102
}
100
AcDbEntity
  8
OBSTACLE
  6
CONTINUOUS
 62
     7
100
AcDbCircle
 10
1649.898143
 20
1612.398143
 30
0.0
 40
150.101892
100
AcDbArc
 50
0.03888
 51
90.03888
  0
LINE
  5
B4
102
{ACAD_REACTORS
330
C9
102
}
100
AcDbEntity
  8
OBSTACLE
  6
CONTINUOUS
 62
     7
100
AcDbLine
 10
1649.796286
 20
1762.5
 30
0.0
 11
1499.592571
 21
1762.5
 31
0.0
  0
LINE
  5
B5
102
{ACAD_REACTORS
330
C9
102
}
100
AcDbEntity
  8
OBSTACLE
  6
CONTINUOUS
 62
     7
100
AcDbLine
 10
1499.592571
 20
1762.5
 30
0.0
 11
1438.015572
 21
1762.5
 31
0.0
  0
ARC
  5
B6
102
{ACAD_REACTORS
330
C9
102
}
100
AcDbEntity
  8
OBSTACLE
  6
CONTINUOUS
 62
     7
100
AcDbCircle
 10
1437.941295
 20
1612.328445
 30
0.0
 40
150.171573
100
AcDbArc
 50
89.971661
 51
136.79189
  0
LINE
  5
B7
102
{ACAD_REACTORS
330
C9
102
}
100
AcDbEntity
  8
OBSTACLE
  6
CONTINUOUS
 62
     7
100
AcDbLine
 10
1200.073572
 20
1500.763077
 30
0.0
 11
1200.0
 21
1501.228485
 31
0.0
  0
LINE
  5
B8
102
{ACAD_REACTORS
330
C9
102
}
100
AcDbEntity
  8
OBSTACLE
  6
CONTINUOUS
 62
     7
100
AcDbLine
 10
1200.0
 20
1501.228485
 30
0.0
 11
1200.147145
 21
1501.228485
 31
0.0
  0
LINE
  5
B9
102
{ACAD_REACTORS
330
C9
102
}
100
AcDbEntity
  8
OBSTACLE
  6
CONTINUOUS
 62
     7
100
AcDbLine
 10
1200.147145
 20
1501.228485
 30
0.0
 11
1231.125294
 21
1697.191795
 31
0.0
  0
ELLIPSE
  5
BA
102
{ACAD_REACTORS
330
C9
102
}
100
AcDbEntity
  8
OBSTACLE
  6
CONTINUOUS
 62
     7
100
AcDbEllipse
 10
1281.875087
 20
1697.191796
 30
0.0
 11
-50.749793445387951
 21
0.0000000000000389
 31
0.0
210
0.0
220
0.0
230
1.0
 40
0.993661
 41
-1.5707963006199734
 42
0.0000000212194581
  0
ELLIPSE
  5
BB
102
{ACAD_REACTORS
330
C9
102
}
100
AcDbEntity
  8
OBSTACLE
  6
CONTINUOUS
 62
     7
100
AcDbEllipse
 10
1281.875082
 20
1697.191796
 30
0.0
 11
-50.749793445388029
 21
0.0000000000000389
 31
0.0
210
0.0
220
0.0
230
1.0
 40
0.993661
 41
3.1415926323703367
 42
4.712388904881605
  0
ELLIPSE
  5
BC
102
{ACAD_REACTORS
330
C9
102
}
100
AcDbEntity
  8
OBSTACLE
  6
CONTINUOUS
 62
     7
100
AcDbEllipse
 10
1281.875107
 20
1697.19179
 30
0.0
 11
-50.749768880272107
 21
0.0000000000000389
 31
0.0
210
0.0
220
0.0
230
1.0
 40
0.993661
 41
2.9483770829301257
 42
3.1415927477634686
  0
LINE
  5
BD
102
{ACAD_REACTORS
330
C9
102
}
100
AcDbEntity
  8
OBSTACLE
  6
CONTINUOUS
 62
     7
100
AcDbLine
 10
1331.680517
 20
1687.50881
 30
0.0
 11
1313.467643
 21
1500.763077
 31
0.0
  0
LINE
  5
BE
102
{ACAD_REACTORS
330
C9
102
}
100
AcDbEntity
  8
OBSTACLE
  6
CONTINUOUS
 62
     7
100
AcDbLine
 10
1313.467643
 20
1500.763077
 30
0.0
 11
1331.680517
 21
1314.017347
 31
0.0
  0
ELLIPSE
  5
BF
102
{ACAD_REACTORS
330
C9
102
}
100
AcDbEntity
  8
OBSTACLE
  6
CONTINUOUS
 62
     7
100
AcDbEllipse
 10
1281.875108
 20
1304.334367
 30
0.0
 11
50.749767297943521
 21
0.0000000000001803
 31
0.0
210
0.0
220
0.0
230
1.0
 40
0.993661
 41
-0.0000001437279928
 42
0.1932155736812301
  0
ELLIPSE
  5
C0
102
{ACAD_REACTORS
330
C9
102
}
100
AcDbEntity
  8
OBSTACLE
  6
CONTINUOUS
 62
     7
100
AcDbEllipse
 10
1281.875087
 20
1304.334358
 30
0.0
 11
50.749788748298371
 21
0.0000000000001803
 31
0.0
210
0.0
220
0.0
230
1.0
 40
0.993661
 41
-1.5707963438456645
 42
0.0000000483514886
  0
ELLIPSE
  5
C1
102
{ACAD_REACTORS
330
C9
102
}
100
AcDbEntity
  8
OBSTACLE
  6
CONTINUOUS
 62
     7
100
AcDbEllipse
 10
1281.875083
 20
1304.334358
 30
0.0
 11
50.749788748298542
 21
0.0000000000001803
 31
0.0
210
0.0
220
0.0
230
1.0
 40
0.993661
 41
3.1415926052382988
 42
4.7123890467636471
  0
LINE
  5
C2
102
{ACAD_REACTORS
330
C9
102
}
100
AcDbEntity
  8
OBSTACLE
  6
CONTINUOUS
 62
     7
100
AcDbLine
 10
1231.125294
 20
1304.33436
 30
0.0
 11
1200.147145
 21
1500.297672
 31
0.0
  0
LINE
  5
C3
102
{ACAD_REACTORS
330
C9
102
}
100
AcDbEntity
  8
OBSTACLE
  6
CONTINUOUS
 62
     7
100
AcDbLine
 10
1200.147145
 20
1500.297672
 30
0.0
 11
1200.0
 21
1500.297672
 31
0.0
  0
LINE
  5
C4
102
{ACAD_REACTORS
330
C9
102
}
100
AcDbEntity
  8
OBSTACLE
  6
CONTINUOUS
 62
     7
100
AcDbLine
 10
1200.0
 20
1500.297672
 30
0.0
 11
1200.073572
 21
1500.763077
 31
0.0
  0
ENDBLK
  5
C5
100
AcDbEntity
  8
0
100
AcDbBlockEnd
  0
BLOCK
  5
C7
100
AcDbEntity
  8
0
100
AcDbBlockBegin
  2
RAUM
 70
     0
 10
0.0
 20
0.0
 30
0.0
  3
RAUM
  1

  0
LWPOLYLINE
  5
C8
102
{ACAD_REACTORS
330
C9
102
}
100
AcDbEntity
  8
OBSTACLE
  6
CONTINUOUS
 62
     7
100
AcDbPolyline
 90
        4
 70
     1
 10
3150.0
 20
2900.0
 10
3150.0
 20
100.0
 10
3000.0
 20
250.0
 10
3000.0
 20
2750.0
  0
HATCH
  5
C9
100
AcDbEntity
  8
OBSTACLE
 62
   253
100
AcDbHatch
 10
0.0
 20
0.0
 30
0.0
210
0.0
220
0.0
230
1.0
  2
SOLID
 70
     1
 71
     1
 91
        1
 92
        3
 72
     0
 73
     1
 93
        4
 10
3149.9999999999941
 20
2900.0000000000164
 10
3149.9999999999941
 20
100.00000000002129
 10
2999.9999999999936
 20
250.00000000001785
 10
2999.9999999999936
 20
2750.0000000000155
 97
       29
330
A9
330
AA
330
AB
330
AC
330
AD
330
AE
330
AF
330
B0
330
B1
330
B2
330
B3
330
B4
330
B5
330
B6
330
B7
330
B8
330
B9
330
BA
330
BB
330
BC
330
BD
330
BE
330
BF
330
C0
330
C1
330
C2
330
C3
330
C4
330
C8
 75
     0
 76
     1
 98
        0
  0
LINE
  5
CA
100
AcDbEntity
  8
OBSTACLE
  6
CONTINUOUS
 62
     7
100
AcDbLine
 10
3150.0
 20
2900.0
 30
0.0
 11
3150.0
 21
100.0
 31
0.0
  0
LINE
  5
CB
100
AcDbEntity
  8
OBSTACLE
  6
CONTINUOUS
 62
     7
100
AcDbLine
 10
3000.0
 20
2750.0
 30
0.0
 11
3000.0
 21
250.0
 31
0.0
  0
LWPOLYLINE
  5
CC
102
{ACAD_REACTORS
330
CD
102
}
100
AcDbEntity
  8
OBSTACLE
  6
CONTINUOUS
 62
     7
100
AcDbPolyline
 90
        4
 70
     1
 10
3150.0
 20
100.0
 10
-150.0
 20
100.0
 10
0.0
 20
250.0
 10
3000.0
 20
250.0
  0
HATCH
  5
CD
100
AcDbEntity
  8
OBSTACLE
 62
   253
100
AcDbHatch
 10
0.0
 20
0.0
 30
0.0
210
0.0
220
0.0
230
1.0
  2
SOLID
 70
     1
 71
     1
 91
        1
 92
        3
 72
     0
 73
     1
 93
        4
 10
3149.9999999999995
 20
100.00000000000921
 10
-150.00000000000776
 20
100.00000000000921
 10
-0.0000000000057753
 20
250.00000000000921
 10
3000.0000000000005
 20
250.00000000000921
 97
        1
330
CC
 75
     0
 76
     1
 98
        0
  0
LINE
  5
CE
100
AcDbEntity
  8
OBSTACLE
  6
CONTINUOUS
 62
     7
100
AcDbLine
 10
3150.0
 20
100.0
 30
0.0
 11
-150.0
 21
100.0
 31
0.0
  0
LINE
  5
CF
100
AcDbEntity
  8
OBSTACLE
  6
CONTINUOUS
 62
     7
100
AcDbLine
 10
3000.0
 20
250.0
 30
0.0
 11
0.0
 21
250.0
 31
0.0
  0
LWPOLYLINE
  5
D0
102
{ACAD_REACTORS
330
D1
102
}
100
AcDbEntity
  8
OBSTACLE
  6
CONTINUOUS
 62
     7
100
AcDbPolyline
 90
        4
 70
     1
 10
-150.0
 20
100.0
 10
-150.0
 20
2900.0
 10
0.0
 20
2750.0
 10
0.0
 20
250.0
  0
HATCH
  5
D1
100
AcDbEntity
  8
OBSTACLE
 62
   253
100
AcDbHatch
 10
0.0
 20
0.0
 30
0.0
210
0.0
220
0.0
230
1.0
  2
SOLID
 70
     1
 71
     1
 91
        1
 92
        3
 72
     0
 73
     1
 93
        4
 10
-149.99999999999602
 20
99.999999999996547
 10
-149.99999999999602
 20
2899.999999999995
 10
0.0000000000039705
 20
2749.9999999999977
 10
0.0000000000039705
 20
250.00000000000054
 97
        1
330
D0
 75
     0
 76
     1
 98
        0
  0
LINE
  5
D2
100
AcDbEntity
  8
OBSTACLE
  6
CONTINUOUS
 62
     7
100
AcDbLine
 10
-150.0
 20
100.0
 30
0.0
 11
-150.0
 21
2900.0
 31
0.0
  0
LINE
  5
D3
100
AcDbEntity
  8
OBSTACLE
  6
CONTINUOUS
 62
     7
100
AcDbLine
 10
0.0
 20
250.0
 30
0.0
 11
0.0
 21
2750.0
 31
0.0
  0
LWPOLYLINE
  5
D4
102
{ACAD_REACTORS
330
D5
102
}
100
AcDbEntity
  8
OBSTACLE
  6
CONTINUOUS
 62
     7
100
AcDbPolyline
 90
        4
 70
     1
 10
-150.0
 20
2900.0
 10
3150.0
 20
2900.0
 10
3000.0
 20
2750.0
 10
0.0
 20
2750.0
  0
HATCH
  5
D5
100
AcDbEntity
  8
OBSTACLE
 62
   253
100
AcDbHatch
 10
0.0
 20
0.0
 30
0.0
210
0.0
220
0.0
230
1.0
  2
SOLID
 70
     1
 71
     1
 91
        1
 92
        3
 72
     0
 73
     1
 93
        4
 10
-149.99999999998525
 20
2900.0000000000068
 10
3150.0000000000014
 20
2900.0000000000068
 10
3000.0000000000014
 20
2750.0000000000068
 10
0.0000000000128139
 20
2750.0000000000068
 97
        1
330
D4
 75
     0
 76
     1
 98
        0
  0
LINE
  5
D6
100
AcDbEntity
  8
OBSTACLE
  6
CONTINUOUS
 62
     7
100
AcDbLine
 10
-150.0
 20
2900.0
 30
0.0
 11
3150.0
 21
2900.0
 31
0.0
  0
LINE
  5
D7
100
AcDbEntity
  8
OBSTACLE
  6
CONTINUOUS
 62
     7
100
AcDbLine
 10
0.0
 20
2750.0
 30
0.0
 11
3000.0
 21
2750.0
 31
0.0
  0
ENDBLK
  5
D8
100
AcDbEntity
  8
0
100
AcDbBlockEnd
  0
BLOCK
  5
DA
100
AcDbEntity
  8
0
100
AcDbBlockBegin
  2
TAFEL
 70
     2
 10
0.0
 20
0.0
 30
0.0
  3
TAFEL
  1

  0
ATTDEF
  5
DB
100
AcDbEntity
  8
0
100
AcDbText
 10
500.0
 20
500.0
 30
0.0
 40
0.2
  1
Posten
100
AcDbAttributeDefinition
  3
ShapeClass
  2
SHAPECLASS
 70
     0
  0
ATTDEF
  5
DC
100
AcDbEntity
  8
0
100
AcDbText
 10
500.0
 20
500.0
 30
0.0
 40
0.2
  1
M\U+00F6bel
100
AcDbAttributeDefinition
  3
ShapeType
  2
SHAPETYPE
 70
     0
  0
ATTDEF
  5
DD
100
AcDbEntity
  8
0
100
AcDbText
 10
500.0
 20
500.0
 30
0.0
 40
0.2
  1
Whiteboard
100
AcDbAttributeDefinition
  3
SubShapeType
  2
SUBSHAPETYPE
 70
     0
  0
ATTDEF
  5
DE
100
AcDbEntity
  8
0
100
AcDbText
 10
500.0
 20
500.0
 30
0.0
 40
0.2
  1
0
100
AcDbAttributeDefinition
  3
ID
  2
ID
 70
     0
  0
ATTDEF
  5
DF
100
AcDbEntity
  8
0
100
AcDbText
 10
500.0
 20
500.0
 30
0.0
 40
0.2
  1
0
100
AcDbAttributeDefinition
  3
Name
  2
NAME
 70
     0
  0
ATTDEF
  5
E0
100
AcDbEntity
  8
0
100
AcDbText
 10
500.0
 20
500.0
 30
0.0
 40
0.2
  1
0
100
AcDbAttributeDefinition
  3
Abteilung
  2
DEPARTMENT
 70
     0
  0
ATTDEF
  5
E1
100
AcDbEntity
  8
0
100
AcDbText
 10
500.0
 20
500.0
 30
0.0
 40
0.2
  1
0
100
AcDbAttributeDefinition
  3
Geh\U+00F6rt
  2
BELONGSTO
 70
     0
  0
ATTDEF
  5
E2
100
AcDbEntity
  8
0
100
AcDbText
 10
500.0
 20
500.0
 30
0.0
 40
0.2
  1
0
100
AcDbAttributeDefinition
  3
Ge\U+00E4ndert
  2
MODIFY
 70
     0
  0
ATTDEF
  5
E3
100
AcDbEntity
  8
0
100
AcDbText
 10
500.0
 20
500.0
 30
0.0
 40
0.2
  1
0
100
AcDbAttributeDefinition
  3
Inventarnummer
  2
ASSETNUMBER
 70
     0
  0
ATTDEF
  5
E4
100
AcDbEntity
  8
0
100
AcDbText
 10
500.0
 20
500.0
 30
0.0
 40
0.2
  1
0
100
AcDbAttributeDefinition
  3
Seriennummer
  2
SERIALNUMBER
 70
     0
  0
ATTDEF
  5
E5
100
AcDbEntity
  8
0
100
AcDbText
 10
500.0
 20
500.0
 30
0.0
 40
0.2
  1
0
100
AcDbAttributeDefinition
  3
Hersteller
  2
MANUFACTURER
 70
     0
  0
ATTDEF
  5
E6
100
AcDbEntity
  8
0
100
AcDbText
 10
500.0
 20
500.0
 30
0.0
 40
0.2
  1
0
100
AcDbAttributeDefinition
  3
Modell-ID oder -markierung
  2
MODELID
 70
     0
  0
ATTDEF
  5
E7
100
AcDbEntity
  8
0
100
AcDbText
 10
500.0
 20
500.0
 30
0.0
 40
0.2
  1
0
100
AcDbAttributeDefinition
  3
Modellname
  2
MODELNAME
 70
     0
  0
ATTDEF
  5
E8
100
AcDbEntity
  8
0
100
AcDbText
 10
500.0
 20
500.0
 30
0.0
 40
0.2
  1
0
100
AcDbAttributeDefinition
  3
Produktbeschreibung
  2
PRODUCTDESCRIPTION
 70
     0
  0
ATTDEF
  5
E9
100
AcDbEntity
  8
0
100
AcDbText
 10
500.0
 20
500.0
 30
0.0
 40
0.2
  1
0
100
AcDbAttributeDefinition
  3
Einkaufsdatum
  2
PURCHASEDATE
 70
     0
  0
ATTDEF
  5
EA
100
AcDbEntity
  8
0
100
AcDbText
 10
500.0
 20
500.0
 30
0.0
 40
0.2
  1
0
100
AcDbAttributeDefinition
  3
Liste der Optionen
  2
OPTIONSLIST
 70
     0
  0
ATTDEF
  5
EB
100
AcDbEntity
  8
0
100
AcDbText
 10
500.0
 20
500.0
 30
0.0
 40
0.2
  1
0
100
AcDbAttributeDefinition
  3
Katalog-URL
  2
CATALOGURL
 70
     0
  0
ATTDEF
  5
EC
100
AcDbEntity
  8
0
100
AcDbText
 10
500.0
 20
500.0
 30
0.0
 40
0.2
  1
0
100
AcDbAttributeDefinition
  3
Klassifizierung
  2
CLASSIFICATION
 70
     0
  0
ATTDEF
  5
ED
100
AcDbEntity
  8
0
100
AcDbText
 10
500.0
 20
500.0
 30
0.0
 40
0.2
  1
0
100
AcDbAttributeDefinition
  3
Klassifizierungsquelle
  2
CLASSIFICATIONSOURCE
 70
     0
  0
ATTDEF
  5
EE
100
AcDbEntity
  8
0
100
AcDbText
 10
500.0
 20
500.0
 30
0.0
 40
0.2
  1
0
100
AcDbAttributeDefinition
  3
Produktnummer
  2
PRODUCTNUMBER
 70
     0
  0
ATTDEF
  5
EF
100
AcDbEntity
  8
0
100
AcDbText
 10
500.0
 20
500.0
 30
0.0
 40
0.2
  1
0
100
AcDbAttributeDefinition
  3
Base elevation
  2
BASEELEVATION
 70
     0
  0
LINE
  5
F1
100
AcDbEntity
  8
WP
  6
CONTINUOUS
 62
     7
100
AcDbLine
 10
485.0
 20
0.0
 30
0.0
 11
485.0
 21
1000.0
 31
0.0
  0
LWPOLYLINE
  5
F2
102
{ACAD_REACTORS
330
241
102
}
100
AcDbEntity
  8
WP
  6
CONTINUOUS
 62
     7
100
AcDbPolyline
 90
        4
 70
     1
 10
462.5
 20
0.0
 10
537.5
 20
0.0
 10
537.5
 20
1000.0
 10
462.5
 20
1000.0
  0
ENDBLK
  5
F3
100
AcDbEntity
  8
0
100
AcDbBlockEnd
  0
BLOCK
  5
F5
100
AcDbEntity
  8
0
100
AcDbBlockBegin
  2
ARCHIVSCHRANK
 70
     2
 10
0.0
 20
0.0
 30
0.0
  3
ARCHIVSCHRANK
  1

  0
ATTDEF
  5
F6
100
AcDbEntity
  8
0
100
AcDbText
 10
1500.0
 20
1500.0
 30
0.0
 40
0.2
  1
19.685039370079
100
AcDbAttributeDefinition
  3
Breite
  2
WIDTH
 70
     0
  0
ATTDEF
  5
F7
100
AcDbEntity
  8
0
100
AcDbText
 10
1500.0
 20
1500.0
 30
0.0
 40
0.2
  1
11.811023622047
100
AcDbAttributeDefinition
  3
Tiefe
  2
DEPTH
 70
     0
  0
ATTDEF
  5
F8
100
AcDbEntity
  8
0
100
AcDbText
 10
1500.0
 20
1500.0
 30
0.0
 40
0.2
  1
27.55905511811
100
AcDbAttributeDefinition
  3
H\U+00F6he
  2
HEIGHT
 70
     0
  0
ATTDEF
  5
F9
100
AcDbEntity
  8
0
100
AcDbText
 10
1500.0
 20
1500.0
 30
0.0
 40
0.2
  1
Posten
100
AcDbAttributeDefinition
  3
ShapeClass
  2
SHAPECLASS
 70
     0
  0
ATTDEF
  5
FA
100
AcDbEntity
  8
0
100
AcDbText
 10
1500.0
 20
1500.0
 30
0.0
 40
0.2
  1
M\U+00F6bel
100
AcDbAttributeDefinition
  3
ShapeType
  2
SHAPETYPE
 70
     0
  0
ATTDEF
  5
FB
100
AcDbEntity
  8
0
100
AcDbText
 10
1500.0
 20
1500.0
 30
0.0
 40
0.2
  1
Archiv
100
AcDbAttributeDefinition
  3
SubShapeType
  2
SUBSHAPETYPE
 70
     0
  0
ATTDEF
  5
FC
100
AcDbEntity
  8
0
100
AcDbText
 10
1500.0
 20
1500.0
 30
0.0
 40
0.2
  1
0
100
AcDbAttributeDefinition
  3
ID
  2
ID
 70
     0
  0
ATTDEF
  5
FD
100
AcDbEntity
  8
0
100
AcDbText
 10
1500.0
 20
1500.0
 30
0.0
 40
0.2
  1
0
100
AcDbAttributeDefinition
  3
Name
  2
NAME
 70
     0
  0
ATTDEF
  5
FE
100
AcDbEntity
  8
0
100
AcDbText
 10
1500.0
 20
1500.0
 30
0.0
 40
0.2
  1
0
100
AcDbAttributeDefinition
  3
Abteilung
  2
DEPARTMENT
 70
     0
  0
ATTDEF
  5
FF
100
AcDbEntity
  8
0
100
AcDbText
 10
1500.0
 20
1500.0
 30
0.0
 40
0.2
  1
0
100
AcDbAttributeDefinition
  3
Geh\U+00F6rt
  2
BELONGSTO
 70
     0
  0
ATTDEF
  5
100
100
AcDbEntity
  8
0
100
AcDbText
 10
1500.0
 20
1500.0
 30
0.0
 40
0.2
  1
0
100
AcDbAttributeDefinition
  3
Ge\U+00E4ndert
  2
MODIFY
 70
     0
  0
ATTDEF
  5
101
100
AcDbEntity
  8
0
100
AcDbText
 10
1500.0
 20
1500.0
 30
0.0
 40
0.2
  1
0
100
AcDbAttributeDefinition
  3
Inventarnummer
  2
ASSETNUMBER
 70
     0
  0
ATTDEF
  5
102
100
AcDbEntity
  8
0
100
AcDbText
 10
1500.0
 20
1500.0
 30
0.0
 40
0.2
  1
0
100
AcDbAttributeDefinition
  3
Seriennummer
  2
SERIALNUMBER
 70
     0
  0
ATTDEF
  5
103
100
AcDbEntity
  8
0
100
AcDbText
 10
1500.0
 20
1500.0
 30
0.0
 40
0.2
  1
0
100
AcDbAttributeDefinition
  3
Hersteller
  2
MANUFACTURER
 70
     0
  0
ATTDEF
  5
104
100
AcDbEntity
  8
0
100
AcDbText
 10
1500.0
 20
1500.0
 30
0.0
 40
0.2
  1
0
100
AcDbAttributeDefinition
  3
Modell-ID oder -markierung
  2
MODELID
 70
     0
  0
ATTDEF
  5
105
100
AcDbEntity
  8
0
100
AcDbText
 10
1500.0
 20
1500.0
 30
0.0
 40
0.2
  1
0
100
AcDbAttributeDefinition
  3
Modellname
  2
MODELNAME
 70
     0
  0
ATTDEF
  5
106
100
AcDbEntity
  8
0
100
AcDbText
 10
1500.0
 20
1500.0
 30
0.0
 40
0.2
  1
0
100
AcDbAttributeDefinition
  3
Produktbeschreibung
  2
PRODUCTDESCRIPTION
 70
     0
  0
ATTDEF
  5
107
100
AcDbEntity
  8
0
100
AcDbText
 10
1500.0
 20
1500.0
 30
0.0
 40
0.2
  1
0
100
AcDbAttributeDefinition
  3
Einkaufsdatum
  2
PURCHASEDATE
 70
     0
  0
ATTDEF
  5
108
100
AcDbEntity
  8
0
100
AcDbText
 10
1500.0
 20
1500.0
 30
0.0
 40
0.2
  1
0
100
AcDbAttributeDefinition
  3
Liste der Optionen
  2
OPTIONSLIST
 70
     0
  0
ATTDEF
  5
109
100
AcDbEntity
  8
0
100
AcDbText
 10
1500.0
 20
1500.0
 30
0.0
 40
0.2
  1
0
100
AcDbAttributeDefinition
  3
Katalog-URL
  2
CATALOGURL
 70
     0
  0
ATTDEF
  5
10A
100
AcDbEntity
  8
0
100
AcDbText
 10
1500.0
 20
1500.0
 30
0.0
 40
0.2
  1
0
100
AcDbAttributeDefinition
  3
Klassifizierung
  2
CLASSIFICATION
 70
     0
  0
ATTDEF
  5
10B
100
AcDbEntity
  8
0
100
AcDbText
 10
1500.0
 20
1500.0
 30
0.0
 40
0.2
  1
0
100
AcDbAttributeDefinition
  3
Klassifizierungsquelle
  2
CLASSIFICATIONSOURCE
 70
     0
  0
ATTDEF
  5
10C
100
AcDbEntity
  8
0
100
AcDbText
 10
1500.0
 20
1500.0
 30
0.0
 40
0.2
  1
0
100
AcDbAttributeDefinition
  3
Produktnummer
  2
PRODUCTNUMBER
 70
     0
  0
ATTDEF
  5
10D
100
AcDbEntity
  8
0
100
AcDbText
 10
1500.0
 20
1500.0
 30
0.0
 40
0.2
  1
0
100
AcDbAttributeDefinition
  3
Base elevation
  2
BASEELEVATION
 70
     0
  0
LWPOLYLINE
  5
10E
102
{ACAD_REACTORS
330
241
102
}
100
AcDbEntity
  8
WP
  6
CONTINUOUS
 62
     7
100
AcDbPolyline
 90
        4
 70
     1
 10
1650.0
 20
1450.0
 10
1675.0
 20
1450.0
 10
1675.0
 20
1475.0
 10
1650.0
 20
1475.0
  0
LWPOLYLINE
  5
10F
102
{ACAD_REACTORS
330
241
102
}
100
AcDbEntity
  8
WP
  6
CONTINUOUS
 62
     7
100
AcDbPolyline
 90
        4
 70
     1
 10
1650.0
 20
1525.0
 10
1675.0
 20
1525.0
 10
1675.0
 20
1550.0
 10
1650.0
 20
1550.0
  0
LWPOLYLINE
  5
110
102
{ACAD_REACTORS
330
241
102
}
100
AcDbEntity
  8
WP
  6
CONTINUOUS
 62
     7
100
AcDbPolyline
 90
        4
 70
     1
 10
1350.0
 20
1250.0
 10
1350.0
 20
1750.0
 10
1625.0
 20
1750.0
 10
1625.0
 20
1250.0
  0
LINE
  5
111
100
AcDbEntity
  8
WP
  6
CONTINUOUS
 62
     7
100
AcDbLine
 10
1625.0
 20
1500.0
 30
0.0
 11
1650.0
 21
1500.0
 31
0.0
  0
LWPOLYLINE
  5
112
102
{ACAD_REACTORS
330
241
102
}
100
AcDbEntity
  8
WP
  6
CONTINUOUS
 62
     7
100
AcDbPolyline
 90
        4
 70
     1
 10
1625.0
 20
1250.0
 10
1650.0
 20
1250.0
 10
1650.0
 20
1750.0
 10
1625.0
 20
1750.0
  0
ENDBLK
  5
113
100
AcDbEntity
  8
0
100
AcDbBlockEnd
  0
BLOCK
  5
115
100
AcDbEntity
  8
0
100
AcDbBlockBegin
  2
FENSTER
 70
     0
 10
0.0
 20
0.0
 30
0.0
  3
FENSTER
  1

  0
LWPOLYLINE
  5
116
102
{ACAD_REACTORS
330
241
102
}
100
AcDbEntity
  8
OBSTACLE
  6
CONTINUOUS
 62
     7
100
AcDbPolyline
 90
        4
 70
     1
 10
1050.0
 20
1419.92
 10
1950.0
 20
1419.92
 10
1950.0
 20
1580.08
 10
1050.0
 20
1580.08
  0
LINE
  5
117
102
{ACAD_REACTORS
330
241
102
}
100
AcDbEntity
  8
OBSTACLE
  6
CONTINUOUS
 62
     7
100
AcDbLine
 10
1050.0
 20
1425.0
 30
0.0
 11
1050.0
 21
1575.0
 31
0.0
  0
LINE
  5
118
102
{ACAD_REACTORS
330
241
102
}
100
AcDbEntity
  8
OBSTACLE
  6
CONTINUOUS
 62
     7
100
AcDbLine
 10
1050.0
 20
1575.0
 30
0.0
 11
1100.0
 21
1575.0
 31
0.0
  0
LINE
  5
119
102
{ACAD_REACTORS
330
241
102
}
100
AcDbEntity
  8
OBSTACLE
  6
CONTINUOUS
 62
     7
100
AcDbLine
 10
1100.0
 20
1575.0
 30
0.0
 11
1100.0
 21
1525.0
 31
0.0
  0
LINE
  5
11A
102
{ACAD_REACTORS
330
241
102
}
100
AcDbEntity
  8
OBSTACLE
  6
CONTINUOUS
 62
     7
100
AcDbLine
 10
1100.0
 20
1475.0
 30
0.0
 11
1100.0
 21
1425.0
 31
0.0
  0
LINE
  5
11B
102
{ACAD_REACTORS
330
241
102
}
100
AcDbEntity
  8
OBSTACLE
  6
CONTINUOUS
 62
     7
100
AcDbLine
 10
1100.0
 20
1425.0
 30
0.0
 11
1050.0
 21
1425.0
 31
0.0
  0
LINE
  5
11C
102
{ACAD_REACTORS
330
241
102
}
100
AcDbEntity
  8
OBSTACLE
  6
CONTINUOUS
 62
     7
100
AcDbLine
 10
1950.0
 20
1425.0
 30
0.0
 11
1950.0
 21
1575.0
 31
0.0
  0
LINE
  5
11D
102
{ACAD_REACTORS
330
241
102
}
100
AcDbEntity
  8
OBSTACLE
  6
CONTINUOUS
 62
     7
100
AcDbLine
 10
1950.0
 20
1575.0
 30
0.0
 11
1900.0
 21
1575.0
 31
0.0
  0
LINE
  5
11E
102
{ACAD_REACTORS
330
241
102
}
100
AcDbEntity
  8
OBSTACLE
  6
CONTINUOUS
 62
     7
100
AcDbLine
 10
1900.0
 20
1575.0
 30
0.0
 11
1900.0
 21
1525.0
 31
0.0
  0
LINE
  5
11F
102
{ACAD_REACTORS
330
241
102
}
100
AcDbEntity
  8
OBSTACLE
  6
CONTINUOUS
 62
     7
100
AcDbLine
 10
1900.0
 20
1475.0
 30
0.0
 11
1900.0
 21
1425.0
 31
0.0
  0
LINE
  5
120
102
{ACAD_REACTORS
330
241
102
}
100
AcDbEntity
  8
OBSTACLE
  6
CONTINUOUS
 62
     7
100
AcDbLine
 10
1900.0
 20
1425.0
 30
0.0
 11
1950.0
 21
1425.0
 31
0.0
  0
LWPOLYLINE
  5
121
102
{ACAD_REACTORS
330
241
102
}
100
AcDbEntity
  8
OBSTACLE
  6
CONTINUOUS
 62
     7
100
AcDbPolyline
 90
        4
 70
     1
 10
1100.0
 20
1525.0
 10
1150.0
 20
1525.0
 10
1150.0
 20
1475.0
 10
1100.0
 20
1475.0
  0
LWPOLYLINE
  5
122
102
{ACAD_REACTORS
330
241
102
}
100
AcDbEntity
  8
OBSTACLE
  6
CONTINUOUS
 62
     7
100
AcDbPolyline
 90
        4
 70
     1
 10
1900.0
 20
1525.0
 10
1850.0
 20
1525.0
 10
1850.0
 20
1475.0
 10
1900.0
 20
1475.0
  0
LINE
  5
123
100
AcDbEntity
  8
OBSTACLE
  6
CONTINUOUS
 62
     7
100
AcDbLine
 10
1150.0
 20
1500.0
 30
0.0
 11
1850.0
 21
1500.0
 31
0.0
  0
LINE
  5
124
100
AcDbEntity
  8
OBSTACLE
  6
CONTINUOUS
 62
     7
100
AcDbLine
 10
1050.0
 20
1425.0
 30
0.0
 11
1050.0
 21
1575.0
 31
0.0
  0
LINE
  5
125
100
AcDbEntity
  8
OBSTACLE
  6
CONTINUOUS
 62
     7
100
AcDbLine
 10
1950.0
 20
1425.0
 30
0.0
 11
1950.0
 21
1575.0
 31
0.0
  0
ENDBLK
  5
126
100
AcDbEntity
  8
0
100
AcDbBlockEnd
  0
BLOCK
  5
128
100
AcDbEntity
  8
0
100
AcDbBlockBegin
  2
RECHTECKIGER_TISCH
 70
     2
 10
0.0
 20
0.0
 30
0.0
  3
RECHTECKIGER_TISCH
  1

  0
ATTDEF
  5
129
100
AcDbEntity
  8
0
100
AcDbText
 10
1500.0
 20
1500.0
 30
0.0
 40
0.2
  1
39.370078740157
100
AcDbAttributeDefinition
  3
&Breite
  2
WIDTH
 70
     0
  0
ATTDEF
  5
12A
100
AcDbEntity
  8
0
100
AcDbText
 10
1500.0
 20
1500.0
 30
0.0
 40
0.2
  1
70.866141732283
100
AcDbAttributeDefinition
  3
&L\U+00E4nge
  2
LENGTH
 70
     0
  0
ATTDEF
  5
12B
100
AcDbEntity
  8
0
100
AcDbText
 10
1500.0
 20
1500.0
 30
0.0
 40
0.2
  1
Posten
100
AcDbAttributeDefinition
  3
ShapeClass
  2
SHAPECLASS
 70
     0
  0
ATTDEF
  5
12C
100
AcDbEntity
  8
0
100
AcDbText
 10
1500.0
 20
1500.0
 30
0.0
 40
0.2
  1
M\U+00F6bel
100
AcDbAttributeDefinition
  3
ShapeType
  2
SHAPETYPE
 70
     0
  0
ATTDEF
  5
12D
100
AcDbEntity
  8
0
100
AcDbText
 10
1500.0
 20
1500.0
 30
0.0
 40
0.2
  1
Rechteckiger Tisch
100
AcDbAttributeDefinition
  3
SubShapeType
  2
SUBSHAPETYPE
 70
     0
  0
ATTDEF
  5
12E
100
AcDbEntity
  8
0
100
AcDbText
 10
1500.0
 20
1500.0
 30
0.0
 40
0.2
  1
0
100
AcDbAttributeDefinition
  3
ID
  2
ID
 70
     0
  0
ATTDEF
  5
12F
100
AcDbEntity
  8
0
100
AcDbText
 10
1500.0
 20
1500.0
 30
0.0
 40
0.2
  1
0
100
AcDbAttributeDefinition
  3
Name
  2
NAME
 70
     0
  0
ATTDEF
  5
130
100
AcDbEntity
  8
0
100
AcDbText
 10
1500.0
 20
1500.0
 30
0.0
 40
0.2
  1
0
100
AcDbAttributeDefinition
  3
Abteilung
  2
DEPARTMENT
 70
     0
  0
ATTDEF
  5
131
100
AcDbEntity
  8
0
100
AcDbText
 10
1500.0
 20
1500.0
 30
0.0
 40
0.2
  1
0
100
AcDbAttributeDefinition
  3
Geh\U+00F6rt
  2
BELONGSTO
 70
     0
  0
ATTDEF
  5
132
100
AcDbEntity
  8
0
100
AcDbText
 10
1500.0
 20
1500.0
 30
0.0
 40
0.2
  1
0
100
AcDbAttributeDefinition
  3
Ge\U+00E4ndert
  2
MODIFY
 70
     0
  0
ATTDEF
  5
133
100
AcDbEntity
  8
0
100
AcDbText
 10
1500.0
 20
1500.0
 30
0.0
 40
0.2
  1
0
100
AcDbAttributeDefinition
  3
Inventarnummer
  2
ASSETNUMBER
 70
     0
  0
ATTDEF
  5
134
100
AcDbEntity
  8
0
100
AcDbText
 10
1500.0
 20
1500.0
 30
0.0
 40
0.2
  1
0
100
AcDbAttributeDefinition
  3
Seriennummer
  2
SERIALNUMBER
 70
     0
  0
ATTDEF
  5
135
100
AcDbEntity
  8
0
100
AcDbText
 10
1500.0
 20
1500.0
 30
0.0
 40
0.2
  1
0
100
AcDbAttributeDefinition
  3
Hersteller
  2
MANUFACTURER
 70
     0
  0
ATTDEF
  5
136
100
AcDbEntity
  8
0
100
AcDbText
 10
1500.0
 20
1500.0
 30
0.0
 40
0.2
  1
0
100
AcDbAttributeDefinition
  3
Modell-ID oder -markierung
  2
MODELID
 70
     0
  0
ATTDEF
  5
137
100
AcDbEntity
  8
0
100
AcDbText
 10
1500.0
 20
1500.0
 30
0.0
 40
0.2
  1
0
100
AcDbAttributeDefinition
  3
Modellname
  2
MODELNAME
 70
     0
  0
ATTDEF
  5
138
100
AcDbEntity
  8
0
100
AcDbText
 10
1500.0
 20
1500.0
 30
0.0
 40
0.2
  1
0
100
AcDbAttributeDefinition
  3
Produktbeschreibung
  2
PRODUCTDESCRIPTION
 70
     0
  0
ATTDEF
  5
139
100
AcDbEntity
  8
0
100
AcDbText
 10
1500.0
 20
1500.0
 30
0.0
 40
0.2
  1
0
100
AcDbAttributeDefinition
  3
Einkaufsdatum
  2
PURCHASEDATE
 70
     0
  0
ATTDEF
  5
13A
100
AcDbEntity
  8
0
100
AcDbText
 10
1500.0
 20
1500.0
 30
0.0
 40
0.2
  1
0
100
AcDbAttributeDefinition
  3
Liste der Optionen
  2
OPTIONSLIST
 70
     0
  0
ATTDEF
  5
13B
100
AcDbEntity
  8
0
100
AcDbText
 10
1500.0
 20
1500.0
 30
0.0
 40
0.2
  1
0
100
AcDbAttributeDefinition
  3
Katalog-URL
  2
CATALOGURL
 70
     0
  0
ATTDEF
  5
13C
100
AcDbEntity
  8
0
100
AcDbText
 10
1500.0
 20
1500.0
 30
0.0
 40
0.2
  1
0
100
AcDbAttributeDefinition
  3
Klassifizierung
  2
CLASSIFICATION
 70
     0
  0
ATTDEF
  5
13D
100
AcDbEntity
  8
0
100
AcDbText
 10
1500.0
 20
1500.0
 30
0.0
 40
0.2
  1
0
100
AcDbAttributeDefinition
  3
Klassifizierungsquelle
  2
CLASSIFICATIONSOURCE
 70
     0
  0
ATTDEF
  5
13E
100
AcDbEntity
  8
0
100
AcDbText
 10
1500.0
 20
1500.0
 30
0.0
 40
0.2
  1
0
100
AcDbAttributeDefinition
  3
Produktnummer
  2
PRODUCTNUMBER
 70
     0
  0
ATTDEF
  5
13F
100
AcDbEntity
  8
0
100
AcDbText
 10
1500.0
 20
1500.0
 30
0.0
 40
0.2
  1
0
100
AcDbAttributeDefinition
  3
Base elevation
  2
BASEELEVATION
 70
     0
  0
LWPOLYLINE
  5
140
102
{ACAD_REACTORS
330
241
102
}
100
AcDbEntity
  8
OBSTACLE
  6
CONTINUOUS
 62
     7
100
AcDbPolyline
 90
        4
 70
     1
 10
1000.0
 20
600.0
 10
2000.0
 20
600.0
 10
2000.0
 20
2400.0
 10
1000.0
 20
2400.0
  0
ENDBLK
  5
141
100
AcDbEntity
  8
0
100
AcDbBlockEnd
  0
BLOCK
  5
143
100
AcDbEntity
  8
0
100
AcDbBlockBegin
  2
REGAL
 70
     2
 10
0.0
 20
0.0
 30
0.0
  3
REGAL
  1

  0
ATTDEF
  5
144
100
AcDbEntity
  8
0
100
AcDbText
 10
1500.0
 20
1500.0
 30
0.0
 40
0.2
  1
11.811023622047
100
AcDbAttributeDefinition
  3
&Tiefe
  2
DEPTH
 70
     0
  0
ATTDEF
  5
145
100
AcDbEntity
  8
0
100
AcDbText
 10
1500.0
 20
1500.0
 30
0.0
 40
0.2
  1
39.370078740157
100
AcDbAttributeDefinition
  3
&L\U+00E4nge
  2
LENGTH
 70
     0
  0
ATTDEF
  5
146
100
AcDbEntity
  8
0
100
AcDbText
 10
1500.0
 20
1500.0
 30
0.0
 40
0.2
  1
Posten
100
AcDbAttributeDefinition
  3
ShapeClass
  2
SHAPECLASS
 70
     0
  0
ATTDEF
  5
147
100
AcDbEntity
  8
0
100
AcDbText
 10
1500.0
 20
1500.0
 30
0.0
 40
0.2
  1
M\U+00F6bel
100
AcDbAttributeDefinition
  3
ShapeType
  2
SHAPETYPE
 70
     0
  0
ATTDEF
  5
148
100
AcDbEntity
  8
0
100
AcDbText
 10
1500.0
 20
1500.0
 30
0.0
 40
0.2
  1
Regal
100
AcDbAttributeDefinition
  3
SubShapeType
  2
SUBSHAPETYPE
 70
     0
  0
ATTDEF
  5
149
100
AcDbEntity
  8
0
100
AcDbText
 10
1500.0
 20
1500.0
 30
0.0
 40
0.2
  1
0
100
AcDbAttributeDefinition
  3
ID
  2
ID
 70
     0
  0
ATTDEF
  5
14A
100
AcDbEntity
  8
0
100
AcDbText
 10
1500.0
 20
1500.0
 30
0.0
 40
0.2
  1
0
100
AcDbAttributeDefinition
  3
Name
  2
NAME
 70
     0
  0
ATTDEF
  5
14B
100
AcDbEntity
  8
0
100
AcDbText
 10
1500.0
 20
1500.0
 30
0.0
 40
0.2
  1
0
100
AcDbAttributeDefinition
  3
Abteilung
  2
DEPARTMENT
 70
     0
  0
ATTDEF
  5
14C
100
AcDbEntity
  8
0
100
AcDbText
 10
1500.0
 20
1500.0
 30
0.0
 40
0.2
  1
0
100
AcDbAttributeDefinition
  3
Geh\U+00F6rt
  2
BELONGSTO
 70
     0
  0
ATTDEF
  5
14D
100
AcDbEntity
  8
0
100
AcDbText
 10
1500.0
 20
1500.0
 30
0.0
 40
0.2
  1
0
100
AcDbAttributeDefinition
  3
Ge\U+00E4ndert
  2
MODIFY
 70
     0
  0
ATTDEF
  5
14E
100
AcDbEntity
  8
0
100
AcDbText
 10
1500.0
 20
1500.0
 30
0.0
 40
0.2
  1
0
100
AcDbAttributeDefinition
  3
Inventarnummer
  2
ASSETNUMBER
 70
     0
  0
ATTDEF
  5
14F
100
AcDbEntity
  8
0
100
AcDbText
 10
1500.0
 20
1500.0
 30
0.0
 40
0.2
  1
0
100
AcDbAttributeDefinition
  3
Seriennummer
  2
SERIALNUMBER
 70
     0
  0
ATTDEF
  5
150
100
AcDbEntity
  8
0
100
AcDbText
 10
1500.0
 20
1500.0
 30
0.0
 40
0.2
  1
0
100
AcDbAttributeDefinition
  3
Hersteller
  2
MANUFACTURER
 70
     0
  0
ATTDEF
  5
151
100
AcDbEntity
  8
0
100
AcDbText
 10
1500.0
 20
1500.0
 30
0.0
 40
0.2
  1
0
100
AcDbAttributeDefinition
  3
Modell-ID oder -markierung
  2
MODELID
 70
     0
  0
ATTDEF
  5
152
100
AcDbEntity
  8
0
100
AcDbText
 10
1500.0
 20
1500.0
 30
0.0
 40
0.2
  1
0
100
AcDbAttributeDefinition
  3
Modellname
  2
MODELNAME
 70
     0
  0
ATTDEF
  5
153
100
AcDbEntity
  8
0
100
AcDbText
 10
1500.0
 20
1500.0
 30
0.0
 40
0.2
  1
0
100
AcDbAttributeDefinition
  3
Produktbeschreibung
  2
PRODUCTDESCRIPTION
 70
     0
  0
ATTDEF
  5
154
100
AcDbEntity
  8
0
100
AcDbText
 10
1500.0
 20
1500.0
 30
0.0
 40
0.2
  1
0
100
AcDbAttributeDefinition
  3
Einkaufsdatum
  2
PURCHASEDATE
 70
     0
  0
ATTDEF
  5
155
100
AcDbEntity
  8
0
100
AcDbText
 10
1500.0
 20
1500.0
 30
0.0
 40
0.2
  1
0
100
AcDbAttributeDefinition
  3
Liste der Optionen
  2
OPTIONSLIST
 70
     0
  0
ATTDEF
  5
156
100
AcDbEntity
  8
0
100
AcDbText
 10
1500.0
 20
1500.0
 30
0.0
 40
0.2
  1
0
100
AcDbAttributeDefinition
  3
Katalog-URL
  2
CATALOGURL
 70
     0
  0
ATTDEF
  5
157
100
AcDbEntity
  8
0
100
AcDbText
 10
1500.0
 20
1500.0
 30
0.0
 40
0.2
  1
0
100
AcDbAttributeDefinition
  3
Klassifizierung
  2
CLASSIFICATION
 70
     0
  0
ATTDEF
  5
158
100
AcDbEntity
  8
0
100
AcDbText
 10
1500.0
 20
1500.0
 30
0.0
 40
0.2
  1
0
100
AcDbAttributeDefinition
  3
Klassifizierungsquelle
  2
CLASSIFICATIONSOURCE
 70
     0
  0
ATTDEF
  5
159
100
AcDbEntity
  8
0
100
AcDbText
 10
1500.0
 20
1500.0
 30
0.0
 40
0.2
  1
0
100
AcDbAttributeDefinition
  3
Produktnummer
  2
PRODUCTNUMBER
 70
     0
  0
ATTDEF
  5
15A
100
AcDbEntity
  8
0
100
AcDbText
 10
1500.0
 20
1500.0
 30
0.0
 40
0.2
  1
0
100
AcDbAttributeDefinition
  3
Base elevation
  2
BASEELEVATION
 70
     0
  0
LWPOLYLINE
  5
15B
100
AcDbEntity
  8
OBSTACLE
  6
CONTINUOUS
 62
     7
100
AcDbPolyline
 90
        4
 70
     0
 10
1650.0
 20
1025.0
 10
1375.0
 20
1025.0
 10
1375.0
 20
1975.0
 10
1650.0
 20
1975.0
  0
LWPOLYLINE
  5
15C
102
{ACAD_REACTORS
330
241
102
}
100
AcDbEntity
  8
OBSTACLE
  6
CONTINUOUS
 62
     7
100
AcDbPolyline
 90
        4
 70
     1
 10
1350.0
 20
1000.0
 10
1650.0
 20
1000.0
 10
1650.0
 20
2000.0
 10
1350.0
 20
2000.0
  0
ENDBLK
  5
15D
100
AcDbEntity
  8
0
100
AcDbBlockEnd
  0
BLOCK
  5
15F
100
AcDbEntity
  8
0
100
AcDbBlockBegin
  2
OFFENES_REGAL
 70
     2
 10
0.0
 20
0.0
 30
0.0
  3
OFFENES_REGAL
  1

  0
ATTDEF
  5
160
100
AcDbEntity
  8
0
100
AcDbText
 10
1500.0
 20
1500.0
 30
0.0
 40
0.2
  1
47.244094488189
100
AcDbAttributeDefinition
  3
Breite
  2
WIDTH
 70
     0
  0
ATTDEF
  5
161
100
AcDbEntity
  8
0
100
AcDbText
 10
1500.0
 20
1500.0
 30
0.0
 40
0.2
  1
11.811023622047
100
AcDbAttributeDefinition
  3
Tiefe
  2
DEPTH
 70
     0
  0
ATTDEF
  5
162
100
AcDbEntity
  8
0
100
AcDbText
 10
1500.0
 20
1500.0
 30
0.0
 40
0.2
  1
5.9055118110236
100
AcDbAttributeDefinition
  3
H\U+00F6he
  2
HEIGHT
 70
     0
  0
ATTDEF
  5
163
100
AcDbEntity
  8
0
100
AcDbText
 10
1500.0
 20
1500.0
 30
0.0
 40
0.2
  1
Posten
100
AcDbAttributeDefinition
  3
ShapeClass
  2
SHAPECLASS
 70
     0
  0
ATTDEF
  5
164
100
AcDbEntity
  8
0
100
AcDbText
 10
1500.0
 20
1500.0
 30
0.0
 40
0.2
  1
M\U+00F6bel
100
AcDbAttributeDefinition
  3
ShapeType
  2
SHAPETYPE
 70
     0
  0
ATTDEF
  5
165
100
AcDbEntity
  8
0
100
AcDbText
 10
1500.0
 20
1500.0
 30
0.0
 40
0.2
  1
Regal
100
AcDbAttributeDefinition
  3
SubShapeType
  2
SUBSHAPETYPE
 70
     0
  0
ATTDEF
  5
166
100
AcDbEntity
  8
0
100
AcDbText
 10
1500.0
 20
1500.0
 30
0.0
 40
0.2
  1
0
100
AcDbAttributeDefinition
  3
ID
  2
ID
 70
     0
  0
ATTDEF
  5
167
100
AcDbEntity
  8
0
100
AcDbText
 10
1500.0
 20
1500.0
 30
0.0
 40
0.2
  1
0
100
AcDbAttributeDefinition
  3
Name
  2
NAME
 70
     0
  0
ATTDEF
  5
168
100
AcDbEntity
  8
0
100
AcDbText
 10
1500.0
 20
1500.0
 30
0.0
 40
0.2
  1
0
100
AcDbAttributeDefinition
  3
Abteilung
  2
DEPARTMENT
 70
     0
  0
ATTDEF
  5
169
100
AcDbEntity
  8
0
100
AcDbText
 10
1500.0
 20
1500.0
 30
0.0
 40
0.2
  1
0
100
AcDbAttributeDefinition
  3
Geh\U+00F6rt
  2
BELONGSTO
 70
     0
  0
ATTDEF
  5
16A
100
AcDbEntity
  8
0
100
AcDbText
 10
1500.0
 20
1500.0
 30
0.0
 40
0.2
  1
0
100
AcDbAttributeDefinition
  3
Ge\U+00E4ndert
  2
MODIFY
 70
     0
  0
ATTDEF
  5
16B
100
AcDbEntity
  8
0
100
AcDbText
 10
1500.0
 20
1500.0
 30
0.0
 40
0.2
  1
0
100
AcDbAttributeDefinition
  3
Inventarnummer
  2
ASSETNUMBER
 70
     0
  0
ATTDEF
  5
16C
100
AcDbEntity
  8
0
100
AcDbText
 10
1500.0
 20
1500.0
 30
0.0
 40
0.2
  1
0
100
AcDbAttributeDefinition
  3
Seriennummer
  2
SERIALNUMBER
 70
     0
  0
ATTDEF
  5
16D
100
AcDbEntity
  8
0
100
AcDbText
 10
1500.0
 20
1500.0
 30
0.0
 40
0.2
  1
0
100
AcDbAttributeDefinition
  3
Hersteller
  2
MANUFACTURER
 70
     0
  0
ATTDEF
  5
16E
100
AcDbEntity
  8
0
100
AcDbText
 10
1500.0
 20
1500.0
 30
0.0
 40
0.2
  1
0
100
AcDbAttributeDefinition
  3
Modell-ID oder -markierung
  2
MODELID
 70
     0
  0
ATTDEF
  5
16F
100
AcDbEntity
  8
0
100
AcDbText
 10
1500.0
 20
1500.0
 30
0.0
 40
0.2
  1
0
100
AcDbAttributeDefinition
  3
Modellname
  2
MODELNAME
 70
     0
  0
ATTDEF
  5
170
100
AcDbEntity
  8
0
100
AcDbText
 10
1500.0
 20
1500.0
 30
0.0
 40
0.2
  1
0
100
AcDbAttributeDefinition
  3
Produktbeschreibung
  2
PRODUCTDESCRIPTION
 70
     0
  0
ATTDEF
  5
171
100
AcDbEntity
  8
0
100
AcDbText
 10
1500.0
 20
1500.0
 30
0.0
 40
0.2
  1
0
100
AcDbAttributeDefinition
  3
Einkaufsdatum
  2
PURCHASEDATE
 70
     0
  0
ATTDEF
  5
172
100
AcDbEntity
  8
0
100
AcDbText
 10
1500.0
 20
1500.0
 30
0.0
 40
0.2
  1
0
100
AcDbAttributeDefinition
  3
Liste der Optionen
  2
OPTIONSLIST
 70
     0
  0
ATTDEF
  5
173
100
AcDbEntity
  8
0
100
AcDbText
 10
1500.0
 20
1500.0
 30
0.0
 40
0.2
  1
0
100
AcDbAttributeDefinition
  3
Katalog-URL
  2
CATALOGURL
 70
     0
  0
ATTDEF
  5
174
100
AcDbEntity
  8
0
100
AcDbText
 10
1500.0
 20
1500.0
 30
0.0
 40
0.2
  1
0
100
AcDbAttributeDefinition
  3
Klassifizierung
  2
CLASSIFICATION
 70
     0
  0
ATTDEF
  5
175
100
AcDbEntity
  8
0
100
AcDbText
 10
1500.0
 20
1500.0
 30
0.0
 40
0.2
  1
0
100
AcDbAttributeDefinition
  3
Klassifizierungsquelle
  2
CLASSIFICATIONSOURCE
 70
     0
  0
ATTDEF
  5
176
100
AcDbEntity
  8
0
100
AcDbText
 10
1500.0
 20
1500.0
 30
0.0
 40
0.2
  1
0
100
AcDbAttributeDefinition
  3
Produktnummer
  2
PRODUCTNUMBER
 70
     0
  0
ATTDEF
  5
177
100
AcDbEntity
  8
0
100
AcDbText
 10
1500.0
 20
1500.0
 30
0.0
 40
0.2
  1
0
100
AcDbAttributeDefinition
  3
Base elevation
  2
BASEELEVATION
 70
     0
  0
LWPOLYLINE
  5
178
102
{ACAD_REACTORS
330
241
102
}
100
AcDbEntity
  8
WALL
  6
CONTINUOUS
 62
     7
100
AcDbPolyline
 90
        4
 70
     1
 10
1350.0
 20
900.0
 10
1650.0
 20
900.0
 10
1650.0
 20
2100.0
 10
1350.0
 20
2100.0
  0
LINE
  5
179
100
AcDbEntity
  8
WALL
  6
CONTINUOUS
 62
     7
100
AcDbLine
 10
1350.0
 20
920.0
 30
0.0
 11
1650.0
 21
920.0
 31
0.0
  0
LINE
  5
17A
100
AcDbEntity
  8
WALL
  6
CONTINUOUS
 62
     7
100
AcDbLine
 10
1350.0
 20
2080.0
 30
0.0
 11
1650.0
 21
2080.0
 31
0.0
  0
ENDBLK
  5
17B
100
AcDbEntity
  8
0
100
AcDbBlockEnd
  0
BLOCK
  5
17D
100
AcDbEntity
  8
0
100
AcDbBlockBegin
  2
KLEINE_PFLANZE
 70
     2
 10
0.0
 20
0.0
 30
0.0
  3
KLEINE_PFLANZE
  1

  0
ATTDEF
  5
17E
100
AcDbEntity
  8
0
100
AcDbText
 10
1500.0
 20
1500.0
 30
0.0
 40
0.2
  1
Posten
100
AcDbAttributeDefinition
  3
ShapeClass
  2
SHAPECLASS
 70
     0
  0
ATTDEF
  5
17F
100
AcDbEntity
  8
0
100
AcDbText
 10
1500.0
 20
1500.0
 30
0.0
 40
0.2
  1
M\U+00F6bel
100
AcDbAttributeDefinition
  3
ShapeType
  2
SHAPETYPE
 70
     0
  0
ATTDEF
  5
180
100
AcDbEntity
  8
0
100
AcDbText
 10
1500.0
 20
1500.0
 30
0.0
 40
0.2
  1
Pflanze
100
AcDbAttributeDefinition
  3
SubShapeType
  2
SUBSHAPETYPE
 70
     0
  0
ATTDEF
  5
181
100
AcDbEntity
  8
0
100
AcDbText
 10
1500.0
 20
1500.0
 30
0.0
 40
0.2
  1
0
100
AcDbAttributeDefinition
  3
ID
  2
ID
 70
     0
  0
ATTDEF
  5
182
100
AcDbEntity
  8
0
100
AcDbText
 10
1500.0
 20
1500.0
 30
0.0
 40
0.2
  1
0
100
AcDbAttributeDefinition
  3
Name
  2
NAME
 70
     0
  0
ATTDEF
  5
183
100
AcDbEntity
  8
0
100
AcDbText
 10
1500.0
 20
1500.0
 30
0.0
 40
0.2
  1
0
100
AcDbAttributeDefinition
  3
Abteilung
  2
DEPARTMENT
 70
     0
  0
ATTDEF
  5
184
100
AcDbEntity
  8
0
100
AcDbText
 10
1500.0
 20
1500.0
 30
0.0
 40
0.2
  1
0
100
AcDbAttributeDefinition
  3
Geh\U+00F6rt zu
  2
BELONGSTO
 70
     0
  0
ATTDEF
  5
185
100
AcDbEntity
  8
0
100
AcDbText
 10
1500.0
 20
1500.0
 30
0.0
 40
0.2
  1
0
100
AcDbAttributeDefinition
  3
Ge\U+00E4ndert
  2
MODIFY
 70
     0
  0
ATTDEF
  5
186
100
AcDbEntity
  8
0
100
AcDbText
 10
1500.0
 20
1500.0
 30
0.0
 40
0.2
  1
0
100
AcDbAttributeDefinition
  3
Inventarnummer
  2
ASSETNUMBER
 70
     0
  0
ATTDEF
  5
187
100
AcDbEntity
  8
0
100
AcDbText
 10
1500.0
 20
1500.0
 30
0.0
 40
0.2
  1
0
100
AcDbAttributeDefinition
  3
Seriennummer
  2
SERIALNUMBER
 70
     0
  0
ATTDEF
  5
188
100
AcDbEntity
  8
0
100
AcDbText
 10
1500.0
 20
1500.0
 30
0.0
 40
0.2
  1
0
100
AcDbAttributeDefinition
  3
Hersteller
  2
MANUFACTURER
 70
     0
  0
ATTDEF
  5
189
100
AcDbEntity
  8
0
100
AcDbText
 10
1500.0
 20
1500.0
 30
0.0
 40
0.2
  1
0
100
AcDbAttributeDefinition
  3
Modell-ID oder -markierung
  2
MODELID
 70
     0
  0
ATTDEF
  5
18A
100
AcDbEntity
  8
0
100
AcDbText
 10
1500.0
 20
1500.0
 30
0.0
 40
0.2
  1
0
100
AcDbAttributeDefinition
  3
Modellname
  2
MODELNAME
 70
     0
  0
ATTDEF
  5
18B
100
AcDbEntity
  8
0
100
AcDbText
 10
1500.0
 20
1500.0
 30
0.0
 40
0.2
  1
0
100
AcDbAttributeDefinition
  3
Produktbeschreibung
  2
PRODUCTDESCRIPTION
 70
     0
  0
ATTDEF
  5
18C
100
AcDbEntity
  8
0
100
AcDbText
 10
1500.0
 20
1500.0
 30
0.0
 40
0.2
  1
0
100
AcDbAttributeDefinition
  3
Einkaufsdatum
  2
PURCHASEDATE
 70
     0
  0
ATTDEF
  5
18D
100
AcDbEntity
  8
0
100
AcDbText
 10
1500.0
 20
1500.0
 30
0.0
 40
0.2
  1
0
100
AcDbAttributeDefinition
  3
Liste der Optionen
  2
OPTIONSLIST
 70
     0
  0
ATTDEF
  5
18E
100
AcDbEntity
  8
0
100
AcDbText
 10
1500.0
 20
1500.0
 30
0.0
 40
0.2
  1
0
100
AcDbAttributeDefinition
  3
Katalog-URL
  2
CATALOGURL
 70
     0
  0
ATTDEF
  5
18F
100
AcDbEntity
  8
0
100
AcDbText
 10
1500.0
 20
1500.0
 30
0.0
 40
0.2
  1
0
100
AcDbAttributeDefinition
  3
Klassifizierung
  2
CLASSIFICATION
 70
     0
  0
ATTDEF
  5
190
100
AcDbEntity
  8
0
100
AcDbText
 10
1500.0
 20
1500.0
 30
0.0
 40
0.2
  1
0
100
AcDbAttributeDefinition
  3
Klassifizierungsquelle
  2
CLASSIFICATIONSOURCE
 70
     0
  0
ATTDEF
  5
191
100
AcDbEntity
  8
0
100
AcDbText
 10
1500.0
 20
1500.0
 30
0.0
 40
0.2
  1
0
100
AcDbAttributeDefinition
  3
Produktnummer
  2
PRODUCTNUMBER
 70
     0
  0
ATTDEF
  5
192
100
AcDbEntity
  8
0
100
AcDbText
 10
1500.0
 20
1500.0
 30
0.0
 40
0.2
  1
0
100
AcDbAttributeDefinition
  3
Base elevation
  2
BASEELEVATION
 70
     0
  0
LWPOLYLINE
  5
193
102
{ACAD_REACTORS
330
241
102
}
100
AcDbEntity
  8
OBSTACLE
  6
CONTINUOUS
 62
     7
100
AcDbPolyline
 90
        2
 70
     1
 10
1405.494505
 20
1447.252747
 42
-1.0
 10
1616.483517
 20
1447.252747
 42
-1.0
  0
LWPOLYLINE
  5
194
102
{ACAD_REACTORS
330
241
102
}
100
AcDbEntity
  8
OBSTACLE
  6
CONTINUOUS
 62
     7
100
AcDbPolyline
 90
        2
 70
     1
 10
1431.868131
 20
1447.252747
 42
-1.0
 10
1590.10989
 20
1447.252747
 42
-1.0
  0
LWPOLYLINE
  5
195
102
{ACAD_REACTORS
330
241
102
}
100
AcDbEntity
  8
OBSTACLE
  6
CONTINUOUS
 62
     7
100
AcDbPolyline
 90
        2
 70
     1
 10
1405.494506
 20
1593.406595
 42
-1.0
 10
1412.087913
 20
1593.406595
 42
-1.0
  0
LWPOLYLINE
  5
196
102
{ACAD_REACTORS
330
241
102
}
100
AcDbEntity
  8
OBSTACLE
  6
CONTINUOUS
 62
     7
100
AcDbPolyline
 90
        2
 70
     1
 10
1414.285714
 20
1556.043956
 42
-1.0
 10
1420.879121
 20
1556.043956
 42
-1.0
  0
ELLIPSE
  5
197
102
{ACAD_REACTORS
330
241
102
}
100
AcDbEntity
  8
OBSTACLE
  6
CONTINUOUS
 62
     7
100
AcDbEllipse
 10
1424.725274
 20
1536.263736
 30
0.0
 11
0.0
 21
-9.8901103291622796
 31
0.0
210
0.0
220
0.0
230
1.0
 40
0.833333
 41
1.5707963667949041
 42
4.7123889403846828
  0
ELLIPSE
  5
198
102
{ACAD_REACTORS
330
241
102
}
100
AcDbEntity
  8
OBSTACLE
  6
CONTINUOUS
 62
     7
100
AcDbEllipse
 10
1424.725274
 20
1536.263737
 30
0.0
 11
0.0
 21
-9.8901103291623329
 31
0.0
210
0.0
220
0.0
230
1.0
 40
0.833333
 41
4.7123890203847054
 42
1.5707962867948808
  0
LWPOLYLINE
  5
199
102
{ACAD_REACTORS
330
241
102
}
100
AcDbEntity
  8
OBSTACLE
  6
CONTINUOUS
 62
     7
100
AcDbPolyline
 90
        2
 70
     1
 10
1429.670328
 20
1619.780221
 42
-1.0
 10
1436.263735
 20
1619.780221
 42
-1.0
  0
LWPOLYLINE
  5
19A
102
{ACAD_REACTORS
330
241
102
}
100
AcDbEntity
  8
OBSTACLE
  6
CONTINUOUS
 62
     7
100
AcDbPolyline
 90
        2
 70
     1
 10
1425.274726
 20
1641.758242
 42
-1.0
 10
1431.868132
 20
1641.758242
 42
-1.0
  0
LWPOLYLINE
  5
19B
102
{ACAD_REACTORS
330
241
102
}
100
AcDbEntity
  8
OBSTACLE
  6
CONTINUOUS
 62
     7
100
AcDbPolyline
 90
        2
 70
     1
 10
1438.461539
 20
1654.945056
 42
-1.0
 10
1445.054946
 20
1654.945056
 42
-1.0
  0
LWPOLYLINE
  5
19C
102
{ACAD_REACTORS
330
241
102
}
100
AcDbEntity
  8
OBSTACLE
  6
CONTINUOUS
 62
     7
100
AcDbPolyline
 90
        2
 70
     1
 10
1680.21978
 20
1410.989011
 42
-1.0
 10
1686.813187
 20
1410.989011
 42
-1.0
  0
LWPOLYLINE
  5
19D
102
{ACAD_REACTORS
330
241
102
}
100
AcDbEntity
  8
OBSTACLE
  6
CONTINUOUS
 62
     7
100
AcDbPolyline
 90
        2
 70
     1
 10
1662.637364
 20
1410.989011
 42
-1.0
 10
1669.230771
 20
1410.989011
 42
-1.0
  0
LWPOLYLINE
  5
19E
102
{ACAD_REACTORS
330
241
102
}
100
AcDbEntity
  8
OBSTACLE
  6
CONTINUOUS
 62
     7
100
AcDbPolyline
 90
        2
 70
     1
 10
1673.626374
 20
1538.461538
 42
-1.0
 10
1680.21978
 20
1538.461538
 42
-1.0
  0
LWPOLYLINE
  5
19F
102
{ACAD_REACTORS
330
241
102
}
100
AcDbEntity
  8
OBSTACLE
  6
CONTINUOUS
 62
     7
100
AcDbPolyline
 90
        2
 70
     1
 10
1484.615385
 20
1487.912089
 42
-1.0
 10
1491.208792
 20
1487.912089
 42
-1.0
  0
LWPOLYLINE
  5
1A0
102
{ACAD_REACTORS
330
241
102
}
100
AcDbEntity
  8
OBSTACLE
  6
CONTINUOUS
 62
     7
100
AcDbPolyline
 90
        2
 70
     1
 10
1486.813187
 20
1404.395604
 42
-1.0
 10
1493.406593
 20
1404.395604
 42
-1.0
  0
LWPOLYLINE
  5
1A1
102
{ACAD_REACTORS
330
241
102
}
100
AcDbEntity
  8
OBSTACLE
  6
CONTINUOUS
 62
     7
100
AcDbPolyline
 90
        2
 70
     1
 10
1300.0
 20
1402.197803
 42
-1.0
 10
1306.593407
 20
1402.197803
 42
-1.0
  0
LWPOLYLINE
  5
1A2
102
{ACAD_REACTORS
330
241
102
}
100
AcDbEntity
  8
OBSTACLE
  6
CONTINUOUS
 62
     7
100
AcDbPolyline
 90
        2
 70
     1
 10
1651.648352
 20
1536.263736
 42
-1.0
 10
1658.241759
 20
1536.263736
 42
-1.0
  0
LWPOLYLINE
  5
1A3
102
{ACAD_REACTORS
330
241
102
}
100
AcDbEntity
  8
OBSTACLE
  6
CONTINUOUS
 62
     7
100
AcDbPolyline
 90
        2
 70
     1
 10
1559.34066
 20
1435.164836
 42
-1.0
 10
1565.934066
 20
1435.164836
 42
-1.0
  0
LWPOLYLINE
  5
1A4
102
{ACAD_REACTORS
330
241
102
}
100
AcDbEntity
  8
OBSTACLE
  6
CONTINUOUS
 62
     7
100
AcDbPolyline
 90
        2
 70
     1
 10
1447.252747
 20
1474.725275
 42
-1.0
 10
1453.846154
 20
1474.725275
 42
-1.0
  0
LWPOLYLINE
  5
1A5
102
{ACAD_REACTORS
330
241
102
}
100
AcDbEntity
  8
OBSTACLE
  6
CONTINUOUS
 62
     7
100
AcDbPolyline
 90
        2
 70
     1
 10
1315.384615
 20
1410.989011
 42
-1.0
 10
1321.978021
 20
1410.989011
 42
-1.0
  0
LWPOLYLINE
  5
1A6
102
{ACAD_REACTORS
330
241
102
}
100
AcDbEntity
  8
OBSTACLE
  6
CONTINUOUS
 62
     7
100
AcDbPolyline
 90
        2
 70
     1
 10
1414.285714
 20
1628.571429
 42
-1.0
 10
1420.879121
 20
1628.571429
 42
-1.0
  0
LWPOLYLINE
  5
1A7
102
{ACAD_REACTORS
330
241
102
}
100
AcDbEntity
  8
OBSTACLE
  6
CONTINUOUS
 62
     7
100
AcDbPolyline
 90
        2
 70
     1
 10
1407.692307
 20
1613.186815
 42
-1.0
 10
1414.285714
 20
1613.186815
 42
-1.0
  0
LWPOLYLINE
  5
1A8
102
{ACAD_REACTORS
330
241
102
}
100
AcDbEntity
  8
OBSTACLE
  6
CONTINUOUS
 62
     7
100
AcDbPolyline
 90
        2
 70
     1
 10
1535.164834
 20
1505.494505
 42
-1.0
 10
1541.758241
 20
1505.494505
 42
-1.0
  0
LWPOLYLINE
  5
1A9
102
{ACAD_REACTORS
330
241
102
}
100
AcDbEntity
  8
OBSTACLE
  6
CONTINUOUS
 62
     7
100
AcDbPolyline
 90
        2
 70
     1
 10
1636.263738
 20
1426.373625
 42
-1.0
 10
1642.857144
 20
1426.373625
 42
-1.0
  0
LWPOLYLINE
  5
1AA
102
{ACAD_REACTORS
330
241
102
}
100
AcDbEntity
  8
OBSTACLE
  6
CONTINUOUS
 62
     7
100
AcDbPolyline
 90
        2
 70
     1
 10
1649.450551
 20
1399.999999
 42
-1.0
 10
1656.043958
 20
1399.999999
 42
-1.0
  0
LWPOLYLINE
  5
1AB
102
{ACAD_REACTORS
330
241
102
}
100
AcDbEntity
  8
OBSTACLE
  6
CONTINUOUS
 62
     7
100
AcDbPolyline
 90
        2
 70
     1
 10
1693.406593
 20
1397.802197
 42
-1.0
 10
1700.0
 20
1397.802197
 42
-1.0
  0
LWPOLYLINE
  5
1AC
102
{ACAD_REACTORS
330
241
102
}
100
AcDbEntity
  8
OBSTACLE
  6
CONTINUOUS
 62
     7
100
AcDbPolyline
 90
        2
 70
     1
 10
1634.065934
 20
1531.868131
 42
-1.0
 10
1640.65934
 20
1531.868131
 42
-1.0
  0
LWPOLYLINE
  5
1AD
102
{ACAD_REACTORS
330
241
102
}
100
AcDbEntity
  8
OBSTACLE
  6
CONTINUOUS
 62
     7
100
AcDbPolyline
 90
        2
 70
     1
 10
1616.483518
 20
1534.065935
 42
-1.0
 10
1623.076924
 20
1534.065935
 42
-1.0
  0
LWPOLYLINE
  5
1AE
102
{ACAD_REACTORS
330
241
102
}
100
AcDbEntity
  8
OBSTACLE
  6
CONTINUOUS
 62
     7
100
AcDbPolyline
 90
        2
 70
     1
 10
1609.890111
 20
1512.087911
 42
-1.0
 10
1616.483518
 20
1512.087911
 42
-1.0
  0
LWPOLYLINE
  5
1AF
102
{ACAD_REACTORS
330
241
102
}
100
AcDbEntity
  8
OBSTACLE
  6
CONTINUOUS
 62
     7
100
AcDbPolyline
 90
        2
 70
     1
 10
1594.505494
 20
1525.274725
 42
-1.0
 10
1601.098901
 20
1525.274725
 42
-1.0
  0
LWPOLYLINE
  5
1B0
102
{ACAD_REACTORS
330
241
102
}
100
AcDbEntity
  8
OBSTACLE
  6
CONTINUOUS
 62
     7
100
AcDbPolyline
 90
        2
 70
     1
 10
1585.714286
 20
1501.098902
 42
-1.0
 10
1592.307693
 20
1501.098902
 42
-1.0
  0
LWPOLYLINE
  5
1B1
102
{ACAD_REACTORS
330
241
102
}
100
AcDbEntity
  8
OBSTACLE
  6
CONTINUOUS
 62
     7
100
AcDbPolyline
 90
        2
 70
     1
 10
1565.934066
 20
1520.879122
 42
-1.0
 10
1572.527473
 20
1520.879122
 42
-1.0
  0
LWPOLYLINE
  5
1B2
102
{ACAD_REACTORS
330
241
102
}
100
AcDbEntity
  8
OBSTACLE
  6
CONTINUOUS
 62
     7
100
AcDbPolyline
 90
        2
 70
     1
 10
1464.835166
 20
1463.736264
 42
-1.0
 10
1471.428572
 20
1463.736264
 42
-1.0
  0
LWPOLYLINE
  5
1B3
102
{ACAD_REACTORS
330
241
102
}
100
AcDbEntity
  8
OBSTACLE
  6
CONTINUOUS
 62
     7
100
AcDbPolyline
 90
        2
 70
     1
 10
1453.846154
 20
1567.032968
 42
-1.0
 10
1460.43956
 20
1567.032968
 42
-1.0
  0
LWPOLYLINE
  5
1B4
102
{ACAD_REACTORS
330
241
102
}
100
AcDbEntity
  8
OBSTACLE
  6
CONTINUOUS
 62
     7
100
AcDbPolyline
 90
        2
 70
     1
 10
1423.076922
 20
1448.351649
 42
-1.0
 10
1456.043955
 20
1448.351649
 42
-1.0
  0
ELLIPSE
  5
1B5
102
{ACAD_REACTORS
330
241
102
}
100
AcDbEntity
  8
OBSTACLE
  6
CONTINUOUS
 62
     7
100
AcDbEllipse
 10
1486.263737
 20
1465.934065
 30
0.0
 11
0.0
 21
-9.8901103291623063
 31
0.0
210
0.0
220
0.0
230
1.0
 40
0.833333
 41
1.5707963667948972
 42
4.712388940384689
  0
ELLIPSE
  5
1B6
102
{ACAD_REACTORS
330
241
102
}
100
AcDbEntity
  8
OBSTACLE
  6
CONTINUOUS
 62
     7
100
AcDbEllipse
 10
1486.263737
 20
1465.934065
 30
0.0
 11
0.0
 21
-9.890110329162388
 31
0.0
210
0.0
220
0.0
230
1.0
 40
0.833333
 41
4.7123890203846397
 42
1.5707962867949479
  0
LWPOLYLINE
  5
1B7
102
{ACAD_REACTORS
330
241
102
}
100
AcDbEntity
  8
OBSTACLE
  6
CONTINUOUS
 62
     7
100
AcDbPolyline
 90
        2
 70
     1
 10
1502.197801
 20
1457.142857
 42
-1.0
 10
1508.791208
 20
1457.142857
 42
-1.0
  0
LWPOLYLINE
  5
1B8
102
{ACAD_REACTORS
330
241
102
}
100
AcDbEntity
  8
OBSTACLE
  6
CONTINUOUS
 62
     7
100
AcDbPolyline
 90
        2
 70
     1
 10
1539.56044
 20
1619.780221
 42
-1.0
 10
1546.153846
 20
1619.780221
 42
-1.0
  0
LWPOLYLINE
  5
1B9
102
{ACAD_REACTORS
330
241
102
}
100
AcDbEntity
  8
OBSTACLE
  6
CONTINUOUS
 62
     7
100
AcDbPolyline
 90
        2
 70
     1
 10
1462.637362
 20
1556.043956
 42
-1.0
 10
1469.230768
 20
1556.043956
 42
-1.0
  0
LWPOLYLINE
  5
1BA
102
{ACAD_REACTORS
330
241
102
}
100
AcDbEntity
  8
OBSTACLE
  6
CONTINUOUS
 62
     7
100
AcDbPolyline
 90
        2
 70
     1
 10
1563.736265
 20
1476.923077
 42
-1.0
 10
1570.329672
 20
1476.923077
 42
-1.0
  0
LWPOLYLINE
  5
1BB
102
{ACAD_REACTORS
330
241
102
}
100
AcDbEntity
  8
OBSTACLE
  6
CONTINUOUS
 62
     7
100
AcDbPolyline
 90
        2
 70
     1
 10
1524.175825
 20
1479.120878
 42
-1.0
 10
1530.769232
 20
1479.120878
 42
-1.0
  0
LWPOLYLINE
  5
1BC
102
{ACAD_REACTORS
330
241
102
}
100
AcDbEntity
  8
OBSTACLE
  6
CONTINUOUS
 62
     7
100
AcDbPolyline
 90
        2
 70
     1
 10
1493.406593
 20
1501.098902
 42
-1.0
 10
1500.0
 20
1501.098902
 42
-1.0
  0
LWPOLYLINE
  5
1BD
102
{ACAD_REACTORS
330
241
102
}
100
AcDbEntity
  8
OBSTACLE
  6
CONTINUOUS
 62
     7
100
AcDbPolyline
 90
        2
 70
     1
 10
1416.483515
 20
1573.626375
 42
-1.0
 10
1423.076922
 20
1573.626375
 42
-1.0
  0
LWPOLYLINE
  5
1BE
102
{ACAD_REACTORS
330
241
102
}
100
AcDbEntity
  8
OBSTACLE
  6
CONTINUOUS
 62
     7
100
AcDbPolyline
 90
        2
 70
     1
 10
1497.802199
 20
1589.010989
 42
-1.0
 10
1504.395605
 20
1589.010989
 42
-1.0
  0
ELLIPSE
  5
1BF
102
{ACAD_REACTORS
330
241
102
}
100
AcDbEntity
  8
OBSTACLE
  6
CONTINUOUS
 62
     7
100
AcDbEllipse
 10
1426.923077
 20
1597.802197
 30
0.0
 11
0.0
 21
-9.8901103291623613
 31
0.0
210
0.0
220
0.0
230
1.0
 40
0.833333
 41
1.570796366794915
 42
4.7123889403846713
  0
ELLIPSE
  5
1C0
102
{ACAD_REACTORS
330
241
102
}
100
AcDbEntity
  8
OBSTACLE
  6
CONTINUOUS
 62
     7
100
AcDbEllipse
 10
1426.923077
 20
1597.802198
 30
0.0
 11
0.0
 21
-9.8901103291624661
 31
0.0
210
0.0
220
0.0
230
1.0
 40
0.833333
 41
4.7123890203846646
 42
1.5707962867949219
  0
LWPOLYLINE
  5
1C1
102
{ACAD_REACTORS
330
241
102
}
100
AcDbEntity
  8
OBSTACLE
  6
CONTINUOUS
 62
     7
100
AcDbPolyline
 90
        2
 70
     1
 10
1629.670331
 20
1384.615384
 42
-1.0
 10
1636.263738
 20
1384.615384
 42
-1.0
  0
LWPOLYLINE
  5
1C2
102
{ACAD_REACTORS
330
241
102
}
100
AcDbEntity
  8
OBSTACLE
  6
CONTINUOUS
 62
     7
100
AcDbPolyline
 90
        2
 70
     1
 10
1467.032967
 20
1415.384616
 42
-1.0
 10
1473.626374
 20
1415.384616
 42
-1.0
  0
LWPOLYLINE
  5
1C3
102
{ACAD_REACTORS
330
241
102
}
100
AcDbEntity
  8
OBSTACLE
  6
CONTINUOUS
 62
     7
100
AcDbPolyline
 90
        2
 70
     1
 10
1504.395605
 20
1408.791209
 42
-1.0
 10
1510.989012
 20
1408.791209
 42
-1.0
  0
LWPOLYLINE
  5
1C4
102
{ACAD_REACTORS
330
241
102
}
100
AcDbEntity
  8
OBSTACLE
  6
CONTINUOUS
 62
     7
100
AcDbPolyline
 90
        2
 70
     1
 10
1647.252747
 20
1415.384616
 42
-1.0
 10
1653.846154
 20
1415.384616
 42
-1.0
  0
LWPOLYLINE
  5
1C5
102
{ACAD_REACTORS
330
241
102
}
100
AcDbEntity
  8
OBSTACLE
  6
CONTINUOUS
 62
     7
100
AcDbPolyline
 90
        2
 70
     1
 10
1372.527473
 20
1389.010989
 42
-1.0
 10
1379.120879
 20
1389.010989
 42
-1.0
  0
LWPOLYLINE
  5
1C6
102
{ACAD_REACTORS
330
241
102
}
100
AcDbEntity
  8
OBSTACLE
  6
CONTINUOUS
 62
     7
100
AcDbPolyline
 90
        2
 70
     1
 10
1409.890109
 20
1384.615384
 42
-1.0
 10
1416.483515
 20
1384.615384
 42
-1.0
  0
ELLIPSE
  5
1C7
102
{ACAD_REACTORS
330
241
102
}
100
AcDbEntity
  8
OBSTACLE
  6
CONTINUOUS
 62
     7
100
AcDbEllipse
 10
1341.208791
 20
1410.98901
 30
0.0
 11
0.0
 21
-9.8901103291623276
 31
0.0
210
0.0
220
0.0
230
1.0
 40
0.833333
 41
1.5707963667948965
 42
4.7123889403846899
  0
ELLIPSE
  5
1C8
102
{ACAD_REACTORS
330
241
102
}
100
AcDbEntity
  8
OBSTACLE
  6
CONTINUOUS
 62
     7
100
AcDbEllipse
 10
1341.208791
 20
1410.989011
 30
0.0
 11
0.0
 21
-9.8901103291623276
 31
0.0
210
0.0
220
0.0
230
1.0
 40
0.833333
 41
4.7123890203846877
 42
1.5707962867948979
  0
ELLIPSE
  5
1C9
102
{ACAD_REACTORS
330
241
102
}
100
AcDbEntity
  8
OBSTACLE
  6
CONTINUOUS
 62
     7
100
AcDbEllipse
 10
1369.780219
 20
1410.98901
 30
0.0
 11
0.0
 21
-9.8901103291623205
 31
0.0
210
0.0
220
0.0
230
1.0
 40
0.833333
 41
1.5707963667948972
 42
4.712388940384689
  0
ELLIPSE
  5
1CA
102
{ACAD_REACTORS
330
241
102
}
100
AcDbEntity
  8
OBSTACLE
  6
CONTINUOUS
 62
     7
100
AcDbEllipse
 10
1369.780219
 20
1410.989011
 30
0.0
 11
0.0
 21
-9.8901103291623329
 31
0.0
210
0.0
220
0.0
230
1.0
 40
0.833333
 41
4.7123890203846805
 42
1.5707962867949055
  0
ELLIPSE
  5
1CB
102
{ACAD_REACTORS
330
241
102
}
100
AcDbEntity
  8
OBSTACLE
  6
CONTINUOUS
 62
     7
100
AcDbEllipse
 10
1393.956044
 20
1399.999998
 30
0.0
 11
0.0
 21
-9.8901103291623063
 31
0.0
210
0.0
220
0.0
230
1.0
 40
0.833333
 41
1.5707963667948965
 42
4.7123889403846899
  0
ELLIPSE
  5
1CC
102
{ACAD_REACTORS
330
241
102
}
100
AcDbEntity
  8
OBSTACLE
  6
CONTINUOUS
 62
     7
100
AcDbEllipse
 10
1393.956044
 20
1399.999999
 30
0.0
 11
0.0
 21
-9.8901103291623205
 31
0.0
210
0.0
220
0.0
230
1.0
 40
0.833333
 41
4.7123890203846841
 42
1.5707962867949015
  0
ELLIPSE
  5
1CD
102
{ACAD_REACTORS
330
241
102
}
100
AcDbEntity
  8
OBSTACLE
  6
CONTINUOUS
 62
     7
100
AcDbEllipse
 10
1431.31868
 20
1391.20879
 30
0.0
 11
0.0
 21
-9.890110329162388
 31
0.0
210
0.0
220
0.0
230
1.0
 40
0.833333
 41
1.5707963667949025
 42
4.7123889403846837
  0
ELLIPSE
  5
1CE
102
{ACAD_REACTORS
330
241
102
}
100
AcDbEntity
  8
OBSTACLE
  6
CONTINUOUS
 62
     7
100
AcDbEllipse
 10
1431.31868
 20
1391.208791
 30
0.0
 11
0.0
 21
-9.890110329162388
 31
0.0
210
0.0
220
0.0
230
1.0
 40
0.833333
 41
4.7123890203846894
 42
1.5707962867948972
  0
LWPOLYLINE
  5
1CF
102
{ACAD_REACTORS
330
241
102
}
100
AcDbEntity
  8
OBSTACLE
  6
CONTINUOUS
 62
     7
100
AcDbPolyline
 90
        2
 70
     1
 10
1517.582419
 20
1399.999999
 42
-1.0
 10
1524.175825
 20
1399.999999
 42
-1.0
  0
LWPOLYLINE
  5
1D0
102
{ACAD_REACTORS
330
241
102
}
100
AcDbEntity
  8
OBSTACLE
  6
CONTINUOUS
 62
     7
100
AcDbPolyline
 90
        2
 70
     1
 10
1387.912087
 20
1421.978023
 42
-1.0
 10
1394.505494
 20
1421.978023
 42
-1.0
  0
LWPOLYLINE
  5
1D1
102
{ACAD_REACTORS
330
241
102
}
100
AcDbEntity
  8
OBSTACLE
  6
CONTINUOUS
 62
     7
100
AcDbPolyline
 90
        2
 70
     1
 10
1605.494506
 20
1386.813185
 42
-1.0
 10
1612.087913
 20
1386.813185
 42
-1.0
  0
ELLIPSE
  5
1D2
102
{ACAD_REACTORS
330
241
102
}
100
AcDbEntity
  8
OBSTACLE
  6
CONTINUOUS
 62
     7
100
AcDbEllipse
 10
1418.131867
 20
1417.582417
 30
0.0
 11
0.0
 21
-9.8901103291623063
 31
0.0
210
0.0
220
0.0
230
1.0
 40
0.833333
 41
1.5707963667948794
 42
4.7123889403847068
  0
ELLIPSE
  5
1D3
102
{ACAD_REACTORS
330
241
102
}
100
AcDbEntity
  8
OBSTACLE
  6
CONTINUOUS
 62
     7
100
AcDbEllipse
 10
1418.131867
 20
1417.582418
 30
0.0
 11
0.0
 21
-9.8901103291623613
 31
0.0
210
0.0
220
0.0
230
1.0
 40
0.833333
 41
4.7123890203846663
 42
1.5707962867949199
  0
ELLIPSE
  5
1D4
102
{ACAD_REACTORS
330
241
102
}
100
AcDbEntity
  8
OBSTACLE
  6
CONTINUOUS
 62
     7
100
AcDbEllipse
 10
1571.978023
 20
1384.615384
 30
0.0
 11
0.0
 21
-9.8901103291624146
 31
0.0
210
0.0
220
0.0
230
1.0
 40
0.833333
 41
1.5707963667949074
 42
4.7123889403846793
  0
ELLIPSE
  5
1D5
102
{ACAD_REACTORS
330
241
102
}
100
AcDbEntity
  8
OBSTACLE
  6
CONTINUOUS
 62
     7
100
AcDbEllipse
 10
1571.978023
 20
1384.615385
 30
0.0
 11
0.0
 21
-9.8901103291623063
 31
0.0
210
0.0
220
0.0
230
1.0
 40
0.833333
 41
4.7123890203988168
 42
1.5707962867807699
  0
ELLIPSE
  5
1D6
102
{ACAD_REACTORS
330
241
102
}
100
AcDbEntity
  8
OBSTACLE
  6
CONTINUOUS
 62
     7
100
AcDbEllipse
 10
1631.318683
 20
1408.791209
 30
0.0
 11
0.0
 21
-9.8901103291623613
 31
0.0
210
0.0
220
0.0
230
1.0
 40
0.833333
 41
1.5707963667948719
 42
4.7123889403847148
  0
ELLIPSE
  5
1D7
102
{ACAD_REACTORS
330
241
102
}
100
AcDbEntity
  8
OBSTACLE
  6
CONTINUOUS
 62
     7
100
AcDbEllipse
 10
1631.318683
 20
1408.79121
 30
0.0
 11
0.0
 21
-9.890110329162848
 31
0.0
210
0.0
220
0.0
230
1.0
 40
0.833333
 41
4.712389020384613
 42
1.5707962867949725
  0
ELLIPSE
  5
1D8
102
{ACAD_REACTORS
330
241
102
}
100
AcDbEntity
  8
OBSTACLE
  6
CONTINUOUS
 62
     7
100
AcDbEllipse
 10
1598.35165
 20
1406.593405
 30
0.0
 11
0.0
 21
-9.8901103291624146
 31
0.0
210
0.0
220
0.0
230
1.0
 40
0.833333
 41
1.5707963667949107
 42
4.7123889403846757
  0
ELLIPSE
  5
1D9
102
{ACAD_REACTORS
330
241
102
}
100
AcDbEntity
  8
OBSTACLE
  6
CONTINUOUS
 62
     7
100
AcDbEllipse
 10
1598.35165
 20
1406.593406
 30
0.0
 11
0.0
 21
-9.8901103291624146
 31
0.0
210
0.0
220
0.0
230
1.0
 40
0.833333
 41
4.712389020384574
 42
1.5707962867950123
  0
ELLIPSE
  5
1DA
102
{ACAD_REACTORS
330
241
102
}
100
AcDbEntity
  8
OBSTACLE
  6
CONTINUOUS
 62
     7
100
AcDbEllipse
 10
1569.780219
 20
1501.098902
 30
0.0
 11
0.0
 21
-9.8901103291623613
 31
0.0
210
0.0
220
0.0
230
1.0
 40
0.833333
 41
1.5707963667948821
 42
4.7123889403847041
  0
ELLIPSE
  5
1DB
102
{ACAD_REACTORS
330
241
102
}
100
AcDbEntity
  8
OBSTACLE
  6
CONTINUOUS
 62
     7
100
AcDbEllipse
 10
1569.780219
 20
1501.098902
 30
0.0
 11
0.0
 21
-9.8901103291619261
 31
0.0
210
0.0
220
0.0
230
1.0
 40
0.833333
 41
4.7123890203847356
 42
1.5707962867948508
  0
ELLIPSE
  5
1DC
102
{ACAD_REACTORS
330
241
102
}
100
AcDbEntity
  8
OBSTACLE
  6
CONTINUOUS
 62
     7
100
AcDbEllipse
 10
1569.780219
 20
1415.384615
 30
0.0
 11
0.0
 21
-9.8901103291623613
 31
0.0
210
0.0
220
0.0
230
1.0
 40
0.833333
 41
1.5707963667949143
 42
4.7123889403846722
  0
ELLIPSE
  5
1DD
102
{ACAD_REACTORS
330
241
102
}
100
AcDbEntity
  8
OBSTACLE
  6
CONTINUOUS
 62
     7
100
AcDbEllipse
 10
1569.780219
 20
1415.384616
 30
0.0
 11
0.0
 21
-9.890110329162253
 31
0.0
210
0.0
220
0.0
230
1.0
 40
0.833333
 41
4.7123890203846877
 42
1.5707962867948988
  0
ELLIPSE
  5
1DE
102
{ACAD_REACTORS
330
241
102
}
100
AcDbEntity
  8
OBSTACLE
  6
CONTINUOUS
 62
     7
100
AcDbEllipse
 10
1541.208791
 20
1391.20879
 30
0.0
 11
0.0
 21
-9.8901103291625745
 31
0.0
210
0.0
220
0.0
230
1.0
 40
0.833333
 41
1.5707963667948981
 42
4.7123889403846881
  0
ELLIPSE
  5
1DF
102
{ACAD_REACTORS
330
241
102
}
100
AcDbEntity
  8
OBSTACLE
  6
CONTINUOUS
 62
     7
100
AcDbEllipse
 10
1541.208791
 20
1391.208791
 30
0.0
 11
0.0
 21
-9.8901103291624146
 31
0.0
210
0.0
220
0.0
230
1.0
 40
0.833333
 41
4.7123890203846992
 42
1.570796286794887
  0
ELLIPSE
  5
1E0
102
{ACAD_REACTORS
330
241
102
}
100
AcDbEntity
  8
OBSTACLE
  6
CONTINUOUS
 62
     7
100
AcDbEllipse
 10
1521.428572
 20
1454.945055
 30
0.0
 11
0.0
 21
-9.8901103291621979
 31
0.0
210
0.0
220
0.0
230
1.0
 40
0.833333
 41
1.5707963667948903
 42
4.7123889403846961
  0
ELLIPSE
  5
1E1
102
{ACAD_REACTORS
330
241
102
}
100
AcDbEntity
  8
OBSTACLE
  6
CONTINUOUS
 62
     7
100
AcDbEllipse
 10
1521.428572
 20
1454.945056
 30
0.0
 11
0.0
 21
-9.890110329162253
 31
0.0
210
0.0
220
0.0
230
1.0
 40
0.833333
 41
4.7123890203846983
 42
1.5707962867948877
  0
LWPOLYLINE
  5
1E2
102
{ACAD_REACTORS
330
241
102
}
100
AcDbEntity
  8
OBSTACLE
  6
CONTINUOUS
 62
     7
100
AcDbPolyline
 90
        2
 70
     1
 10
1519.78022
 20
1424.175824
 42
-1.0
 10
1552.747253
 20
1424.175824
 42
-1.0
  0
ELLIPSE
  5
1E3
102
{ACAD_REACTORS
330
241
102
}
100
AcDbEntity
  8
OBSTACLE
  6
CONTINUOUS
 62
     7
100
AcDbEllipse
 10
1554.395605
 20
1457.142857
 30
0.0
 11
0.0
 21
-9.8901103291624146
 31
0.0
210
0.0
220
0.0
230
1.0
 40
0.833333
 41
1.5707963667948821
 42
4.7123889403847041
  0
ELLIPSE
  5
1E4
102
{ACAD_REACTORS
330
241
102
}
100
AcDbEntity
  8
OBSTACLE
  6
CONTINUOUS
 62
     7
100
AcDbEllipse
 10
1554.395605
 20
1457.142857
 30
0.0
 11
0.0
 21
-9.8901103291624146
 31
0.0
210
0.0
220
0.0
230
1.0
 40
0.833333
 41
4.7123890203846877
 42
1.5707962867948988
  0
ELLIPSE
  5
1E5
102
{ACAD_REACTORS
330
241
102
}
100
AcDbEntity
  8
OBSTACLE
  6
CONTINUOUS
 62
     7
100
AcDbEllipse
 10
1543.406593
 20
1483.516483
 30
0.0
 11
0.0
 21
-9.8901103291621446
 31
0.0
210
0.0
220
0.0
230
1.0
 40
0.833333
 41
1.5707963667948246
 42
4.7123889403847619
  0
ELLIPSE
  5
1E6
102
{ACAD_REACTORS
330
241
102
}
100
AcDbEntity
  8
OBSTACLE
  6
CONTINUOUS
 62
     7
100
AcDbEllipse
 10
1543.406593
 20
1483.516484
 30
0.0
 11
0.0
 21
-9.8901103291619812
 31
0.0
210
0.0
220
0.0
230
1.0
 40
0.833333
 41
4.7123890203846326
 42
1.5707962867949534
  0
ELLIPSE
  5
1E7
102
{ACAD_REACTORS
330
241
102
}
100
AcDbEntity
  8
OBSTACLE
  6
CONTINUOUS
 62
     7
100
AcDbEllipse
 10
1451.0989
 20
1413.186812
 30
0.0
 11
0.0
 21
-9.8901103291623063
 31
0.0
210
0.0
220
0.0
230
1.0
 40
0.833333
 41
1.5707963667948965
 42
4.7123889403846899
  0
ELLIPSE
  5
1E8
102
{ACAD_REACTORS
330
241
102
}
100
AcDbEntity
  8
OBSTACLE
  6
CONTINUOUS
 62
     7
100
AcDbEllipse
 10
1451.0989
 20
1413.186812
 30
0.0
 11
0.0
 21
-9.8901103291623329
 31
0.0
210
0.0
220
0.0
230
1.0
 40
0.833333
 41
4.712389020384677
 42
1.5707962867949097
  0
ELLIPSE
  5
1E9
102
{ACAD_REACTORS
330
241
102
}
100
AcDbEntity
  8
OBSTACLE
  6
CONTINUOUS
 62
     7
100
AcDbEllipse
 10
1440.109891
 20
1564.835164
 30
0.0
 11
0.0
 21
-9.8901103291619545
 31
0.0
210
0.0
220
0.0
230
1.0
 40
0.833333
 41
1.5707963667948519
 42
4.7123889403847343
  0
ELLIPSE
  5
1EA
102
{ACAD_REACTORS
330
241
102
}
100
AcDbEntity
  8
OBSTACLE
  6
CONTINUOUS
 62
     7
100
AcDbEllipse
 10
1440.109891
 20
1564.835165
 30
0.0
 11
0.0
 21
-9.8901103291620078
 31
0.0
210
0.0
220
0.0
230
1.0
 40
0.833333
 41
4.7123890203846752
 42
1.5707962867949137
  0
ELLIPSE
  5
1EB
102
{ACAD_REACTORS
330
241
102
}
100
AcDbEntity
  8
OBSTACLE
  6
CONTINUOUS
 62
     7
100
AcDbEllipse
 10
1455.494505
 20
1536.263736
 30
0.0
 11
0.0
 21
-9.8901103291621162
 31
0.0
210
0.0
220
0.0
230
1.0
 40
0.833333
 41
1.5707963667949012
 42
4.7123889403846846
  0
ELLIPSE
  5
1EC
102
{ACAD_REACTORS
330
241
102
}
100
AcDbEntity
  8
OBSTACLE
  6
CONTINUOUS
 62
     7
100
AcDbEllipse
 10
1455.494505
 20
1536.263737
 30
0.0
 11
0.0
 21
-9.8901103291621979
 31
0.0
210
0.0
220
0.0
230
1.0
 40
0.833333
 41
4.7123890203846965
 42
1.570796286794889
  0
ELLIPSE
  5
1ED
102
{ACAD_REACTORS
330
241
102
}
100
AcDbEntity
  8
OBSTACLE
  6
CONTINUOUS
 62
     7
100
AcDbEllipse
 10
1484.065933
 20
1573.626374
 30
0.0
 11
0.0
 21
-9.8901103291625212
 31
0.0
210
0.0
220
0.0
230
1.0
 40
0.833333
 41
1.5707963667949094
 42
4.7123889403846775
  0
ELLIPSE
  5
1EE
102
{ACAD_REACTORS
330
241
102
}
100
AcDbEntity
  8
OBSTACLE
  6
CONTINUOUS
 62
     7
100
AcDbEllipse
 10
1484.065933
 20
1573.626375
 30
0.0
 11
0.0
 21
-9.8901103291623613
 31
0.0
210
0.0
220
0.0
230
1.0
 40
0.833333
 41
4.7123890203847187
 42
1.5707962867948673
  0
ELLIPSE
  5
1EF
102
{ACAD_REACTORS
330
241
102
}
100
AcDbEntity
  8
OBSTACLE
  6
CONTINUOUS
 62
     7
100
AcDbEllipse
 10
1530.219779
 20
1605.494506
 30
0.0
 11
0.0
 21
-9.8901103291624661
 31
0.0
210
0.0
220
0.0
230
1.0
 40
0.833333
 41
1.5707963667948766
 42
4.7123889403847095
  0
ELLIPSE
  5
1F0
102
{ACAD_REACTORS
330
241
102
}
100
AcDbEntity
  8
OBSTACLE
  6
CONTINUOUS
 62
     7
100
AcDbEllipse
 10
1530.219779
 20
1605.494506
 30
0.0
 11
0.0
 21
-9.8901103291623613
 31
0.0
210
0.0
220
0.0
230
1.0
 40
0.833333
 41
4.7123890203846068
 42
1.5707962867949794
  0
ELLIPSE
  5
1F1
102
{ACAD_REACTORS
330
241
102
}
100
AcDbEntity
  8
OBSTACLE
  6
CONTINUOUS
 62
     7
100
AcDbEllipse
 10
1519.23077
 20
1580.219781
 30
0.0
 11
0.0
 21
-9.8901103291626313
 31
0.0
210
0.0
220
0.0
230
1.0
 40
0.833333
 41
1.5707963667948519
 42
4.7123889403847343
  0
ELLIPSE
  5
1F2
102
{ACAD_REACTORS
330
241
102
}
100
AcDbEntity
  8
OBSTACLE
  6
CONTINUOUS
 62
     7
100
AcDbEllipse
 10
1519.23077
 20
1580.219782
 30
0.0
 11
0.0
 21
-9.8901103291625745
 31
0.0
210
0.0
220
0.0
230
1.0
 40
0.833333
 41
4.7123890203846912
 42
1.5707962867948946
  0
ELLIPSE
  5
1F3
102
{ACAD_REACTORS
330
241
102
}
100
AcDbEntity
  8
OBSTACLE
  6
CONTINUOUS
 62
     7
100
AcDbEllipse
 10
1501.648352
 20
1560.439561
 30
0.0
 11
0.0
 21
-9.8901103291624146
 31
0.0
210
0.0
220
0.0
230
1.0
 40
0.833333
 41
1.5707963667948959
 42
4.7123889403846899
  0
ELLIPSE
  5
1F4
102
{ACAD_REACTORS
330
241
102
}
100
AcDbEntity
  8
OBSTACLE
  6
CONTINUOUS
 62
     7
100
AcDbEllipse
 10
1501.648352
 20
1560.439562
 30
0.0
 11
0.0
 21
-9.8901103291623613
 31
0.0
210
0.0
220
0.0
230
1.0
 40
0.833333
 41
4.7123890203846859
 42
1.5707962867949001
  0
LWPOLYLINE
  5
1F5
102
{ACAD_REACTORS
330
241
102
}
100
AcDbEntity
  8
OBSTACLE
  6
CONTINUOUS
 62
     7
100
AcDbPolyline
 90
        2
 70
     1
 10
1478.021979
 20
1526.373626
 42
-1.0
 10
1510.989012
 20
1526.373626
 42
-1.0
  0
ELLIPSE
  5
1F6
102
{ACAD_REACTORS
330
241
102
}
100
AcDbEntity
  8
OBSTACLE
  6
CONTINUOUS
 62
     7
100
AcDbEllipse
 10
1519.23077
 20
1501.098902
 30
0.0
 11
0.0
 21
-9.8901103291623063
 31
0.0
210
0.0
220
0.0
230
1.0
 40
0.833333
 41
1.5707963667948273
 42
4.7123889403847592
  0
ELLIPSE
  5
1F7
102
{ACAD_REACTORS
330
241
102
}
100
AcDbEntity
  8
OBSTACLE
  6
CONTINUOUS
 62
     7
100
AcDbEllipse
 10
1519.23077
 20
1501.098902
 30
0.0
 11
0.0
 21
-9.8901103291623063
 31
0.0
210
0.0
220
0.0
230
1.0
 40
0.833333
 41
4.7123890203846361
 42
1.5707962867949494
  0
ELLIPSE
  5
1F8
102
{ACAD_REACTORS
330
241
102
}
100
AcDbEntity
  8
OBSTACLE
  6
CONTINUOUS
 62
     7
100
AcDbEllipse
 10
1503.846153
 20
1476.923076
 30
0.0
 11
0.0
 21
-9.8901103291623329
 31
0.0
210
0.0
220
0.0
230
1.0
 40
0.833333
 41
1.5707963667948575
 42
4.712388940384729
  0
ELLIPSE
  5
1F9
102
{ACAD_REACTORS
330
241
102
}
100
AcDbEntity
  8
OBSTACLE
  6
CONTINUOUS
 62
     7
100
AcDbEllipse
 10
1503.846153
 20
1476.923077
 30
0.0
 11
0.0
 21
-9.8901103291624146
 31
0.0
210
0.0
220
0.0
230
1.0
 40
0.833333
 41
4.7123890203846655
 42
1.5707962867949206
  0
ELLIPSE
  5
1FA
102
{ACAD_REACTORS
330
241
102
}
100
AcDbEntity
  8
OBSTACLE
  6
CONTINUOUS
 62
     7
100
AcDbEllipse
 10
1466.483517
 20
1437.362637
 30
0.0
 11
0.0
 21
-9.890110329162253
 31
0.0
210
0.0
220
0.0
230
1.0
 40
0.833333
 41
1.570796366794915
 42
4.7123889403846713
  0
ELLIPSE
  5
1FB
102
{ACAD_REACTORS
330
241
102
}
100
AcDbEntity
  8
OBSTACLE
  6
CONTINUOUS
 62
     7
100
AcDbEllipse
 10
1466.483517
 20
1437.362637
 30
0.0
 11
0.0
 21
-9.890110329162388
 31
0.0
210
0.0
220
0.0
230
1.0
 40
0.833333
 41
4.7123890203847019
 42
1.5707962867948837
  0
LWPOLYLINE
  5
1FC
102
{ACAD_REACTORS
330
241
102
}
100
AcDbEntity
  8
OBSTACLE
  6
CONTINUOUS
 62
     7
100
AcDbPolyline
 90
        2
 70
     1
 10
1481.318682
 20
1432.417582
 42
-1.0
 10
1510.989012
 20
1432.417582
 42
-1.0
  0
ENDBLK
  5
1FD
100
AcDbEntity
  8
0
100
AcDbBlockEnd
  0
BLOCK
  5
1FF
100
AcDbEntity
  8
0
100
AcDbBlockBegin
  2
UNGLEICH
 70
     0
 10
0.0
 20
0.0
 30
0.0
  3
UNGLEICH
  1

  0
LWPOLYLINE
  5
200
102
{ACAD_REACTORS
330
241
102
}
100
AcDbEntity
  8
OBSTACLE
  6
CONTINUOUS
 62
     7
100
AcDbPolyline
 90
        4
 70
     1
 10
550.0
 20
1394.92
 10
2450.0
 20
1394.92
 10
2450.0
 20
1605.08
 10
550.0
 20
1605.08
  0
LINE
  5
201
102
{ACAD_REACTORS
330
241
102
}
100
AcDbEntity
  8
OBSTACLE
  6
CONTINUOUS
 62
     7
100
AcDbLine
 10
2450.0
 20
1400.0
 30
0.0
 11
2450.0
 21
1600.0
 31
0.0
  0
LINE
  5
202
102
{ACAD_REACTORS
330
241
102
}
100
AcDbEntity
  8
OBSTACLE
  6
CONTINUOUS
 62
     7
100
AcDbLine
 10
2450.0
 20
1600.0
 30
0.0
 11
2400.0
 21
1600.0
 31
0.0
  0
LINE
  5
203
102
{ACAD_REACTORS
330
241
102
}
100
AcDbEntity
  8
OBSTACLE
  6
CONTINUOUS
 62
     7
100
AcDbLine
 10
2400.0
 20
1600.0
 30
0.0
 11
2400.0
 21
1550.0
 31
0.0
  0
LINE
  5
204
102
{ACAD_REACTORS
330
241
102
}
100
AcDbEntity
  8
OBSTACLE
  6
CONTINUOUS
 62
     7
100
AcDbLine
 10
2400.0
 20
1500.0
 30
0.0
 11
2400.0
 21
1400.0
 31
0.0
  0
LINE
  5
205
102
{ACAD_REACTORS
330
241
102
}
100
AcDbEntity
  8
OBSTACLE
  6
CONTINUOUS
 62
     7
100
AcDbLine
 10
2400.0
 20
1400.0
 30
0.0
 11
2450.0
 21
1400.0
 31
0.0
  0
LINE
  5
206
102
{ACAD_REACTORS
330
241
102
}
100
AcDbEntity
  8
OBSTACLE
  6
CONTINUOUS
 62
     7
100
AcDbLine
 10
550.0
 20
1400.0
 30
0.0
 11
550.0
 21
1600.0
 31
0.0
  0
LINE
  5
207
102
{ACAD_REACTORS
330
241
102
}
100
AcDbEntity
  8
OBSTACLE
  6
CONTINUOUS
 62
     7
100
AcDbLine
 10
550.0
 20
1600.0
 30
0.0
 11
600.0
 21
1600.0
 31
0.0
  0
LINE
  5
208
102
{ACAD_REACTORS
330
241
102
}
100
AcDbEntity
  8
OBSTACLE
  6
CONTINUOUS
 62
     7
100
AcDbLine
 10
600.0
 20
1600.0
 30
0.0
 11
600.0
 21
1550.0
 31
0.0
  0
LINE
  5
209
102
{ACAD_REACTORS
330
241
102
}
100
AcDbEntity
  8
OBSTACLE
  6
CONTINUOUS
 62
     7
100
AcDbLine
 10
600.0
 20
1500.0
 30
0.0
 11
600.0
 21
1400.0
 31
0.0
  0
LINE
  5
20A
102
{ACAD_REACTORS
330
241
102
}
100
AcDbEntity
  8
OBSTACLE
  6
CONTINUOUS
 62
     7
100
AcDbLine
 10
600.0
 20
1400.0
 30
0.0
 11
550.0
 21
1400.0
 31
0.0
  0
LINE
  5
20B
102
{ACAD_REACTORS
330
241
102
}
100
AcDbEntity
  8
OBSTACLE
  6
CONTINUOUS
 62
     7
100
AcDbLine
 10
2400.0
 20
1550.0
 30
0.0
 11
2380.0
 21
1550.0
 31
0.0
  0
LINE
  5
20C
102
{ACAD_REACTORS
330
241
102
}
100
AcDbEntity
  8
OBSTACLE
  6
CONTINUOUS
 62
     7
100
AcDbLine
 10
2380.0
 20
1550.0
 30
0.0
 11
2380.0
 21
1500.0
 31
0.0
  0
LINE
  5
20D
102
{ACAD_REACTORS
330
241
102
}
100
AcDbEntity
  8
OBSTACLE
  6
CONTINUOUS
 62
     7
100
AcDbLine
 10
2380.0
 20
1500.0
 30
0.0
 11
2400.0
 21
1500.0
 31
0.0
  0
LINE
  5
20E
102
{ACAD_REACTORS
330
241
102
}
100
AcDbEntity
  8
OBSTACLE
  6
CONTINUOUS
 62
     7
100
AcDbLine
 10
600.0
 20
1550.0
 30
0.0
 11
620.0
 21
1550.0
 31
0.0
  0
LINE
  5
20F
102
{ACAD_REACTORS
330
241
102
}
100
AcDbEntity
  8
OBSTACLE
  6
CONTINUOUS
 62
     7
100
AcDbLine
 10
620.0
 20
1550.0
 30
0.0
 11
620.0
 21
1500.0
 31
0.0
  0
LINE
  5
210
102
{ACAD_REACTORS
330
241
102
}
100
AcDbEntity
  8
OBSTACLE
  6
CONTINUOUS
 62
     7
100
AcDbLine
 10
620.0
 20
1500.0
 30
0.0
 11
600.0
 21
1500.0
 31
0.0
  0
LINE
  5
211
100
AcDbEntity
  8
OBSTACLE
  6
CONTINUOUS
 62
     7
100
AcDbLine
 10
2450.0
 20
1400.0
 30
0.0
 11
2450.0
 21
1600.0
 31
0.0
  0
LINE
  5
212
100
AcDbEntity
  8
OBSTACLE
  6
CONTINUOUS
 62
     7
100
AcDbLine
 10
550.0
 20
1400.0
 30
0.0
 11
550.0
 21
1600.0
 31
0.0
  0
ARC
  5
213
100
AcDbEntity
  8
OBSTACLE
  6
CONTINUOUS
 62
     7
100
AcDbCircle
 10
600.0
 20
1600.0
 30
0.0
 40
1050.0
100
AcDbArc
 50
0.0
 51
90.0
  0
ARC
  5
214
100
AcDbEntity
  8
OBSTACLE
  6
CONTINUOUS
 62
     7
100
AcDbCircle
 10
2400.0
 20
1600.0
 30
0.0
 40
750.0
100
AcDbArc
 50
90.0
 51
180.0
  0
LWPOLYLINE
  5
215
102
{ACAD_REACTORS
330
241
102
}
100
AcDbEntity
  8
OBSTACLE
  6
CONTINUOUS
 62
     7
100
AcDbPolyline
 90
        4
 70
     1
 10
600.0
 20
2650.0
 10
600.0
 20
1600.0
 10
650.0
 20
1600.0
 10
650.0
 20
2650.0
  0
LWPOLYLINE
  5
216
102
{ACAD_REACTORS
330
241
102
}
100
AcDbEntity
  8
OBSTACLE
  6
CONTINUOUS
 62
     7
100
AcDbPolyline
 90
        4
 70
     1
 10
2350.0
 20
2350.0
 10
2350.0
 20
1600.0
 10
2400.0
 20
1600.0
 10
2400.0
 20
2350.0
  0
ENDBLK
  5
217
100
AcDbEntity
  8
0
100
AcDbBlockEnd
  0
BLOCK
  5
219
100
AcDbEntity
  8
0
100
AcDbBlockBegin
  2
LATERAL_FILE
 70
     2
 10
0.0
 20
0.0
 30
0.0
  3
LATERAL_FILE
  1

  0
ATTDEF
  5
21A
100
AcDbEntity
  8
0
100
AcDbText
 10
1500.0
 20
1500.0
 30
0.0
 40
0.2
  1
47.244094488189
100
AcDbAttributeDefinition
  3
Width
  2
WIDTH
 70
     0
  0
ATTDEF
  5
21B
100
AcDbEntity
  8
0
100
AcDbText
 10
1500.0
 20
1500.0
 30
0.0
 40
0.2
  1
15.748031496063
100
AcDbAttributeDefinition
  3
Depth
  2
DEPTH
 70
     0
  0
ATTDEF
  5
21C
100
AcDbEntity
  8
0
100
AcDbText
 10
1500.0
 20
1500.0
 30
0.0
 40
0.2
  1
Asset
100
AcDbAttributeDefinition
  3
Shape class
  2
SHAPECLASS
 70
     0
  0
ATTDEF
  5
21D
100
AcDbEntity
  8
0
100
AcDbText
 10
1500.0
 20
1500.0
 30
0.0
 40
0.2
  1
Furniture
100
AcDbAttributeDefinition
  3
Shape type
  2
SHAPETYPE
 70
     0
  0
ATTDEF
  5
21E
100
AcDbEntity
  8
0
100
AcDbText
 10
1500.0
 20
1500.0
 30
0.0
 40
0.2
  1
File Cabinet
100
AcDbAttributeDefinition
  3
Subshape type
  2
SUBSHAPETYPE
 70
     0
  0
ATTDEF
  5
21F
100
AcDbEntity
  8
0
100
AcDbText
 10
1500.0
 20
1500.0
 30
0.0
 40
0.2
  1
0
100
AcDbAttributeDefinition
  3
ID
  2
ID
 70
     0
  0
ATTDEF
  5
220
100
AcDbEntity
  8
0
100
AcDbText
 10
1500.0
 20
1500.0
 30
0.0
 40
0.2
  1
0
100
AcDbAttributeDefinition
  3
Name
  2
NAME
 70
     0
  0
ATTDEF
  5
221
100
AcDbEntity
  8
0
100
AcDbText
 10
1500.0
 20
1500.0
 30
0.0
 40
0.2
  1
0
100
AcDbAttributeDefinition
  3
Department
  2
DEPARTMENT
 70
     0
  0
ATTDEF
  5
222
100
AcDbEntity
  8
0
100
AcDbText
 10
1500.0
 20
1500.0
 30
0.0
 40
0.2
  1
0
100
AcDbAttributeDefinition
  3
Belongs to
  2
BELONGSTO
 70
     0
  0
ATTDEF
  5
223
100
AcDbEntity
  8
0
100
AcDbText
 10
1500.0
 20
1500.0
 30
0.0
 40
0.2
  1
0
100
AcDbAttributeDefinition
  3
Modified
  2
MODIFY
 70
     0
  0
ATTDEF
  5
224
100
AcDbEntity
  8
0
100
AcDbText
 10
1500.0
 20
1500.0
 30
0.0
 40
0.2
  1
0
100
AcDbAttributeDefinition
  3
Asset number
  2
ASSETNUMBER
 70
     0
  0
ATTDEF
  5
225
100
AcDbEntity
  8
0
100
AcDbText
 10
1500.0
 20
1500.0
 30
0.0
 40
0.2
  1
0
100
AcDbAttributeDefinition
  3
Serial number
  2
SERIALNUMBER
 70
     0
  0
ATTDEF
  5
226
100
AcDbEntity
  8
0
100
AcDbText
 10
1500.0
 20
1500.0
 30
0.0
 40
0.2
  1
0
100
AcDbAttributeDefinition
  3
Product description
  2
PRODUCTDESCRIPTION
 70
     0
  0
ATTDEF
  5
227
100
AcDbEntity
  8
0
100
AcDbText
 10
1500.0
 20
1500.0
 30
0.0
 40
0.2
  1
0
100
AcDbAttributeDefinition
  3
Purchase date
  2
PURCHASEDATE
 70
     0
  0
ATTDEF
  5
228
100
AcDbEntity
  8
0
100
AcDbText
 10
1500.0
 20
1500.0
 30
0.0
 40
0.2
  1
0
100
AcDbAttributeDefinition
  3
Product number
  2
PRODUCTNUMBER
 70
     0
  0
ATTDEF
  5
229
100
AcDbEntity
  8
0
100
AcDbText
 10
1500.0
 20
1500.0
 30
0.0
 40
0.2
  1
0
100
AcDbAttributeDefinition
  3
Base elevation
  2
BASEELEVATION
 70
     0
  0
LWPOLYLINE
  5
22A
102
{ACAD_REACTORS
330
241
102
}
100
AcDbEntity
  8
OBSTACLE
  6
CONTINUOUS
 62
     7
100
AcDbPolyline
 90
        4
 70
     1
 10
1700.0
 20
1450.0
 10
1700.0
 20
1550.0
 10
1720.0
 20
1550.0
 10
1720.0
 20
1450.0
  0
LWPOLYLINE
  5
22B
102
{ACAD_REACTORS
330
241
102
}
100
AcDbEntity
  8
OBSTACLE
  6
CONTINUOUS
 62
     7
100
AcDbPolyline
 90
        4
 70
     1
 10
1320.0
 20
920.0
 10
1320.0
 20
2080.0
 10
1700.0
 20
2080.0
 10
1700.0
 20
920.0
  0
LINE
  5
22C
100
AcDbEntity
  8
OBSTACLE
  6
CONTINUOUS
 62
     7
100
AcDbLine
 10
1680.0
 20
920.0
 30
0.0
 11
1680.0
 21
2080.0
 31
0.0
  0
LINE
  5
22D
100
AcDbEntity
  8
OBSTACLE
  6
CONTINUOUS
 62
     7
100
AcDbLine
 10
1320.0
 20
940.0
 30
0.0
 11
1680.0
 21
940.0
 31
0.0
  0
LINE
  5
22E
100
AcDbEntity
  8
OBSTACLE
  6
CONTINUOUS
 62
     7
100
AcDbLine
 10
1320.0
 20
2060.0
 30
0.0
 11
1680.0
 21
2060.0
 31
0.0
  0
LWPOLYLINE
  5
22F
102
{ACAD_REACTORS
330
241
102
}
100
AcDbEntity
  8
OBSTACLE
  6
CONTINUOUS
 62
     7
100
AcDbPolyline
 90
        4
 70
     1
 10
1300.0
 20
900.0
 10
1700.0
 20
900.0
 10
1700.0
 20
2100.0
 10
1300.0
 20
2100.0
  0
ENDBLK
  5
230
100
AcDbEntity
  8
0
100
AcDbBlockEnd
  0
BLOCK
  5
232
100
AcDbEntity
  8
0
100
AcDbBlockBegin
  2
MARKER_BOARD
 70
     0
 10
0.0
 20
0.0
 30
0.0
  3
MARKER_BOARD
  1

  0
LINE
  5
233
100
AcDbEntity
  8
WP
  6
CONTINUOUS
 62
     7
100
AcDbLine
 10
485.0
 20
0.0
 30
0.0
 11
485.0
 21
1000.0
 31
0.0
  0
LWPOLYLINE
  5
234
102
{ACAD_REACTORS
330
241
102
}
100
AcDbEntity
  8
WP
  6
CONTINUOUS
 62
     7
100
AcDbPolyline
 90
        4
 70
     1
 10
462.5
 20
0.0
 10
537.5
 20
0.0
 10
537.5
 20
1000.0
 10
462.5
 20
1000.0
  0
ENDBLK
  5
235
100
AcDbEntity
  8
0
100
AcDbBlockEnd
  0
BLOCK
  5
237
100
AcDbEntity
  8
0
100
AcDbBlockBegin
  2
SQUARE
 70
     2
 10
0.0
 20
0.0
 30
0.0
  3
SQUARE
  1

  0
LWPOLYLINE
  5
238
102
{ACAD_REACTORS
330
241
102
}
100
AcDbEntity
  8
0
  6
CONTINUOUS
 62
     7
100
AcDbPolyline
 90
        4
 70
     1
 10
30.0
 20
30.0
 10
70.0
 20
30.0
 10
70.0
 20
70.0
 10
30.0
 20
70.0
  0
ENDBLK
  5
239
100
AcDbEntity
  8
0
100
AcDbBlockEnd
  0
BLOCK
  5
23B
100
AcDbEntity
  8
0
100
AcDbBlockBegin
  2
RECTANGLE
 70
     0
 10
0.0
 20
0.0
 30
0.0
  3
RECTANGLE
  1

  0
LWPOLYLINE
  5
23C
102
{ACAD_REACTORS
330
241
102
}
100
AcDbEntity
  8
0
  6
CONTINUOUS
 62
     7
100
AcDbPolyline
 90
        4
 70
     1
 10
30.0
 20
35.0
 10
70.0
 20
35.0
 10
70.0
 20
65.0
 10
30.0
 20
65.0
  0
ENDBLK
  5
23D
100
AcDbEntity
  8
0
100
AcDbBlockEnd
  0
BLOCK
  5
23F
100
AcDbEntity
  8
0
100
AcDbBlockBegin
  2
DATA_POINT
 70
     0
 10
0.0
 20
0.0
 30
0.0
  3
DATA_POINT
  1

  0
LWPOLYLINE
  5
240
102
{ACAD_REACTORS
330
241
102
}
100
AcDbEntity
  8
0
  6
CONTINUOUS
 62
    14
100
AcDbPolyline
 90
        2
 70
     1
 10
47.5
 20
50.0
 42
-1.0
 10
52.5
 20
50.0
 42
-1.0
  0
HATCH
  5
241
100
AcDbEntity
  8
0
 62
    13
100
AcDbHatch
 10
0.0
 20
0.0
 30
0.0
210
0.0
220
0.0
230
1.0
  2
SOLID
 70
     1
 71
     1
 91
        1
 92
        3
 72
     1
 73
     1
 93
        2
 10
47.5
 20
50.0
 42
-0.9999999999999999
 10
52.5
 20
50.0
 42
-1.0000000000000071
 97
      153
330
F2
330
10E
330
10F
330
110
330
112
330
116
330
117
330
118
330
119
330
11A
330
11B
330
11C
330
11D
330
11E
330
11F
330
120
330
121
330
122
330
140
330
15C
330
178
330
193
330
194
330
195
330
196
330
197
330
198
330
199
330
19A
330
19B
330
19C
330
19D
330
19E
330
19F
330
1A0
330
1A1
330
1A2
330
1A3
330
1A4
330
1A5
330
1A6
330
1A7
330
1A8
330
1A9
330
1AA
330
1AB
330
1AC
330
1AD
330
1AE
330
1AF
330
1B0
330
1B1
330
1B2
330
1B3
330
1B4
330
1B5
330
1B6
330
1B7
330
1B8
330
1B9
330
1BA
330
1BB
330
1BC
330
1BD
330
1BE
330
1BF
330
1C0
330
1C1
330
1C2
330
1C3
330
1C4
330
1C5
330
1C6
330
1C7
330
1C8
330
1C9
330
1CA
330
1CB
330
1CC
330
1CD
330
1CE
330
1CF
330
1D0
330
1D1
330
1D2
330
1D3
330
1D4
330
1D5
330
1D6
330
1D7
330
1D8
330
1D9
330
1DA
330
1DB
330
1DC
330
1DD
330
1DE
330
1DF
330
1E0
330
1E1
330
1E2
330
1E3
330
1E4
330
1E5
330
1E6
330
1E7
330
1E8
330
1E9
330
1EA
330
1EB
330
1EC
330
1ED
330
1EE
330
1EF
330
1F0
330
1F1
330
1F2
330
1F3
330
1F4
330
1F5
330
1F6
330
1F7
330
1F8
330
1F9
330
1FA
330
1FB
330
1FC
330
200
330
201
330
202
330
203
330
204
330
205
330
206
330
207
330
208
330
209
330
20A
330
20B
330
20C
330
20D
330
20E
330
20F
330
210
330
215
330
216
330
22A
330
22B
330
22F
330
234
330
238
330
23C
330
240
 75
     0
 76
     1
 98
        0
  0
LWPOLYLINE
  5
242
100
AcDbEntity
  8
0
  6
CONTINUOUS
 62
    14
100
AcDbPolyline
 90
        2
 70
     1
 10
48.25
 20
50.0
 42
-1.0
 10
51.75
 20
50.0
 42
-1.0
  0
ENDBLK
  5
243
100
AcDbEntity
  8
0
100
AcDbBlockEnd
  0
ENDSEC
  0
SECTION
  2
ENTITIES
  0
LWPOLYLINE
  5
33
102
{ACAD_REACTORS
330
34
102
}
100
AcDbEntity
  8
OBSTACLE
  6
CONTINUOUS
100
AcDbPolyline
 90
        4
 70
     1
 10
740.078571
 20
551.058333
 10
740.078571
 20
651.058333
 10
760.078571
 20
651.058333
 10
760.078571
 20
551.058333
  0
HATCH
  5
34
102
{ACAD_REACTORS
330
31
102
}
100
AcDbEntity
  8
OBSTACLE
 62
    49
100
AcDbHatch
 10
0.0
 20
0.0
 30
0.0
210
0.0
220
0.0
230
1.0
  2
SOLID
 70
     1
 71
     1
 91
        2
 92
        3
 72
     0
 73
     1
 93
        4
 10
740.07857142857131
 20
551.05833333333328
 10
740.07857142857131
 20
651.05833333333328
 10
760.07857142857131
 20
651.05833333333328
 10
760.07857142857131
 20
551.05833333333328
 97
        1
330
33
 92
        3
 72
     0
 73
     1
 93
        4
 10
360.07857142857137
 20
21.058333333333145
 10
360.07857142857137
 20
1181.0583333333332
 10
740.07857142857131
 20
1181.0583333333332
 10
740.07857142857131
 20
21.058333333333145
 97
        1
330
35
 75
     0
 76
     1
 98
        0
  0
LWPOLYLINE
  5
35
102
{ACAD_REACTORS
330
34
102
}
100
AcDbEntity
  8
OBSTACLE
  6
CONTINUOUS
100
AcDbPolyline
 90
        4
 70
     1
 10
360.078571
 20
21.058333
 10
360.078571
 20
1181.058333
 10
740.078571
 20
1181.058333
 10
740.078571
 20
21.058333
  0
LINE
  5
36
102
{ACAD_REACTORS
330
31
102
}
100
AcDbEntity
  8
OBSTACLE
  6
CONTINUOUS
100
AcDbLine
 10
720.078571
 20
21.058333
 30
0.0
 11
720.078571
 21
1181.058333
 31
0.0
  0
LINE
  5
37
102
{ACAD_REACTORS
330
31
102
}
100
AcDbEntity
  8
OBSTACLE
  6
CONTINUOUS
100
AcDbLine
 10
360.078571
 20
41.058333
 30
0.0
 11
720.078571
 21
41.058333
 31
0.0
  0
LINE
  5
38
102
{ACAD_REACTORS
330
31
102
}
100
AcDbEntity
  8
OBSTACLE
  6
CONTINUOUS
100
AcDbLine
 10
360.078571
 20
1161.058333
 30
0.0
 11
720.078571
 21
1161.058333
 31
0.0
  0
LWPOLYLINE
  5
39
102
{ACAD_REACTORS
330
3A
102
}
100
AcDbEntity
  8
OBSTACLE
  6
CONTINUOUS
100
AcDbPolyline
 90
        4
 70
     1
 10
340.078571
 20
1.058333
 10
740.078571
 20
1.058333
 10
740.078571
 20
1201.058333
 10
340.078571
 20
1201.058333
  0
HATCH
  5
3A
102
{ACAD_REACTORS
330
31
102
}
100
AcDbEntity
  8
OBSTACLE
 62
    49
100
AcDbHatch
 10
0.0
 20
0.0
 30
0.0
210
0.0
220
0.0
230
1.0
  2
SOLID
 70
     1
 71
     1
 91
        1
 92
        3
 72
     0
 73
     1
 93
        4
 10
340.07857142857131
 20
1.0583333333331828
 10
740.07857142857131
 20
1.0583333333331828
 10
740.07857142857131
 20
1201.0583333333332
 10
340.07857142857131
 20
1201.0583333333332
 97
        1
330
39
 75
     0
 76
     1
 98
        0
  0
LWPOLYLINE
  5
3D
102
{ACAD_REACTORS
330
3E
102
}
100
AcDbEntity
  8
WALL
  6
CONTINUOUS
100
AcDbPolyline
 90
        4
 70
     1
 10
3660.260123
 20
7264.992704
 10
194.059528
 20
95.37281
 10
344.059528
 20
750.261116
 10
3421.131499
 20
7114.992704
  0
HATCH
  5
3E
102
{ACAD_REACTORS
330
3B
102
}
100
AcDbEntity
  8
WALL
 62
   251
100
AcDbHatch
 10
0.0
 20
0.0
 30
0.0
210
0.0
220
0.0
230
1.0
  2
SOLID
 70
     1
 71
     1
 91
        1
 92
        3
 72
     0
 73
     1
 93
        4
 10
3660.2601228110361
 20
7264.9927043167199
 10
194.05952777781735
 20
95.372809891397807
 10
344.05952777781141
 20
750.2611157024927
 10
3421.1314987528722
 20
7114.9927043167136
 97
        1
330
3D
 75
     0
 76
     1
 98
        0
  0
LINE
  5
3F
102
{ACAD_REACTORS
330
3B
102
}
100
AcDbEntity
  8
WALL
  6
CONTINUOUS
100
AcDbLine
 10
3660.260123
 20
7264.992704
 30
0.0
 11
194.059528
 21
95.37281
 31
0.0
  0
LINE
  5
40
102
{ACAD_REACTORS
330
3B
102
}
100
AcDbEntity
  8
WALL
  6
CONTINUOUS
100
AcDbLine
 10
3421.131499
 20
7114.992704
 30
0.0
 11
344.059528
 21
750.261116
 31
0.0
  0
LWPOLYLINE
  5
42
102
{ACAD_REACTORS
330
43
102
}
100
AcDbEntity
  8
WALL
  6
CONTINUOUS
100
AcDbPolyline
 90
        4
 70
     1
 10
194.059528
 20
95.37281
 10
194.059528
 20
7264.992704
 10
344.059528
 20
7114.992704
 10
344.059528
 20
750.261116
  0
HATCH
  5
43
102
{ACAD_REACTORS
330
41
102
}
100
AcDbEntity
  8
WALL
 62
   251
100
AcDbHatch
 10
0.0
 20
0.0
 30
0.0
210
0.0
220
0.0
230
1.0
  2
SOLID
 70
     1
 71
     1
 91
        1
 92
        3
 72
     0
 73
     1
 93
        4
 10
194.05952777777776
 20
95.372809891397623
 10
194.05952777777776
 20
7264.9927043166435
 10
344.05952777777776
 20
7114.992704316649
 10
344.05952777777776
 20
750.26111570251192
 97
        1
330
42
 75
     0
 76
     1
 98
        0
  0
LINE
  5
44
102
{ACAD_REACTORS
330
41
102
}
100
AcDbEntity
  8
WALL
  6
CONTINUOUS
100
AcDbLine
 10
194.059528
 20
95.37281
 30
0.0
 11
194.059528
 21
7264.992704
 31
0.0
  0
LINE
  5
45
102
{ACAD_REACTORS
330
41
102
}
100
AcDbEntity
  8
WALL
  6
CONTINUOUS
100
AcDbLine
 10
344.059528
 20
750.261116
 30
0.0
 11
344.059528
 21
7114.992704
 31
0.0
  0
LWPOLYLINE
  5
47
102
{ACAD_REACTORS
330
48
102
}
100
AcDbEntity
  8
WALL
  6
CONTINUOUS
100
AcDbPolyline
 90
        4
 70
     1
 10
194.059528
 20
7264.992704
 10
3660.260123
 20
7264.992704
 10
3421.131499
 20
7114.992704
 10
344.059528
 20
7114.992704
  0
HATCH
  5
48
102
{ACAD_REACTORS
330
46
102
}
100
AcDbEntity
  8
WALL
 62
   251
100
AcDbHatch
 10
0.0
 20
0.0
 30
0.0
210
0.0
220
0.0
230
1.0
  2
SOLID
 70
     1
 71
     1
 91
        1
 92
        3
 72
     0
 73
     1
 93
        4
 10
194.05952777779038
 20
7264.9927043166754
 10
3660.2601228110793
 20
7264.9927043166754
 10
3421.131498752914
 20
7114.9927043166745
 10
344.05952777778776
 20
7114.9927043166745
 97
        1
330
47
 75
     0
 76
     1
 98
        0
  0
LINE
  5
49
102
{ACAD_REACTORS
330
46
102
}
100
AcDbEntity
  8
WALL
  6
CONTINUOUS
100
AcDbLine
 10
194.059528
 20
7264.992704
 30
0.0
 11
3660.260123
 21
7264.992704
 31
0.0
  0
LINE
  5
4A
102
{ACAD_REACTORS
330
46
102
}
100
AcDbEntity
  8
WALL
  6
CONTINUOUS
100
AcDbLine
 10
344.059528
 20
7114.992704
 30
0.0
 11
3421.131499
 21
7114.992704
 31
0.0
  0
LWPOLYLINE
  5
4C
102
{ACAD_REACTORS
330
4D
102
}
100
AcDbEntity
  8
MOUNTABLE
  6
CONTINUOUS
100
AcDbPolyline
 90
        4
 70
     1
 10
3010.726194
 20
6196.391071
 10
3510.726194
 20
6196.391071
 10
3510.726194
 20
6740.120238
 10
3010.726194
 20
6740.120238
  0
HATCH
  5
4D
100
AcDbEntity
  8
MOUNTABLE
 62
   251
100
AcDbHatch
 10
0.0
 20
0.0
 30
0.0
210
0.0
220
0.0
230
1.0
  2
SOLID
 70
     1
 71
     1
 91
        1
 92
        3
 72
     0
 73
     1
 93
        4
 10
3010.7261944444153
 20
6196.3910714285466
 10
3510.7261944444149
 20
6196.3910714285466
 10
3510.7261944444149
 20
6740.1202380952136
 10
3010.7261944444153
 20
6740.1202380952136
 97
        1
330
4C
 75
     0
 76
     1
 98
        0
  0
LWPOLYLINE
  5
4F
102
{ACAD_REACTORS
330
50
102
}
100
AcDbEntity
  8
OCCUPIED
  6
CONTINUOUS
100
AcDbPolyline
 90
        4
 70
     1
 10
1435.726194
 20
2000.29399
 10
2135.726194
 20
2000.29399
 10
2135.726194
 20
3400.29399
 10
1435.726194
 20
3400.29399
  0
HATCH
  5
50
100
AcDbEntity
  8
OCCUPIED
 62
   254
100
AcDbHatch
 10
0.0
 20
0.0
 30
0.0
210
0.0
220
0.0
230
1.0
  2
SOLID
 70
     1
 71
     1
 91
        1
 92
        3
 72
     0
 73
     1
 93
        4
 10
1435.7261943214812
 20
2000.2939901776622
 10
2135.7261943214812
 20
2000.2939901776622
 10
2135.7261943214812
 20
3400.2939901776617
 10
1435.7261943214812
 20
3400.2939901776617
 97
        1
330
4F
 75
     0
 76
     1
 98
        0
  0
LWPOLYLINE
  5
51
102
{ACAD_REACTORS
330
52
102
}
100
AcDbEntity
  8
OCCUPIED
  6
CONTINUOUS
100
AcDbPolyline
 90
        4
 70
     1
 10
2135.726194
 20
3400.29399
 10
2835.726194
 20
3400.29399
 10
2835.726194
 20
4800.29399
 10
2135.726194
 20
4800.29399
  0
HATCH
  5
52
100
AcDbEntity
  8
OCCUPIED
 62
   254
100
AcDbHatch
 10
0.0
 20
0.0
 30
0.0
210
0.0
220
0.0
230
1.0
  2
SOLID
 70
     1
 71
     1
 91
        1
 92
        3
 72
     0
 73
     1
 93
        4
 10
2135.7261943214799
 20
3400.2939901776626
 10
2835.7261943214799
 20
3400.2939901776626
 10
2835.7261943214799
 20
4800.2939901776626
 10
2135.7261943214799
 20
4800.2939901776626
 97
        1
330
51
 75
     0
 76
     1
 98
        0
  0
LWPOLYLINE
  5
53
102
{ACAD_REACTORS
330
54
102
}
100
AcDbEntity
  8
OCCUPIED
  6
CONTINUOUS
100
AcDbPolyline
 90
        4
 70
     1
 10
1435.726194
 20
3400.29399
 10
2135.726194
 20
3400.29399
 10
2135.726194
 20
4800.29399
 10
1435.726194
 20
4800.29399
  0
HATCH
  5
54
100
AcDbEntity
  8
OCCUPIED
 62
   254
100
AcDbHatch
 10
0.0
 20
0.0
 30
0.0
210
0.0
220
0.0
230
1.0
  2
SOLID
 70
     1
 71
     1
 91
        1
 92
        3
 72
     0
 73
     1
 93
        4
 10
1435.7261943214812
 20
3400.2939901776626
 10
2135.7261943214812
 20
3400.2939901776626
 10
2135.7261943214812
 20
4800.2939901776626
 10
1435.7261943214812
 20
4800.2939901776626
 97
        1
330
53
 75
     0
 76
     1
 98
        0
  0
LWPOLYLINE
  5
56
102
{ACAD_REACTORS
330
55
102
}
100
AcDbEntity
  8
OCCUPIED
  6
CONTINUOUS
100
AcDbPolyline
 90
        4
 70
     0
 10
439.059528
 20
6390.120238
 10
439.059528
 20
6935.120238
 10
2849.059528
 20
6935.120238
 10
2849.059528
 20
6390.120238
  0
LWPOLYLINE
  5
57
102
{ACAD_REACTORS
330
58
102
}
100
AcDbEntity
  8
OCCUPIED
  6
CONTINUOUS
100
AcDbPolyline
 90
        4
 70
     1
 10
414.059528
 20
6960.120238
 10
414.059528
 20
6390.120238
 10
2874.059528
 20
6390.120238
 10
2874.059528
 20
6960.120238
  0
HATCH
  5
58
102
{ACAD_REACTORS
330
55
102
}
100
AcDbEntity
  8
OCCUPIED
 62
   254
100
AcDbHatch
 10
0.0
 20
0.0
 30
0.0
210
0.0
220
0.0
230
1.0
  2
SOLID
 70
     1
 71
     1
 91
        1
 92
        3
 72
     0
 73
     1
 93
        4
 10
414.05952777778197
 20
6960.1202383472473
 10
414.05952777778197
 20
6390.1202383472482
 10
2874.0595277777816
 20
6390.1202383472482
 10
2874.0595277777816
 20
6960.1202383472473
 97
        1
330
57
 75
     0
 76
     1
 98
        0
  0
LWPOLYLINE
  5
5A
102
{ACAD_REACTORS
330
60
102
}
100
AcDbEntity
  8
OBSTACLE
  6
CONTINUOUS
100
AcDbPolyline
 90
        4
 70
     1
 10
354.059528
 20
7113.722704
 10
1519.059528
 20
7113.722704
 10
1519.059528
 20
7266.262704
 10
354.059528
 20
7266.262704
  0
LINE
  5
5B
102
{ACAD_REACTORS
330
60
102
}
100
AcDbEntity
  8
OBSTACLE
  6
CONTINUOUS
100
AcDbLine
 10
354.059528
 20
7114.992704
 30
0.0
 11
354.059528
 21
7264.992704
 31
0.0
  0
LINE
  5
5C
102
{ACAD_REACTORS
330
60
102
}
100
AcDbEntity
  8
OBSTACLE
  6
CONTINUOUS
100
AcDbLine
 10
354.059528
 20
7264.992704
 30
0.0
 11
404.059528
 21
7264.992704
 31
0.0
  0
LINE
  5
5D
102
{ACAD_REACTORS
330
60
102
}
100
AcDbEntity
  8
OBSTACLE
  6
CONTINUOUS
100
AcDbLine
 10
404.059528
 20
7264.992704
 30
0.0
 11
404.059528
 21
7214.992704
 31
0.0
  0
LINE
  5
5E
102
{ACAD_REACTORS
330
60
102
}
100
AcDbEntity
  8
OBSTACLE
  6
CONTINUOUS
100
AcDbLine
 10
404.059528
 20
7164.992704
 30
0.0
 11
404.059528
 21
7114.992704
 31
0.0
  0
LINE
  5
5F
102
{ACAD_REACTORS
330
60
102
}
100
AcDbEntity
  8
OBSTACLE
  6
CONTINUOUS
100
AcDbLine
 10
404.059528
 20
7114.992704
 30
0.0
 11
354.059528
 21
7114.992704
 31
0.0
  0
HATCH
  5
60
102
{ACAD_REACTORS
330
59
102
}
100
AcDbEntity
  8
OBSTACLE
 62
    49
100
AcDbHatch
 10
0.0
 20
0.0
 30
0.0
210
0.0
220
0.0
230
1.0
  2
SOLID
 70
     1
 71
     1
 91
        2
 92
        1
 93
        6
 72
     1
 10
354.0595277777565
 20
7114.9927043166563
 11
354.0595277777565
 21
7264.9927043166563
 72
     1
 10
354.0595277777565
 20
7264.9927043166563
 11
404.0595277777565
 21
7264.9927043166563
 72
     1
 10
404.0595277777565
 20
7264.9927043166563
 11
404.0595277777565
 21
7214.9927043166563
 72
     1
 10
404.0595277777565
 20
7214.9927043166563
 11
404.0595277777565
 21
7164.9927043166563
 72
     1
 10
404.0595277777565
 20
7164.9927043166563
 11
404.0595277777565
 21
7114.9927043166563
 72
     1
 10
404.0595277777565
 20
7114.9927043166563
 11
354.0595277777565
 21
7114.9927043166563
 97
        6
330
5A
330
5B
330
5C
330
5D
330
5E
330
5F
 92
        1
 93
        6
 72
     1
 10
1519.0595277777563
 20
7114.9927043166563
 11
1519.0595277777563
 21
7264.9927043166563
 72
     1
 10
1519.0595277777563
 20
7264.9927043166563
 11
1469.0595277777566
 21
7264.9927043166563
 72
     1
 10
1469.0595277777566
 20
7264.9927043166563
 11
1469.0595277777566
 21
7214.9927043166563
 72
     1
 10
1469.0595277777566
 20
7214.9927043166563
 11
1469.0595277777566
 21
7164.9927043166563
 72
     1
 10
1469.0595277777566
 20
7164.9927043166563
 11
1469.0595277777566
 21
7114.9927043166563
 72
     1
 10
1469.0595277777566
 20
7114.9927043166563
 11
1519.0595277777563
 21
7114.9927043166563
 97
        5
330
61
330
62
330
63
330
64
330
65
 75
     0
 76
     1
 98
        0
  0
LINE
  5
61
102
{ACAD_REACTORS
330
60
102
}
100
AcDbEntity
  8
OBSTACLE
  6
CONTINUOUS
100
AcDbLine
 10
1519.059528
 20
7114.992704
 30
0.0
 11
1519.059528
 21
7264.992704
 31
0.0
  0
LINE
  5
62
102
{ACAD_REACTORS
330
60
102
}
100
AcDbEntity
  8
OBSTACLE
  6
CONTINUOUS
100
AcDbLine
 10
1519.059528
 20
7264.992704
 30
0.0
 11
1469.059528
 21
7264.992704
 31
0.0
  0
LINE
  5
63
102
{ACAD_REACTORS
330
60
102
}
100
AcDbEntity
  8
OBSTACLE
  6
CONTINUOUS
100
AcDbLine
 10
1469.059528
 20
7264.992704
 30
0.0
 11
1469.059528
 21
7214.992704
 31
0.0
  0
LINE
  5
64
102
{ACAD_REACTORS
330
60
102
}
100
AcDbEntity
  8
OBSTACLE
  6
CONTINUOUS
100
AcDbLine
 10
1469.059528
 20
7164.992704
 30
0.0
 11
1469.059528
 21
7114.992704
 31
0.0
  0
LINE
  5
65
102
{ACAD_REACTORS
330
60
102
}
100
AcDbEntity
  8
OBSTACLE
  6
CONTINUOUS
100
AcDbLine
 10
1469.059528
 20
7114.992704
 30
0.0
 11
1519.059528
 21
7114.992704
 31
0.0
  0
LWPOLYLINE
  5
66
102
{ACAD_REACTORS
330
67
102
}
100
AcDbEntity
  8
OBSTACLE
  6
CONTINUOUS
100
AcDbPolyline
 90
        4
 70
     1
 10
404.059528
 20
7214.992704
 10
454.059528
 20
7214.992704
 10
454.059528
 20
7164.992704
 10
404.059528
 20
7164.992704
  0
HATCH
  5
67
102
{ACAD_REACTORS
330
59
102
}
100
AcDbEntity
  8
OBSTACLE
 62
    49
100
AcDbHatch
 10
0.0
 20
0.0
 30
0.0
210
0.0
220
0.0
230
1.0
  2
SOLID
 70
     1
 71
     1
 91
        2
 92
        3
 72
     0
 73
     1
 93
        4
 10
404.05952777775644
 20
7214.9927043166563
 10
454.05952777775644
 20
7214.9927043166563
 10
454.05952777775644
 20
7164.9927043166563
 10
404.05952777775644
 20
7164.9927043166563
 97
        1
330
66
 92
        3
 72
     0
 73
     1
 93
        4
 10
1469.0595277777563
 20
7214.9927043166563
 10
1419.0595277777561
 20
7214.9927043166563
 10
1419.0595277777561
 20
7164.9927043166563
 10
1469.0595277777563
 20
7164.9927043166563
 97
        1
330
68
 75
     0
 76
     1
 98
        0
  0
LWPOLYLINE
  5
68
102
{ACAD_REACTORS
330
67
102
}
100
AcDbEntity
  8
OBSTACLE
  6
CONTINUOUS
100
AcDbPolyline
 90
        4
 70
     1
 10
1469.059528
 20
7214.992704
 10
1419.059528
 20
7214.992704
 10
1419.059528
 20
7164.992704
 10
1469.059528
 20
7164.992704
  0
LINE
  5
69
102
{ACAD_REACTORS
330
59
102
}
100
AcDbEntity
  8
OBSTACLE
  6
CONTINUOUS
100
AcDbLine
 10
454.059528
 20
7189.992704
 30
0.0
 11
1419.059528
 21
7189.992704
 31
0.0
  0
LINE
  5
6A
102
{ACAD_REACTORS
330
59
102
}
100
AcDbEntity
  8
OBSTACLE
  6
CONTINUOUS
100
AcDbLine
 10
354.059528
 20
7114.992704
 30
0.0
 11
354.059528
 21
7264.992704
 31
0.0
  0
LINE
  5
6B
102
{ACAD_REACTORS
330
59
102
}
100
AcDbEntity
  8
OBSTACLE
  6
CONTINUOUS
100
AcDbLine
 10
1519.059528
 20
7114.992704
 30
0.0
 11
1519.059528
 21
7264.992704
 31
0.0
  0
LWPOLYLINE
  5
6D
102
{ACAD_REACTORS
330
73
102
}
100
AcDbEntity
  8
OBSTACLE
  6
CONTINUOUS
100
AcDbPolyline
 90
        4
 70
     1
 10
2694.059528
 20
7113.722704
 10
3859.059528
 20
7113.722704
 10
3859.059528
 20
7266.262704
 10
2694.059528
 20
7266.262704
  0
LINE
  5
6E
102
{ACAD_REACTORS
330
73
102
}
100
AcDbEntity
  8
OBSTACLE
  6
CONTINUOUS
100
AcDbLine
 10
2694.059528
 20
7114.992704
 30
0.0
 11
2694.059528
 21
7264.992704
 31
0.0
  0
LINE
  5
6F
102
{ACAD_REACTORS
330
73
102
}
100
AcDbEntity
  8
OBSTACLE
  6
CONTINUOUS
100
AcDbLine
 10
2694.059528
 20
7264.992704
 30
0.0
 11
2744.059528
 21
7264.992704
 31
0.0
  0
LINE
  5
70
102
{ACAD_REACTORS
330
73
102
}
100
AcDbEntity
  8
OBSTACLE
  6
CONTINUOUS
100
AcDbLine
 10
2744.059528
 20
7264.992704
 30
0.0
 11
2744.059528
 21
7214.992704
 31
0.0
  0
LINE
  5
71
102
{ACAD_REACTORS
330
73
102
}
100
AcDbEntity
  8
OBSTACLE
  6
CONTINUOUS
100
AcDbLine
 10
2744.059528
 20
7164.992704
 30
0.0
 11
2744.059528
 21
7114.992704
 31
0.0
  0
LINE
  5
72
102
{ACAD_REACTORS
330
73
102
}
100
AcDbEntity
  8
OBSTACLE
  6
CONTINUOUS
100
AcDbLine
 10
2744.059528
 20
7114.992704
 30
0.0
 11
2694.059528
 21
7114.992704
 31
0.0
  0
HATCH
  5
73
102
{ACAD_REACTORS
330
6C
102
}
100
AcDbEntity
  8
OBSTACLE
 62
    49
100
AcDbHatch
 10
0.0
 20
0.0
 30
0.0
210
0.0
220
0.0
230
1.0
  2
SOLID
 70
     1
 71
     1
 91
        2
 92
        1
 93
        6
 72
     1
 10
2694.0595277777666
 20
7114.9927043166945
 11
2694.0595277777666
 21
7264.9927043166954
 72
     1
 10
2694.0595277777666
 20
7264.9927043166954
 11
2744.0595277777666
 21
7264.9927043166954
 72
     1
 10
2744.0595277777666
 20
7264.9927043166954
 11
2744.0595277777666
 21
7214.9927043166954
 72
     1
 10
2744.0595277777666
 20
7214.9927043166954
 11
2744.0595277777666
 21
7164.9927043166954
 72
     1
 10
2744.0595277777666
 20
7164.9927043166954
 11
2744.0595277777666
 21
7114.9927043166945
 72
     1
 10
2744.0595277777666
 20
7114.9927043166945
 11
2694.0595277777666
 21
7114.9927043166945
 97
        6
330
6D
330
6E
330
6F
330
70
330
71
330
72
 92
        1
 93
        6
 72
     1
 10
3859.059527777767
 20
7114.9927043166945
 11
3859.059527777767
 21
7264.9927043166954
 72
     1
 10
3859.059527777767
 20
7264.9927043166954
 11
3809.059527777767
 21
7264.9927043166954
 72
     1
 10
3809.059527777767
 20
7264.9927043166954
 11
3809.059527777767
 21
7214.9927043166954
 72
     1
 10
3809.059527777767
 20
7214.9927043166954
 11
3809.059527777767
 21
7164.9927043166954
 72
     1
 10
3809.059527777767
 20
7164.9927043166954
 11
3809.059527777767
 21
7114.9927043166945
 72
     1
 10
3809.059527777767
 20
7114.9927043166945
 11
3859.059527777767
 21
7114.9927043166945
 97
        5
330
74
330
75
330
76
330
77
330
78
 75
     0
 76
     1
 98
        0
  0
LINE
  5
74
102
{ACAD_REACTORS
330
73
102
}
100
AcDbEntity
  8
OBSTACLE
  6
CONTINUOUS
100
AcDbLine
 10
3859.059528
 20
7114.992704
 30
0.0
 11
3859.059528
 21
7264.992704
 31
0.0
  0
LINE
  5
75
102
{ACAD_REACTORS
330
73
102
}
100
AcDbEntity
  8
OBSTACLE
  6
CONTINUOUS
100
AcDbLine
 10
3859.059528
 20
7264.992704
 30
0.0
 11
3809.059528
 21
7264.992704
 31
0.0
  0
LINE
  5
76
102
{ACAD_REACTORS
330
73
102
}
100
AcDbEntity
  8
OBSTACLE
  6
CONTINUOUS
100
AcDbLine
 10
3809.059528
 20
7264.992704
 30
0.0
 11
3809.059528
 21
7214.992704
 31
0.0
  0
LINE
  5
77
102
{ACAD_REACTORS
330
73
102
}
100
AcDbEntity
  8
OBSTACLE
  6
CONTINUOUS
100
AcDbLine
 10
3809.059528
 20
7164.992704
 30
0.0
 11
3809.059528
 21
7114.992704
 31
0.0
  0
LINE
  5
78
102
{ACAD_REACTORS
330
73
102
}
100
AcDbEntity
  8
OBSTACLE
  6
CONTINUOUS
100
AcDbLine
 10
3809.059528
 20
7114.992704
 30
0.0
 11
3859.059528
 21
7114.992704
 31
0.0
  0
LWPOLYLINE
  5
79
102
{ACAD_REACTORS
330
7A
102
}
100
AcDbEntity
  8
OBSTACLE
  6
CONTINUOUS
100
AcDbPolyline
 90
        4
 70
     1
 10
2744.059528
 20
7214.992704
 10
2794.059528
 20
7214.992704
 10
2794.059528
 20
7164.992704
 10
2744.059528
 20
7164.992704
  0
HATCH
  5
7A
102
{ACAD_REACTORS
330
6C
102
}
100
AcDbEntity
  8
OBSTACLE
 62
    49
100
AcDbHatch
 10
0.0
 20
0.0
 30
0.0
210
0.0
220
0.0
230
1.0
  2
SOLID
 70
     1
 71
     1
 91
        2
 92
        3
 72
     0
 73
     1
 93
        4
 10
2744.0595277777666
 20
7214.9927043166954
 10
2794.0595277777666
 20
7214.9927043166954
 10
2794.0595277777666
 20
7164.9927043166954
 10
2744.0595277777666
 20
7164.9927043166954
 97
        1
330
79
 92
        3
 72
     0
 73
     1
 93
        4
 10
3809.059527777767
 20
7214.9927043166954
 10
3759.0595277777666
 20
7214.9927043166954
 10
3759.0595277777666
 20
7164.9927043166954
 10
3809.059527777767
 20
7164.9927043166954
 97
        1
330
7B
 75
     0
 76
     1
 98
        0
  0
LWPOLYLINE
  5
7B
102
{ACAD_REACTORS
330
7A
102
}
100
AcDbEntity
  8
OBSTACLE
  6
CONTINUOUS
100
AcDbPolyline
 90
        4
 70
     1
 10
3809.059528
 20
7214.992704
 10
3759.059528
 20
7214.992704
 10
3759.059528
 20
7164.992704
 10
3809.059528
 20
7164.992704
  0
LINE
  5
7C
102
{ACAD_REACTORS
330
6C
102
}
100
AcDbEntity
  8
OBSTACLE
  6
CONTINUOUS
100
AcDbLine
 10
2794.059528
 20
7189.992704
 30
0.0
 11
3759.059528
 21
7189.992704
 31
0.0
  0
LINE
  5
7D
102
{ACAD_REACTORS
330
6C
102
}
100
AcDbEntity
  8
OBSTACLE
  6
CONTINUOUS
100
AcDbLine
 10
2694.059528
 20
7114.992704
 30
0.0
 11
2694.059528
 21
7264.992704
 31
0.0
  0
LINE
  5
7E
102
{ACAD_REACTORS
330
6C
102
}
100
AcDbEntity
  8
OBSTACLE
  6
CONTINUOUS
100
AcDbLine
 10
3859.059528
 20
7114.992704
 30
0.0
 11
3859.059528
 21
7264.992704
 31
0.0
  0
LWPOLYLINE
  5
80
102
{ACAD_REACTORS
330
86
102
}
100
AcDbEntity
  8
OBSTACLE
  6
CONTINUOUS
100
AcDbPolyline
 90
        4
 70
     1
 10
1529.059528
 20
7113.722704
 10
2694.059528
 20
7113.722704
 10
2694.059528
 20
7266.262704
 10
1529.059528
 20
7266.262704
  0
LINE
  5
81
102
{ACAD_REACTORS
330
86
102
}
100
AcDbEntity
  8
OBSTACLE
  6
CONTINUOUS
100
AcDbLine
 10
1529.059528
 20
7114.992704
 30
0.0
 11
1529.059528
 21
7264.992704
 31
0.0
  0
LINE
  5
82
102
{ACAD_REACTORS
330
86
102
}
100
AcDbEntity
  8
OBSTACLE
  6
CONTINUOUS
100
AcDbLine
 10
1529.059528
 20
7264.992704
 30
0.0
 11
1579.059528
 21
7264.992704
 31
0.0
  0
LINE
  5
83
102
{ACAD_REACTORS
330
86
102
}
100
AcDbEntity
  8
OBSTACLE
  6
CONTINUOUS
100
AcDbLine
 10
1579.059528
 20
7264.992704
 30
0.0
 11
1579.059528
 21
7214.992704
 31
0.0
  0
LINE
  5
84
102
{ACAD_REACTORS
330
86
102
}
100
AcDbEntity
  8
OBSTACLE
  6
CONTINUOUS
100
AcDbLine
 10
1579.059528
 20
7164.992704
 30
0.0
 11
1579.059528
 21
7114.992704
 31
0.0
  0
LINE
  5
85
102
{ACAD_REACTORS
330
86
102
}
100
AcDbEntity
  8
OBSTACLE
  6
CONTINUOUS
100
AcDbLine
 10
1579.059528
 20
7114.992704
 30
0.0
 11
1529.059528
 21
7114.992704
 31
0.0
  0
HATCH
  5
86
102
{ACAD_REACTORS
330
7F
102
}
100
AcDbEntity
  8
OBSTACLE
 62
    49
100
AcDbHatch
 10
0.0
 20
0.0
 30
0.0
210
0.0
220
0.0
230
1.0
  2
SOLID
 70
     1
 71
     1
 91
        2
 92
        1
 93
        6
 72
     1
 10
1529.0595277777811
 20
7114.9927043166763
 11
1529.0595277777811
 21
7264.9927043166763
 72
     1
 10
1529.0595277777811
 20
7264.9927043166763
 11
1579.0595277777811
 21
7264.9927043166763
 72
     1
 10
1579.0595277777811
 20
7264.9927043166763
 11
1579.0595277777811
 21
7214.9927043166763
 72
     1
 10
1579.0595277777811
 20
7214.9927043166763
 11
1579.0595277777811
 21
7164.9927043166763
 72
     1
 10
1579.0595277777811
 20
7164.9927043166763
 11
1579.0595277777811
 21
7114.9927043166763
 72
     1
 10
1579.0595277777811
 20
7114.9927043166763
 11
1529.0595277777811
 21
7114.9927043166763
 97
        6
330
80
330
81
330
82
330
83
330
84
330
85
 92
        1
 93
        6
 72
     1
 10
2694.0595277777811
 20
7114.9927043166763
 11
2694.0595277777811
 21
7264.9927043166763
 72
     1
 10
2694.0595277777811
 20
7264.9927043166763
 11
2644.0595277777816
 21
7264.9927043166763
 72
     1
 10
2644.0595277777816
 20
7264.9927043166763
 11
2644.0595277777816
 21
7214.9927043166763
 72
     1
 10
2644.0595277777816
 20
7214.9927043166763
 11
2644.0595277777816
 21
7164.9927043166763
 72
     1
 10
2644.0595277777816
 20
7164.9927043166763
 11
2644.0595277777816
 21
7114.9927043166763
 72
     1
 10
2644.0595277777816
 20
7114.9927043166763
 11
2694.0595277777811
 21
7114.9927043166763
 97
        5
330
87
330
88
330
89
330
8A
330
8B
 75
     0
 76
     1
 98
        0
  0
LINE
  5
87
102
{ACAD_REACTORS
330
86
102
}
100
AcDbEntity
  8
OBSTACLE
  6
CONTINUOUS
100
AcDbLine
 10
2694.059528
 20
7114.992704
 30
0.0
 11
2694.059528
 21
7264.992704
 31
0.0
  0
LINE
  5
88
102
{ACAD_REACTORS
330
86
102
}
100
AcDbEntity
  8
OBSTACLE
  6
CONTINUOUS
100
AcDbLine
 10
2694.059528
 20
7264.992704
 30
0.0
 11
2644.059528
 21
7264.992704
 31
0.0
  0
LINE
  5
89
102
{ACAD_REACTORS
330
86
102
}
100
AcDbEntity
  8
OBSTACLE
  6
CONTINUOUS
100
AcDbLine
 10
2644.059528
 20
7264.992704
 30
0.0
 11
2644.059528
 21
7214.992704
 31
0.0
  0
LINE
  5
8A
102
{ACAD_REACTORS
330
86
102
}
100
AcDbEntity
  8
OBSTACLE
  6
CONTINUOUS
100
AcDbLine
 10
2644.059528
 20
7164.992704
 30
0.0
 11
2644.059528
 21
7114.992704
 31
0.0
  0
LINE
  5
8B
102
{ACAD_REACTORS
330
86
102
}
100
AcDbEntity
  8
OBSTACLE
  6
CONTINUOUS
100
AcDbLine
 10
2644.059528
 20
7114.992704
 30
0.0
 11
2694.059528
 21
7114.992704
 31
0.0
  0
LWPOLYLINE
  5
8C
102
{ACAD_REACTORS
330
8D
102
}
100
AcDbEntity
  8
OBSTACLE
  6
CONTINUOUS
100
AcDbPolyline
 90
        4
 70
     1
 10
1579.059528
 20
7214.992704
 10
1629.059528
 20
7214.992704
 10
1629.059528
 20
7164.992704
 10
1579.059528
 20
7164.992704
  0
HATCH
  5
8D
102
{ACAD_REACTORS
330
7F
102
}
100
AcDbEntity
  8
OBSTACLE
 62
    49
100
AcDbHatch
 10
0.0
 20
0.0
 30
0.0
210
0.0
220
0.0
230
1.0
  2
SOLID
 70
     1
 71
     1
 91
        2
 92
        3
 72
     0
 73
     1
 93
        4
 10
1579.0595277777811
 20
7214.9927043166763
 10
1629.0595277777811
 20
7214.9927043166763
 10
1629.0595277777811
 20
7164.9927043166763
 10
1579.0595277777811
 20
7164.9927043166763
 97
        1
330
8C
 92
        3
 72
     0
 73
     1
 93
        4
 10
2644.0595277777811
 20
7214.9927043166763
 10
2594.0595277777807
 20
7214.9927043166763
 10
2594.0595277777807
 20
7164.9927043166763
 10
2644.0595277777811
 20
7164.9927043166763
 97
        1
330
8E
 75
     0
 76
     1
 98
        0
  0
LWPOLYLINE
  5
8E
102
{ACAD_REACTORS
330
8D
102
}
100
AcDbEntity
  8
OBSTACLE
  6
CONTINUOUS
100
AcDbPolyline
 90
        4
 70
     1
 10
2644.059528
 20
7214.992704
 10
2594.059528
 20
7214.992704
 10
2594.059528
 20
7164.992704
 10
2644.059528
 20
7164.992704
  0
LINE
  5
8F
102
{ACAD_REACTORS
330
7F
102
}
100
AcDbEntity
  8
OBSTACLE
  6
CONTINUOUS
100
AcDbLine
 10
1629.059528
 20
7189.992704
 30
0.0
 11
2594.059528
 21
7189.992704
 31
0.0
  0
LINE
  5
90
102
{ACAD_REACTORS
330
7F
102
}
100
AcDbEntity
  8
OBSTACLE
  6
CONTINUOUS
100
AcDbLine
 10
1529.059528
 20
7114.992704
 30
0.0
 11
1529.059528
 21
7264.992704
 31
0.0
  0
LINE
  5
91
102
{ACAD_REACTORS
330
7F
102
}
100
AcDbEntity
  8
OBSTACLE
  6
CONTINUOUS
100
AcDbLine
 10
2694.059528
 20
7114.992704
 30
0.0
 11
2694.059528
 21
7264.992704
 31
0.0
  0
ENDSEC
  0
SECTION
  2
OBJECTS
  0
DICTIONARY
  5
C
100
AcDbDictionary
  3
ACAD_GROUP
350
D
  3
ACAD_MLINESTYLE
350
1B
  0
DICTIONARY
  5
D
102
{ACAD_REACTORS
330
C
102
}
100
AcDbDictionary
  3
VISIOGROUP_0
350
31
  3
VISIOGROUP_1
350
3B
  3
VISIOGROUP_2
350
41
  3
VISIOGROUP_3
350
46
  3
VISIOGROUP_4
350
55
  3
VISIOGROUP_5
350
59
  3
VISIOGROUP_6
350
6C
  3
VISIOGROUP_7
350
7F
  0
DICTIONARY
  5
1B
102
{ACAD_REACTORS
330
C
102
}
100
AcDbDictionary
  3
STANDARD
350
1C
  0
MLINESTYLE
  5
1C
102
{ACAD_REACTORS
330
1B
102
}
100
AcDbMlineStyle
  2
STANDARD
 70
     0
  3

 62
   256
 51
90.0
 52
90.0
 71
     2
 49
0.5
 62
   256
  6
BYLAYER
 49
-0.5
 62
   256
  6
BYLAYER
  0
DICTIONARY
  5
29
102
{ACAD_REACTORS
330
C
102
}
100
AcDbDictionary
  3
MODEL
350
2A
  3
LAYOUT1
350
2B
  0
DICTIONARY
  5
2C
102
{ACAD_REACTORS
330
C
102
}
100
AcDbDictionary
  0
GROUP
  5
31
102
{ACAD_REACTORS
330
D
102
}
100
AcDbGroup
300
Group created by Visio.
 70
     0
 71
     1
340
33
340
35
340
36
340
37
340
38
340
34
340
39
340
3A
  0
GROUP
  5
3B
102
{ACAD_REACTORS
330
D
102
}
100
AcDbGroup
300
Group created by Visio.
 70
     0
 71
     1
340
3D
340
3E
340
3F
340
40
  0
GROUP
  5
41
102
{ACAD_REACTORS
330
D
102
}
100
AcDbGroup
300
Group created by Visio.
 70
     0
 71
     1
340
42
340
43
340
44
340
45
  0
GROUP
  5
46
102
{ACAD_REACTORS
330
D
102
}
100
AcDbGroup
300
Group created by Visio.
 70
     0
 71
     1
340
47
340
48
340
49
340
4A
  0
GROUP
  5
55
102
{ACAD_REACTORS
330
D
102
}
100
AcDbGroup
300
Group created by Visio.
 70
     0
 71
     1
340
56
340
57
340
58
  0
GROUP
  5
59
102
{ACAD_REACTORS
330
D
102
}
100
AcDbGroup
300
Group created by Visio.
 70
     0
 71
     1
340
5A
340
5B
340
5C
340
5D
340
5E
340
5F
340
61
340
62
340
63
340
64
340
65
340
60
340
66
340
68
340
67
340
69
340
6A
340
6B
  0
GROUP
  5
6C
102
{ACAD_REACTORS
330
D
102
}
100
AcDbGroup
300
Group created by Visio.
 70
     0
 71
     1
340
6D
340
6E
340
6F
340
70
340
71
340
72
340
74
340
75
340
76
340
77
340
78
340
73
340
79
340
7B
340
7A
340
7C
340
7D
340
7E
  0
GROUP
  5
7F
102
{ACAD_REACTORS
330
D
102
}
100
AcDbGroup
300
Group created by Visio.
 70
     0
 71
     1
340
80
340
81
340
82
340
83
340
84
340
85
340
87
340
88
340
89
340
8A
340
8B
340
86
340
8C
340
8E
340
8D
340
8F
340
90
340
91
  0
ENDSEC
  0
EOF
